<?xml version="1.0" encoding="utf-8" standalone="no"?>
<!DOCTYPE svg PUBLIC "-//W3C//DTD SVG 1.1//EN"
  "http://www.w3.org/Graphics/SVG/1.1/DTD/svg11.dtd">
<!-- Created with matplotlib (https://matplotlib.org/) -->
<svg height="1055.52pt" version="1.1" viewBox="0 0 1080 1055.52" width="1080pt" xmlns="http://www.w3.org/2000/svg" xmlns:xlink="http://www.w3.org/1999/xlink">
 <defs>
  <style type="text/css">
*{stroke-linecap:butt;stroke-linejoin:round;}
  </style>
 </defs>
 <g id="figure_1">
  <g id="patch_1">
   <path d="M 0 1055.52 
L 1080 1055.52 
L 1080 0 
L 0 0 
z
" style="fill:none;"/>
  </g>
  <g id="axes_1">
   <g id="patch_2">
    <path d="M 135 939.4128 
L 972 939.4128 
L 972 126.6624 
L 135 126.6624 
z
" style="fill:none;"/>
   </g>
   <g id="line2d_1">
    <path clip-path="url(#p9a6e48e742)" d="M 291.265613 273.393151 
L 312.264886 289.06894 
L 328.212075 301.243712 
L 341.55011 311.675834 
L 354.180004 321.826549 
L 366.178446 331.778003 
L 376.21938 340.386648 
L 385.886947 348.960663 
L 395.232521 357.555079 
L 404.307477 366.224929 
L 413.163189 375.025245 
L 421.851032 384.011062 
L 430.42238 393.23741 
L 438.928609 402.759323 
L 447.421093 412.631834 
L 455.951206 422.909974 
L 464.570323 433.648778 
L 473.329817 444.90327 
L 483.57853 458.467896 
L 513.190243 498.173943 
L 520.132665 506.96463 
L 525.721758 513.751979 
L 531.334085 520.253179 
L 536.962246 526.405283 
L 541.189306 530.7524 
L 545.41799 534.841186 
L 549.645176 538.645086 
L 553.867741 542.137545 
L 558.082565 545.292005 
L 562.286526 548.081912 
L 565.081589 549.726207 
L 567.869513 551.188806 
L 570.649372 552.461839 
L 573.420238 553.537453 
L 576.181193 554.407752 
L 578.931317 555.064847 
L 581.669623 555.501104 
L 584.395336 555.708099 
L 587.10696 555.680059 
L 589.800317 555.421019 
L 592.47026 554.938572 
L 595.111402 554.241184 
L 597.718481 553.336858 
L 600.286216 552.23368 
L 602.809314 550.939769 
L 605.28249 549.463219 
L 607.700456 547.812127 
L 610.057928 545.994595 
L 612.349616 544.01872 
L 614.570236 541.892603 
L 616.714501 539.624342 
L 618.777123 537.222036 
L 621.706412 533.38496 
L 624.422268 529.291841 
L 626.906848 524.970014 
L 629.142311 520.446813 
L 631.110813 515.749573 
L 632.794511 510.905628 
L 634.175564 505.942312 
L 634.919319 502.580617 
L 635.515347 499.186117 
L 635.958363 495.76691 
L 636.24308 492.331096 
L 636.36421 488.886773 
L 636.316468 485.442042 
L 636.094566 482.005 
L 635.693219 478.583748 
L 635.107139 475.186384 
L 634.331039 471.821007 
L 633.359633 468.495717 
L 632.187636 465.218612 
L 630.809753 461.997796 
L 629.220712 458.841358 
L 627.415232 455.757393 
L 625.387922 452.754074 
L 623.133764 449.839312 
L 620.647345 447.021294 
L 617.92256 444.308692 
L 614.964402 441.702399 
L 611.786635 439.197159 
L 608.407132 436.784831 
L 604.843053 434.457779 
L 599.187969 431.11068 
L 593.213521 427.9129 
L 586.977378 424.838834 
L 578.355162 420.888229 
L 567.275723 416.102669 
L 547.295734 407.557495 
L 538.733796 403.64001 
L 532.560444 400.600442 
L 526.663851 397.445443 
L 521.101709 394.149393 
L 517.607909 391.861011 
L 514.305487 389.49096 
L 511.211545 387.031644 
L 508.343155 384.475485 
L 505.717419 381.814886 
L 503.351537 379.042173 
L 501.262244 376.150033 
L 499.467006 373.130585 
L 497.983897 369.975471 
L 496.822164 366.683227 
L 495.978355 363.262314 
L 495.437884 359.729888 
L 495.188081 356.101608 
L 495.216455 352.392994 
L 495.510093 348.619896 
L 496.056249 344.798033 
L 496.842166 340.943132 
L 497.855067 337.070937 
L 499.082184 333.197184 
L 500.51075 329.337609 
L 502.127995 325.507949 
L 503.92115 321.723941 
L 505.877448 318.001321 
L 507.984118 314.355829 
L 510.228392 310.8032 
L 512.597511 307.359153 
L 515.078673 304.039485 
L 517.659141 300.859875 
L 520.326262 297.835856 
L 523.066733 294.984116 
L 525.8689 292.318402 
L 528.724881 289.845693 
L 531.63214 287.563406 
L 534.58891 285.467573 
L 537.592838 283.555279 
L 540.641795 281.823209 
L 543.733639 280.268065 
L 546.866201 278.886606 
L 550.037325 277.675561 
L 553.244854 276.631664 
L 556.486629 275.751651 
L 559.760492 275.032258 
L 563.064286 274.470219 
L 566.395851 274.06227 
L 569.753031 273.805145 
L 574.832106 273.695111 
L 579.956674 273.906067 
L 585.119451 274.426993 
L 590.313154 275.246871 
L 595.5305 276.354682 
L 600.764205 277.739405 
L 606.006986 279.390022 
L 611.251559 281.295514 
L 616.490641 283.444862 
L 621.716949 285.827047 
L 626.923199 288.431048 
L 632.102108 291.245848 
L 637.246393 294.260427 
L 642.34877 297.463766 
L 647.401955 300.844846 
L 654.050427 305.610392 
L 660.581236 310.646212 
L 666.977118 315.92619 
L 673.220807 321.424204 
L 679.295 327.114053 
L 685.183922 332.972626 
L 690.877853 338.989033 
L 696.369037 345.156357 
L 701.649679 351.467592 
L 706.711981 357.915731 
L 711.548146 364.49377 
L 716.150377 371.194704 
L 720.510878 378.011529 
L 724.621852 384.937239 
L 728.475502 391.96483 
L 732.064031 399.087297 
L 735.379643 406.297636 
L 738.414541 413.588841 
L 740.501806 419.1061 
L 742.423495 424.661952 
L 744.176318 430.25344 
L 745.756985 435.877611 
L 747.162209 441.531508 
L 748.388699 447.212177 
L 749.433167 452.916663 
L 750.292322 458.642011 
L 750.962877 464.385265 
L 751.441541 470.14347 
L 751.725026 475.913672 
L 751.810041 481.692914 
L 751.693299 487.478243 
L 751.371509 493.266702 
L 750.841384 499.055337 
L 750.099626 504.841195 
L 749.142983 510.621306 
L 747.968169 516.392713 
L 746.576102 522.150654 
L 744.972535 527.888289 
L 743.163728 533.59856 
L 741.155879 539.274439 
L 738.9552 544.908886 
L 736.567901 550.494867 
L 734.000191 556.025346 
L 731.258281 561.493288 
L 728.34838 566.891656 
L 725.276698 572.213415 
L 722.049444 577.451529 
L 718.67283 582.598963 
L 715.153064 587.64868 
L 711.496356 592.593646 
L 707.708916 597.426823 
L 703.796954 602.141177 
L 699.76668 606.729672 
L 695.624303 611.185271 
L 691.376033 615.50094 
L 687.028081 619.669643 
L 682.586655 623.684343 
L 678.057967 627.538006 
L 673.448225 631.223595 
L 668.763639 634.734074 
L 664.010419 638.062408 
L 659.194776 641.201562 
L 654.322918 644.144498 
L 649.401056 646.884183 
L 644.435399 649.413579 
L 639.432157 651.725652 
L 634.397541 653.813365 
L 629.337759 655.669683 
L 624.259022 657.28757 
L 619.16754 658.65999 
L 614.069521 659.779909 
L 608.97118 660.640281 
L 603.878707 661.234119 
L 598.798391 661.554186 
L 593.735846 661.594979 
L 588.693536 661.359118 
L 583.671868 660.854521 
L 578.671391 660.088744 
L 573.692605 659.069465 
L 568.736023 657.804334 
L 563.802153 656.301004 
L 558.891506 654.567131 
L 554.004592 652.610369 
L 549.14192 650.438372 
L 544.304002 648.058795 
L 539.491346 645.479291 
L 534.704463 642.707516 
L 529.943863 639.751122 
L 523.638161 635.535312 
L 517.381299 631.023043 
L 511.174487 626.232459 
L 505.018932 621.181705 
L 498.915844 615.888924 
L 492.866431 610.372258 
L 486.871903 604.649853 
L 479.457765 597.235164 
L 472.133633 589.562792 
L 464.901869 581.668173 
L 456.349 571.951159 
L 447.93662 562.026373 
L 438.305181 550.266548 
L 428.876994 538.404508 
L 417.062085 523.16549 
L 404.27599 506.711372 
L 397.968985 498.915516 
L 392.945501 492.979798 
L 387.930013 487.368767 
L 382.911753 482.135189 
L 379.139762 478.48945 
L 375.35561 475.107969 
L 371.554757 472.013007 
L 367.73266 469.226823 
L 363.884774 466.771678 
L 360.006558 464.669832 
L 357.401987 463.475871 
L 354.78057 462.455422 
L 352.140963 461.615079 
L 349.481818 460.961438 
L 346.801789 460.501096 
L 344.099532 460.240645 
L 341.373698 460.186686 
L 338.622939 460.345819 
L 335.845935 460.724589 
L 333.041273 461.329721 
L 330.20764 462.167746 
L 327.3447 463.243316 
L 324.45697 464.55173 
L 321.551444 466.083517 
L 318.634843 467.829733 
L 315.713947 469.781317 
L 312.795556 471.929171 
L 309.886452 474.264234 
L 305.555055 478.098002 
L 301.282728 482.301961 
L 297.092375 486.845495 
L 293.006901 491.697988 
L 289.04921 496.828824 
L 285.242207 502.207387 
L 281.608795 507.803062 
L 278.171879 513.585231 
L 274.954363 519.523279 
L 271.979153 525.586589 
L 269.269151 531.744547 
L 266.847264 537.966533 
L 264.736387 544.22194 
L 262.959464 550.480121 
L 261.971618 554.638717 
L 261.149117 558.775903 
L 260.499231 562.882237 
L 260.026499 566.950363 
L 259.731379 570.976044 
L 259.609981 574.958357 
L 259.658817 578.89608 
L 259.874604 582.787828 
L 260.253877 586.632357 
L 260.793223 590.428383 
L 261.489235 594.174621 
L 262.338494 597.869789 
L 263.337584 601.512607 
L 264.483092 605.101792 
L 265.771603 608.636061 
L 267.1997 612.114134 
L 269.596102 617.223071 
L 272.287365 622.198354 
L 275.261964 627.035656 
L 278.508372 631.730653 
L 282.015065 636.279016 
L 285.770516 640.676421 
L 289.7632 644.918539 
L 293.98159 649.001046 
L 298.414162 652.919613 
L 303.049389 656.669916 
L 307.875744 660.247627 
L 312.881705 663.648419 
L 318.055738 666.867974 
L 323.386349 669.901924 
L 328.861698 672.746359 
L 334.457312 675.414153 
L 342.028105 678.764928 
L 366.246424 689.157908 
L 371.478625 691.694157 
L 376.479961 694.369678 
L 381.204424 697.225951 
L 384.177529 699.251036 
L 386.9935 701.387182 
L 389.638706 703.646683 
L 392.099515 706.041817 
L 394.362296 708.584894 
L 396.413413 711.288228 
L 398.239254 714.163922 
L 399.826148 717.224664 
L 401.160462 720.48275 
L 402.229181 723.944251 
L 403.022967 727.578152 
L 403.534882 731.329222 
L 403.757802 735.144089 
L 403.68464 738.969058 
L 403.308323 742.750219 
L 402.621763 746.433812 
L 401.617903 749.966095 
L 400.289616 753.293163 
L 398.629818 756.361214 
L 397.673504 757.781578 
L 396.631723 759.117173 
L 395.503387 760.360789 
L 394.287402 761.505196 
L 392.983119 762.544236 
L 391.590467 763.47316 
L 390.109567 764.287675 
L 388.543475 764.990584 
L 386.8979 765.591115 
L 383.391048 766.521699 
L 379.631815 767.146263 
L 375.662261 767.529851 
L 369.407006 767.799104 
L 354.152431 768.158891 
L 349.810977 768.48094 
L 345.529255 768.971952 
L 341.310754 769.622706 
L 337.160296 770.426557 
L 333.083487 771.378369 
L 329.085251 772.471697 
L 325.170708 773.700465 
L 321.344993 775.058635 
L 315.784127 777.325147 
L 310.451846 779.848511 
L 305.365397 782.608173 
L 300.542026 785.583579 
L 295.998982 788.754179 
L 291.753512 792.099417 
L 287.822862 795.598743 
L 284.224281 799.231602 
L 282.018226 801.717545 
L 279.972532 804.247611 
L 278.09231 806.815712 
L 276.382671 809.415757 
L 274.848723 812.041658 
L 273.495579 814.687323 
L 272.328347 817.346665 
L 271.352139 820.013592 
L 270.572063 822.682015 
L 269.993236 825.345843 
L 269.620753 827.998992 
L 269.459738 830.635366 
L 269.515344 833.24886 
L 269.792481 835.83346 
L 270.296566 838.38296 
L 271.032433 840.891374 
L 271.997901 843.355392 
L 273.186849 845.773203 
L 274.591549 848.143609 
L 276.204819 850.465202 
L 278.019454 852.736586 
L 280.028171 854.956391 
L 282.223729 857.123236 
L 284.598878 859.235739 
L 287.146366 861.292519 
L 291.274877 864.270191 
L 295.750371 867.114723 
L 300.548379 869.821456 
L 305.644432 872.385731 
L 311.01406 874.80289 
L 316.632796 877.068272 
L 322.476168 879.177219 
L 328.519709 881.125072 
L 334.738949 882.907172 
L 341.109418 884.51886 
L 347.606649 885.955477 
L 354.206171 887.212363 
L 360.883515 888.284861 
L 367.614212 889.16831 
L 374.373794 889.858052 
L 381.13779 890.349428 
L 387.881733 890.637779 
L 394.58115 890.718444 
L 401.211581 890.586769 
L 407.748534 890.238085 
L 414.167584 889.667752 
L 420.444522 888.871239 
L 426.567792 887.850201 
L 432.543212 886.614783 
L 438.377666 885.175653 
L 444.078144 883.54353 
L 449.651593 881.729114 
L 455.104975 879.743108 
L 460.445246 877.596218 
L 465.679365 875.299146 
L 472.50509 872.021268 
L 479.170963 868.520802 
L 485.693477 864.823119 
L 492.089124 860.953592 
L 499.930403 855.91368 
L 507.631437 850.694459 
L 516.732909 844.264479 
L 533.199626 832.27507 
L 546.66068 822.575161 
L 557.237598 815.241449 
L 566.435071 809.152797 
L 574.225062 804.24682 
L 582.155485 799.516684 
L 590.251096 794.984145 
L 596.863155 791.515005 
L 603.60945 788.19739 
L 610.502658 785.042439 
L 617.555451 782.061292 
L 624.780501 779.265084 
L 632.19051 776.664981 
L 639.798189 774.272156 
L 647.610853 772.092616 
L 655.604634 770.102491 
L 665.795377 767.825855 
L 678.22094 765.310284 
L 717.622712 757.560378 
L 727.661375 755.236657 
L 735.496946 753.197519 
L 743.119122 750.95908 
L 748.673648 749.127717 
L 754.072031 747.148668 
L 759.298785 745.006675 
L 764.338492 742.686547 
L 769.175411 740.172768 
L 773.797079 737.453117 
L 778.203933 734.528324 
L 782.402589 731.405329 
L 786.399168 728.090572 
L 790.199949 724.590652 
L 793.811167 720.912126 
L 797.239071 717.061561 
L 800.489905 713.045522 
L 803.569913 708.870575 
L 806.485342 704.543285 
L 809.242437 700.070219 
L 811.847442 695.457941 
L 814.306603 690.713016 
L 816.626165 685.842011 
L 819.512555 679.16256 
L 822.176674 672.2862 
L 824.633326 665.228494 
L 826.897315 658.005005 
L 828.983444 650.631295 
L 830.906516 643.122926 
L 833.103611 633.571812 
L 835.097952 623.864995 
L 836.916633 614.031825 
L 838.877082 602.090324 
L 840.321465 592.034655 
L 841.589674 581.896419 
L 842.677891 571.687197 
L 843.582301 561.418571 
L 844.299085 551.102123 
L 844.824428 540.749433 
L 845.154513 530.372084 
L 845.285521 519.981655 
L 845.213637 509.58973 
L 844.935043 499.207888 
L 844.445923 488.847712 
L 843.742459 478.520783 
L 842.820834 468.238682 
L 841.677233 458.01299 
L 840.307837 447.855289 
L 838.708829 437.77716 
L 836.876394 427.790185 
L 834.806713 417.905944 
L 832.49597 408.13602 
L 829.940348 398.491993 
L 827.716972 390.8752 
L 825.332477 383.352323 
L 822.784908 375.929292 
L 820.07231 368.612037 
L 817.19273 361.406486 
L 814.144213 354.31857 
L 810.924805 347.354218 
L 807.53255 340.519363 
L 803.965484 333.819943 
L 800.222271 327.261221 
L 796.305094 320.844671 
L 792.217621 314.570162 
L 787.963493 308.437596 
L 783.546353 302.446869 
L 778.969844 296.59788 
L 774.237612 290.890526 
L 769.353299 285.324702 
L 764.32055 279.900307 
L 759.143009 274.617238 
L 753.824319 269.475392 
L 748.368125 264.474665 
L 742.77807 259.614956 
L 737.057798 254.89616 
L 731.210954 250.318176 
L 725.24118 245.880901 
L 719.152122 241.58423 
L 712.947422 237.428063 
L 705.034479 232.430279 
L 696.953657 227.651668 
L 688.712073 223.09203 
L 680.316845 218.751164 
L 671.77509 214.628869 
L 663.093923 210.724944 
L 654.280464 207.039187 
L 645.341828 203.571399 
L 636.285132 200.321378 
L 627.117494 197.288923 
L 617.846031 194.473834 
L 608.477859 191.875908 
L 599.020096 189.494946 
L 589.479858 187.330747 
L 579.864263 185.383109 
L 570.180428 183.651831 
L 560.435469 182.136714 
L 550.636505 180.837555 
L 540.79065 179.754153 
L 530.905024 178.886309 
L 520.986742 178.23382 
L 511.042922 177.796487 
L 501.080681 177.574107 
L 491.107136 177.56648 
L 481.129403 177.773406 
L 471.1546 178.194683 
L 461.189845 178.83011 
L 451.242253 179.679486 
L 441.318941 180.742611 
L 431.427028 182.019284 
L 421.57363 183.509302 
L 411.765864 185.212467 
L 402.010846 187.128576 
L 392.315695 189.257429 
L 382.687526 191.598824 
L 373.133458 194.152562 
L 363.660606 196.91844 
L 354.276089 199.896259 
L 344.987022 203.085816 
L 335.800525 206.486913 
L 326.723713 210.099348 
L 317.763672 213.922871 
L 308.92702 217.956513 
L 301.952738 221.336759 
L 301.952738 221.336759 
" style="fill:none;stroke:#008000;stroke-linecap:square;stroke-width:0.5;"/>
   </g>
   <g id="patch_3">
    <path clip-path="url(#p9a6e48e742)" d="M 489.054285 585.430764 
L 475.740756 571.112249 
L 437.55805 606.614992 
L 450.871579 620.933507 
z
" style="stroke:#000000;stroke-linejoin:miter;"/>
   </g>
   <g id="patch_4">
    <path clip-path="url(#p9a6e48e742)" d="M 437.977077 894.539736 
L 456.648543 888.739195 
L 441.180435 838.948619 
L 422.508969 844.74916 
z
" style="stroke:#000000;stroke-linejoin:miter;"/>
   </g>
   <g id="patch_5">
    <path clip-path="url(#p9a6e48e742)" d="M 852.725473 556.76372 
L 853.738585 537.238262 
L 801.670696 534.536631 
L 800.657585 554.062089 
z
" style="stroke:#000000;stroke-linejoin:miter;"/>
   </g>
   <g id="patch_6">
    <path clip-path="url(#p9a6e48e742)" d="M 502.727023 168.804178 
L 483.17564 168.919642 
L 483.483544 221.056664 
L 503.034928 220.9412 
z
" style="stroke:#000000;stroke-linejoin:miter;"/>
   </g>
   <g id="matplotlib.axis_1">
    <g id="xtick_1">
     <g id="line2d_2">
      <defs>
       <path d="M 0 0 
L 0 3.5 
" id="m2493f53634" style="stroke:#000000;stroke-width:0.8;"/>
      </defs>
      <g>
       <use style="stroke:#000000;stroke-width:0.8;" x="155.405172" xlink:href="#m2493f53634" y="939.4128"/>
      </g>
     </g>
     <g id="text_1">
      <!-- −1.5 -->
      <defs>
       <path d="M 10.59375 35.5 
L 73.1875 35.5 
L 73.1875 27.203125 
L 10.59375 27.203125 
z
" id="DejaVuSans-8722"/>
       <path d="M 12.40625 8.296875 
L 28.515625 8.296875 
L 28.515625 63.921875 
L 10.984375 60.40625 
L 10.984375 69.390625 
L 28.421875 72.90625 
L 38.28125 72.90625 
L 38.28125 8.296875 
L 54.390625 8.296875 
L 54.390625 0 
L 12.40625 0 
z
" id="DejaVuSans-49"/>
       <path d="M 10.6875 12.40625 
L 21 12.40625 
L 21 0 
L 10.6875 0 
z
" id="DejaVuSans-46"/>
       <path d="M 10.796875 72.90625 
L 49.515625 72.90625 
L 49.515625 64.59375 
L 19.828125 64.59375 
L 19.828125 46.734375 
Q 21.96875 47.46875 24.109375 47.828125 
Q 26.265625 48.1875 28.421875 48.1875 
Q 40.625 48.1875 47.75 41.5 
Q 54.890625 34.8125 54.890625 23.390625 
Q 54.890625 11.625 47.5625 5.09375 
Q 40.234375 -1.421875 26.90625 -1.421875 
Q 22.3125 -1.421875 17.546875 -0.640625 
Q 12.796875 0.140625 7.71875 1.703125 
L 7.71875 11.625 
Q 12.109375 9.234375 16.796875 8.0625 
Q 21.484375 6.890625 26.703125 6.890625 
Q 35.15625 6.890625 40.078125 11.328125 
Q 45.015625 15.765625 45.015625 23.390625 
Q 45.015625 31 40.078125 35.4375 
Q 35.15625 39.890625 26.703125 39.890625 
Q 22.75 39.890625 18.8125 39.015625 
Q 14.890625 38.140625 10.796875 36.28125 
z
" id="DejaVuSans-53"/>
      </defs>
      <g transform="translate(131.12236 961.609675)scale(0.2 -0.2)">
       <use xlink:href="#DejaVuSans-8722"/>
       <use x="83.789062" xlink:href="#DejaVuSans-49"/>
       <use x="147.412109" xlink:href="#DejaVuSans-46"/>
       <use x="179.199219" xlink:href="#DejaVuSans-53"/>
      </g>
     </g>
    </g>
    <g id="xtick_2">
     <g id="line2d_3">
      <g>
       <use style="stroke:#000000;stroke-width:0.8;" x="264.025862" xlink:href="#m2493f53634" y="939.4128"/>
      </g>
     </g>
     <g id="text_2">
      <!-- −1.0 -->
      <defs>
       <path d="M 31.78125 66.40625 
Q 24.171875 66.40625 20.328125 58.90625 
Q 16.5 51.421875 16.5 36.375 
Q 16.5 21.390625 20.328125 13.890625 
Q 24.171875 6.390625 31.78125 6.390625 
Q 39.453125 6.390625 43.28125 13.890625 
Q 47.125 21.390625 47.125 36.375 
Q 47.125 51.421875 43.28125 58.90625 
Q 39.453125 66.40625 31.78125 66.40625 
z
M 31.78125 74.21875 
Q 44.046875 74.21875 50.515625 64.515625 
Q 56.984375 54.828125 56.984375 36.375 
Q 56.984375 17.96875 50.515625 8.265625 
Q 44.046875 -1.421875 31.78125 -1.421875 
Q 19.53125 -1.421875 13.0625 8.265625 
Q 6.59375 17.96875 6.59375 36.375 
Q 6.59375 54.828125 13.0625 64.515625 
Q 19.53125 74.21875 31.78125 74.21875 
z
" id="DejaVuSans-48"/>
      </defs>
      <g transform="translate(239.74305 961.609675)scale(0.2 -0.2)">
       <use xlink:href="#DejaVuSans-8722"/>
       <use x="83.789062" xlink:href="#DejaVuSans-49"/>
       <use x="147.412109" xlink:href="#DejaVuSans-46"/>
       <use x="179.199219" xlink:href="#DejaVuSans-48"/>
      </g>
     </g>
    </g>
    <g id="xtick_3">
     <g id="line2d_4">
      <g>
       <use style="stroke:#000000;stroke-width:0.8;" x="372.646552" xlink:href="#m2493f53634" y="939.4128"/>
      </g>
     </g>
     <g id="text_3">
      <!-- −0.5 -->
      <g transform="translate(348.363739 961.609675)scale(0.2 -0.2)">
       <use xlink:href="#DejaVuSans-8722"/>
       <use x="83.789062" xlink:href="#DejaVuSans-48"/>
       <use x="147.412109" xlink:href="#DejaVuSans-46"/>
       <use x="179.199219" xlink:href="#DejaVuSans-53"/>
      </g>
     </g>
    </g>
    <g id="xtick_4">
     <g id="line2d_5">
      <g>
       <use style="stroke:#000000;stroke-width:0.8;" x="481.267241" xlink:href="#m2493f53634" y="939.4128"/>
      </g>
     </g>
     <g id="text_4">
      <!-- 0.0 -->
      <g transform="translate(465.364116 961.609675)scale(0.2 -0.2)">
       <use xlink:href="#DejaVuSans-48"/>
       <use x="63.623047" xlink:href="#DejaVuSans-46"/>
       <use x="95.410156" xlink:href="#DejaVuSans-48"/>
      </g>
     </g>
    </g>
    <g id="xtick_5">
     <g id="line2d_6">
      <g>
       <use style="stroke:#000000;stroke-width:0.8;" x="589.887931" xlink:href="#m2493f53634" y="939.4128"/>
      </g>
     </g>
     <g id="text_5">
      <!-- 0.5 -->
      <g transform="translate(573.984806 961.609675)scale(0.2 -0.2)">
       <use xlink:href="#DejaVuSans-48"/>
       <use x="63.623047" xlink:href="#DejaVuSans-46"/>
       <use x="95.410156" xlink:href="#DejaVuSans-53"/>
      </g>
     </g>
    </g>
    <g id="xtick_6">
     <g id="line2d_7">
      <g>
       <use style="stroke:#000000;stroke-width:0.8;" x="698.508621" xlink:href="#m2493f53634" y="939.4128"/>
      </g>
     </g>
     <g id="text_6">
      <!-- 1.0 -->
      <g transform="translate(682.605496 961.609675)scale(0.2 -0.2)">
       <use xlink:href="#DejaVuSans-49"/>
       <use x="63.623047" xlink:href="#DejaVuSans-46"/>
       <use x="95.410156" xlink:href="#DejaVuSans-48"/>
      </g>
     </g>
    </g>
    <g id="xtick_7">
     <g id="line2d_8">
      <g>
       <use style="stroke:#000000;stroke-width:0.8;" x="807.12931" xlink:href="#m2493f53634" y="939.4128"/>
      </g>
     </g>
     <g id="text_7">
      <!-- 1.5 -->
      <g transform="translate(791.226185 961.609675)scale(0.2 -0.2)">
       <use xlink:href="#DejaVuSans-49"/>
       <use x="63.623047" xlink:href="#DejaVuSans-46"/>
       <use x="95.410156" xlink:href="#DejaVuSans-53"/>
      </g>
     </g>
    </g>
    <g id="xtick_8">
     <g id="line2d_9">
      <g>
       <use style="stroke:#000000;stroke-width:0.8;" x="915.75" xlink:href="#m2493f53634" y="939.4128"/>
      </g>
     </g>
     <g id="text_8">
      <!-- 2.0 -->
      <defs>
       <path d="M 19.1875 8.296875 
L 53.609375 8.296875 
L 53.609375 0 
L 7.328125 0 
L 7.328125 8.296875 
Q 12.9375 14.109375 22.625 23.890625 
Q 32.328125 33.6875 34.8125 36.53125 
Q 39.546875 41.84375 41.421875 45.53125 
Q 43.3125 49.21875 43.3125 52.78125 
Q 43.3125 58.59375 39.234375 62.25 
Q 35.15625 65.921875 28.609375 65.921875 
Q 23.96875 65.921875 18.8125 64.3125 
Q 13.671875 62.703125 7.8125 59.421875 
L 7.8125 69.390625 
Q 13.765625 71.78125 18.9375 73 
Q 24.125 74.21875 28.421875 74.21875 
Q 39.75 74.21875 46.484375 68.546875 
Q 53.21875 62.890625 53.21875 53.421875 
Q 53.21875 48.921875 51.53125 44.890625 
Q 49.859375 40.875 45.40625 35.40625 
Q 44.1875 33.984375 37.640625 27.21875 
Q 31.109375 20.453125 19.1875 8.296875 
z
" id="DejaVuSans-50"/>
      </defs>
      <g transform="translate(899.846875 961.609675)scale(0.2 -0.2)">
       <use xlink:href="#DejaVuSans-50"/>
       <use x="63.623047" xlink:href="#DejaVuSans-46"/>
       <use x="95.410156" xlink:href="#DejaVuSans-48"/>
      </g>
     </g>
    </g>
    <g id="text_9">
     <!-- x [m] -->
     <defs>
      <path d="M 54.890625 54.6875 
L 35.109375 28.078125 
L 55.90625 0 
L 45.3125 0 
L 29.390625 21.484375 
L 13.484375 0 
L 2.875 0 
L 24.125 28.609375 
L 4.6875 54.6875 
L 15.28125 54.6875 
L 29.78125 35.203125 
L 44.28125 54.6875 
z
" id="DejaVuSans-120"/>
      <path id="DejaVuSans-32"/>
      <path d="M 8.59375 75.984375 
L 29.296875 75.984375 
L 29.296875 69 
L 17.578125 69 
L 17.578125 -6.203125 
L 29.296875 -6.203125 
L 29.296875 -13.1875 
L 8.59375 -13.1875 
z
" id="DejaVuSans-91"/>
      <path d="M 52 44.1875 
Q 55.375 50.25 60.0625 53.125 
Q 64.75 56 71.09375 56 
Q 79.640625 56 84.28125 50.015625 
Q 88.921875 44.046875 88.921875 33.015625 
L 88.921875 0 
L 79.890625 0 
L 79.890625 32.71875 
Q 79.890625 40.578125 77.09375 44.375 
Q 74.3125 48.1875 68.609375 48.1875 
Q 61.625 48.1875 57.5625 43.546875 
Q 53.515625 38.921875 53.515625 30.90625 
L 53.515625 0 
L 44.484375 0 
L 44.484375 32.71875 
Q 44.484375 40.625 41.703125 44.40625 
Q 38.921875 48.1875 33.109375 48.1875 
Q 26.21875 48.1875 22.15625 43.53125 
Q 18.109375 38.875 18.109375 30.90625 
L 18.109375 0 
L 9.078125 0 
L 9.078125 54.6875 
L 18.109375 54.6875 
L 18.109375 46.1875 
Q 21.1875 51.21875 25.484375 53.609375 
Q 29.78125 56 35.6875 56 
Q 41.65625 56 45.828125 52.96875 
Q 50 49.953125 52 44.1875 
z
" id="DejaVuSans-109"/>
      <path d="M 30.421875 75.984375 
L 30.421875 -13.1875 
L 9.71875 -13.1875 
L 9.71875 -6.203125 
L 21.390625 -6.203125 
L 21.390625 69 
L 9.71875 69 
L 9.71875 75.984375 
z
" id="DejaVuSans-93"/>
     </defs>
     <g transform="translate(526.859375 984.965925)scale(0.2 -0.2)">
      <use xlink:href="#DejaVuSans-120"/>
      <use x="59.179688" xlink:href="#DejaVuSans-32"/>
      <use x="90.966797" xlink:href="#DejaVuSans-91"/>
      <use x="129.980469" xlink:href="#DejaVuSans-109"/>
      <use x="227.392578" xlink:href="#DejaVuSans-93"/>
     </g>
    </g>
   </g>
   <g id="matplotlib.axis_2">
    <g id="ytick_1">
     <g id="line2d_10">
      <defs>
       <path d="M 0 0 
L -3.5 0 
" id="m0fe24a3b1c" style="stroke:#000000;stroke-width:0.8;"/>
      </defs>
      <g>
       <use style="stroke:#000000;stroke-width:0.8;" x="135" xlink:href="#m0fe24a3b1c" y="838.261738"/>
      </g>
     </g>
     <g id="text_10">
      <!-- −1.5 -->
      <g transform="translate(79.434375 845.860175)scale(0.2 -0.2)">
       <use xlink:href="#DejaVuSans-8722"/>
       <use x="83.789062" xlink:href="#DejaVuSans-49"/>
       <use x="147.412109" xlink:href="#DejaVuSans-46"/>
       <use x="179.199219" xlink:href="#DejaVuSans-53"/>
      </g>
     </g>
    </g>
    <g id="ytick_2">
     <g id="line2d_11">
      <g>
       <use style="stroke:#000000;stroke-width:0.8;" x="135" xlink:href="#m0fe24a3b1c" y="729.641048"/>
      </g>
     </g>
     <g id="text_11">
      <!-- −1.0 -->
      <g transform="translate(79.434375 737.239486)scale(0.2 -0.2)">
       <use xlink:href="#DejaVuSans-8722"/>
       <use x="83.789062" xlink:href="#DejaVuSans-49"/>
       <use x="147.412109" xlink:href="#DejaVuSans-46"/>
       <use x="179.199219" xlink:href="#DejaVuSans-48"/>
      </g>
     </g>
    </g>
    <g id="ytick_3">
     <g id="line2d_12">
      <g>
       <use style="stroke:#000000;stroke-width:0.8;" x="135" xlink:href="#m0fe24a3b1c" y="621.020359"/>
      </g>
     </g>
     <g id="text_12">
      <!-- −0.5 -->
      <g transform="translate(79.434375 628.618796)scale(0.2 -0.2)">
       <use xlink:href="#DejaVuSans-8722"/>
       <use x="83.789062" xlink:href="#DejaVuSans-48"/>
       <use x="147.412109" xlink:href="#DejaVuSans-46"/>
       <use x="179.199219" xlink:href="#DejaVuSans-53"/>
      </g>
     </g>
    </g>
    <g id="ytick_4">
     <g id="line2d_13">
      <g>
       <use style="stroke:#000000;stroke-width:0.8;" x="135" xlink:href="#m0fe24a3b1c" y="512.399669"/>
      </g>
     </g>
     <g id="text_13">
      <!-- 0.0 -->
      <g transform="translate(96.19375 519.998106)scale(0.2 -0.2)">
       <use xlink:href="#DejaVuSans-48"/>
       <use x="63.623047" xlink:href="#DejaVuSans-46"/>
       <use x="95.410156" xlink:href="#DejaVuSans-48"/>
      </g>
     </g>
    </g>
    <g id="ytick_5">
     <g id="line2d_14">
      <g>
       <use style="stroke:#000000;stroke-width:0.8;" x="135" xlink:href="#m0fe24a3b1c" y="403.778979"/>
      </g>
     </g>
     <g id="text_14">
      <!-- 0.5 -->
      <g transform="translate(96.19375 411.377417)scale(0.2 -0.2)">
       <use xlink:href="#DejaVuSans-48"/>
       <use x="63.623047" xlink:href="#DejaVuSans-46"/>
       <use x="95.410156" xlink:href="#DejaVuSans-53"/>
      </g>
     </g>
    </g>
    <g id="ytick_6">
     <g id="line2d_15">
      <g>
       <use style="stroke:#000000;stroke-width:0.8;" x="135" xlink:href="#m0fe24a3b1c" y="295.15829"/>
      </g>
     </g>
     <g id="text_15">
      <!-- 1.0 -->
      <g transform="translate(96.19375 302.756727)scale(0.2 -0.2)">
       <use xlink:href="#DejaVuSans-49"/>
       <use x="63.623047" xlink:href="#DejaVuSans-46"/>
       <use x="95.410156" xlink:href="#DejaVuSans-48"/>
      </g>
     </g>
    </g>
    <g id="ytick_7">
     <g id="line2d_16">
      <g>
       <use style="stroke:#000000;stroke-width:0.8;" x="135" xlink:href="#m0fe24a3b1c" y="186.5376"/>
      </g>
     </g>
     <g id="text_16">
      <!-- 1.5 -->
      <g transform="translate(96.19375 194.136038)scale(0.2 -0.2)">
       <use xlink:href="#DejaVuSans-49"/>
       <use x="63.623047" xlink:href="#DejaVuSans-46"/>
       <use x="95.410156" xlink:href="#DejaVuSans-53"/>
      </g>
     </g>
    </g>
    <g id="text_17">
     <!-- y [m] -->
     <defs>
      <path d="M 32.171875 -5.078125 
Q 28.375 -14.84375 24.75 -17.8125 
Q 21.140625 -20.796875 15.09375 -20.796875 
L 7.90625 -20.796875 
L 7.90625 -13.28125 
L 13.1875 -13.28125 
Q 16.890625 -13.28125 18.9375 -11.515625 
Q 21 -9.765625 23.484375 -3.21875 
L 25.09375 0.875 
L 2.984375 54.6875 
L 12.5 54.6875 
L 29.59375 11.921875 
L 46.6875 54.6875 
L 56.203125 54.6875 
z
" id="DejaVuSans-121"/>
     </defs>
     <g transform="translate(71.275 559.678225)rotate(-90)scale(0.2 -0.2)">
      <use xlink:href="#DejaVuSans-121"/>
      <use x="59.179688" xlink:href="#DejaVuSans-32"/>
      <use x="90.966797" xlink:href="#DejaVuSans-91"/>
      <use x="129.980469" xlink:href="#DejaVuSans-109"/>
      <use x="227.392578" xlink:href="#DejaVuSans-93"/>
     </g>
    </g>
   </g>
   <g id="line2d_17">
    <path clip-path="url(#p9a6e48e742)" d="M 269.118 302.307703 
L 529.659931 562.851807 
L 539.64 571.374186 
L 550.830103 578.232497 
L 562.956517 583.255117 
L 575.717276 586.318221 
L 588.801724 587.347945 
L 601.886172 586.318221 
L 614.646931 583.255117 
L 626.773345 578.232497 
L 637.963448 571.374186 
L 647.943517 562.851807 
L 656.465897 552.871738 
L 663.324207 541.681634 
L 668.346828 529.555655 
L 671.409931 516.79381 
L 672.439655 503.710014 
L 671.409931 490.625566 
L 668.346828 477.864807 
L 663.324207 465.738393 
L 656.465897 454.54829 
L 647.943517 444.568221 
L 553.410931 349.903117 
L 552.518069 348.608359 
L 551.785966 347.213669 
L 551.227655 345.742945 
L 550.851828 344.215738 
L 550.660655 342.6516 
L 550.660655 341.078772 
L 550.851828 339.514634 
L 551.227655 337.987428 
L 551.785966 336.516703 
L 552.518069 335.122014 
L 553.410931 333.827255 
L 554.455862 332.647634 
L 555.63331 331.604876 
L 556.928069 330.709841 
L 558.322759 329.97991 
L 559.793483 329.4216 
L 561.322862 329.0436 
L 562.884828 328.8546 
L 563.673414 328.830703 
L 612.939414 328.900221 
L 616.432655 329.113117 
L 619.912862 329.465048 
L 623.377862 329.956014 
L 626.821138 330.586014 
L 630.236172 331.355048 
L 633.616448 332.260945 
L 636.957621 333.303703 
L 640.253172 334.476807 
L 643.500931 335.7846 
L 646.692207 337.220566 
L 649.822655 338.784703 
L 652.887931 340.472669 
L 655.88369 342.28229 
L 658.803414 344.213566 
L 661.642759 346.257807 
L 664.397379 348.417186 
L 667.062931 350.685186 
L 669.635069 353.057462 
L 672.109448 355.531841 
L 674.481724 358.103979 
L 676.749724 360.769531 
L 678.909103 363.524152 
L 680.953345 366.363497 
L 682.884621 369.283221 
L 684.694241 372.278979 
L 686.382207 375.344255 
L 687.946345 378.474703 
L 689.38231 381.665979 
L 690.690103 384.913738 
L 691.863207 388.20929 
L 692.905966 391.550462 
L 693.811862 394.930738 
L 694.580897 398.345772 
L 695.210897 401.789048 
L 695.701862 405.254048 
L 696.053793 408.734255 
L 696.26669 412.227497 
L 696.336207 420.758566 
L 696.264517 515.4669 
L 696.051621 519.615559 
L 695.082724 523.691224 
L 693.976966 527.710407 
L 692.73869 531.668762 
L 691.370069 535.561945 
L 689.873276 539.385393 
L 688.252655 543.134979 
L 686.510379 546.806359 
L 684.650793 550.397359 
L 682.678241 553.901462 
L 680.592724 557.318669 
L 678.402931 560.64029 
L 676.108862 563.868497 
L 673.717034 566.998945 
L 671.229621 570.025117 
L 668.650966 572.949186 
L 665.987586 575.764634 
L 663.241655 578.471462 
L 660.417517 581.065324 
L 657.519517 583.544048 
L 654.554172 585.909807 
L 651.523655 588.156083 
L 648.43231 590.282876 
L 645.286655 592.288014 
L 642.091034 594.171497 
L 638.849793 595.933324 
L 635.567276 597.569152 
L 632.247828 599.078979 
L 628.895793 600.464979 
L 625.51769 601.724979 
L 622.11569 602.858979 
L 618.698483 603.866979 
L 615.266069 604.748979 
L 611.824966 605.504979 
L 608.38169 606.134979 
L 604.936241 606.641152 
L 601.49731 607.023497 
L 598.067069 607.282014 
L 594.652034 607.421048 
L 591.254379 607.436255 
L 587.878448 607.334152 
L 584.528586 607.112566 
L 581.21131 606.775841 
L 577.926621 606.326152 
L 574.681034 605.763497 
L 571.476724 605.090048 
L 568.320207 604.310152 
L 565.211483 603.423807 
L 562.157069 602.433186 
L 556.219862 600.156497 
L 550.532483 597.497462 
L 545.123172 594.484324 
L 540.007138 591.138807 
L 535.210448 587.489152 
L 530.746138 583.561428 
L 526.631586 579.383876 
L 522.879828 574.98691 
L 521.141897 572.714566 
L 517.075138 568.919359 
L 512.660793 564.283428 
L 382.909034 434.531669 
L 372.928966 426.00929 
L 361.738862 419.150979 
L 349.612448 414.128359 
L 336.85169 411.065255 
L 323.767241 410.035531 
L 310.682793 411.065255 
L 297.922034 414.128359 
L 285.795621 419.150979 
L 274.605517 426.00929 
L 264.625448 434.531669 
L 256.096552 444.511738 
L 249.253448 455.701841 
L 244.213448 467.828255 
L 241.150345 480.589014 
L 240.12931 493.67281 
L 240.12931 628.623807 
L 240.781034 640.055048 
L 242.692759 651.34291 
L 245.864483 662.346186 
L 250.231034 672.925841 
L 255.77069 682.947186 
L 262.396552 692.284221 
L 270.034759 700.821807 
L 278.572345 708.451324 
L 287.909379 715.077186 
L 297.930724 720.616841 
L 308.510379 724.9986 
L 319.513655 728.168152 
L 330.801517 730.075531 
L 342.232759 730.727255 
L 349.529897 730.814152 
L 350.492276 731.22691 
L 351.100552 731.726566 
L 351.571966 732.356566 
L 351.880448 733.073462 
L 352.006448 733.855531 
L 351.943448 734.6376 
L 351.693621 735.376221 
L 351.274345 736.049669 
L 350.707345 736.592772 
L 350.027379 736.983807 
L 349.012862 737.244497 
L 323.767241 737.244497 
L 310.174448 738.308979 
L 296.914034 741.502428 
L 284.316207 746.716221 
L 272.691621 753.841738 
L 262.331379 762.705186 
L 253.467931 773.0676 
L 246.342414 784.690014 
L 241.128621 797.290014 
L 237.935172 810.541738 
L 236.87069 824.141048 
L 237.935172 837.740359 
L 241.128621 850.992083 
L 246.342414 863.592083 
L 253.467931 875.214497 
L 262.331379 885.57691 
L 272.691621 894.440359 
L 284.316207 901.565876 
L 296.914034 906.779669 
L 310.174448 909.973117 
L 323.767241 911.0376 
L 500.818966 911.0376 
L 515.341552 909.7776 
L 529.42531 905.9976 
L 542.637931 899.827945 
L 554.57969 891.464152 
L 564.889966 881.16691 
L 573.251586 869.218634 
L 579.412552 856.010359 
L 583.186034 841.933117 
L 584.689345 826.117945 
L 586.036241 824.597255 
L 586.844379 824.249669 
L 587.715517 824.141048 
L 665.922414 824.141048 
L 674.82931 823.945531 
L 683.721 823.358979 
L 692.575759 822.403117 
L 701.376207 821.034497 
L 710.131034 819.296566 
L 718.777241 817.189324 
L 727.336552 814.691048 
L 735.765517 811.823462 
L 744.064138 808.586566 
L 752.232414 805.002083 
L 760.205172 801.070014 
L 768.025862 796.790359 
L 775.651034 792.163117 
L 783.058966 787.210014 
L 790.227931 781.952772 
L 797.179655 776.369669 
L 803.892414 770.482428 
L 810.322759 764.334497 
L 816.47069 757.904152 
L 822.357931 751.191393 
L 827.941034 744.239669 
L 833.198276 737.070703 
L 838.151379 729.662772 
L 842.778621 722.0376 
L 847.058276 714.2256 
L 850.990345 706.235462 
L 854.574828 698.080221 
L 857.811724 689.777255 
L 860.67931 681.3396 
L 863.177586 672.786807 
L 865.284828 664.13191 
L 867.022759 655.394462 
L 868.391379 646.587497 
L 869.347241 637.732738 
L 869.933793 628.841048 
L 870.12931 619.934152 
L 870.12931 409.210014 
L 869.977241 400.715876 
L 869.564483 392.2326 
L 868.847586 383.768876 
L 867.87 375.331221 
L 866.588276 366.932669 
L 865.045862 358.58191 
L 863.19931 350.287634 
L 861.092069 342.058531 
L 858.724138 333.905462 
L 856.073793 325.834945 
L 853.141034 317.857841 
L 849.96931 309.982841 
L 846.515172 302.220807 
L 842.800345 294.571738 
L 838.846552 287.055186 
L 834.653793 279.668979 
L 830.200345 272.434841 
L 825.507931 265.352772 
L 820.576552 258.444497 
L 815.427931 251.68829 
L 810.062069 245.105876 
L 804.457241 238.718979 
L 798.656897 232.505876 
L 792.661034 226.510014 
L 786.447931 220.709669 
L 780.061034 215.104841 
L 773.478621 209.738979 
L 766.722414 204.590359 
L 759.814138 199.658979 
L 752.732069 194.966566 
L 745.497931 190.513117 
L 738.111724 186.320359 
L 730.595172 182.366566 
L 722.948276 178.651738 
L 715.192759 175.1976 
L 707.306897 172.025876 
L 699.334138 169.093117 
L 691.261448 166.442772 
L 683.108379 164.074841 
L 674.879276 161.9676 
L 666.585 160.121048 
L 658.234241 158.578634 
L 649.83569 157.29691 
L 641.398034 156.319324 
L 632.93431 155.602428 
L 624.451034 155.189669 
L 615.956897 155.0376 
L 323.767241 155.0376 
L 310.682793 156.058634 
L 297.922034 159.121738 
L 285.795621 164.161738 
L 274.605517 171.004841 
L 264.625448 179.542428 
L 256.096552 189.513807 
L 249.253448 200.701738 
L 244.213448 212.823807 
L 241.150345 225.5976 
L 240.12931 238.675531 
L 241.150345 251.753462 
L 244.213448 264.527255 
L 249.253448 276.649324 
L 256.096552 287.837255 
L 264.625448 297.817324 
L 264.625448 297.817324 
" style="fill:none;stroke:#000000;stroke-linecap:square;stroke-width:2;"/>
   </g>
   <g id="line2d_18">
    <path clip-path="url(#p9a6e48e742)" d="M 325.954862 245.475186 
L 483.179009 402.694945 
L 586.885655 506.346238 
L 587.793724 506.809179 
L 588.801724 506.968634 
L 589.809724 506.809179 
L 590.717793 506.346238 
L 591.439034 505.625431 
L 591.901759 504.716928 
L 592.060345 503.710014 
L 591.901759 502.7031 
L 591.439034 501.794597 
L 591.106655 501.405734 
L 497.618783 407.9196 
L 493.751017 403.809393 
L 490.13851 399.475428 
L 486.794297 394.930738 
L 483.730541 390.192703 
L 480.95852 385.276531 
L 478.48829 380.203945 
L 476.32891 374.990152 
L 474.488224 369.656876 
L 472.972966 364.221497 
L 471.788566 358.703566 
L 470.939586 353.124807 
L 470.429069 347.504772 
L 470.258534 341.865186 
L 470.429069 336.2256 
L 470.939586 330.605566 
L 471.788566 325.026807 
L 472.972966 319.508876 
L 474.488224 314.073497 
L 476.32891 308.740221 
L 478.48829 303.526428 
L 480.95852 298.453841 
L 483.730541 293.528979 
L 486.794297 288.793117 
L 490.13851 284.252772 
L 493.751017 279.929669 
L 497.618783 275.802083 
L 501.727469 271.935186 
L 506.063172 268.328979 
L 510.607862 264.983462 
L 515.345897 261.920359 
L 520.259897 259.161393 
L 525.334655 256.684841 
L 530.546276 254.512428 
L 535.881724 252.6876 
L 541.317103 251.16691 
L 546.835034 249.972083 
L 552.411621 249.124841 
L 558.031655 248.625186 
L 563.673414 248.451393 
L 609.439655 248.451393 
L 616.174138 248.581738 
L 622.899931 248.994497 
L 629.601828 249.667945 
L 636.27331 250.623807 
L 642.899172 251.840359 
L 649.470724 253.3176 
L 655.979276 255.055531 
L 662.409621 257.054152 
L 668.757414 259.313462 
L 675.005276 261.833462 
L 681.148862 264.592428 
L 687.17731 267.612083 
L 693.077586 270.870703 
L 698.834483 274.346566 
L 704.461034 278.061393 
L 709.935517 281.993462 
L 715.236207 286.164497 
L 720.363103 290.509324 
L 725.316207 295.093117 
L 730.073793 299.850703 
L 734.657586 304.803807 
L 739.002414 309.935048 
L 743.173448 315.23791 
L 747.105517 320.703703 
L 750.820345 326.323738 
L 754.296207 332.089324 
L 757.554828 337.9896 
L 760.574483 344.018048 
L 763.333448 350.161634 
L 765.853448 356.409497 
L 768.112759 362.75729 
L 770.111379 369.187634 
L 771.84931 375.696186 
L 773.326552 382.267738 
L 774.543103 388.8936 
L 775.498966 395.565083 
L 776.172414 402.266979 
L 776.585172 408.992772 
L 776.715517 420.758566 
L 776.606897 518.211093 
L 776.237586 525.100686 
L 775.042759 531.911203 
L 773.608966 538.655462 
L 771.957931 545.326945 
L 770.067931 551.915876 
L 767.96069 558.415738 
L 765.657931 564.820014 
L 763.116207 571.122186 
L 760.378966 577.313566 
L 757.446207 583.389807 
L 754.317931 589.340048 
L 750.994138 595.162117 
L 747.474828 600.849497 
L 743.781724 606.393497 
L 739.914828 611.789772 
L 735.874138 617.033979 
L 731.659655 622.117428 
L 727.293103 627.037945 
L 722.774483 631.791186 
L 718.103793 636.370634 
L 713.302759 640.771945 
L 708.349655 644.992945 
L 703.287931 649.027117 
L 698.113241 652.870117 
L 692.816897 656.521945 
L 687.418448 659.978255 
L 681.920069 663.236876 
L 676.330448 666.29129 
L 670.660448 669.143669 
L 664.912241 671.789669 
L 659.09669 674.227117 
L 653.22031 676.456014 
L 647.289621 678.474186 
L 641.31331 680.279462 
L 635.297897 681.874014 
L 629.252069 683.255669 
L 623.184517 684.422255 
L 617.099586 685.375945 
L 611.005966 686.11891 
L 604.912345 686.646807 
L 598.823069 686.963979 
L 592.749 687.070428 
L 586.696655 686.968324 
L 580.670379 686.657669 
L 574.681034 686.142807 
L 568.732966 685.423738 
L 562.834862 684.500462 
L 556.991069 683.381669 
L 551.212448 682.063014 
L 545.501172 680.553186 
L 539.865931 678.854359 
L 534.313241 676.966531 
L 528.847448 674.896221 
L 523.475069 672.647772 
L 518.204793 670.221186 
L 513.038793 667.625152 
L 507.985759 664.864014 
L 503.047862 661.937772 
L 498.230752 658.855117 
L 493.540945 655.620393 
L 488.982786 652.237945 
L 484.560403 648.71429 
L 480.278619 645.0516 
L 476.141214 641.258566 
L 472.152445 637.337359 
L 468.315962 633.298841 
L 464.213359 629.594876 
L 460.239362 625.754048 
L 455.823931 621.12029 
L 325.68331 491.036586 
L 324.775241 490.573428 
L 323.767241 490.414841 
L 322.759241 490.573428 
L 321.851172 491.036586 
L 321.129931 491.757393 
L 320.667207 492.665897 
L 320.508621 493.67281 
L 320.508621 628.623807 
L 320.645483 631.05691 
L 321.053897 633.457428 
L 321.727345 635.79929 
L 322.65931 638.04991 
L 323.838931 640.181048 
L 325.248828 642.168807 
L 326.871621 643.984945 
L 328.687759 645.607738 
L 330.675517 647.017634 
L 332.806655 648.197255 
L 335.057276 649.129221 
L 337.399138 649.802669 
L 339.799655 650.211083 
L 342.232759 650.347945 
L 348.75 650.347945 
L 355.480138 650.619497 
L 362.166828 651.431979 
L 368.766621 652.778876 
L 375.236069 654.651497 
L 381.533897 657.041152 
L 387.618828 659.92829 
L 393.451759 663.295531 
L 398.995759 667.121152 
L 404.211724 671.381255 
L 409.069241 676.0476 
L 413.535724 681.089772 
L 417.582931 686.475186 
L 421.182621 692.16691 
L 424.313069 698.130186 
L 426.952552 704.328083 
L 429.085862 710.717152 
L 430.697793 717.256117 
L 431.777483 723.903703 
L 432.320586 730.618634 
L 432.320586 737.353117 
L 431.777483 744.065876 
L 430.697793 750.713462 
L 429.085862 757.252428 
L 426.952552 763.639324 
L 424.313069 769.830703 
L 421.182621 775.804841 
L 417.582931 781.496566 
L 413.535724 786.884152 
L 409.069241 791.924152 
L 404.211724 796.594841 
L 398.995759 800.852772 
L 393.451759 804.676221 
L 387.618828 808.043462 
L 381.533897 810.932772 
L 375.236069 813.322428 
L 368.766621 815.190703 
L 362.166828 816.5376 
L 355.480138 817.363117 
L 348.75 817.623807 
L 322.748379 817.710703 
L 321.753414 817.949669 
L 320.808414 818.340703 
L 319.937276 818.862083 
L 319.159552 819.535531 
L 318.494793 820.3176 
L 317.960379 821.186566 
L 317.569345 822.120703 
L 317.330379 823.120014 
L 317.25 824.141048 
L 317.330379 825.162083 
L 317.569345 826.161393 
L 317.960379 827.095531 
L 318.494793 827.964497 
L 319.159552 828.746566 
L 319.937276 829.420014 
L 320.808414 829.941393 
L 321.753414 830.332428 
L 322.748379 830.571393 
L 323.767241 830.65829 
L 501.450052 830.614841 
L 502.448276 830.223807 
L 503.315069 829.485186 
L 503.962448 828.616221 
L 504.207931 827.399669 
L 504.568552 818.362428 
L 505.179 813.865531 
L 506.032759 809.412083 
L 507.125483 805.023807 
L 508.455 800.700703 
L 510.016966 796.442772 
L 511.807034 792.271738 
L 513.820862 788.231048 
L 516.049759 784.277255 
L 518.489379 780.453807 
L 521.131034 776.782428 
L 523.970379 773.263117 
L 526.994379 769.874152 
L 530.19869 766.680703 
L 533.570276 763.661048 
L 537.100448 760.815186 
L 540.778345 758.164841 
L 544.595276 755.731738 
L 548.538207 753.494152 
L 552.596276 751.495531 
L 556.758621 749.692428 
L 561.010034 748.150014 
L 565.339655 746.803117 
L 569.736621 745.71691 
L 574.183552 744.869669 
L 578.671759 744.261393 
L 583.188207 743.892083 
L 587.715517 743.761738 
L 671.323034 743.653117 
L 676.714966 743.283807 
L 682.085172 742.697255 
L 687.424966 741.871738 
L 692.723483 740.828979 
L 697.972034 739.547255 
L 703.157586 738.026566 
L 708.284483 736.288634 
L 713.302759 734.333462 
L 718.255862 732.161048 
L 723.100345 729.771393 
L 727.836207 727.171014 
L 732.463448 724.3686 
L 736.938621 721.368497 
L 741.305172 718.172876 
L 745.519655 714.7926 
L 749.582069 711.229841 
L 753.492414 707.49329 
L 757.207241 703.591634 
L 760.77 699.529221 
L 764.158966 695.314738 
L 767.352414 690.959048 
L 770.350345 686.466497 
L 773.152759 681.847945 
L 775.759655 677.112083 
L 778.14931 672.265428 
L 780.321724 667.321014 
L 782.276897 662.285359 
L 784.014828 657.169324 
L 785.535517 651.983772 
L 786.817241 646.735221 
L 787.86 641.436703 
L 788.685517 636.09691 
L 789.272069 630.726703 
L 789.641379 625.334772 
L 789.75 619.934152 
L 789.663103 403.403152 
L 789.358966 397.602807 
L 788.881034 391.813324 
L 788.207586 386.045566 
L 787.338621 380.303876 
L 786.274138 374.5926 
L 785.014138 368.920428 
L 783.580345 363.293876 
L 781.951034 357.719462 
L 780.126207 352.201531 
L 778.127586 346.7466 
L 775.955172 341.363359 
L 773.608966 336.053979 
L 771.067241 330.827152 
L 768.373448 325.687221 
L 765.484138 320.642876 
L 762.442759 315.694117 
L 759.24931 310.851807 
L 755.882069 306.12029 
L 752.341034 301.501738 
L 748.669655 297.004841 
L 744.846207 292.63829 
L 740.892414 288.380359 
L 736.786552 284.274497 
L 732.528621 280.320703 
L 728.162069 276.497255 
L 723.665172 272.825876 
L 719.037931 269.284841 
L 714.323793 265.9176 
L 709.47931 262.724152 
L 704.526207 259.682772 
L 699.486207 256.793462 
L 694.339759 254.099669 
L 689.112931 251.557945 
L 683.803552 249.211738 
L 678.42031 247.039324 
L 672.965379 245.040703 
L 667.447448 243.215876 
L 661.873034 241.586566 
L 656.246483 240.152772 
L 650.57431 238.892772 
L 644.863034 237.82829 
L 639.121345 236.959324 
L 633.353586 236.285876 
L 627.564103 235.807945 
L 621.763759 235.503807 
L 608.651069 235.41691 
L 323.256724 235.460359 
L 322.287828 235.764497 
L 321.46231 236.372772 
L 320.862724 237.19829 
L 320.547724 238.175876 
L 320.547724 239.175186 
L 320.862724 240.152772 
L 321.46231 240.97829 
L 321.46231 240.97829 
" style="fill:none;stroke:#000000;stroke-linecap:square;stroke-width:2;"/>
   </g>
   <g id="line2d_19">
    <path clip-path="url(#p9a6e48e742)" d="M 297.537517 273.890359 
L 405.347897 381.700738 
L 558.079448 534.43229 
L 563.262828 538.859669 
L 569.076207 542.422428 
L 575.376207 545.031497 
L 582.004241 546.623876 
L 588.801724 547.15829 
L 595.599207 546.623876 
L 602.227241 545.031497 
L 608.527241 542.422428 
L 614.340621 538.859669 
L 619.524 534.43229 
L 623.951379 529.248259 
L 627.514138 523.435097 
L 630.123207 517.136183 
L 631.715586 510.506823 
L 632.25 503.710014 
L 631.715586 496.913183 
L 630.123207 490.284497 
L 627.514138 483.984497 
L 623.951379 478.171117 
L 619.524 472.987738 
L 523.833517 377.160393 
L 521.776241 374.690359 
L 519.868862 372.100841 
L 518.124414 369.400531 
L 516.545069 366.60029 
L 515.137345 363.708807 
L 513.907759 360.739117 
L 512.858483 357.69991 
L 511.993862 354.602048 
L 511.320414 351.458566 
L 510.835966 348.280324 
L 510.544862 345.078186 
L 510.449276 341.865186 
L 510.544862 338.652186 
L 510.835966 335.450048 
L 511.320414 332.271807 
L 511.993862 329.128324 
L 512.858483 326.030462 
L 513.907759 322.991255 
L 515.137345 320.021566 
L 516.545069 317.130083 
L 518.124414 314.329841 
L 519.868862 311.629531 
L 521.776241 309.040014 
L 523.833517 306.569979 
L 526.036345 304.23029 
L 528.378207 302.02529 
L 530.848241 299.968014 
L 533.437759 298.062807 
L 536.138069 296.316186 
L 538.93831 294.745531 
L 541.827621 293.333462 
L 544.799483 292.095186 
L 547.83869 291.052428 
L 550.934379 290.183462 
L 554.077862 289.510014 
L 557.256103 289.032083 
L 560.458241 288.727945 
L 563.673414 288.641048 
L 614.557862 288.749669 
L 619.665207 289.053807 
L 624.757345 289.575186 
L 629.825586 290.292083 
L 634.861241 291.204497 
L 639.853448 292.334152 
L 644.797862 293.659324 
L 649.683621 295.182186 
L 654.504207 296.900566 
L 659.253103 298.810117 
L 663.921621 300.910841 
L 668.498897 303.198393 
L 672.982759 305.668428 
L 677.362345 308.314428 
L 681.63331 311.136393 
L 685.784793 314.129979 
L 689.814621 317.286497 
L 693.714103 320.6016 
L 697.474552 324.073117 
L 701.093793 327.692359 
L 704.569655 331.452807 
L 707.871724 335.35229 
L 711.043448 339.382117 
L 714.019655 343.5336 
L 716.843793 347.804566 
L 719.494138 352.184152 
L 721.97069 356.668014 
L 724.251724 361.24529 
L 726.358966 365.913807 
L 728.27069 370.662703 
L 729.986897 375.48329 
L 731.507586 380.369048 
L 732.832759 385.313462 
L 733.962414 390.305669 
L 734.874828 395.341324 
L 735.591724 400.409566 
L 736.113103 405.501703 
L 736.417241 410.609048 
L 736.525862 420.758566 
L 736.438966 516.838997 
L 736.156552 522.358231 
L 735.070345 527.801214 
L 733.788621 533.182934 
L 732.354828 538.496876 
L 730.725517 543.73891 
L 728.922414 548.900566 
L 726.945517 553.977497 
L 724.816552 558.965359 
L 722.513793 563.855462 
L 720.058966 568.645634 
L 717.452069 573.329359 
L 714.693103 577.90229 
L 711.782069 582.360083 
L 708.74069 586.696221 
L 705.568966 590.908531 
L 702.266897 594.990497 
L 698.812759 598.942117 
L 695.265207 602.754703 
L 691.591655 606.428255 
L 687.811655 609.958428 
L 683.925207 613.340876 
L 679.941 616.573428 
L 675.863379 619.65391 
L 671.701034 622.580152 
L 667.453966 625.347807 
L 663.133034 627.954703 
L 658.742586 630.403014 
L 654.289138 632.686221 
L 649.777034 634.804324 
L 645.214966 636.757324 
L 640.607276 638.543048 
L 635.95831 640.161497 
L 631.276759 641.612669 
L 626.569138 642.892221 
L 621.839793 644.004497 
L 617.095241 644.947324 
L 612.339828 645.722876 
L 607.584414 646.328979 
L 602.829 646.769979 
L 598.082276 647.041531 
L 593.350759 647.150152 
L 588.638793 647.091497 
L 583.952897 646.872083 
L 579.299586 646.49191 
L 574.681034 645.953152 
L 570.105931 645.255807 
L 565.576448 644.406393 
L 561.101276 643.402738 
L 556.684759 642.249186 
L 552.329069 640.94791 
L 548.042897 639.505428 
L 543.828414 637.919566 
L 539.689966 636.196841 
L 535.634069 634.339428 
L 531.662897 632.353841 
L 527.782966 630.23791 
L 523.996448 628.000324 
L 520.30769 625.643255 
L 516.721034 623.173221 
L 513.238655 620.590221 
L 509.864897 617.8986 
L 506.601931 615.107048 
L 503.456276 612.217738 
L 500.425324 609.235014 
L 497.51581 606.163221 
L 494.728821 603.006703 
L 491.644862 600.223841 
L 488.657793 597.336703 
L 484.242145 592.702945 
L 354.489517 462.951186 
L 349.306138 458.521634 
L 343.492759 454.961048 
L 337.192759 452.351979 
L 330.564724 450.7596 
L 323.767241 450.225186 
L 316.969759 450.7596 
L 310.341724 452.351979 
L 304.041724 454.961048 
L 298.228345 458.521634 
L 293.044966 462.951186 
L 288.617586 468.134566 
L 285.054828 473.947945 
L 282.445759 480.245772 
L 280.853379 486.875979 
L 280.318966 493.67281 
L 280.318966 628.623807 
L 280.707828 635.555979 
L 281.872241 642.401255 
L 283.792655 649.072738 
L 286.449517 655.487876 
L 289.808069 661.564117 
L 293.827034 667.225428 
L 298.452103 672.404462 
L 303.631138 677.029531 
L 309.292448 681.048497 
L 315.36869 684.407048 
L 321.783828 687.06391 
L 328.45531 688.984324 
L 335.300586 690.148738 
L 342.232759 690.5376 
L 348.75 690.5376 
L 352.245414 690.678807 
L 355.719103 691.100255 
L 359.147172 691.799772 
L 362.507897 692.773014 
L 365.779552 694.013462 
L 368.940414 695.5146 
L 371.970931 697.263393 
L 374.851552 699.251152 
L 377.560552 701.464841 
L 380.084897 703.889255 
L 382.405034 706.507014 
L 384.507931 709.305083 
L 386.378379 712.261738 
L 388.003345 715.3596 
L 389.374138 718.579117 
L 390.482069 721.898566 
L 391.320621 725.294048 
L 391.881103 728.748186 
L 392.163517 732.226221 
L 392.163517 735.745531 
L 391.881103 739.221393 
L 391.320621 742.675531 
L 390.482069 746.064497 
L 389.374138 749.38829 
L 388.003345 752.603462 
L 386.378379 755.710014 
L 384.507931 758.664497 
L 382.405034 761.46691 
L 380.084897 764.073807 
L 377.560552 766.50691 
L 374.851552 768.722772 
L 371.970931 770.699669 
L 368.940414 772.459324 
L 365.779552 773.95829 
L 362.507897 775.196566 
L 359.147172 776.174152 
L 355.719103 776.869324 
L 352.245414 777.303807 
L 348.75 777.434152 
L 323.767241 777.434152 
L 316.461414 777.998979 
L 309.333724 779.715186 
L 302.56231 782.5176 
L 296.314448 786.362772 
L 290.740034 791.120359 
L 285.980276 796.681738 
L 282.15031 802.93829 
L 279.345724 809.716221 
L 277.636034 816.841738 
L 277.060345 824.141048 
L 277.636034 831.440359 
L 279.345724 838.565876 
L 282.15031 845.343807 
L 285.980276 851.600359 
L 290.740034 857.161738 
L 296.314448 861.919324 
L 302.56231 865.764497 
L 309.333724 868.56691 
L 316.461414 870.283117 
L 323.767241 870.847945 
L 500.818966 870.847945 
L 508.363759 870.196221 
L 515.678276 868.219324 
L 522.543103 865.025876 
L 528.747517 860.681048 
L 534.102517 855.33691 
L 538.447345 849.123807 
L 541.64731 842.258979 
L 543.606828 834.937945 
L 544.267241 827.399669 
L 544.521414 822.707255 
L 544.838586 820.361048 
L 545.283931 818.05829 
L 545.850931 815.777255 
L 546.541759 813.517945 
L 547.352069 811.323807 
L 548.281862 809.151393 
L 549.328966 807.044152 
L 550.486862 805.002083 
L 551.753379 803.025186 
L 553.126345 801.113462 
L 554.601414 799.26691 
L 556.172069 797.528979 
L 557.836138 795.856221 
L 559.587103 794.292083 
L 561.422793 792.814841 
L 563.332345 791.446221 
L 565.315759 790.164497 
L 567.364345 789.013117 
L 569.471586 787.970359 
L 571.633138 787.036221 
L 573.842483 786.232428 
L 576.090931 785.537255 
L 578.37631 784.972428 
L 580.685586 784.516221 
L 585.362793 784.016566 
L 587.715517 783.951393 
L 665.922414 783.951393 
L 673.076172 783.799324 
L 680.216897 783.321393 
L 687.331552 782.539324 
L 694.402759 781.453117 
L 701.419655 780.062772 
L 708.371379 778.36829 
L 715.236207 776.369669 
L 722.014138 774.06691 
L 728.683448 771.460014 
L 735.244138 768.592428 
L 741.652759 765.420703 
L 747.931034 761.966566 
L 754.057241 758.273462 
L 760.009655 754.297945 
L 765.766552 750.061738 
L 771.349655 745.586566 
L 776.737241 740.850703 
L 781.907586 735.919324 
L 786.838966 730.748979 
L 791.574828 725.361393 
L 796.05 719.780462 
L 800.286207 714.010531 
L 804.261724 708.06029 
L 807.954828 701.942772 
L 811.408966 695.668841 
L 814.58069 689.251531 
L 817.448276 682.701703 
L 820.055172 676.032393 
L 822.357931 669.254462 
L 824.356552 662.38529 
L 826.051034 655.433566 
L 827.441379 648.414497 
L 828.527586 641.34329 
L 829.309655 634.228634 
L 829.787586 627.08791 
L 829.939655 619.934152 
L 829.939655 409.210014 
L 829.80931 402.0606 
L 829.461724 394.917703 
L 828.875172 387.792186 
L 828.027931 380.688393 
L 826.963448 373.619359 
L 825.66 366.587255 
L 824.117586 359.605117 
L 822.336207 352.67729 
L 820.337586 345.812462 
L 818.1 339.019324 
L 815.645172 332.302221 
L 812.951379 325.674186 
L 810.062069 319.137393 
L 806.933793 312.702703 
L 803.61 306.374462 
L 800.068966 300.161359 
L 796.31069 294.072083 
L 792.378621 288.097945 
L 788.22931 282.275876 
L 783.884483 276.584152 
L 779.365862 271.066221 
L 774.651724 265.678634 
L 769.763793 260.443117 
L 764.723793 255.403117 
L 759.488276 250.515186 
L 754.10069 245.801048 
L 748.582759 241.282428 
L 742.891034 236.9376 
L 737.068966 232.78829 
L 731.094828 228.856221 
L 725.012069 225.097945 
L 718.798966 221.55691 
L 712.455517 218.233117 
L 706.025172 215.104841 
L 699.486207 212.215531 
L 692.86469 209.521738 
L 686.147586 207.06691 
L 679.354448 204.829324 
L 672.489621 202.830703 
L 665.561793 201.049324 
L 658.579655 199.50691 
L 651.547552 198.203462 
L 644.478517 197.138979 
L 637.374724 196.291738 
L 630.249207 195.705186 
L 623.10631 195.3576 
L 615.956897 195.227255 
L 323.767241 195.227255 
L 316.969759 195.770359 
L 310.341724 197.356221 
L 304.041724 199.963117 
L 298.228345 203.525876 
L 293.044966 207.9576 
L 288.617586 213.127945 
L 285.054828 218.950014 
L 282.445759 225.250014 
L 280.853379 231.875876 
L 280.318966 238.675531 
L 280.853379 245.475186 
L 282.445759 252.101048 
L 285.054828 258.401048 
L 288.617586 264.223117 
L 293.044966 269.393462 
L 293.044966 269.393462 
" style="fill:none;stroke:#000000;stroke-dasharray:1.85,0.8;stroke-dashoffset:0;stroke-opacity:0.5;stroke-width:0.5;"/>
   </g>
   <g id="line2d_20">
    <path clip-path="url(#p9a6e48e742)" d="M 318.232613 293.592469 
L 322.142354 296.293202 
L 325.71922 298.626709 
L 329.246236 301.175499 
L 333.131833 305.143468 
L 337.364936 309.142574 
L 341.477646 313.53906 
L 344.867249 316.594781 
L 349.700043 319.257865 
L 353.490343 321.948427 
L 357.344119 326.396486 
L 362.096112 329.241456 
L 366.005613 333.214929 
L 371.311108 336.089677 
L 380.674261 344.669665 
L 385.946671 348.28789 
L 389.476059 352.140214 
L 394.541603 355.225822 
L 398.95917 358.346207 
L 403.126721 361.817478 
L 407.418697 365.195516 
L 412.349863 369.470136 
L 415.941355 373.959187 
L 420.843198 378.074506 
L 424.42618 381.716054 
L 427.72332 385.665682 
L 430.830243 389.195202 
L 434.724216 393.382355 
L 438.988713 397.125438 
L 442.864694 401.205975 
L 445.852935 405.955985 
L 450.364937 411.2523 
L 453.804855 417.237702 
L 457.771093 421.181268 
L 466.210762 430.994672 
L 470.836929 435.331613 
L 474.24817 441.293739 
L 477.535676 446.649184 
L 486.10491 457.303565 
L 490.027231 463.191465 
L 494.680005 469.08682 
L 502.632052 480.057418 
L 507.303884 484.898072 
L 510.53869 491.223711 
L 514.826535 496.985574 
L 517.829491 501.635291 
L 521.448223 506.941325 
L 524.869062 512.963942 
L 528.631537 518.781811 
L 533.85515 523.205814 
L 544.346626 533.239488 
L 548.386194 537.725318 
L 554.427668 542.674186 
L 558.595526 545.529192 
L 563.237691 549.044117 
L 568.565248 552.905056 
L 574.112582 554.978875 
L 580.620062 556.130721 
L 588.000306 556.953746 
L 594.309112 556.158474 
L 601.325744 554.120571 
L 606.508676 550.023045 
L 612.389498 546.646299 
L 615.998162 541.535685 
L 619.719051 537.43111 
L 622.877103 531.886514 
L 627.079175 525.793057 
L 630.180634 520.667987 
L 632.556362 515.245192 
L 634.9991 509.304355 
L 635.598071 502.317873 
L 637.456635 496.221333 
L 638.39142 490.252496 
L 637.667607 484.493197 
L 637.401002 479.47447 
L 635.553195 473.259493 
L 634.134991 466.419476 
L 632.110896 460.842656 
L 629.560942 456.537207 
L 626.963823 451.425266 
L 624.017747 447.782882 
L 620.418072 442.820029 
L 615.710212 438.685929 
L 609.822414 435.544195 
L 605.573698 432.547205 
L 600.535474 428.684386 
L 589.176947 424.796403 
L 582.928168 421.334368 
L 577.857182 418.750334 
L 572.005191 416.550557 
L 566.085069 414.632863 
L 555.391131 408.49342 
L 542.556047 404.820033 
L 536.201667 402.612255 
L 529.955951 399.362615 
L 524.781356 396.982256 
L 519.209937 393.624609 
L 513.930135 389.64189 
L 508.901094 384.866815 
L 505.149767 380.305279 
L 500.395998 375.156979 
L 497.932492 370.333334 
L 496.436757 364.288843 
L 495.25452 358.605587 
L 495.284314 352.316543 
L 496.461168 346.03334 
L 497.258707 339.06108 
L 499.947989 332.230851 
L 503.200437 326.999217 
L 506.618868 320.509066 
L 510.422158 314.129917 
L 514.494674 307.871397 
L 517.489396 302.8866 
L 521.768866 299.00952 
L 525.280533 294.732827 
L 530.560337 289.582485 
L 536.397245 286.132246 
L 542.116643 282.099648 
L 547.021329 279.257478 
L 553.03813 276.936059 
L 565.394861 275.445622 
L 571.241442 274.236209 
L 577.563695 275.031568 
L 583.600363 276.464369 
L 594.115921 279.521962 
L 599.318993 280.381559 
L 605.724563 282.630265 
L 612.757294 284.020461 
L 619.371769 287.140355 
L 625.130575 290.226339 
L 630.842205 294.028374 
L 636.847925 296.955431 
L 642.965639 300.663183 
L 648.288079 305.173859 
L 653.767234 308.777941 
L 658.769428 313.472583 
L 664.324566 317.450326 
L 669.405061 321.545682 
L 673.502164 325.923793 
L 677.887638 330.272411 
L 686.932212 339.890157 
L 691.343868 345.077781 
L 695.00291 349.857139 
L 699.31234 354.235453 
L 703.485012 360.202128 
L 706.551726 365.937026 
L 710.034507 371.212054 
L 718.193243 382.09876 
L 721.934491 387.789199 
L 724.745391 392.606171 
L 727.145503 397.368282 
L 729.267924 403.289191 
L 732.856428 409.641036 
L 734.536097 415.491856 
L 739.919642 426.873611 
L 741.510701 433.820118 
L 743.966332 446.800038 
L 744.610407 453.324381 
L 746.562188 460.220912 
L 746.615695 467.402991 
L 748.297416 474.472742 
L 748.122077 481.273823 
L 749.25322 495.034721 
L 748.817806 501.225897 
L 748.549588 507.810151 
L 747.414961 520.748039 
L 745.462315 527.777902 
L 744.213918 534.150054 
L 741.573695 540.539511 
L 738.309132 545.930711 
L 735.981726 550.903212 
L 734.039957 556.345475 
L 730.35545 561.26518 
L 726.5461 566.680654 
L 724.154264 571.998818 
L 720.004715 577.726445 
L 716.791616 583.450567 
L 714.106469 588.52071 
L 709.357706 594.333856 
L 704.31332 599.313826 
L 700.715153 604.867582 
L 695.963177 610.6694 
L 691.319098 615.712888 
L 685.809622 621.228939 
L 680.635549 626.192754 
L 676.02314 631.096202 
L 671.461798 635.107014 
L 666.208709 638.555229 
L 661.298368 643.037518 
L 656.442557 646.298586 
L 650.966805 650.280956 
L 644.596342 652.407841 
L 638.53742 655.681222 
L 631.580841 657.578107 
L 625.14106 658.679448 
L 619.573837 660.598642 
L 612.207569 662.732085 
L 605.494694 662.939227 
L 598.603457 662.336474 
L 592.707285 662.766086 
L 586.381202 662.987331 
L 578.944732 661.771032 
L 573.269376 659.482966 
L 559.777906 656.654481 
L 548.772977 651.535353 
L 544.094618 649.197965 
L 539.333177 643.996527 
L 534.891294 640.282276 
L 530.701309 635.908889 
L 525.494945 631.31662 
L 521.553288 625.841403 
L 518.260931 619.783477 
L 514.909532 614.184484 
L 511.226383 608.739551 
L 507.788544 602.878639 
L 504.356267 596.586215 
L 501.11865 591.229735 
L 496.793055 586.804218 
L 493.024737 582.404734 
L 489.250141 577.654372 
L 482.251321 566.923988 
L 478.32954 562.464804 
L 475.252736 556.491731 
L 471.510396 550.933945 
L 463.74346 540.366479 
L 461.183697 534.321195 
L 458.199094 529.084487 
L 454.438652 523.168393 
L 449.437873 517.628744 
L 443.873549 513.544107 
L 438.182512 508.733669 
L 433.686935 505.239853 
L 429.680236 499.792462 
L 425.753032 495.171353 
L 421.889673 490.355988 
L 417.331038 486.380089 
L 412.778715 481.698312 
L 407.331825 476.547083 
L 402.155604 473.086353 
L 396.835536 468.155775 
L 390.621248 465.094634 
L 385.941789 460.901498 
L 381.268753 458.069659 
L 374.673392 455.871549 
L 368.530969 452.960958 
L 361.497517 452.03841 
L 354.749829 450.985738 
L 340.596702 451.084194 
L 335.369875 452.173844 
L 329.682503 454.392299 
L 318.662609 462.231946 
L 313.064919 466.782123 
L 307.48031 470.876611 
L 302.813545 474.970552 
L 297.273276 480.507299 
L 292.795288 486.497775 
L 287.706592 491.238782 
L 284.333603 497.151132 
L 279.903726 502.52856 
L 277.555973 508.422794 
L 273.63435 514.54285 
L 266.717161 525.803791 
L 264.802288 532.33314 
L 262.437698 538.287412 
L 261.163765 543.962396 
L 260.269814 549.253881 
L 260.097232 555.6258 
L 258.115479 562.156838 
L 258.044873 568.434005 
L 258.213843 574.429781 
L 257.517223 581.646553 
L 257.376101 587.360702 
L 259.235264 593.693117 
L 260.733381 600.591943 
L 262.623564 607.541899 
L 264.894896 613.462957 
L 267.506821 618.18284 
L 271.379545 623.620592 
L 278.057194 634.281348 
L 282.933206 638.989867 
L 287.016222 644.553462 
L 290.940619 648.937122 
L 296.601898 653.958424 
L 301.173469 658.226246 
L 307.016161 661.515599 
L 311.403715 664.819025 
L 316.395994 668.137848 
L 322.297356 671.519388 
L 329.053206 673.620163 
L 334.381033 675.968842 
L 340.02211 677.637899 
L 345.659311 681.109099 
L 351.765867 684.502779 
L 364.719511 689.666196 
L 376.116753 696.319994 
L 381.47296 698.764662 
L 386.460331 703.099266 
L 391.507417 707.793658 
L 396.321029 712.08829 
L 399.298253 717.855911 
L 401.976521 723.523679 
L 404.35123 729.099188 
L 403.954373 735.193282 
L 404.444783 740.934147 
L 402.016983 747.238633 
L 399.497791 751.824715 
L 396.340679 756.492969 
L 391.602496 760.585937 
L 386.770259 763.027665 
L 381.988475 764.780132 
L 377.463282 766.704971 
L 371.693089 766.741127 
L 367.040301 767.384328 
L 361.710837 768.548909 
L 357.151077 768.666972 
L 351.944784 769.995277 
L 345.655953 770.213254 
L 341.13791 770.124269 
L 335.256841 771.269515 
L 329.723643 771.548161 
L 324.036487 774.177686 
L 319.354845 775.532783 
L 315.00212 777.942502 
L 310.604949 780.239397 
L 304.684403 783.936838 
L 299.194379 787.577812 
L 295.571812 791.626506 
L 290.402047 794.857227 
L 286.119872 799.130316 
L 282.716456 803.379358 
L 279.009388 808.33833 
L 277.067383 813.860985 
L 274.25082 819.188994 
L 273.488166 824.442588 
L 272.38082 829.763585 
L 272.254278 835.545029 
L 273.051912 840.607037 
L 274.508011 845.546812 
L 278.421572 849.898969 
L 282.398725 854.773991 
L 286.559474 857.810576 
L 290.519972 860.04389 
L 295.453074 863.653229 
L 300.187408 865.506966 
L 304.204856 867.600332 
L 309.408207 869.122045 
L 313.629863 871.528082 
L 317.857462 873.535882 
L 323.931049 874.671496 
L 328.297801 875.954358 
L 333.671289 877.280763 
L 345.003965 881.117248 
L 354.361476 883.005242 
L 358.695491 885.755105 
L 365.083669 887.616694 
L 371.369635 891.049538 
L 378.125146 893.395338 
L 383.610291 894.01349 
L 390.000387 894.92788 
L 397.007585 896.931139 
L 403.424185 897.399866 
L 409.518169 898.504533 
L 416.456826 899.306828 
L 422.531323 898.402957 
L 428.263691 899.181392 
L 434.957546 899.436831 
L 441.993456 898.125186 
L 448.942678 895.832154 
L 454.659241 894.699998 
L 459.961167 892.507403 
L 467.170843 890.742162 
L 474.155104 888.543485 
L 480.44443 885.124824 
L 486.697901 882.949292 
L 491.623395 880.641892 
L 497.328796 877.470249 
L 503.604169 874.822958 
L 508.913191 872.171999 
L 515.188708 869.206832 
L 519.918382 866.039115 
L 524.607531 862.165315 
L 528.310891 858.219382 
L 532.365673 854.407691 
L 536.96332 849.207708 
L 541.27472 843.749043 
L 547.224997 840.046935 
L 552.604695 835.490471 
L 556.831541 831.04277 
L 562.120608 826.759245 
L 566.880176 823.747949 
L 572.611822 818.900668 
L 577.221242 816.00886 
L 583.301271 812.960463 
L 588.724874 809.178165 
L 594.597382 806.167816 
L 600.123657 803.528534 
L 612.088095 796.901159 
L 618.571355 794.200349 
L 623.595595 790.335348 
L 629.989447 787.214578 
L 642.044736 782.826612 
L 648.255774 781.743944 
L 654.623486 779.195203 
L 667.125632 775.715632 
L 672.47552 773.067548 
L 678.798671 770.435114 
L 684.567282 769.347512 
L 691.613889 767.832775 
L 698.308059 766.167181 
L 704.793952 763.729441 
L 710.807854 762.133865 
L 718.235448 761.548286 
L 724.528659 760.078716 
L 736.555436 756.48331 
L 743.82063 754.75804 
L 750.708364 751.620606 
L 757.347835 749.440738 
L 762.17931 746.030192 
L 768.644472 743.055373 
L 774.556237 739.745887 
L 780.175084 735.090711 
L 784.385384 731.774401 
L 794.060974 722.936658 
L 799.437376 719.023252 
L 802.501524 713.097807 
L 805.088525 706.941072 
L 809.514572 702.021211 
L 813.513274 697.267031 
L 816.368756 692.364984 
L 819.98406 680.264661 
L 822.580226 673.919885 
L 824.483073 668.27131 
L 826.178511 662.201034 
L 828.352882 656.999382 
L 830.909335 651.541052 
L 832.725328 645.998876 
L 833.35987 640.715491 
L 835.576381 635.727433 
L 838.765716 629.184982 
L 840.750436 623.41149 
L 842.363435 617.333942 
L 845.476644 610.422652 
L 846.553404 603.458507 
L 850.416479 591.112086 
L 852.361159 584.006639 
L 855.184817 577.192336 
L 858.961558 563.405555 
L 859.907904 557.541621 
L 861.312278 552.053905 
L 861.16751 545.816891 
L 860.44379 539.069003 
L 861.781211 532.881722 
L 862.605478 526.538568 
L 863.92138 520.450488 
L 864.584025 513.206015 
L 867.113219 499.773731 
L 866.528825 494.191429 
L 866.380193 488.57989 
L 865.397725 481.549654 
L 863.379433 475.801597 
L 861.762558 468.348468 
L 860.943751 462.682569 
L 860.318867 455.767024 
L 858.24689 448.761557 
L 855.772964 442.110337 
L 854.353474 436.37216 
L 851.667829 430.510099 
L 849.881334 424.433507 
L 847.258151 412.045951 
L 846.114689 404.770133 
L 841.851077 391.723949 
L 839.900958 384.681115 
L 836.878334 377.674692 
L 834.502571 371.816789 
L 831.473273 366.77344 
L 829.194641 361.638639 
L 827.179253 355.902052 
L 823.614145 351.07321 
L 816.502231 339.962926 
L 814.023158 335.28192 
L 809.934812 330.469859 
L 806.823688 325.79755 
L 803.726836 319.734294 
L 799.681948 314.745579 
L 795.856612 309.00099 
L 790.89405 304.071365 
L 786.762595 299.175362 
L 783.40144 294.985643 
L 780.116224 289.331805 
L 774.720629 283.615253 
L 769.178006 278.265355 
L 765.097569 273.331195 
L 761.389968 269.119868 
L 755.677166 265.51682 
L 749.785766 260.883874 
L 745.831998 257.492918 
L 740.207188 252.880836 
L 734.815293 248.274307 
L 729.065462 244.583428 
L 722.794385 239.882607 
L 717.460659 236.217013 
L 712.269847 231.831214 
L 706.100298 228.895546 
L 700.669917 225.011395 
L 694.118418 222.756847 
L 687.677939 219.927566 
L 682.625597 218.092647 
L 677.743622 214.695323 
L 671.071075 212.547176 
L 665.411219 210.603191 
L 651.794906 204.614024 
L 645.253966 203.241042 
L 632.979701 197.708599 
L 626.556151 196.287842 
L 619.269585 194.979128 
L 613.66992 192.309218 
L 608.438163 190.731518 
L 596.669617 189.618047 
L 590.588785 188.265092 
L 583.428518 186.921313 
L 576.930818 185.57282 
L 570.955464 183.797784 
L 565.560989 180.696458 
L 558.590959 177.923561 
L 551.48394 176.95472 
L 545.740559 174.746161 
L 539.155362 173.616486 
L 526.77277 169.329274 
L 520.307906 168.15439 
L 513.45227 167.23541 
L 500.774593 163.666893 
L 494.147322 163.634524 
L 487.75224 164.350609 
L 481.370504 164.825554 
L 475.010215 164.842965 
L 467.515872 163.745029 
L 460.148968 164.249949 
L 454.335469 163.817965 
L 448.308251 164.498084 
L 442.756869 163.860454 
L 435.999093 164.139879 
L 429.257733 163.836936 
L 421.799348 163.719101 
L 415.294199 165.187251 
L 408.883569 166.175711 
L 403.693868 168.738053 
L 397.053988 170.749462 
L 390.330986 172.198736 
L 384.06031 173.353974 
L 378.420016 175.399142 
L 372.276606 177.190796 
L 365.510777 180.00066 
L 358.812933 181.705046 
L 353.517504 183.450795 
L 348.493121 185.44482 
L 336.51401 191.247411 
L 336.51401 191.247411 
" style="fill:none;stroke:#ff0000;stroke-linecap:square;stroke-width:2;"/>
   </g>
   <g id="line2d_21">
    <path clip-path="url(#p9a6e48e742)" d="M 341.346937 204.403531 
L 335.248168 206.699469 
L 329.187032 209.093542 
L 323.165644 211.586366 
L 317.186105 214.178469 
L 311.250825 216.870162 
L 305.364738 219.664405 
" style="fill:none;stroke:#0000ff;stroke-linecap:square;"/>
    <defs>
     <path d="M 0 0.5 
C 0.132602 0.5 0.25979 0.447317 0.353553 0.353553 
C 0.447317 0.25979 0.5 0.132602 0.5 0 
C 0.5 -0.132602 0.447317 -0.25979 0.353553 -0.353553 
C 0.25979 -0.447317 0.132602 -0.5 0 -0.5 
C -0.132602 -0.5 -0.25979 -0.447317 -0.353553 -0.353553 
C -0.447317 -0.25979 -0.5 -0.132602 -0.5 0 
C -0.5 0.132602 -0.447317 0.25979 -0.353553 0.353553 
C -0.25979 0.447317 -0.132602 0.5 0 0.5 
z
" id="mdb6f5a3703" style="stroke:#0000ff;"/>
    </defs>
    <g clip-path="url(#p9a6e48e742)">
     <use style="fill:#0000ff;stroke:#0000ff;" x="341.346937" xlink:href="#mdb6f5a3703" y="204.403531"/>
     <use style="fill:#0000ff;stroke:#0000ff;" x="335.248168" xlink:href="#mdb6f5a3703" y="206.699469"/>
     <use style="fill:#0000ff;stroke:#0000ff;" x="329.187032" xlink:href="#mdb6f5a3703" y="209.093542"/>
     <use style="fill:#0000ff;stroke:#0000ff;" x="323.165644" xlink:href="#mdb6f5a3703" y="211.586366"/>
     <use style="fill:#0000ff;stroke:#0000ff;" x="317.186105" xlink:href="#mdb6f5a3703" y="214.178469"/>
     <use style="fill:#0000ff;stroke:#0000ff;" x="311.250825" xlink:href="#mdb6f5a3703" y="216.870162"/>
     <use style="fill:#0000ff;stroke:#0000ff;" x="305.364738" xlink:href="#mdb6f5a3703" y="219.664405"/>
    </g>
   </g>
   <g id="line2d_22">
    <path clip-path="url(#p9a6e48e742)" d="M 336.51401 191.247411 
" style="fill:none;stroke:#008000;stroke-linecap:square;stroke-opacity:0.5;stroke-width:1.5;"/>
    <defs>
     <path d="M 0 2.5 
C 0.663008 2.5 1.29895 2.236584 1.767767 1.767767 
C 2.236584 1.29895 2.5 0.663008 2.5 0 
C 2.5 -0.663008 2.236584 -1.29895 1.767767 -1.767767 
C 1.29895 -2.236584 0.663008 -2.5 0 -2.5 
C -0.663008 -2.5 -1.29895 -2.236584 -1.767767 -1.767767 
C -2.236584 -1.29895 -2.5 -0.663008 -2.5 0 
C -2.5 0.663008 -2.236584 1.29895 -1.767767 1.767767 
C -1.29895 2.236584 -0.663008 2.5 0 2.5 
z
" id="m0fb5c6bfb2" style="stroke:#008000;stroke-opacity:0.5;"/>
    </defs>
    <g clip-path="url(#p9a6e48e742)">
     <use style="fill:#008000;fill-opacity:0.5;stroke:#008000;stroke-opacity:0.5;" x="336.51401" xlink:href="#m0fb5c6bfb2" y="191.247411"/>
    </g>
   </g>
   <g id="line2d_23">
    <path clip-path="url(#p9a6e48e742)" d="M 336.51401 191.247411 
L 330.644653 194.080314 
L 324.787767 196.938903 
L 318.949937 199.835515 
L 313.143485 202.795402 
L 307.353946 205.789025 
L 301.633973 208.912632 
" style="fill:none;stroke:#008000;stroke-linecap:square;stroke-width:0.5;"/>
    <defs>
     <path d="M 0 0.5 
C 0.132602 0.5 0.25979 0.447317 0.353553 0.353553 
C 0.447317 0.25979 0.5 0.132602 0.5 0 
C 0.5 -0.132602 0.447317 -0.25979 0.353553 -0.353553 
C 0.25979 -0.447317 0.132602 -0.5 0 -0.5 
C -0.132602 -0.5 -0.25979 -0.447317 -0.353553 -0.353553 
C -0.447317 -0.25979 -0.5 -0.132602 -0.5 0 
C -0.5 0.132602 -0.447317 0.25979 -0.353553 0.353553 
C -0.25979 0.447317 -0.132602 0.5 0 0.5 
z
" id="mc5f89f38df" style="stroke:#008000;"/>
    </defs>
    <g clip-path="url(#p9a6e48e742)">
     <use style="fill:#008000;stroke:#008000;" x="336.51401" xlink:href="#mc5f89f38df" y="191.247411"/>
     <use style="fill:#008000;stroke:#008000;" x="330.644653" xlink:href="#mc5f89f38df" y="194.080314"/>
     <use style="fill:#008000;stroke:#008000;" x="324.787767" xlink:href="#mc5f89f38df" y="196.938903"/>
     <use style="fill:#008000;stroke:#008000;" x="318.949937" xlink:href="#mc5f89f38df" y="199.835515"/>
     <use style="fill:#008000;stroke:#008000;" x="313.143485" xlink:href="#mc5f89f38df" y="202.795402"/>
     <use style="fill:#008000;stroke:#008000;" x="307.353946" xlink:href="#mc5f89f38df" y="205.789025"/>
     <use style="fill:#008000;stroke:#008000;" x="301.633973" xlink:href="#mc5f89f38df" y="208.912632"/>
    </g>
   </g>
   <g id="line2d_24">
    <path clip-path="url(#p9a6e48e742)" d="M 336.51401 191.247411 
L 330.644612 194.08023 
L 324.812846 196.989996 
L 318.996567 199.930352 
L 313.27033 203.0436 
L 307.453274 205.983463 
L 302.089285 209.699878 
" style="fill:none;stroke:#ff0000;stroke-linecap:square;stroke-width:0.5;"/>
    <defs>
     <path d="M 0 0.5 
C 0.132602 0.5 0.25979 0.447317 0.353553 0.353553 
C 0.447317 0.25979 0.5 0.132602 0.5 0 
C 0.5 -0.132602 0.447317 -0.25979 0.353553 -0.353553 
C 0.25979 -0.447317 0.132602 -0.5 0 -0.5 
C -0.132602 -0.5 -0.25979 -0.447317 -0.353553 -0.353553 
C -0.447317 -0.25979 -0.5 -0.132602 -0.5 0 
C -0.5 0.132602 -0.447317 0.25979 -0.353553 0.353553 
C -0.25979 0.447317 -0.132602 0.5 0 0.5 
z
" id="mb1b3ebee53" style="stroke:#ff0000;"/>
    </defs>
    <g clip-path="url(#p9a6e48e742)">
     <use style="fill:#ff0000;stroke:#ff0000;" x="336.51401" xlink:href="#mb1b3ebee53" y="191.247411"/>
     <use style="fill:#ff0000;stroke:#ff0000;" x="330.644612" xlink:href="#mb1b3ebee53" y="194.08023"/>
     <use style="fill:#ff0000;stroke:#ff0000;" x="324.812846" xlink:href="#mb1b3ebee53" y="196.989996"/>
     <use style="fill:#ff0000;stroke:#ff0000;" x="318.996567" xlink:href="#mb1b3ebee53" y="199.930352"/>
     <use style="fill:#ff0000;stroke:#ff0000;" x="313.27033" xlink:href="#mb1b3ebee53" y="203.0436"/>
     <use style="fill:#ff0000;stroke:#ff0000;" x="307.453274" xlink:href="#mb1b3ebee53" y="205.983463"/>
     <use style="fill:#ff0000;stroke:#ff0000;" x="302.089285" xlink:href="#mb1b3ebee53" y="209.699878"/>
    </g>
   </g>
   <g id="line2d_25">
    <path clip-path="url(#p9a6e48e742)" d="M 489.054285 585.430764 
L 494.119329 592.941832 
L 499.278794 600.272165 
L 504.538333 607.404067 
L 509.90493 614.320056 
L 515.387183 621.002776 
L 520.995626 627.434838 
L 526.743057 633.598549 
L 532.644865 639.475512 
L 538.719295 645.046042 
" style="fill:none;stroke:#000000;stroke-dasharray:3.7,1.6;stroke-dashoffset:0;"/>
   </g>
   <g id="line2d_26">
    <path clip-path="url(#p9a6e48e742)" d="M 427.405044 536.525673 
L 432.697262 540.541475 
L 438.015785 544.537334 
L 443.357966 548.503321 
L 448.721036 552.429495 
L 454.102078 556.305879 
L 459.498 560.122451 
L 464.905499 563.869137 
L 470.321027 567.535803 
L 475.740756 571.112249 
" style="fill:none;stroke:#000000;stroke-dasharray:3.7,1.6;stroke-dashoffset:0;"/>
   </g>
   <g id="line2d_27">
    <path clip-path="url(#p9a6e48e742)" d="M 437.977077 894.539736 
L 429.472028 895.410424 
L 420.794871 895.868199 
L 411.955183 895.895412 
L 403.000987 895.500743 
L 393.976439 894.705543 
L 384.927669 893.528358 
L 375.903798 891.985983 
L 366.956643 890.094154 
L 358.140466 887.868133 
" style="fill:none;stroke:#000000;stroke-dasharray:3.7,1.6;stroke-dashoffset:0;"/>
   </g>
   <g id="line2d_28">
    <path clip-path="url(#p9a6e48e742)" d="M 505.809237 851.950497 
L 500.929594 856.446043 
L 495.950532 860.874138 
L 490.852416 865.221402 
L 485.615374 869.473679 
L 480.219368 873.615863 
L 474.644332 877.631725 
L 468.870366 881.503754 
L 462.878005 885.213036 
L 456.648543 888.739195 
" style="fill:none;stroke:#000000;stroke-dasharray:3.7,1.6;stroke-dashoffset:0;"/>
   </g>
   <g id="line2d_29">
    <path clip-path="url(#p9a6e48e742)" d="M 852.725473 556.76372 
L 851.06198 565.638197 
L 849.262608 574.443011 
L 847.330465 583.171422 
L 845.26864 591.816588 
L 843.080218 600.371555 
L 840.768287 608.829256 
L 838.33593 617.182496 
L 835.785733 625.424127 
L 833.110591 633.539643 
" style="fill:none;stroke:#000000;stroke-dasharray:3.7,1.6;stroke-dashoffset:0;"/>
   </g>
   <g id="line2d_30">
    <path clip-path="url(#p9a6e48e742)" d="M 843.703244 478.026226 
L 845.151837 484.473845 
L 846.515944 490.962292 
L 847.795993 497.488097 
L 848.992444 504.047829 
L 850.105785 510.638098 
L 851.136528 517.25556 
L 852.085206 523.896908 
L 852.952369 530.558882 
L 853.738585 537.238262 
" style="fill:none;stroke:#000000;stroke-dasharray:3.7,1.6;stroke-dashoffset:0;"/>
   </g>
   <g id="line2d_31">
    <path clip-path="url(#p9a6e48e742)" d="M 502.727023 168.804178 
L 511.596714 169.996539 
L 520.415493 171.355829 
L 529.178447 172.88115 
L 537.880619 174.571594 
L 546.517011 176.426228 
L 555.082582 178.444098 
L 563.572252 180.624215 
L 571.980905 182.965554 
L 580.303389 185.467042 
" style="fill:none;stroke:#000000;stroke-dasharray:3.7,1.6;stroke-dashoffset:0;"/>
   </g>
   <g id="line2d_32">
    <path clip-path="url(#p9a6e48e742)" d="M 424.673434 183.016853 
L 431.015506 181.090743 
L 437.401891 179.25305 
L 443.830519 177.504438 
L 450.299337 175.845559 
L 456.806309 174.277059 
L 463.349417 172.799579 
L 469.92666 171.413758 
L 476.536056 170.120233 
L 483.17564 168.919642 
" style="fill:none;stroke:#000000;stroke-dasharray:3.7,1.6;stroke-dashoffset:0;"/>
   </g>
   <g id="patch_7">
    <path d="M 135 939.4128 
L 135 126.6624 
" style="fill:none;stroke:#000000;stroke-linecap:square;stroke-linejoin:miter;stroke-width:0.8;"/>
   </g>
   <g id="patch_8">
    <path d="M 972 939.4128 
L 972 126.6624 
" style="fill:none;stroke:#000000;stroke-linecap:square;stroke-linejoin:miter;stroke-width:0.8;"/>
   </g>
   <g id="patch_9">
    <path d="M 135 939.4128 
L 972 939.4128 
" style="fill:none;stroke:#000000;stroke-linecap:square;stroke-linejoin:miter;stroke-width:0.8;"/>
   </g>
   <g id="patch_10">
    <path d="M 135 126.6624 
L 972 126.6624 
" style="fill:none;stroke:#000000;stroke-linecap:square;stroke-linejoin:miter;stroke-width:0.8;"/>
   </g>
   <g id="legend_1">
    <g id="patch_11">
     <path d="M 738.33125 929.4128 
L 958 929.4128 
Q 962 929.4128 962 925.4128 
L 962 886.7003 
Q 962 882.7003 958 882.7003 
L 738.33125 882.7003 
Q 734.33125 882.7003 734.33125 886.7003 
L 734.33125 925.4128 
Q 734.33125 929.4128 738.33125 929.4128 
z
" style="fill:#ffffff;opacity:0.8;stroke:#cccccc;stroke-linejoin:miter;"/>
    </g>
    <g id="line2d_33">
     <path d="M 736.33125 892.897175 
L 764.33125 892.897175 
" style="fill:none;stroke:#008000;stroke-linecap:square;stroke-width:0.5;"/>
    </g>
    <g id="line2d_34"/>
    <g id="text_18">
     <!-- Reference raceline -->
     <defs>
      <path d="M 44.390625 34.1875 
Q 47.5625 33.109375 50.5625 29.59375 
Q 53.5625 26.078125 56.59375 19.921875 
L 66.609375 0 
L 56 0 
L 46.6875 18.703125 
Q 43.0625 26.03125 39.671875 28.421875 
Q 36.28125 30.8125 30.421875 30.8125 
L 19.671875 30.8125 
L 19.671875 0 
L 9.8125 0 
L 9.8125 72.90625 
L 32.078125 72.90625 
Q 44.578125 72.90625 50.734375 67.671875 
Q 56.890625 62.453125 56.890625 51.90625 
Q 56.890625 45.015625 53.6875 40.46875 
Q 50.484375 35.9375 44.390625 34.1875 
z
M 19.671875 64.796875 
L 19.671875 38.921875 
L 32.078125 38.921875 
Q 39.203125 38.921875 42.84375 42.21875 
Q 46.484375 45.515625 46.484375 51.90625 
Q 46.484375 58.296875 42.84375 61.546875 
Q 39.203125 64.796875 32.078125 64.796875 
z
" id="DejaVuSans-82"/>
      <path d="M 56.203125 29.59375 
L 56.203125 25.203125 
L 14.890625 25.203125 
Q 15.484375 15.921875 20.484375 11.0625 
Q 25.484375 6.203125 34.421875 6.203125 
Q 39.59375 6.203125 44.453125 7.46875 
Q 49.3125 8.734375 54.109375 11.28125 
L 54.109375 2.78125 
Q 49.265625 0.734375 44.1875 -0.34375 
Q 39.109375 -1.421875 33.890625 -1.421875 
Q 20.796875 -1.421875 13.15625 6.1875 
Q 5.515625 13.8125 5.515625 26.8125 
Q 5.515625 40.234375 12.765625 48.109375 
Q 20.015625 56 32.328125 56 
Q 43.359375 56 49.78125 48.890625 
Q 56.203125 41.796875 56.203125 29.59375 
z
M 47.21875 32.234375 
Q 47.125 39.59375 43.09375 43.984375 
Q 39.0625 48.390625 32.421875 48.390625 
Q 24.90625 48.390625 20.390625 44.140625 
Q 15.875 39.890625 15.1875 32.171875 
z
" id="DejaVuSans-101"/>
      <path d="M 37.109375 75.984375 
L 37.109375 68.5 
L 28.515625 68.5 
Q 23.6875 68.5 21.796875 66.546875 
Q 19.921875 64.59375 19.921875 59.515625 
L 19.921875 54.6875 
L 34.71875 54.6875 
L 34.71875 47.703125 
L 19.921875 47.703125 
L 19.921875 0 
L 10.890625 0 
L 10.890625 47.703125 
L 2.296875 47.703125 
L 2.296875 54.6875 
L 10.890625 54.6875 
L 10.890625 58.5 
Q 10.890625 67.625 15.140625 71.796875 
Q 19.390625 75.984375 28.609375 75.984375 
z
" id="DejaVuSans-102"/>
      <path d="M 41.109375 46.296875 
Q 39.59375 47.171875 37.8125 47.578125 
Q 36.03125 48 33.890625 48 
Q 26.265625 48 22.1875 43.046875 
Q 18.109375 38.09375 18.109375 28.8125 
L 18.109375 0 
L 9.078125 0 
L 9.078125 54.6875 
L 18.109375 54.6875 
L 18.109375 46.1875 
Q 20.953125 51.171875 25.484375 53.578125 
Q 30.03125 56 36.53125 56 
Q 37.453125 56 38.578125 55.875 
Q 39.703125 55.765625 41.0625 55.515625 
z
" id="DejaVuSans-114"/>
      <path d="M 54.890625 33.015625 
L 54.890625 0 
L 45.90625 0 
L 45.90625 32.71875 
Q 45.90625 40.484375 42.875 44.328125 
Q 39.84375 48.1875 33.796875 48.1875 
Q 26.515625 48.1875 22.3125 43.546875 
Q 18.109375 38.921875 18.109375 30.90625 
L 18.109375 0 
L 9.078125 0 
L 9.078125 54.6875 
L 18.109375 54.6875 
L 18.109375 46.1875 
Q 21.34375 51.125 25.703125 53.5625 
Q 30.078125 56 35.796875 56 
Q 45.21875 56 50.046875 50.171875 
Q 54.890625 44.34375 54.890625 33.015625 
z
" id="DejaVuSans-110"/>
      <path d="M 48.78125 52.59375 
L 48.78125 44.1875 
Q 44.96875 46.296875 41.140625 47.34375 
Q 37.3125 48.390625 33.40625 48.390625 
Q 24.65625 48.390625 19.8125 42.84375 
Q 14.984375 37.3125 14.984375 27.296875 
Q 14.984375 17.28125 19.8125 11.734375 
Q 24.65625 6.203125 33.40625 6.203125 
Q 37.3125 6.203125 41.140625 7.25 
Q 44.96875 8.296875 48.78125 10.40625 
L 48.78125 2.09375 
Q 45.015625 0.34375 40.984375 -0.53125 
Q 36.96875 -1.421875 32.421875 -1.421875 
Q 20.0625 -1.421875 12.78125 6.34375 
Q 5.515625 14.109375 5.515625 27.296875 
Q 5.515625 40.671875 12.859375 48.328125 
Q 20.21875 56 33.015625 56 
Q 37.15625 56 41.109375 55.140625 
Q 45.0625 54.296875 48.78125 52.59375 
z
" id="DejaVuSans-99"/>
      <path d="M 34.28125 27.484375 
Q 23.390625 27.484375 19.1875 25 
Q 14.984375 22.515625 14.984375 16.5 
Q 14.984375 11.71875 18.140625 8.90625 
Q 21.296875 6.109375 26.703125 6.109375 
Q 34.1875 6.109375 38.703125 11.40625 
Q 43.21875 16.703125 43.21875 25.484375 
L 43.21875 27.484375 
z
M 52.203125 31.203125 
L 52.203125 0 
L 43.21875 0 
L 43.21875 8.296875 
Q 40.140625 3.328125 35.546875 0.953125 
Q 30.953125 -1.421875 24.3125 -1.421875 
Q 15.921875 -1.421875 10.953125 3.296875 
Q 6 8.015625 6 15.921875 
Q 6 25.140625 12.171875 29.828125 
Q 18.359375 34.515625 30.609375 34.515625 
L 43.21875 34.515625 
L 43.21875 35.40625 
Q 43.21875 41.609375 39.140625 45 
Q 35.0625 48.390625 27.6875 48.390625 
Q 23 48.390625 18.546875 47.265625 
Q 14.109375 46.140625 10.015625 43.890625 
L 10.015625 52.203125 
Q 14.9375 54.109375 19.578125 55.046875 
Q 24.21875 56 28.609375 56 
Q 40.484375 56 46.34375 49.84375 
Q 52.203125 43.703125 52.203125 31.203125 
z
" id="DejaVuSans-97"/>
      <path d="M 9.421875 75.984375 
L 18.40625 75.984375 
L 18.40625 0 
L 9.421875 0 
z
" id="DejaVuSans-108"/>
      <path d="M 9.421875 54.6875 
L 18.40625 54.6875 
L 18.40625 0 
L 9.421875 0 
z
M 9.421875 75.984375 
L 18.40625 75.984375 
L 18.40625 64.59375 
L 9.421875 64.59375 
z
" id="DejaVuSans-105"/>
     </defs>
     <g transform="translate(771.73125 899.897175)scale(0.2 -0.2)">
      <use xlink:href="#DejaVuSans-82"/>
      <use x="69.419922" xlink:href="#DejaVuSans-101"/>
      <use x="130.943359" xlink:href="#DejaVuSans-102"/>
      <use x="166.148438" xlink:href="#DejaVuSans-101"/>
      <use x="227.671875" xlink:href="#DejaVuSans-114"/>
      <use x="268.753906" xlink:href="#DejaVuSans-101"/>
      <use x="330.277344" xlink:href="#DejaVuSans-110"/>
      <use x="393.65625" xlink:href="#DejaVuSans-99"/>
      <use x="448.636719" xlink:href="#DejaVuSans-101"/>
      <use x="510.160156" xlink:href="#DejaVuSans-32"/>
      <use x="541.947266" xlink:href="#DejaVuSans-114"/>
      <use x="583.060547" xlink:href="#DejaVuSans-97"/>
      <use x="644.339844" xlink:href="#DejaVuSans-99"/>
      <use x="699.320312" xlink:href="#DejaVuSans-101"/>
      <use x="760.84375" xlink:href="#DejaVuSans-108"/>
      <use x="788.626953" xlink:href="#DejaVuSans-105"/>
      <use x="816.410156" xlink:href="#DejaVuSans-110"/>
      <use x="879.789062" xlink:href="#DejaVuSans-101"/>
     </g>
    </g>
    <g id="line2d_35">
     <path d="M 736.33125 916.253425 
L 764.33125 916.253425 
" style="fill:none;stroke:#ff0000;stroke-linecap:square;stroke-width:2;"/>
    </g>
    <g id="line2d_36"/>
    <g id="text_19">
     <!-- Trajectory -->
     <defs>
      <path d="M -0.296875 72.90625 
L 61.375 72.90625 
L 61.375 64.59375 
L 35.5 64.59375 
L 35.5 0 
L 25.59375 0 
L 25.59375 64.59375 
L -0.296875 64.59375 
z
" id="DejaVuSans-84"/>
      <path d="M 9.421875 54.6875 
L 18.40625 54.6875 
L 18.40625 -0.984375 
Q 18.40625 -11.421875 14.421875 -16.109375 
Q 10.453125 -20.796875 1.609375 -20.796875 
L -1.8125 -20.796875 
L -1.8125 -13.1875 
L 0.59375 -13.1875 
Q 5.71875 -13.1875 7.5625 -10.8125 
Q 9.421875 -8.453125 9.421875 -0.984375 
z
M 9.421875 75.984375 
L 18.40625 75.984375 
L 18.40625 64.59375 
L 9.421875 64.59375 
z
" id="DejaVuSans-106"/>
      <path d="M 18.3125 70.21875 
L 18.3125 54.6875 
L 36.8125 54.6875 
L 36.8125 47.703125 
L 18.3125 47.703125 
L 18.3125 18.015625 
Q 18.3125 11.328125 20.140625 9.421875 
Q 21.96875 7.515625 27.59375 7.515625 
L 36.8125 7.515625 
L 36.8125 0 
L 27.59375 0 
Q 17.1875 0 13.234375 3.875 
Q 9.28125 7.765625 9.28125 18.015625 
L 9.28125 47.703125 
L 2.6875 47.703125 
L 2.6875 54.6875 
L 9.28125 54.6875 
L 9.28125 70.21875 
z
" id="DejaVuSans-116"/>
      <path d="M 30.609375 48.390625 
Q 23.390625 48.390625 19.1875 42.75 
Q 14.984375 37.109375 14.984375 27.296875 
Q 14.984375 17.484375 19.15625 11.84375 
Q 23.34375 6.203125 30.609375 6.203125 
Q 37.796875 6.203125 41.984375 11.859375 
Q 46.1875 17.53125 46.1875 27.296875 
Q 46.1875 37.015625 41.984375 42.703125 
Q 37.796875 48.390625 30.609375 48.390625 
z
M 30.609375 56 
Q 42.328125 56 49.015625 48.375 
Q 55.71875 40.765625 55.71875 27.296875 
Q 55.71875 13.875 49.015625 6.21875 
Q 42.328125 -1.421875 30.609375 -1.421875 
Q 18.84375 -1.421875 12.171875 6.21875 
Q 5.515625 13.875 5.515625 27.296875 
Q 5.515625 40.765625 12.171875 48.375 
Q 18.84375 56 30.609375 56 
z
" id="DejaVuSans-111"/>
     </defs>
     <g transform="translate(771.73125 923.253425)scale(0.2 -0.2)">
      <use xlink:href="#DejaVuSans-84"/>
      <use x="60.865234" xlink:href="#DejaVuSans-114"/>
      <use x="101.978516" xlink:href="#DejaVuSans-97"/>
      <use x="163.257812" xlink:href="#DejaVuSans-106"/>
      <use x="191.041016" xlink:href="#DejaVuSans-101"/>
      <use x="252.564453" xlink:href="#DejaVuSans-99"/>
      <use x="307.544922" xlink:href="#DejaVuSans-116"/>
      <use x="346.753906" xlink:href="#DejaVuSans-111"/>
      <use x="407.935547" xlink:href="#DejaVuSans-114"/>
      <use x="449.048828" xlink:href="#DejaVuSans-121"/>
     </g>
    </g>
   </g>
  </g>
 </g>
 <defs>
  <clipPath id="p9a6e48e742">
   <rect height="812.7504" width="837" x="135" y="126.6624"/>
  </clipPath>
 </defs>
</svg>
