<?xml version="1.0" encoding="utf-8" standalone="no"?>
<!DOCTYPE svg PUBLIC "-//W3C//DTD SVG 1.1//EN"
  "http://www.w3.org/Graphics/SVG/1.1/DTD/svg11.dtd">
<!-- Created with matplotlib (https://matplotlib.org/) -->
<svg height="1080pt" version="1.1" viewBox="0 0 1080 1080" width="1080pt" xmlns="http://www.w3.org/2000/svg" xmlns:xlink="http://www.w3.org/1999/xlink">
 <defs>
  <style type="text/css">
*{stroke-linecap:butt;stroke-linejoin:round;}
  </style>
 </defs>
 <g id="figure_1">
  <g id="patch_1">
   <path d="M 0 1080 
L 1080 1080 
L 1080 0 
L 0 0 
z
" style="fill:none;"/>
  </g>
  <g id="axes_1">
   <g id="patch_2">
    <path d="M 135 961.2 
L 972 961.2 
L 972 129.6 
L 135 129.6 
z
" style="fill:none;"/>
   </g>
   <g id="line2d_1">
    <path clip-path="url(#p3c5c8f8910)" d="M 291.265613 285.755551 
L 312.264886 301.43134 
L 328.212075 313.606112 
L 341.55011 324.038234 
L 354.180004 334.188949 
L 366.178446 344.140403 
L 376.21938 352.749048 
L 385.886947 361.323063 
L 395.232521 369.917479 
L 404.307477 378.587329 
L 413.163189 387.387645 
L 421.851032 396.373462 
L 430.42238 405.59981 
L 438.928609 415.121723 
L 447.421093 424.994234 
L 455.951206 435.272374 
L 464.570323 446.011178 
L 473.329817 457.26567 
L 483.57853 470.830296 
L 513.190243 510.536343 
L 520.132665 519.32703 
L 525.721758 526.114379 
L 531.334085 532.615579 
L 536.962246 538.767683 
L 541.189306 543.1148 
L 545.41799 547.203586 
L 549.645176 551.007486 
L 553.867741 554.499945 
L 558.082565 557.654405 
L 562.286526 560.444312 
L 565.081589 562.088607 
L 567.869513 563.551206 
L 570.649372 564.824239 
L 573.420238 565.899853 
L 576.181193 566.770152 
L 578.931317 567.427247 
L 581.669623 567.863504 
L 584.395336 568.070499 
L 587.10696 568.042459 
L 589.800317 567.783419 
L 592.47026 567.300972 
L 595.111402 566.603584 
L 597.718481 565.699258 
L 600.286216 564.59608 
L 602.809314 563.302169 
L 605.28249 561.825619 
L 607.700456 560.174527 
L 610.057928 558.356995 
L 612.349616 556.38112 
L 614.570236 554.255003 
L 616.714501 551.986742 
L 618.777123 549.584436 
L 621.706412 545.74736 
L 624.422268 541.654241 
L 626.906848 537.332414 
L 629.142311 532.809213 
L 631.110813 528.111973 
L 632.794511 523.268028 
L 634.175564 518.304712 
L 634.919319 514.943017 
L 635.515347 511.548517 
L 635.958363 508.12931 
L 636.24308 504.693496 
L 636.36421 501.249173 
L 636.316468 497.804442 
L 636.094566 494.3674 
L 635.693219 490.946148 
L 635.107139 487.548784 
L 634.331039 484.183407 
L 633.359633 480.858117 
L 632.187636 477.581012 
L 630.809753 474.360196 
L 629.220712 471.203758 
L 627.415232 468.119793 
L 625.387922 465.116474 
L 623.133764 462.201712 
L 620.647345 459.383694 
L 617.92256 456.671092 
L 614.964402 454.064799 
L 611.786635 451.559559 
L 608.407132 449.147231 
L 604.843053 446.820179 
L 599.187969 443.47308 
L 593.213521 440.2753 
L 586.977378 437.201234 
L 578.355162 433.250629 
L 567.275723 428.465069 
L 547.295734 419.919895 
L 538.733796 416.00241 
L 532.560444 412.962842 
L 526.663851 409.807843 
L 521.101709 406.511793 
L 517.607909 404.223411 
L 514.305487 401.85336 
L 511.211545 399.394044 
L 508.343155 396.837885 
L 505.717419 394.177286 
L 503.351537 391.404573 
L 501.262244 388.512433 
L 499.467006 385.492985 
L 497.983897 382.337871 
L 496.822164 379.045627 
L 495.978355 375.624714 
L 495.437884 372.092288 
L 495.188081 368.464008 
L 495.216455 364.755394 
L 495.510093 360.982296 
L 496.056249 357.160433 
L 496.842166 353.305532 
L 497.855067 349.433337 
L 499.082184 345.559584 
L 500.51075 341.700009 
L 502.127995 337.870349 
L 503.92115 334.086341 
L 505.877448 330.363721 
L 507.984118 326.718229 
L 510.228392 323.1656 
L 512.597511 319.721553 
L 515.078673 316.401885 
L 517.659141 313.222275 
L 520.326262 310.198256 
L 523.066733 307.346516 
L 525.8689 304.680802 
L 528.724881 302.208093 
L 531.63214 299.925806 
L 534.58891 297.829973 
L 537.592838 295.917679 
L 540.641795 294.185609 
L 543.733639 292.630465 
L 546.866201 291.249006 
L 550.037325 290.037961 
L 553.244854 288.994064 
L 556.486629 288.114051 
L 559.760492 287.394658 
L 563.064286 286.832619 
L 566.395851 286.42467 
L 569.753031 286.167545 
L 574.832106 286.057511 
L 579.956674 286.268467 
L 585.119451 286.789393 
L 590.313154 287.609271 
L 595.5305 288.717082 
L 600.764205 290.101805 
L 606.006986 291.752422 
L 611.251559 293.657914 
L 616.490641 295.807262 
L 621.716949 298.189447 
L 626.923199 300.793448 
L 632.102108 303.608248 
L 637.246393 306.622827 
L 642.34877 309.826166 
L 647.401955 313.207246 
L 654.050427 317.972792 
L 660.581236 323.008612 
L 666.977118 328.28859 
L 673.220807 333.786604 
L 679.295 339.476453 
L 685.183922 345.335026 
L 690.877853 351.351433 
L 696.369037 357.518757 
L 701.649679 363.829992 
L 706.711981 370.278131 
L 711.548146 376.85617 
L 716.150377 383.557104 
L 720.510878 390.373929 
L 724.621852 397.299639 
L 728.475502 404.32723 
L 732.064031 411.449697 
L 735.379643 418.660036 
L 738.414541 425.951241 
L 740.501806 431.4685 
L 742.423495 437.024352 
L 744.176318 442.61584 
L 745.756985 448.240011 
L 747.162209 453.893908 
L 748.388699 459.574577 
L 749.433167 465.279063 
L 750.292322 471.004411 
L 750.962877 476.747665 
L 751.441541 482.50587 
L 751.725026 488.276072 
L 751.810041 494.055314 
L 751.693299 499.840643 
L 751.371509 505.629102 
L 750.841384 511.417737 
L 750.099626 517.203595 
L 749.142983 522.983706 
L 747.968169 528.755113 
L 746.576102 534.513054 
L 744.972535 540.250689 
L 743.163728 545.96096 
L 741.155879 551.636839 
L 738.9552 557.271286 
L 736.567901 562.857267 
L 734.000191 568.387746 
L 731.258281 573.855688 
L 728.34838 579.254056 
L 725.276698 584.575815 
L 722.049444 589.813929 
L 718.67283 594.961363 
L 715.153064 600.01108 
L 711.496356 604.956046 
L 707.708916 609.789223 
L 703.796954 614.503577 
L 699.76668 619.092072 
L 695.624303 623.547671 
L 691.376033 627.86334 
L 687.028081 632.032043 
L 682.586655 636.046743 
L 678.057967 639.900406 
L 673.448225 643.585995 
L 668.763639 647.096474 
L 664.010419 650.424808 
L 659.194776 653.563962 
L 654.322918 656.506898 
L 649.401056 659.246583 
L 644.435399 661.775979 
L 639.432157 664.088052 
L 634.397541 666.175765 
L 629.337759 668.032083 
L 624.259022 669.64997 
L 619.16754 671.02239 
L 614.069521 672.142309 
L 608.97118 673.002681 
L 603.878707 673.596519 
L 598.798391 673.916586 
L 593.735846 673.957379 
L 588.693536 673.721518 
L 583.671868 673.216921 
L 578.671391 672.451144 
L 573.692605 671.431865 
L 568.736023 670.166734 
L 563.802153 668.663404 
L 558.891506 666.929531 
L 554.004592 664.972769 
L 549.14192 662.800772 
L 544.304002 660.421195 
L 539.491346 657.841691 
L 534.704463 655.069916 
L 529.943863 652.113522 
L 523.638161 647.897712 
L 517.381299 643.385443 
L 511.174487 638.594859 
L 505.018932 633.544105 
L 498.915844 628.251324 
L 492.866431 622.734658 
L 486.871903 617.012253 
L 479.457765 609.597564 
L 472.133633 601.925192 
L 464.901869 594.030573 
L 456.349 584.313559 
L 447.93662 574.388773 
L 438.305181 562.628948 
L 428.876994 550.766908 
L 417.062085 535.52789 
L 404.27599 519.073772 
L 397.968985 511.277916 
L 392.945501 505.342198 
L 387.930013 499.731167 
L 382.911753 494.497589 
L 379.139762 490.85185 
L 375.35561 487.470369 
L 371.554757 484.375407 
L 367.73266 481.589223 
L 363.884774 479.134078 
L 360.006558 477.032232 
L 357.401987 475.838271 
L 354.78057 474.817822 
L 352.140963 473.977479 
L 349.481818 473.323838 
L 346.801789 472.863496 
L 344.099532 472.603045 
L 341.373698 472.549086 
L 338.622939 472.708219 
L 335.845935 473.086989 
L 333.041273 473.692121 
L 330.20764 474.530146 
L 327.3447 475.605716 
L 324.45697 476.91413 
L 321.551444 478.445917 
L 318.634843 480.192133 
L 315.713947 482.143717 
L 312.795556 484.291571 
L 309.886452 486.626634 
L 305.555055 490.460402 
L 301.282728 494.664361 
L 297.092375 499.207895 
L 293.006901 504.060388 
L 289.04921 509.191224 
L 285.242207 514.569787 
L 281.608795 520.165462 
L 278.171879 525.947631 
L 274.954363 531.885679 
L 271.979153 537.948989 
L 269.269151 544.106947 
L 266.847264 550.328933 
L 264.736387 556.58434 
L 262.959464 562.842521 
L 261.971618 567.001117 
L 261.149117 571.138303 
L 260.499231 575.244637 
L 260.026499 579.312763 
L 259.731379 583.338444 
L 259.609981 587.320757 
L 259.658817 591.25848 
L 259.874604 595.150228 
L 260.253877 598.994757 
L 260.793223 602.790783 
L 261.489235 606.537021 
L 262.338494 610.232189 
L 263.337584 613.875007 
L 264.483092 617.464192 
L 265.771603 620.998461 
L 267.1997 624.476534 
L 269.596102 629.585471 
L 272.287365 634.560754 
L 275.261964 639.398056 
L 278.508372 644.093053 
L 282.015065 648.641416 
L 285.770516 653.038821 
L 289.7632 657.280939 
L 293.98159 661.363446 
L 298.414162 665.282013 
L 303.049389 669.032316 
L 307.875744 672.610027 
L 312.881705 676.010819 
L 318.055738 679.230374 
L 323.386349 682.264324 
L 328.861698 685.108759 
L 334.457312 687.776553 
L 342.028105 691.127328 
L 366.246424 701.520308 
L 371.478625 704.056557 
L 376.479961 706.732078 
L 381.204424 709.588351 
L 384.177529 711.613436 
L 386.9935 713.749582 
L 389.638706 716.009083 
L 392.099515 718.404217 
L 394.362296 720.947294 
L 396.413413 723.650628 
L 398.239254 726.526322 
L 399.826148 729.587064 
L 401.160462 732.84515 
L 402.229181 736.306651 
L 403.022967 739.940552 
L 403.534882 743.691622 
L 403.757802 747.506489 
L 403.68464 751.331458 
L 403.308323 755.112619 
L 402.621763 758.796212 
L 401.617903 762.328495 
L 400.289616 765.655563 
L 398.629818 768.723614 
L 397.673504 770.143978 
L 396.631723 771.479573 
L 395.503387 772.723189 
L 394.287402 773.867596 
L 392.983119 774.906636 
L 391.590467 775.83556 
L 390.109567 776.650075 
L 388.543475 777.352984 
L 386.8979 777.953515 
L 383.391048 778.884099 
L 379.631815 779.508663 
L 375.662261 779.892251 
L 369.407006 780.161504 
L 354.152431 780.521291 
L 349.810977 780.84334 
L 345.529255 781.334352 
L 341.310754 781.985106 
L 337.160296 782.788957 
L 333.083487 783.740769 
L 329.085251 784.834097 
L 325.170708 786.062865 
L 321.344993 787.421035 
L 315.784127 789.687547 
L 310.451846 792.210911 
L 305.365397 794.970573 
L 300.542026 797.945979 
L 295.998982 801.116579 
L 291.753512 804.461817 
L 287.822862 807.961143 
L 284.224281 811.594002 
L 282.018226 814.079945 
L 279.972532 816.610011 
L 278.09231 819.178112 
L 276.382671 821.778157 
L 274.848723 824.404058 
L 273.495579 827.049723 
L 272.328347 829.709065 
L 271.352139 832.375992 
L 270.572063 835.044415 
L 269.993236 837.708243 
L 269.620753 840.361392 
L 269.459738 842.997766 
L 269.515344 845.61126 
L 269.792481 848.19586 
L 270.296566 850.74536 
L 271.032433 853.253774 
L 271.997901 855.717792 
L 273.186849 858.135603 
L 274.591549 860.506009 
L 276.204819 862.827602 
L 278.019454 865.098986 
L 280.028171 867.318791 
L 282.223729 869.485636 
L 284.598878 871.598139 
L 287.146366 873.654919 
L 291.274877 876.632591 
L 295.750371 879.477123 
L 300.548379 882.183856 
L 305.644432 884.748131 
L 311.01406 887.16529 
L 316.632796 889.430672 
L 322.476168 891.539619 
L 328.519709 893.487472 
L 334.738949 895.269572 
L 341.109418 896.88126 
L 347.606649 898.317877 
L 354.206171 899.574763 
L 360.883515 900.647261 
L 367.614212 901.53071 
L 374.373794 902.220452 
L 381.13779 902.711828 
L 387.881733 903.000179 
L 394.58115 903.080844 
L 401.211581 902.949169 
L 407.748534 902.600485 
L 414.167584 902.030152 
L 420.444522 901.233639 
L 426.567792 900.212601 
L 432.543212 898.977183 
L 438.377666 897.538053 
L 444.078144 895.90593 
L 449.651593 894.091514 
L 455.104975 892.105508 
L 460.445246 889.958618 
L 465.679365 887.661546 
L 472.50509 884.383668 
L 479.170963 880.883202 
L 485.693477 877.185519 
L 492.089124 873.315992 
L 499.930403 868.27608 
L 507.631437 863.056859 
L 516.732909 856.626879 
L 533.199626 844.63747 
L 546.66068 834.937561 
L 557.237598 827.603849 
L 566.435071 821.515197 
L 574.225062 816.60922 
L 582.155485 811.879084 
L 590.251096 807.346545 
L 596.863155 803.877405 
L 603.60945 800.55979 
L 610.502658 797.404839 
L 617.555451 794.423692 
L 624.780501 791.627484 
L 632.19051 789.027381 
L 639.798189 786.634556 
L 647.610853 784.455016 
L 655.604634 782.464891 
L 665.795377 780.188255 
L 678.22094 777.672684 
L 717.622712 769.922778 
L 727.661375 767.599057 
L 735.496946 765.559919 
L 743.119122 763.32148 
L 748.673648 761.490117 
L 754.072031 759.511068 
L 759.298785 757.369075 
L 764.338492 755.048947 
L 769.175411 752.535168 
L 773.797079 749.815517 
L 778.203933 746.890724 
L 782.402589 743.767729 
L 786.399168 740.452972 
L 790.199949 736.953052 
L 793.811167 733.274526 
L 797.239071 729.423961 
L 800.489905 725.407922 
L 803.569913 721.232975 
L 806.485342 716.905685 
L 809.242437 712.432619 
L 811.847442 707.820341 
L 814.306603 703.075416 
L 816.626165 698.204411 
L 819.512555 691.52496 
L 822.176674 684.6486 
L 824.633326 677.590894 
L 826.897315 670.367405 
L 828.983444 662.993695 
L 830.906516 655.485326 
L 833.103611 645.934212 
L 835.097952 636.227395 
L 836.916633 626.394225 
L 838.877082 614.452724 
L 840.321465 604.397055 
L 841.589674 594.258819 
L 842.677891 584.049597 
L 843.582301 573.780971 
L 844.299085 563.464523 
L 844.824428 553.111833 
L 845.154513 542.734484 
L 845.285521 532.344055 
L 845.213637 521.95213 
L 844.935043 511.570288 
L 844.445923 501.210112 
L 843.742459 490.883183 
L 842.820834 480.601082 
L 841.677233 470.37539 
L 840.307837 460.217689 
L 838.708829 450.13956 
L 836.876394 440.152585 
L 834.806713 430.268344 
L 832.49597 420.49842 
L 829.940348 410.854393 
L 827.716972 403.2376 
L 825.332477 395.714723 
L 822.784908 388.291692 
L 820.07231 380.974437 
L 817.19273 373.768886 
L 814.144213 366.68097 
L 810.924805 359.716618 
L 807.53255 352.881763 
L 803.965484 346.182343 
L 800.222271 339.623621 
L 796.305094 333.207071 
L 792.217621 326.932562 
L 787.963493 320.799996 
L 783.546353 314.809269 
L 778.969844 308.96028 
L 774.237612 303.252926 
L 769.353299 297.687102 
L 764.32055 292.262707 
L 759.143009 286.979638 
L 753.824319 281.837792 
L 748.368125 276.837065 
L 742.77807 271.977356 
L 737.057798 267.25856 
L 731.210954 262.680576 
L 725.24118 258.243301 
L 719.152122 253.94663 
L 712.947422 249.790463 
L 705.034479 244.792679 
L 696.953657 240.014068 
L 688.712073 235.45443 
L 680.316845 231.113564 
L 671.77509 226.991269 
L 663.093923 223.087344 
L 654.280464 219.401587 
L 645.341828 215.933799 
L 636.285132 212.683778 
L 627.117494 209.651323 
L 617.846031 206.836234 
L 608.477859 204.238308 
L 599.020096 201.857346 
L 589.479858 199.693147 
L 579.864263 197.745509 
L 570.180428 196.014231 
L 560.435469 194.499114 
L 550.636505 193.199955 
L 540.79065 192.116553 
L 530.905024 191.248709 
L 520.986742 190.59622 
L 511.042922 190.158887 
L 501.080681 189.936507 
L 491.107136 189.92888 
L 481.129403 190.135806 
L 471.1546 190.557083 
L 461.189845 191.19251 
L 451.242253 192.041886 
L 441.318941 193.105011 
L 431.427028 194.381684 
L 421.57363 195.871702 
L 411.765864 197.574867 
L 402.010846 199.490976 
L 392.315695 201.619829 
L 382.687526 203.961224 
L 373.133458 206.514962 
L 363.660606 209.28084 
L 354.276089 212.258659 
L 344.987022 215.448216 
L 335.800525 218.849313 
L 326.723713 222.461748 
L 317.763672 226.285271 
L 308.92702 230.318913 
L 301.952738 233.699159 
L 301.952738 233.699159 
" style="fill:none;stroke:#008000;stroke-linecap:square;stroke-width:0.5;"/>
   </g>
   <g id="patch_3">
    <path clip-path="url(#p3c5c8f8910)" d="M 489.054285 597.793164 
L 475.740756 583.474649 
L 437.55805 618.977392 
L 450.871579 633.295907 
z
" style="stroke:#000000;stroke-linejoin:miter;"/>
   </g>
   <g id="patch_4">
    <path clip-path="url(#p3c5c8f8910)" d="M 437.977077 906.902136 
L 456.648543 901.101595 
L 441.180435 851.311019 
L 422.508969 857.11156 
z
" style="stroke:#000000;stroke-linejoin:miter;"/>
   </g>
   <g id="patch_5">
    <path clip-path="url(#p3c5c8f8910)" d="M 852.725473 569.12612 
L 853.738585 549.600662 
L 801.670696 546.899031 
L 800.657585 566.424489 
z
" style="stroke:#000000;stroke-linejoin:miter;"/>
   </g>
   <g id="patch_6">
    <path clip-path="url(#p3c5c8f8910)" d="M 502.727023 181.166578 
L 483.17564 181.282042 
L 483.483544 233.419064 
L 503.034928 233.3036 
z
" style="stroke:#000000;stroke-linejoin:miter;"/>
   </g>
   <g id="matplotlib.axis_1">
    <g id="xtick_1">
     <g id="line2d_2">
      <defs>
       <path d="M 0 0 
L 0 3.5 
" id="md5b934c8cc" style="stroke:#000000;stroke-width:0.8;"/>
      </defs>
      <g>
       <use style="stroke:#000000;stroke-width:0.8;" x="155.405172" xlink:href="#md5b934c8cc" y="961.2"/>
      </g>
     </g>
     <g id="text_1">
      <!-- −1.5 -->
      <defs>
       <path d="M 10.59375 35.5 
L 73.1875 35.5 
L 73.1875 27.203125 
L 10.59375 27.203125 
z
" id="DejaVuSans-8722"/>
       <path d="M 12.40625 8.296875 
L 28.515625 8.296875 
L 28.515625 63.921875 
L 10.984375 60.40625 
L 10.984375 69.390625 
L 28.421875 72.90625 
L 38.28125 72.90625 
L 38.28125 8.296875 
L 54.390625 8.296875 
L 54.390625 0 
L 12.40625 0 
z
" id="DejaVuSans-49"/>
       <path d="M 10.6875 12.40625 
L 21 12.40625 
L 21 0 
L 10.6875 0 
z
" id="DejaVuSans-46"/>
       <path d="M 10.796875 72.90625 
L 49.515625 72.90625 
L 49.515625 64.59375 
L 19.828125 64.59375 
L 19.828125 46.734375 
Q 21.96875 47.46875 24.109375 47.828125 
Q 26.265625 48.1875 28.421875 48.1875 
Q 40.625 48.1875 47.75 41.5 
Q 54.890625 34.8125 54.890625 23.390625 
Q 54.890625 11.625 47.5625 5.09375 
Q 40.234375 -1.421875 26.90625 -1.421875 
Q 22.3125 -1.421875 17.546875 -0.640625 
Q 12.796875 0.140625 7.71875 1.703125 
L 7.71875 11.625 
Q 12.109375 9.234375 16.796875 8.0625 
Q 21.484375 6.890625 26.703125 6.890625 
Q 35.15625 6.890625 40.078125 11.328125 
Q 45.015625 15.765625 45.015625 23.390625 
Q 45.015625 31 40.078125 35.4375 
Q 35.15625 39.890625 26.703125 39.890625 
Q 22.75 39.890625 18.8125 39.015625 
Q 14.890625 38.140625 10.796875 36.28125 
z
" id="DejaVuSans-53"/>
      </defs>
      <g transform="translate(131.12236 983.396875)scale(0.2 -0.2)">
       <use xlink:href="#DejaVuSans-8722"/>
       <use x="83.789062" xlink:href="#DejaVuSans-49"/>
       <use x="147.412109" xlink:href="#DejaVuSans-46"/>
       <use x="179.199219" xlink:href="#DejaVuSans-53"/>
      </g>
     </g>
    </g>
    <g id="xtick_2">
     <g id="line2d_3">
      <g>
       <use style="stroke:#000000;stroke-width:0.8;" x="264.025862" xlink:href="#md5b934c8cc" y="961.2"/>
      </g>
     </g>
     <g id="text_2">
      <!-- −1.0 -->
      <defs>
       <path d="M 31.78125 66.40625 
Q 24.171875 66.40625 20.328125 58.90625 
Q 16.5 51.421875 16.5 36.375 
Q 16.5 21.390625 20.328125 13.890625 
Q 24.171875 6.390625 31.78125 6.390625 
Q 39.453125 6.390625 43.28125 13.890625 
Q 47.125 21.390625 47.125 36.375 
Q 47.125 51.421875 43.28125 58.90625 
Q 39.453125 66.40625 31.78125 66.40625 
z
M 31.78125 74.21875 
Q 44.046875 74.21875 50.515625 64.515625 
Q 56.984375 54.828125 56.984375 36.375 
Q 56.984375 17.96875 50.515625 8.265625 
Q 44.046875 -1.421875 31.78125 -1.421875 
Q 19.53125 -1.421875 13.0625 8.265625 
Q 6.59375 17.96875 6.59375 36.375 
Q 6.59375 54.828125 13.0625 64.515625 
Q 19.53125 74.21875 31.78125 74.21875 
z
" id="DejaVuSans-48"/>
      </defs>
      <g transform="translate(239.74305 983.396875)scale(0.2 -0.2)">
       <use xlink:href="#DejaVuSans-8722"/>
       <use x="83.789062" xlink:href="#DejaVuSans-49"/>
       <use x="147.412109" xlink:href="#DejaVuSans-46"/>
       <use x="179.199219" xlink:href="#DejaVuSans-48"/>
      </g>
     </g>
    </g>
    <g id="xtick_3">
     <g id="line2d_4">
      <g>
       <use style="stroke:#000000;stroke-width:0.8;" x="372.646552" xlink:href="#md5b934c8cc" y="961.2"/>
      </g>
     </g>
     <g id="text_3">
      <!-- −0.5 -->
      <g transform="translate(348.363739 983.396875)scale(0.2 -0.2)">
       <use xlink:href="#DejaVuSans-8722"/>
       <use x="83.789062" xlink:href="#DejaVuSans-48"/>
       <use x="147.412109" xlink:href="#DejaVuSans-46"/>
       <use x="179.199219" xlink:href="#DejaVuSans-53"/>
      </g>
     </g>
    </g>
    <g id="xtick_4">
     <g id="line2d_5">
      <g>
       <use style="stroke:#000000;stroke-width:0.8;" x="481.267241" xlink:href="#md5b934c8cc" y="961.2"/>
      </g>
     </g>
     <g id="text_4">
      <!-- 0.0 -->
      <g transform="translate(465.364116 983.396875)scale(0.2 -0.2)">
       <use xlink:href="#DejaVuSans-48"/>
       <use x="63.623047" xlink:href="#DejaVuSans-46"/>
       <use x="95.410156" xlink:href="#DejaVuSans-48"/>
      </g>
     </g>
    </g>
    <g id="xtick_5">
     <g id="line2d_6">
      <g>
       <use style="stroke:#000000;stroke-width:0.8;" x="589.887931" xlink:href="#md5b934c8cc" y="961.2"/>
      </g>
     </g>
     <g id="text_5">
      <!-- 0.5 -->
      <g transform="translate(573.984806 983.396875)scale(0.2 -0.2)">
       <use xlink:href="#DejaVuSans-48"/>
       <use x="63.623047" xlink:href="#DejaVuSans-46"/>
       <use x="95.410156" xlink:href="#DejaVuSans-53"/>
      </g>
     </g>
    </g>
    <g id="xtick_6">
     <g id="line2d_7">
      <g>
       <use style="stroke:#000000;stroke-width:0.8;" x="698.508621" xlink:href="#md5b934c8cc" y="961.2"/>
      </g>
     </g>
     <g id="text_6">
      <!-- 1.0 -->
      <g transform="translate(682.605496 983.396875)scale(0.2 -0.2)">
       <use xlink:href="#DejaVuSans-49"/>
       <use x="63.623047" xlink:href="#DejaVuSans-46"/>
       <use x="95.410156" xlink:href="#DejaVuSans-48"/>
      </g>
     </g>
    </g>
    <g id="xtick_7">
     <g id="line2d_8">
      <g>
       <use style="stroke:#000000;stroke-width:0.8;" x="807.12931" xlink:href="#md5b934c8cc" y="961.2"/>
      </g>
     </g>
     <g id="text_7">
      <!-- 1.5 -->
      <g transform="translate(791.226185 983.396875)scale(0.2 -0.2)">
       <use xlink:href="#DejaVuSans-49"/>
       <use x="63.623047" xlink:href="#DejaVuSans-46"/>
       <use x="95.410156" xlink:href="#DejaVuSans-53"/>
      </g>
     </g>
    </g>
    <g id="xtick_8">
     <g id="line2d_9">
      <g>
       <use style="stroke:#000000;stroke-width:0.8;" x="915.75" xlink:href="#md5b934c8cc" y="961.2"/>
      </g>
     </g>
     <g id="text_8">
      <!-- 2.0 -->
      <defs>
       <path d="M 19.1875 8.296875 
L 53.609375 8.296875 
L 53.609375 0 
L 7.328125 0 
L 7.328125 8.296875 
Q 12.9375 14.109375 22.625 23.890625 
Q 32.328125 33.6875 34.8125 36.53125 
Q 39.546875 41.84375 41.421875 45.53125 
Q 43.3125 49.21875 43.3125 52.78125 
Q 43.3125 58.59375 39.234375 62.25 
Q 35.15625 65.921875 28.609375 65.921875 
Q 23.96875 65.921875 18.8125 64.3125 
Q 13.671875 62.703125 7.8125 59.421875 
L 7.8125 69.390625 
Q 13.765625 71.78125 18.9375 73 
Q 24.125 74.21875 28.421875 74.21875 
Q 39.75 74.21875 46.484375 68.546875 
Q 53.21875 62.890625 53.21875 53.421875 
Q 53.21875 48.921875 51.53125 44.890625 
Q 49.859375 40.875 45.40625 35.40625 
Q 44.1875 33.984375 37.640625 27.21875 
Q 31.109375 20.453125 19.1875 8.296875 
z
" id="DejaVuSans-50"/>
      </defs>
      <g transform="translate(899.846875 983.396875)scale(0.2 -0.2)">
       <use xlink:href="#DejaVuSans-50"/>
       <use x="63.623047" xlink:href="#DejaVuSans-46"/>
       <use x="95.410156" xlink:href="#DejaVuSans-48"/>
      </g>
     </g>
    </g>
    <g id="text_9">
     <!-- x [m] -->
     <defs>
      <path d="M 54.890625 54.6875 
L 35.109375 28.078125 
L 55.90625 0 
L 45.3125 0 
L 29.390625 21.484375 
L 13.484375 0 
L 2.875 0 
L 24.125 28.609375 
L 4.6875 54.6875 
L 15.28125 54.6875 
L 29.78125 35.203125 
L 44.28125 54.6875 
z
" id="DejaVuSans-120"/>
      <path id="DejaVuSans-32"/>
      <path d="M 8.59375 75.984375 
L 29.296875 75.984375 
L 29.296875 69 
L 17.578125 69 
L 17.578125 -6.203125 
L 29.296875 -6.203125 
L 29.296875 -13.1875 
L 8.59375 -13.1875 
z
" id="DejaVuSans-91"/>
      <path d="M 52 44.1875 
Q 55.375 50.25 60.0625 53.125 
Q 64.75 56 71.09375 56 
Q 79.640625 56 84.28125 50.015625 
Q 88.921875 44.046875 88.921875 33.015625 
L 88.921875 0 
L 79.890625 0 
L 79.890625 32.71875 
Q 79.890625 40.578125 77.09375 44.375 
Q 74.3125 48.1875 68.609375 48.1875 
Q 61.625 48.1875 57.5625 43.546875 
Q 53.515625 38.921875 53.515625 30.90625 
L 53.515625 0 
L 44.484375 0 
L 44.484375 32.71875 
Q 44.484375 40.625 41.703125 44.40625 
Q 38.921875 48.1875 33.109375 48.1875 
Q 26.21875 48.1875 22.15625 43.53125 
Q 18.109375 38.875 18.109375 30.90625 
L 18.109375 0 
L 9.078125 0 
L 9.078125 54.6875 
L 18.109375 54.6875 
L 18.109375 46.1875 
Q 21.1875 51.21875 25.484375 53.609375 
Q 29.78125 56 35.6875 56 
Q 41.65625 56 45.828125 52.96875 
Q 50 49.953125 52 44.1875 
z
" id="DejaVuSans-109"/>
      <path d="M 30.421875 75.984375 
L 30.421875 -13.1875 
L 9.71875 -13.1875 
L 9.71875 -6.203125 
L 21.390625 -6.203125 
L 21.390625 69 
L 9.71875 69 
L 9.71875 75.984375 
z
" id="DejaVuSans-93"/>
     </defs>
     <g transform="translate(526.859375 1006.753125)scale(0.2 -0.2)">
      <use xlink:href="#DejaVuSans-120"/>
      <use x="59.179688" xlink:href="#DejaVuSans-32"/>
      <use x="90.966797" xlink:href="#DejaVuSans-91"/>
      <use x="129.980469" xlink:href="#DejaVuSans-109"/>
      <use x="227.392578" xlink:href="#DejaVuSans-93"/>
     </g>
    </g>
   </g>
   <g id="matplotlib.axis_2">
    <g id="ytick_1">
     <g id="line2d_10">
      <defs>
       <path d="M 0 0 
L -3.5 0 
" id="m9ff175811b" style="stroke:#000000;stroke-width:0.8;"/>
      </defs>
      <g>
       <use style="stroke:#000000;stroke-width:0.8;" x="135" xlink:href="#m9ff175811b" y="959.244828"/>
      </g>
     </g>
     <g id="text_10">
      <!-- −2.0 -->
      <g transform="translate(79.434375 966.843265)scale(0.2 -0.2)">
       <use xlink:href="#DejaVuSans-8722"/>
       <use x="83.789062" xlink:href="#DejaVuSans-50"/>
       <use x="147.412109" xlink:href="#DejaVuSans-46"/>
       <use x="179.199219" xlink:href="#DejaVuSans-48"/>
      </g>
     </g>
    </g>
    <g id="ytick_2">
     <g id="line2d_11">
      <g>
       <use style="stroke:#000000;stroke-width:0.8;" x="135" xlink:href="#m9ff175811b" y="850.624138"/>
      </g>
     </g>
     <g id="text_11">
      <!-- −1.5 -->
      <g transform="translate(79.434375 858.222575)scale(0.2 -0.2)">
       <use xlink:href="#DejaVuSans-8722"/>
       <use x="83.789062" xlink:href="#DejaVuSans-49"/>
       <use x="147.412109" xlink:href="#DejaVuSans-46"/>
       <use x="179.199219" xlink:href="#DejaVuSans-53"/>
      </g>
     </g>
    </g>
    <g id="ytick_3">
     <g id="line2d_12">
      <g>
       <use style="stroke:#000000;stroke-width:0.8;" x="135" xlink:href="#m9ff175811b" y="742.003448"/>
      </g>
     </g>
     <g id="text_12">
      <!-- −1.0 -->
      <g transform="translate(79.434375 749.601886)scale(0.2 -0.2)">
       <use xlink:href="#DejaVuSans-8722"/>
       <use x="83.789062" xlink:href="#DejaVuSans-49"/>
       <use x="147.412109" xlink:href="#DejaVuSans-46"/>
       <use x="179.199219" xlink:href="#DejaVuSans-48"/>
      </g>
     </g>
    </g>
    <g id="ytick_4">
     <g id="line2d_13">
      <g>
       <use style="stroke:#000000;stroke-width:0.8;" x="135" xlink:href="#m9ff175811b" y="633.382759"/>
      </g>
     </g>
     <g id="text_13">
      <!-- −0.5 -->
      <g transform="translate(79.434375 640.981196)scale(0.2 -0.2)">
       <use xlink:href="#DejaVuSans-8722"/>
       <use x="83.789062" xlink:href="#DejaVuSans-48"/>
       <use x="147.412109" xlink:href="#DejaVuSans-46"/>
       <use x="179.199219" xlink:href="#DejaVuSans-53"/>
      </g>
     </g>
    </g>
    <g id="ytick_5">
     <g id="line2d_14">
      <g>
       <use style="stroke:#000000;stroke-width:0.8;" x="135" xlink:href="#m9ff175811b" y="524.762069"/>
      </g>
     </g>
     <g id="text_14">
      <!-- 0.0 -->
      <g transform="translate(96.19375 532.360506)scale(0.2 -0.2)">
       <use xlink:href="#DejaVuSans-48"/>
       <use x="63.623047" xlink:href="#DejaVuSans-46"/>
       <use x="95.410156" xlink:href="#DejaVuSans-48"/>
      </g>
     </g>
    </g>
    <g id="ytick_6">
     <g id="line2d_15">
      <g>
       <use style="stroke:#000000;stroke-width:0.8;" x="135" xlink:href="#m9ff175811b" y="416.141379"/>
      </g>
     </g>
     <g id="text_15">
      <!-- 0.5 -->
      <g transform="translate(96.19375 423.739817)scale(0.2 -0.2)">
       <use xlink:href="#DejaVuSans-48"/>
       <use x="63.623047" xlink:href="#DejaVuSans-46"/>
       <use x="95.410156" xlink:href="#DejaVuSans-53"/>
      </g>
     </g>
    </g>
    <g id="ytick_7">
     <g id="line2d_16">
      <g>
       <use style="stroke:#000000;stroke-width:0.8;" x="135" xlink:href="#m9ff175811b" y="307.52069"/>
      </g>
     </g>
     <g id="text_16">
      <!-- 1.0 -->
      <g transform="translate(96.19375 315.119127)scale(0.2 -0.2)">
       <use xlink:href="#DejaVuSans-49"/>
       <use x="63.623047" xlink:href="#DejaVuSans-46"/>
       <use x="95.410156" xlink:href="#DejaVuSans-48"/>
      </g>
     </g>
    </g>
    <g id="ytick_8">
     <g id="line2d_17">
      <g>
       <use style="stroke:#000000;stroke-width:0.8;" x="135" xlink:href="#m9ff175811b" y="198.9"/>
      </g>
     </g>
     <g id="text_17">
      <!-- 1.5 -->
      <g transform="translate(96.19375 206.498438)scale(0.2 -0.2)">
       <use xlink:href="#DejaVuSans-49"/>
       <use x="63.623047" xlink:href="#DejaVuSans-46"/>
       <use x="95.410156" xlink:href="#DejaVuSans-53"/>
      </g>
     </g>
    </g>
    <g id="text_18">
     <!-- y [m] -->
     <defs>
      <path d="M 32.171875 -5.078125 
Q 28.375 -14.84375 24.75 -17.8125 
Q 21.140625 -20.796875 15.09375 -20.796875 
L 7.90625 -20.796875 
L 7.90625 -13.28125 
L 13.1875 -13.28125 
Q 16.890625 -13.28125 18.9375 -11.515625 
Q 21 -9.765625 23.484375 -3.21875 
L 25.09375 0.875 
L 2.984375 54.6875 
L 12.5 54.6875 
L 29.59375 11.921875 
L 46.6875 54.6875 
L 56.203125 54.6875 
z
" id="DejaVuSans-121"/>
     </defs>
     <g transform="translate(71.275 572.040625)rotate(-90)scale(0.2 -0.2)">
      <use xlink:href="#DejaVuSans-121"/>
      <use x="59.179688" xlink:href="#DejaVuSans-32"/>
      <use x="90.966797" xlink:href="#DejaVuSans-91"/>
      <use x="129.980469" xlink:href="#DejaVuSans-109"/>
      <use x="227.392578" xlink:href="#DejaVuSans-93"/>
     </g>
    </g>
   </g>
   <g id="line2d_18">
    <path clip-path="url(#p3c5c8f8910)" d="M 269.118 314.670103 
L 529.659931 575.214207 
L 539.64 583.736586 
L 550.830103 590.594897 
L 562.956517 595.617517 
L 575.717276 598.680621 
L 588.801724 599.710345 
L 601.886172 598.680621 
L 614.646931 595.617517 
L 626.773345 590.594897 
L 637.963448 583.736586 
L 647.943517 575.214207 
L 656.465897 565.234138 
L 663.324207 554.044034 
L 668.346828 541.918055 
L 671.409931 529.15621 
L 672.439655 516.072414 
L 671.409931 502.987966 
L 668.346828 490.227207 
L 663.324207 478.100793 
L 656.465897 466.91069 
L 647.943517 456.930621 
L 553.410931 362.265517 
L 552.518069 360.970759 
L 551.785966 359.576069 
L 551.227655 358.105345 
L 550.851828 356.578138 
L 550.660655 355.014 
L 550.660655 353.441172 
L 550.851828 351.877034 
L 551.227655 350.349828 
L 551.785966 348.879103 
L 552.518069 347.484414 
L 553.410931 346.189655 
L 554.455862 345.010034 
L 555.63331 343.967276 
L 556.928069 343.072241 
L 558.322759 342.34231 
L 559.793483 341.784 
L 561.322862 341.406 
L 562.884828 341.217 
L 563.673414 341.193103 
L 612.939414 341.262621 
L 616.432655 341.475517 
L 619.912862 341.827448 
L 623.377862 342.318414 
L 626.821138 342.948414 
L 630.236172 343.717448 
L 633.616448 344.623345 
L 636.957621 345.666103 
L 640.253172 346.839207 
L 643.500931 348.147 
L 646.692207 349.582966 
L 649.822655 351.147103 
L 652.887931 352.835069 
L 655.88369 354.64469 
L 658.803414 356.575966 
L 661.642759 358.620207 
L 664.397379 360.779586 
L 667.062931 363.047586 
L 669.635069 365.419862 
L 672.109448 367.894241 
L 674.481724 370.466379 
L 676.749724 373.131931 
L 678.909103 375.886552 
L 680.953345 378.725897 
L 682.884621 381.645621 
L 684.694241 384.641379 
L 686.382207 387.706655 
L 687.946345 390.837103 
L 689.38231 394.028379 
L 690.690103 397.276138 
L 691.863207 400.57169 
L 692.905966 403.912862 
L 693.811862 407.293138 
L 694.580897 410.708172 
L 695.210897 414.151448 
L 695.701862 417.616448 
L 696.053793 421.096655 
L 696.26669 424.589897 
L 696.336207 433.120966 
L 696.264517 527.8293 
L 696.051621 531.977959 
L 695.082724 536.053624 
L 693.976966 540.072807 
L 692.73869 544.031162 
L 691.370069 547.924345 
L 689.873276 551.747793 
L 688.252655 555.497379 
L 686.510379 559.168759 
L 684.650793 562.759759 
L 682.678241 566.263862 
L 680.592724 569.681069 
L 678.402931 573.00269 
L 676.108862 576.230897 
L 673.717034 579.361345 
L 671.229621 582.387517 
L 668.650966 585.311586 
L 665.987586 588.127034 
L 663.241655 590.833862 
L 660.417517 593.427724 
L 657.519517 595.906448 
L 654.554172 598.272207 
L 651.523655 600.518483 
L 648.43231 602.645276 
L 645.286655 604.650414 
L 642.091034 606.533897 
L 638.849793 608.295724 
L 635.567276 609.931552 
L 632.247828 611.441379 
L 628.895793 612.827379 
L 625.51769 614.087379 
L 622.11569 615.221379 
L 618.698483 616.229379 
L 615.266069 617.111379 
L 611.824966 617.867379 
L 608.38169 618.497379 
L 604.936241 619.003552 
L 601.49731 619.385897 
L 598.067069 619.644414 
L 594.652034 619.783448 
L 591.254379 619.798655 
L 587.878448 619.696552 
L 584.528586 619.474966 
L 581.21131 619.138241 
L 577.926621 618.688552 
L 574.681034 618.125897 
L 571.476724 617.452448 
L 568.320207 616.672552 
L 565.211483 615.786207 
L 562.157069 614.795586 
L 556.219862 612.518897 
L 550.532483 609.859862 
L 545.123172 606.846724 
L 540.007138 603.501207 
L 535.210448 599.851552 
L 530.746138 595.923828 
L 526.631586 591.746276 
L 522.879828 587.34931 
L 521.141897 585.076966 
L 517.075138 581.281759 
L 512.660793 576.645828 
L 382.909034 446.894069 
L 372.928966 438.37169 
L 361.738862 431.513379 
L 349.612448 426.490759 
L 336.85169 423.427655 
L 323.767241 422.397931 
L 310.682793 423.427655 
L 297.922034 426.490759 
L 285.795621 431.513379 
L 274.605517 438.37169 
L 264.625448 446.894069 
L 256.096552 456.874138 
L 249.253448 468.064241 
L 244.213448 480.190655 
L 241.150345 492.951414 
L 240.12931 506.03521 
L 240.12931 640.986207 
L 240.781034 652.417448 
L 242.692759 663.70531 
L 245.864483 674.708586 
L 250.231034 685.288241 
L 255.77069 695.309586 
L 262.396552 704.646621 
L 270.034759 713.184207 
L 278.572345 720.813724 
L 287.909379 727.439586 
L 297.930724 732.979241 
L 308.510379 737.361 
L 319.513655 740.530552 
L 330.801517 742.437931 
L 342.232759 743.089655 
L 349.529897 743.176552 
L 350.492276 743.58931 
L 351.100552 744.088966 
L 351.571966 744.718966 
L 351.880448 745.435862 
L 352.006448 746.217931 
L 351.943448 747 
L 351.693621 747.738621 
L 351.274345 748.412069 
L 350.707345 748.955172 
L 350.027379 749.346207 
L 349.012862 749.606897 
L 323.767241 749.606897 
L 310.174448 750.671379 
L 296.914034 753.864828 
L 284.316207 759.078621 
L 272.691621 766.204138 
L 262.331379 775.067586 
L 253.467931 785.43 
L 246.342414 797.052414 
L 241.128621 809.652414 
L 237.935172 822.904138 
L 236.87069 836.503448 
L 237.935172 850.102759 
L 241.128621 863.354483 
L 246.342414 875.954483 
L 253.467931 887.576897 
L 262.331379 897.93931 
L 272.691621 906.802759 
L 284.316207 913.928276 
L 296.914034 919.142069 
L 310.174448 922.335517 
L 323.767241 923.4 
L 500.818966 923.4 
L 515.341552 922.14 
L 529.42531 918.36 
L 542.637931 912.190345 
L 554.57969 903.826552 
L 564.889966 893.52931 
L 573.251586 881.581034 
L 579.412552 868.372759 
L 583.186034 854.295517 
L 584.689345 838.480345 
L 586.036241 836.959655 
L 586.844379 836.612069 
L 587.715517 836.503448 
L 665.922414 836.503448 
L 674.82931 836.307931 
L 683.721 835.721379 
L 692.575759 834.765517 
L 701.376207 833.396897 
L 710.131034 831.658966 
L 718.777241 829.551724 
L 727.336552 827.053448 
L 735.765517 824.185862 
L 744.064138 820.948966 
L 752.232414 817.364483 
L 760.205172 813.432414 
L 768.025862 809.152759 
L 775.651034 804.525517 
L 783.058966 799.572414 
L 790.227931 794.315172 
L 797.179655 788.732069 
L 803.892414 782.844828 
L 810.322759 776.696897 
L 816.47069 770.266552 
L 822.357931 763.553793 
L 827.941034 756.602069 
L 833.198276 749.433103 
L 838.151379 742.025172 
L 842.778621 734.4 
L 847.058276 726.588 
L 850.990345 718.597862 
L 854.574828 710.442621 
L 857.811724 702.139655 
L 860.67931 693.702 
L 863.177586 685.149207 
L 865.284828 676.49431 
L 867.022759 667.756862 
L 868.391379 658.949897 
L 869.347241 650.095138 
L 869.933793 641.203448 
L 870.12931 632.296552 
L 870.12931 421.572414 
L 869.977241 413.078276 
L 869.564483 404.595 
L 868.847586 396.131276 
L 867.87 387.693621 
L 866.588276 379.295069 
L 865.045862 370.94431 
L 863.19931 362.650034 
L 861.092069 354.420931 
L 858.724138 346.267862 
L 856.073793 338.197345 
L 853.141034 330.220241 
L 849.96931 322.345241 
L 846.515172 314.583207 
L 842.800345 306.934138 
L 838.846552 299.417586 
L 834.653793 292.031379 
L 830.200345 284.797241 
L 825.507931 277.715172 
L 820.576552 270.806897 
L 815.427931 264.05069 
L 810.062069 257.468276 
L 804.457241 251.081379 
L 798.656897 244.868276 
L 792.661034 238.872414 
L 786.447931 233.072069 
L 780.061034 227.467241 
L 773.478621 222.101379 
L 766.722414 216.952759 
L 759.814138 212.021379 
L 752.732069 207.328966 
L 745.497931 202.875517 
L 738.111724 198.682759 
L 730.595172 194.728966 
L 722.948276 191.014138 
L 715.192759 187.56 
L 707.306897 184.388276 
L 699.334138 181.455517 
L 691.261448 178.805172 
L 683.108379 176.437241 
L 674.879276 174.33 
L 666.585 172.483448 
L 658.234241 170.941034 
L 649.83569 169.65931 
L 641.398034 168.681724 
L 632.93431 167.964828 
L 624.451034 167.552069 
L 615.956897 167.4 
L 323.767241 167.4 
L 310.682793 168.421034 
L 297.922034 171.484138 
L 285.795621 176.524138 
L 274.605517 183.367241 
L 264.625448 191.904828 
L 256.096552 201.876207 
L 249.253448 213.064138 
L 244.213448 225.186207 
L 241.150345 237.96 
L 240.12931 251.037931 
L 241.150345 264.115862 
L 244.213448 276.889655 
L 249.253448 289.011724 
L 256.096552 300.199655 
L 264.625448 310.179724 
L 264.625448 310.179724 
" style="fill:none;stroke:#000000;stroke-linecap:square;stroke-width:2;"/>
   </g>
   <g id="line2d_19">
    <path clip-path="url(#p3c5c8f8910)" d="M 325.954862 257.837586 
L 483.179009 415.057345 
L 586.885655 518.708638 
L 587.793724 519.171579 
L 588.801724 519.331034 
L 589.809724 519.171579 
L 590.717793 518.708638 
L 591.439034 517.987831 
L 591.901759 517.079328 
L 592.060345 516.072414 
L 591.901759 515.0655 
L 591.439034 514.156997 
L 591.106655 513.768134 
L 497.618783 420.282 
L 493.751017 416.171793 
L 490.13851 411.837828 
L 486.794297 407.293138 
L 483.730541 402.555103 
L 480.95852 397.638931 
L 478.48829 392.566345 
L 476.32891 387.352552 
L 474.488224 382.019276 
L 472.972966 376.583897 
L 471.788566 371.065966 
L 470.939586 365.487207 
L 470.429069 359.867172 
L 470.258534 354.227586 
L 470.429069 348.588 
L 470.939586 342.967966 
L 471.788566 337.389207 
L 472.972966 331.871276 
L 474.488224 326.435897 
L 476.32891 321.102621 
L 478.48829 315.888828 
L 480.95852 310.816241 
L 483.730541 305.891379 
L 486.794297 301.155517 
L 490.13851 296.615172 
L 493.751017 292.292069 
L 497.618783 288.164483 
L 501.727469 284.297586 
L 506.063172 280.691379 
L 510.607862 277.345862 
L 515.345897 274.282759 
L 520.259897 271.523793 
L 525.334655 269.047241 
L 530.546276 266.874828 
L 535.881724 265.05 
L 541.317103 263.52931 
L 546.835034 262.334483 
L 552.411621 261.487241 
L 558.031655 260.987586 
L 563.673414 260.813793 
L 609.439655 260.813793 
L 616.174138 260.944138 
L 622.899931 261.356897 
L 629.601828 262.030345 
L 636.27331 262.986207 
L 642.899172 264.202759 
L 649.470724 265.68 
L 655.979276 267.417931 
L 662.409621 269.416552 
L 668.757414 271.675862 
L 675.005276 274.195862 
L 681.148862 276.954828 
L 687.17731 279.974483 
L 693.077586 283.233103 
L 698.834483 286.708966 
L 704.461034 290.423793 
L 709.935517 294.355862 
L 715.236207 298.526897 
L 720.363103 302.871724 
L 725.316207 307.455517 
L 730.073793 312.213103 
L 734.657586 317.166207 
L 739.002414 322.297448 
L 743.173448 327.60031 
L 747.105517 333.066103 
L 750.820345 338.686138 
L 754.296207 344.451724 
L 757.554828 350.352 
L 760.574483 356.380448 
L 763.333448 362.524034 
L 765.853448 368.771897 
L 768.112759 375.11969 
L 770.111379 381.550034 
L 771.84931 388.058586 
L 773.326552 394.630138 
L 774.543103 401.256 
L 775.498966 407.927483 
L 776.172414 414.629379 
L 776.585172 421.355172 
L 776.715517 433.120966 
L 776.606897 530.573493 
L 776.237586 537.463086 
L 775.042759 544.273603 
L 773.608966 551.017862 
L 771.957931 557.689345 
L 770.067931 564.278276 
L 767.96069 570.778138 
L 765.657931 577.182414 
L 763.116207 583.484586 
L 760.378966 589.675966 
L 757.446207 595.752207 
L 754.317931 601.702448 
L 750.994138 607.524517 
L 747.474828 613.211897 
L 743.781724 618.755897 
L 739.914828 624.152172 
L 735.874138 629.396379 
L 731.659655 634.479828 
L 727.293103 639.400345 
L 722.774483 644.153586 
L 718.103793 648.733034 
L 713.302759 653.134345 
L 708.349655 657.355345 
L 703.287931 661.389517 
L 698.113241 665.232517 
L 692.816897 668.884345 
L 687.418448 672.340655 
L 681.920069 675.599276 
L 676.330448 678.65369 
L 670.660448 681.506069 
L 664.912241 684.152069 
L 659.09669 686.589517 
L 653.22031 688.818414 
L 647.289621 690.836586 
L 641.31331 692.641862 
L 635.297897 694.236414 
L 629.252069 695.618069 
L 623.184517 696.784655 
L 617.099586 697.738345 
L 611.005966 698.48131 
L 604.912345 699.009207 
L 598.823069 699.326379 
L 592.749 699.432828 
L 586.696655 699.330724 
L 580.670379 699.020069 
L 574.681034 698.505207 
L 568.732966 697.786138 
L 562.834862 696.862862 
L 556.991069 695.744069 
L 551.212448 694.425414 
L 545.501172 692.915586 
L 539.865931 691.216759 
L 534.313241 689.328931 
L 528.847448 687.258621 
L 523.475069 685.010172 
L 518.204793 682.583586 
L 513.038793 679.987552 
L 507.985759 677.226414 
L 503.047862 674.300172 
L 498.230752 671.217517 
L 493.540945 667.982793 
L 488.982786 664.600345 
L 484.560403 661.07669 
L 480.278619 657.414 
L 476.141214 653.620966 
L 472.152445 649.699759 
L 468.315962 645.661241 
L 464.213359 641.957276 
L 460.239362 638.116448 
L 455.823931 633.48269 
L 325.68331 503.398986 
L 324.775241 502.935828 
L 323.767241 502.777241 
L 322.759241 502.935828 
L 321.851172 503.398986 
L 321.129931 504.119793 
L 320.667207 505.028297 
L 320.508621 506.03521 
L 320.508621 640.986207 
L 320.645483 643.41931 
L 321.053897 645.819828 
L 321.727345 648.16169 
L 322.65931 650.41231 
L 323.838931 652.543448 
L 325.248828 654.531207 
L 326.871621 656.347345 
L 328.687759 657.970138 
L 330.675517 659.380034 
L 332.806655 660.559655 
L 335.057276 661.491621 
L 337.399138 662.165069 
L 339.799655 662.573483 
L 342.232759 662.710345 
L 348.75 662.710345 
L 355.480138 662.981897 
L 362.166828 663.794379 
L 368.766621 665.141276 
L 375.236069 667.013897 
L 381.533897 669.403552 
L 387.618828 672.29069 
L 393.451759 675.657931 
L 398.995759 679.483552 
L 404.211724 683.743655 
L 409.069241 688.41 
L 413.535724 693.452172 
L 417.582931 698.837586 
L 421.182621 704.52931 
L 424.313069 710.492586 
L 426.952552 716.690483 
L 429.085862 723.079552 
L 430.697793 729.618517 
L 431.777483 736.266103 
L 432.320586 742.981034 
L 432.320586 749.715517 
L 431.777483 756.428276 
L 430.697793 763.075862 
L 429.085862 769.614828 
L 426.952552 776.001724 
L 424.313069 782.193103 
L 421.182621 788.167241 
L 417.582931 793.858966 
L 413.535724 799.246552 
L 409.069241 804.286552 
L 404.211724 808.957241 
L 398.995759 813.215172 
L 393.451759 817.038621 
L 387.618828 820.405862 
L 381.533897 823.295172 
L 375.236069 825.684828 
L 368.766621 827.553103 
L 362.166828 828.9 
L 355.480138 829.725517 
L 348.75 829.986207 
L 322.748379 830.073103 
L 321.753414 830.312069 
L 320.808414 830.703103 
L 319.937276 831.224483 
L 319.159552 831.897931 
L 318.494793 832.68 
L 317.960379 833.548966 
L 317.569345 834.483103 
L 317.330379 835.482414 
L 317.25 836.503448 
L 317.330379 837.524483 
L 317.569345 838.523793 
L 317.960379 839.457931 
L 318.494793 840.326897 
L 319.159552 841.108966 
L 319.937276 841.782414 
L 320.808414 842.303793 
L 321.753414 842.694828 
L 322.748379 842.933793 
L 323.767241 843.02069 
L 501.450052 842.977241 
L 502.448276 842.586207 
L 503.315069 841.847586 
L 503.962448 840.978621 
L 504.207931 839.762069 
L 504.568552 830.724828 
L 505.179 826.227931 
L 506.032759 821.774483 
L 507.125483 817.386207 
L 508.455 813.063103 
L 510.016966 808.805172 
L 511.807034 804.634138 
L 513.820862 800.593448 
L 516.049759 796.639655 
L 518.489379 792.816207 
L 521.131034 789.144828 
L 523.970379 785.625517 
L 526.994379 782.236552 
L 530.19869 779.043103 
L 533.570276 776.023448 
L 537.100448 773.177586 
L 540.778345 770.527241 
L 544.595276 768.094138 
L 548.538207 765.856552 
L 552.596276 763.857931 
L 556.758621 762.054828 
L 561.010034 760.512414 
L 565.339655 759.165517 
L 569.736621 758.07931 
L 574.183552 757.232069 
L 578.671759 756.623793 
L 583.188207 756.254483 
L 587.715517 756.124138 
L 671.323034 756.015517 
L 676.714966 755.646207 
L 682.085172 755.059655 
L 687.424966 754.234138 
L 692.723483 753.191379 
L 697.972034 751.909655 
L 703.157586 750.388966 
L 708.284483 748.651034 
L 713.302759 746.695862 
L 718.255862 744.523448 
L 723.100345 742.133793 
L 727.836207 739.533414 
L 732.463448 736.731 
L 736.938621 733.730897 
L 741.305172 730.535276 
L 745.519655 727.155 
L 749.582069 723.592241 
L 753.492414 719.85569 
L 757.207241 715.954034 
L 760.77 711.891621 
L 764.158966 707.677138 
L 767.352414 703.321448 
L 770.350345 698.828897 
L 773.152759 694.210345 
L 775.759655 689.474483 
L 778.14931 684.627828 
L 780.321724 679.683414 
L 782.276897 674.647759 
L 784.014828 669.531724 
L 785.535517 664.346172 
L 786.817241 659.097621 
L 787.86 653.799103 
L 788.685517 648.45931 
L 789.272069 643.089103 
L 789.641379 637.697172 
L 789.75 632.296552 
L 789.663103 415.765552 
L 789.358966 409.965207 
L 788.881034 404.175724 
L 788.207586 398.407966 
L 787.338621 392.666276 
L 786.274138 386.955 
L 785.014138 381.282828 
L 783.580345 375.656276 
L 781.951034 370.081862 
L 780.126207 364.563931 
L 778.127586 359.109 
L 775.955172 353.725759 
L 773.608966 348.416379 
L 771.067241 343.189552 
L 768.373448 338.049621 
L 765.484138 333.005276 
L 762.442759 328.056517 
L 759.24931 323.214207 
L 755.882069 318.48269 
L 752.341034 313.864138 
L 748.669655 309.367241 
L 744.846207 305.00069 
L 740.892414 300.742759 
L 736.786552 296.636897 
L 732.528621 292.683103 
L 728.162069 288.859655 
L 723.665172 285.188276 
L 719.037931 281.647241 
L 714.323793 278.28 
L 709.47931 275.086552 
L 704.526207 272.045172 
L 699.486207 269.155862 
L 694.339759 266.462069 
L 689.112931 263.920345 
L 683.803552 261.574138 
L 678.42031 259.401724 
L 672.965379 257.403103 
L 667.447448 255.578276 
L 661.873034 253.948966 
L 656.246483 252.515172 
L 650.57431 251.255172 
L 644.863034 250.19069 
L 639.121345 249.321724 
L 633.353586 248.648276 
L 627.564103 248.170345 
L 621.763759 247.866207 
L 608.651069 247.77931 
L 323.256724 247.822759 
L 322.287828 248.126897 
L 321.46231 248.735172 
L 320.862724 249.56069 
L 320.547724 250.538276 
L 320.547724 251.537586 
L 320.862724 252.515172 
L 321.46231 253.34069 
L 321.46231 253.34069 
" style="fill:none;stroke:#000000;stroke-linecap:square;stroke-width:2;"/>
   </g>
   <g id="line2d_20">
    <path clip-path="url(#p3c5c8f8910)" d="M 297.537517 286.252759 
L 405.347897 394.063138 
L 558.079448 546.79469 
L 563.262828 551.222069 
L 569.076207 554.784828 
L 575.376207 557.393897 
L 582.004241 558.986276 
L 588.801724 559.52069 
L 595.599207 558.986276 
L 602.227241 557.393897 
L 608.527241 554.784828 
L 614.340621 551.222069 
L 619.524 546.79469 
L 623.951379 541.610659 
L 627.514138 535.797497 
L 630.123207 529.498583 
L 631.715586 522.869223 
L 632.25 516.072414 
L 631.715586 509.275583 
L 630.123207 502.646897 
L 627.514138 496.346897 
L 623.951379 490.533517 
L 619.524 485.350138 
L 523.833517 389.522793 
L 521.776241 387.052759 
L 519.868862 384.463241 
L 518.124414 381.762931 
L 516.545069 378.96269 
L 515.137345 376.071207 
L 513.907759 373.101517 
L 512.858483 370.06231 
L 511.993862 366.964448 
L 511.320414 363.820966 
L 510.835966 360.642724 
L 510.544862 357.440586 
L 510.449276 354.227586 
L 510.544862 351.014586 
L 510.835966 347.812448 
L 511.320414 344.634207 
L 511.993862 341.490724 
L 512.858483 338.392862 
L 513.907759 335.353655 
L 515.137345 332.383966 
L 516.545069 329.492483 
L 518.124414 326.692241 
L 519.868862 323.991931 
L 521.776241 321.402414 
L 523.833517 318.932379 
L 526.036345 316.59269 
L 528.378207 314.38769 
L 530.848241 312.330414 
L 533.437759 310.425207 
L 536.138069 308.678586 
L 538.93831 307.107931 
L 541.827621 305.695862 
L 544.799483 304.457586 
L 547.83869 303.414828 
L 550.934379 302.545862 
L 554.077862 301.872414 
L 557.256103 301.394483 
L 560.458241 301.090345 
L 563.673414 301.003448 
L 614.557862 301.112069 
L 619.665207 301.416207 
L 624.757345 301.937586 
L 629.825586 302.654483 
L 634.861241 303.566897 
L 639.853448 304.696552 
L 644.797862 306.021724 
L 649.683621 307.544586 
L 654.504207 309.262966 
L 659.253103 311.172517 
L 663.921621 313.273241 
L 668.498897 315.560793 
L 672.982759 318.030828 
L 677.362345 320.676828 
L 681.63331 323.498793 
L 685.784793 326.492379 
L 689.814621 329.648897 
L 693.714103 332.964 
L 697.474552 336.435517 
L 701.093793 340.054759 
L 704.569655 343.815207 
L 707.871724 347.71469 
L 711.043448 351.744517 
L 714.019655 355.896 
L 716.843793 360.166966 
L 719.494138 364.546552 
L 721.97069 369.030414 
L 724.251724 373.60769 
L 726.358966 378.276207 
L 728.27069 383.025103 
L 729.986897 387.84569 
L 731.507586 392.731448 
L 732.832759 397.675862 
L 733.962414 402.668069 
L 734.874828 407.703724 
L 735.591724 412.771966 
L 736.113103 417.864103 
L 736.417241 422.971448 
L 736.525862 433.120966 
L 736.438966 529.201397 
L 736.156552 534.720631 
L 735.070345 540.163614 
L 733.788621 545.545334 
L 732.354828 550.859276 
L 730.725517 556.10131 
L 728.922414 561.262966 
L 726.945517 566.339897 
L 724.816552 571.327759 
L 722.513793 576.217862 
L 720.058966 581.008034 
L 717.452069 585.691759 
L 714.693103 590.26469 
L 711.782069 594.722483 
L 708.74069 599.058621 
L 705.568966 603.270931 
L 702.266897 607.352897 
L 698.812759 611.304517 
L 695.265207 615.117103 
L 691.591655 618.790655 
L 687.811655 622.320828 
L 683.925207 625.703276 
L 679.941 628.935828 
L 675.863379 632.01631 
L 671.701034 634.942552 
L 667.453966 637.710207 
L 663.133034 640.317103 
L 658.742586 642.765414 
L 654.289138 645.048621 
L 649.777034 647.166724 
L 645.214966 649.119724 
L 640.607276 650.905448 
L 635.95831 652.523897 
L 631.276759 653.975069 
L 626.569138 655.254621 
L 621.839793 656.366897 
L 617.095241 657.309724 
L 612.339828 658.085276 
L 607.584414 658.691379 
L 602.829 659.132379 
L 598.082276 659.403931 
L 593.350759 659.512552 
L 588.638793 659.453897 
L 583.952897 659.234483 
L 579.299586 658.85431 
L 574.681034 658.315552 
L 570.105931 657.618207 
L 565.576448 656.768793 
L 561.101276 655.765138 
L 556.684759 654.611586 
L 552.329069 653.31031 
L 548.042897 651.867828 
L 543.828414 650.281966 
L 539.689966 648.559241 
L 535.634069 646.701828 
L 531.662897 644.716241 
L 527.782966 642.60031 
L 523.996448 640.362724 
L 520.30769 638.005655 
L 516.721034 635.535621 
L 513.238655 632.952621 
L 509.864897 630.261 
L 506.601931 627.469448 
L 503.456276 624.580138 
L 500.425324 621.597414 
L 497.51581 618.525621 
L 494.728821 615.369103 
L 491.644862 612.586241 
L 488.657793 609.699103 
L 484.242145 605.065345 
L 354.489517 475.313586 
L 349.306138 470.884034 
L 343.492759 467.323448 
L 337.192759 464.714379 
L 330.564724 463.122 
L 323.767241 462.587586 
L 316.969759 463.122 
L 310.341724 464.714379 
L 304.041724 467.323448 
L 298.228345 470.884034 
L 293.044966 475.313586 
L 288.617586 480.496966 
L 285.054828 486.310345 
L 282.445759 492.608172 
L 280.853379 499.238379 
L 280.318966 506.03521 
L 280.318966 640.986207 
L 280.707828 647.918379 
L 281.872241 654.763655 
L 283.792655 661.435138 
L 286.449517 667.850276 
L 289.808069 673.926517 
L 293.827034 679.587828 
L 298.452103 684.766862 
L 303.631138 689.391931 
L 309.292448 693.410897 
L 315.36869 696.769448 
L 321.783828 699.42631 
L 328.45531 701.346724 
L 335.300586 702.511138 
L 342.232759 702.9 
L 348.75 702.9 
L 352.245414 703.041207 
L 355.719103 703.462655 
L 359.147172 704.162172 
L 362.507897 705.135414 
L 365.779552 706.375862 
L 368.940414 707.877 
L 371.970931 709.625793 
L 374.851552 711.613552 
L 377.560552 713.827241 
L 380.084897 716.251655 
L 382.405034 718.869414 
L 384.507931 721.667483 
L 386.378379 724.624138 
L 388.003345 727.722 
L 389.374138 730.941517 
L 390.482069 734.260966 
L 391.320621 737.656448 
L 391.881103 741.110586 
L 392.163517 744.588621 
L 392.163517 748.107931 
L 391.881103 751.583793 
L 391.320621 755.037931 
L 390.482069 758.426897 
L 389.374138 761.75069 
L 388.003345 764.965862 
L 386.378379 768.072414 
L 384.507931 771.026897 
L 382.405034 773.82931 
L 380.084897 776.436207 
L 377.560552 778.86931 
L 374.851552 781.085172 
L 371.970931 783.062069 
L 368.940414 784.821724 
L 365.779552 786.32069 
L 362.507897 787.558966 
L 359.147172 788.536552 
L 355.719103 789.231724 
L 352.245414 789.666207 
L 348.75 789.796552 
L 323.767241 789.796552 
L 316.461414 790.361379 
L 309.333724 792.077586 
L 302.56231 794.88 
L 296.314448 798.725172 
L 290.740034 803.482759 
L 285.980276 809.044138 
L 282.15031 815.30069 
L 279.345724 822.078621 
L 277.636034 829.204138 
L 277.060345 836.503448 
L 277.636034 843.802759 
L 279.345724 850.928276 
L 282.15031 857.706207 
L 285.980276 863.962759 
L 290.740034 869.524138 
L 296.314448 874.281724 
L 302.56231 878.126897 
L 309.333724 880.92931 
L 316.461414 882.645517 
L 323.767241 883.210345 
L 500.818966 883.210345 
L 508.363759 882.558621 
L 515.678276 880.581724 
L 522.543103 877.388276 
L 528.747517 873.043448 
L 534.102517 867.69931 
L 538.447345 861.486207 
L 541.64731 854.621379 
L 543.606828 847.300345 
L 544.267241 839.762069 
L 544.521414 835.069655 
L 544.838586 832.723448 
L 545.283931 830.42069 
L 545.850931 828.139655 
L 546.541759 825.880345 
L 547.352069 823.686207 
L 548.281862 821.513793 
L 549.328966 819.406552 
L 550.486862 817.364483 
L 551.753379 815.387586 
L 553.126345 813.475862 
L 554.601414 811.62931 
L 556.172069 809.891379 
L 557.836138 808.218621 
L 559.587103 806.654483 
L 561.422793 805.177241 
L 563.332345 803.808621 
L 565.315759 802.526897 
L 567.364345 801.375517 
L 569.471586 800.332759 
L 571.633138 799.398621 
L 573.842483 798.594828 
L 576.090931 797.899655 
L 578.37631 797.334828 
L 580.685586 796.878621 
L 585.362793 796.378966 
L 587.715517 796.313793 
L 665.922414 796.313793 
L 673.076172 796.161724 
L 680.216897 795.683793 
L 687.331552 794.901724 
L 694.402759 793.815517 
L 701.419655 792.425172 
L 708.371379 790.73069 
L 715.236207 788.732069 
L 722.014138 786.42931 
L 728.683448 783.822414 
L 735.244138 780.954828 
L 741.652759 777.783103 
L 747.931034 774.328966 
L 754.057241 770.635862 
L 760.009655 766.660345 
L 765.766552 762.424138 
L 771.349655 757.948966 
L 776.737241 753.213103 
L 781.907586 748.281724 
L 786.838966 743.111379 
L 791.574828 737.723793 
L 796.05 732.142862 
L 800.286207 726.372931 
L 804.261724 720.42269 
L 807.954828 714.305172 
L 811.408966 708.031241 
L 814.58069 701.613931 
L 817.448276 695.064103 
L 820.055172 688.394793 
L 822.357931 681.616862 
L 824.356552 674.74769 
L 826.051034 667.795966 
L 827.441379 660.776897 
L 828.527586 653.70569 
L 829.309655 646.591034 
L 829.787586 639.45031 
L 829.939655 632.296552 
L 829.939655 421.572414 
L 829.80931 414.423 
L 829.461724 407.280103 
L 828.875172 400.154586 
L 828.027931 393.050793 
L 826.963448 385.981759 
L 825.66 378.949655 
L 824.117586 371.967517 
L 822.336207 365.03969 
L 820.337586 358.174862 
L 818.1 351.381724 
L 815.645172 344.664621 
L 812.951379 338.036586 
L 810.062069 331.499793 
L 806.933793 325.065103 
L 803.61 318.736862 
L 800.068966 312.523759 
L 796.31069 306.434483 
L 792.378621 300.460345 
L 788.22931 294.638276 
L 783.884483 288.946552 
L 779.365862 283.428621 
L 774.651724 278.041034 
L 769.763793 272.805517 
L 764.723793 267.765517 
L 759.488276 262.877586 
L 754.10069 258.163448 
L 748.582759 253.644828 
L 742.891034 249.3 
L 737.068966 245.15069 
L 731.094828 241.218621 
L 725.012069 237.460345 
L 718.798966 233.91931 
L 712.455517 230.595517 
L 706.025172 227.467241 
L 699.486207 224.577931 
L 692.86469 221.884138 
L 686.147586 219.42931 
L 679.354448 217.191724 
L 672.489621 215.193103 
L 665.561793 213.411724 
L 658.579655 211.86931 
L 651.547552 210.565862 
L 644.478517 209.501379 
L 637.374724 208.654138 
L 630.249207 208.067586 
L 623.10631 207.72 
L 615.956897 207.589655 
L 323.767241 207.589655 
L 316.969759 208.132759 
L 310.341724 209.718621 
L 304.041724 212.325517 
L 298.228345 215.888276 
L 293.044966 220.32 
L 288.617586 225.490345 
L 285.054828 231.312414 
L 282.445759 237.612414 
L 280.853379 244.238276 
L 280.318966 251.037931 
L 280.853379 257.837586 
L 282.445759 264.463448 
L 285.054828 270.763448 
L 288.617586 276.585517 
L 293.044966 281.755862 
L 293.044966 281.755862 
" style="fill:none;stroke:#000000;stroke-dasharray:1.85,0.8;stroke-dashoffset:0;stroke-opacity:0.5;stroke-width:0.5;"/>
   </g>
   <g id="line2d_21">
    <path clip-path="url(#p3c5c8f8910)" d="M 318.232613 305.954869 
" style="fill:none;stroke:#ff0000;stroke-linecap:square;stroke-width:2;"/>
   </g>
   <g id="line2d_22">
    <path clip-path="url(#p3c5c8f8910)" d="M 318.232613 305.954869 
" style="fill:none;stroke:#0000ff;stroke-linecap:square;"/>
    <defs>
     <path d="M 0 0.5 
C 0.132602 0.5 0.25979 0.447317 0.353553 0.353553 
C 0.447317 0.25979 0.5 0.132602 0.5 0 
C 0.5 -0.132602 0.447317 -0.25979 0.353553 -0.353553 
C 0.25979 -0.447317 0.132602 -0.5 0 -0.5 
C -0.132602 -0.5 -0.25979 -0.447317 -0.353553 -0.353553 
C -0.447317 -0.25979 -0.5 -0.132602 -0.5 0 
C -0.5 0.132602 -0.447317 0.25979 -0.353553 0.353553 
C -0.25979 0.447317 -0.132602 0.5 0 0.5 
z
" id="m3c3a681705" style="stroke:#0000ff;"/>
    </defs>
    <g clip-path="url(#p3c5c8f8910)">
     <use style="fill:#0000ff;stroke:#0000ff;" x="318.232613" xlink:href="#m3c3a681705" y="305.954869"/>
    </g>
   </g>
   <g id="line2d_23">
    <path clip-path="url(#p3c5c8f8910)" d="M 318.232613 305.954869 
" style="fill:none;stroke:#008000;stroke-linecap:square;stroke-opacity:0.5;stroke-width:1.5;"/>
    <defs>
     <path d="M 0 2.5 
C 0.663008 2.5 1.29895 2.236584 1.767767 1.767767 
C 2.236584 1.29895 2.5 0.663008 2.5 0 
C 2.5 -0.663008 2.236584 -1.29895 1.767767 -1.767767 
C 1.29895 -2.236584 0.663008 -2.5 0 -2.5 
C -0.663008 -2.5 -1.29895 -2.236584 -1.767767 -1.767767 
C -2.236584 -1.29895 -2.5 -0.663008 -2.5 0 
C -2.5 0.663008 -2.236584 1.29895 -1.767767 1.767767 
C -1.29895 2.236584 -0.663008 2.5 0 2.5 
z
" id="m14ca441589" style="stroke:#008000;stroke-opacity:0.5;"/>
    </defs>
    <g clip-path="url(#p3c5c8f8910)">
     <use style="fill:#008000;fill-opacity:0.5;stroke:#008000;stroke-opacity:0.5;" x="318.232613" xlink:href="#m14ca441589" y="305.954869"/>
    </g>
   </g>
   <g id="line2d_24">
    <path clip-path="url(#p3c5c8f8910)" d="M 481.267241 524.762069 
L 481.267241 524.762069 
L 481.267241 524.762069 
L 481.267241 524.762069 
L 481.267241 524.762069 
L 481.267241 524.762069 
L 481.267241 524.762069 
" style="fill:none;stroke:#008000;stroke-linecap:square;stroke-width:0.5;"/>
    <defs>
     <path d="M 0 0.5 
C 0.132602 0.5 0.25979 0.447317 0.353553 0.353553 
C 0.447317 0.25979 0.5 0.132602 0.5 0 
C 0.5 -0.132602 0.447317 -0.25979 0.353553 -0.353553 
C 0.25979 -0.447317 0.132602 -0.5 0 -0.5 
C -0.132602 -0.5 -0.25979 -0.447317 -0.353553 -0.353553 
C -0.447317 -0.25979 -0.5 -0.132602 -0.5 0 
C -0.5 0.132602 -0.447317 0.25979 -0.353553 0.353553 
C -0.25979 0.447317 -0.132602 0.5 0 0.5 
z
" id="mffa2dd7f97" style="stroke:#008000;"/>
    </defs>
    <g clip-path="url(#p3c5c8f8910)">
     <use style="fill:#008000;stroke:#008000;" x="481.267241" xlink:href="#mffa2dd7f97" y="524.762069"/>
     <use style="fill:#008000;stroke:#008000;" x="481.267241" xlink:href="#mffa2dd7f97" y="524.762069"/>
     <use style="fill:#008000;stroke:#008000;" x="481.267241" xlink:href="#mffa2dd7f97" y="524.762069"/>
     <use style="fill:#008000;stroke:#008000;" x="481.267241" xlink:href="#mffa2dd7f97" y="524.762069"/>
     <use style="fill:#008000;stroke:#008000;" x="481.267241" xlink:href="#mffa2dd7f97" y="524.762069"/>
     <use style="fill:#008000;stroke:#008000;" x="481.267241" xlink:href="#mffa2dd7f97" y="524.762069"/>
     <use style="fill:#008000;stroke:#008000;" x="481.267241" xlink:href="#mffa2dd7f97" y="524.762069"/>
    </g>
   </g>
   <g id="line2d_25">
    <path clip-path="url(#p3c5c8f8910)" d="M 481.267241 524.762069 
L 481.267241 524.762069 
L 481.267241 524.762069 
L 481.267241 524.762069 
L 481.267241 524.762069 
L 481.267241 524.762069 
L 481.267241 524.762069 
" style="fill:none;stroke:#ff0000;stroke-linecap:square;stroke-width:0.5;"/>
    <defs>
     <path d="M 0 0.5 
C 0.132602 0.5 0.25979 0.447317 0.353553 0.353553 
C 0.447317 0.25979 0.5 0.132602 0.5 0 
C 0.5 -0.132602 0.447317 -0.25979 0.353553 -0.353553 
C 0.25979 -0.447317 0.132602 -0.5 0 -0.5 
C -0.132602 -0.5 -0.25979 -0.447317 -0.353553 -0.353553 
C -0.447317 -0.25979 -0.5 -0.132602 -0.5 0 
C -0.5 0.132602 -0.447317 0.25979 -0.353553 0.353553 
C -0.25979 0.447317 -0.132602 0.5 0 0.5 
z
" id="m3d88856885" style="stroke:#ff0000;"/>
    </defs>
    <g clip-path="url(#p3c5c8f8910)">
     <use style="fill:#ff0000;stroke:#ff0000;" x="481.267241" xlink:href="#m3d88856885" y="524.762069"/>
     <use style="fill:#ff0000;stroke:#ff0000;" x="481.267241" xlink:href="#m3d88856885" y="524.762069"/>
     <use style="fill:#ff0000;stroke:#ff0000;" x="481.267241" xlink:href="#m3d88856885" y="524.762069"/>
     <use style="fill:#ff0000;stroke:#ff0000;" x="481.267241" xlink:href="#m3d88856885" y="524.762069"/>
     <use style="fill:#ff0000;stroke:#ff0000;" x="481.267241" xlink:href="#m3d88856885" y="524.762069"/>
     <use style="fill:#ff0000;stroke:#ff0000;" x="481.267241" xlink:href="#m3d88856885" y="524.762069"/>
     <use style="fill:#ff0000;stroke:#ff0000;" x="481.267241" xlink:href="#m3d88856885" y="524.762069"/>
    </g>
   </g>
   <g id="line2d_26">
    <path clip-path="url(#p3c5c8f8910)" d="M 489.054285 597.793164 
L 494.119329 605.304232 
L 499.278794 612.634565 
L 504.538333 619.766467 
L 509.90493 626.682456 
L 515.387183 633.365176 
L 520.995626 639.797238 
L 526.743057 645.960949 
L 532.644865 651.837912 
L 538.719295 657.408442 
" style="fill:none;stroke:#000000;stroke-dasharray:3.7,1.6;stroke-dashoffset:0;"/>
   </g>
   <g id="line2d_27">
    <path clip-path="url(#p3c5c8f8910)" d="M 427.405044 548.888073 
L 432.697262 552.903875 
L 438.015785 556.899734 
L 443.357966 560.865721 
L 448.721036 564.791895 
L 454.102078 568.668279 
L 459.498 572.484851 
L 464.905499 576.231537 
L 470.321027 579.898203 
L 475.740756 583.474649 
" style="fill:none;stroke:#000000;stroke-dasharray:3.7,1.6;stroke-dashoffset:0;"/>
   </g>
   <g id="line2d_28">
    <path clip-path="url(#p3c5c8f8910)" d="M 437.977077 906.902136 
L 429.472028 907.772824 
L 420.794871 908.230599 
L 411.955183 908.257812 
L 403.000987 907.863143 
L 393.976439 907.067943 
L 384.927669 905.890758 
L 375.903798 904.348383 
L 366.956643 902.456554 
L 358.140466 900.230533 
" style="fill:none;stroke:#000000;stroke-dasharray:3.7,1.6;stroke-dashoffset:0;"/>
   </g>
   <g id="line2d_29">
    <path clip-path="url(#p3c5c8f8910)" d="M 505.809237 864.312897 
L 500.929594 868.808443 
L 495.950532 873.236538 
L 490.852416 877.583802 
L 485.615374 881.836079 
L 480.219368 885.978263 
L 474.644332 889.994125 
L 468.870366 893.866154 
L 462.878005 897.575436 
L 456.648543 901.101595 
" style="fill:none;stroke:#000000;stroke-dasharray:3.7,1.6;stroke-dashoffset:0;"/>
   </g>
   <g id="line2d_30">
    <path clip-path="url(#p3c5c8f8910)" d="M 852.725473 569.12612 
L 851.06198 578.000597 
L 849.262608 586.805411 
L 847.330465 595.533822 
L 845.26864 604.178988 
L 843.080218 612.733955 
L 840.768287 621.191656 
L 838.33593 629.544896 
L 835.785733 637.786527 
L 833.110591 645.902043 
" style="fill:none;stroke:#000000;stroke-dasharray:3.7,1.6;stroke-dashoffset:0;"/>
   </g>
   <g id="line2d_31">
    <path clip-path="url(#p3c5c8f8910)" d="M 843.703244 490.388626 
L 845.151837 496.836245 
L 846.515944 503.324692 
L 847.795993 509.850497 
L 848.992444 516.410229 
L 850.105785 523.000498 
L 851.136528 529.61796 
L 852.085206 536.259308 
L 852.952369 542.921282 
L 853.738585 549.600662 
" style="fill:none;stroke:#000000;stroke-dasharray:3.7,1.6;stroke-dashoffset:0;"/>
   </g>
   <g id="line2d_32">
    <path clip-path="url(#p3c5c8f8910)" d="M 502.727023 181.166578 
L 511.596714 182.358939 
L 520.415493 183.718229 
L 529.178447 185.24355 
L 537.880619 186.933994 
L 546.517011 188.788628 
L 555.082582 190.806498 
L 563.572252 192.986615 
L 571.980905 195.327954 
L 580.303389 197.829442 
" style="fill:none;stroke:#000000;stroke-dasharray:3.7,1.6;stroke-dashoffset:0;"/>
   </g>
   <g id="line2d_33">
    <path clip-path="url(#p3c5c8f8910)" d="M 424.673434 195.379253 
L 431.015506 193.453143 
L 437.401891 191.61545 
L 443.830519 189.866838 
L 450.299337 188.207959 
L 456.806309 186.639459 
L 463.349417 185.161979 
L 469.92666 183.776158 
L 476.536056 182.482633 
L 483.17564 181.282042 
" style="fill:none;stroke:#000000;stroke-dasharray:3.7,1.6;stroke-dashoffset:0;"/>
   </g>
   <g id="patch_7">
    <path d="M 135 961.2 
L 135 129.6 
" style="fill:none;stroke:#000000;stroke-linecap:square;stroke-linejoin:miter;stroke-width:0.8;"/>
   </g>
   <g id="patch_8">
    <path d="M 972 961.2 
L 972 129.6 
" style="fill:none;stroke:#000000;stroke-linecap:square;stroke-linejoin:miter;stroke-width:0.8;"/>
   </g>
   <g id="patch_9">
    <path d="M 135 961.2 
L 972 961.2 
" style="fill:none;stroke:#000000;stroke-linecap:square;stroke-linejoin:miter;stroke-width:0.8;"/>
   </g>
   <g id="patch_10">
    <path d="M 135 129.6 
L 972 129.6 
" style="fill:none;stroke:#000000;stroke-linecap:square;stroke-linejoin:miter;stroke-width:0.8;"/>
   </g>
   <g id="legend_1">
    <g id="patch_11">
     <path d="M 753.013125 951.7 
L 958.7 951.7 
Q 962.5 951.7 962.5 947.9 
L 962.5 844.557812 
Q 962.5 840.757812 958.7 840.757812 
L 753.013125 840.757812 
Q 749.213125 840.757812 749.213125 844.557812 
L 749.213125 947.9 
Q 749.213125 951.7 753.013125 951.7 
z
" style="fill:#ffffff;opacity:0.8;stroke:#cccccc;stroke-linejoin:miter;"/>
    </g>
    <g id="line2d_34">
     <path d="M 751.113125 850.444844 
L 777.713125 850.444844 
" style="fill:none;stroke:#008000;stroke-linecap:square;stroke-width:0.5;"/>
    </g>
    <g id="line2d_35"/>
    <g id="text_19">
     <!-- reference track -->
     <defs>
      <path d="M 41.109375 46.296875 
Q 39.59375 47.171875 37.8125 47.578125 
Q 36.03125 48 33.890625 48 
Q 26.265625 48 22.1875 43.046875 
Q 18.109375 38.09375 18.109375 28.8125 
L 18.109375 0 
L 9.078125 0 
L 9.078125 54.6875 
L 18.109375 54.6875 
L 18.109375 46.1875 
Q 20.953125 51.171875 25.484375 53.578125 
Q 30.03125 56 36.53125 56 
Q 37.453125 56 38.578125 55.875 
Q 39.703125 55.765625 41.0625 55.515625 
z
" id="DejaVuSans-114"/>
      <path d="M 56.203125 29.59375 
L 56.203125 25.203125 
L 14.890625 25.203125 
Q 15.484375 15.921875 20.484375 11.0625 
Q 25.484375 6.203125 34.421875 6.203125 
Q 39.59375 6.203125 44.453125 7.46875 
Q 49.3125 8.734375 54.109375 11.28125 
L 54.109375 2.78125 
Q 49.265625 0.734375 44.1875 -0.34375 
Q 39.109375 -1.421875 33.890625 -1.421875 
Q 20.796875 -1.421875 13.15625 6.1875 
Q 5.515625 13.8125 5.515625 26.8125 
Q 5.515625 40.234375 12.765625 48.109375 
Q 20.015625 56 32.328125 56 
Q 43.359375 56 49.78125 48.890625 
Q 56.203125 41.796875 56.203125 29.59375 
z
M 47.21875 32.234375 
Q 47.125 39.59375 43.09375 43.984375 
Q 39.0625 48.390625 32.421875 48.390625 
Q 24.90625 48.390625 20.390625 44.140625 
Q 15.875 39.890625 15.1875 32.171875 
z
" id="DejaVuSans-101"/>
      <path d="M 37.109375 75.984375 
L 37.109375 68.5 
L 28.515625 68.5 
Q 23.6875 68.5 21.796875 66.546875 
Q 19.921875 64.59375 19.921875 59.515625 
L 19.921875 54.6875 
L 34.71875 54.6875 
L 34.71875 47.703125 
L 19.921875 47.703125 
L 19.921875 0 
L 10.890625 0 
L 10.890625 47.703125 
L 2.296875 47.703125 
L 2.296875 54.6875 
L 10.890625 54.6875 
L 10.890625 58.5 
Q 10.890625 67.625 15.140625 71.796875 
Q 19.390625 75.984375 28.609375 75.984375 
z
" id="DejaVuSans-102"/>
      <path d="M 54.890625 33.015625 
L 54.890625 0 
L 45.90625 0 
L 45.90625 32.71875 
Q 45.90625 40.484375 42.875 44.328125 
Q 39.84375 48.1875 33.796875 48.1875 
Q 26.515625 48.1875 22.3125 43.546875 
Q 18.109375 38.921875 18.109375 30.90625 
L 18.109375 0 
L 9.078125 0 
L 9.078125 54.6875 
L 18.109375 54.6875 
L 18.109375 46.1875 
Q 21.34375 51.125 25.703125 53.5625 
Q 30.078125 56 35.796875 56 
Q 45.21875 56 50.046875 50.171875 
Q 54.890625 44.34375 54.890625 33.015625 
z
" id="DejaVuSans-110"/>
      <path d="M 48.78125 52.59375 
L 48.78125 44.1875 
Q 44.96875 46.296875 41.140625 47.34375 
Q 37.3125 48.390625 33.40625 48.390625 
Q 24.65625 48.390625 19.8125 42.84375 
Q 14.984375 37.3125 14.984375 27.296875 
Q 14.984375 17.28125 19.8125 11.734375 
Q 24.65625 6.203125 33.40625 6.203125 
Q 37.3125 6.203125 41.140625 7.25 
Q 44.96875 8.296875 48.78125 10.40625 
L 48.78125 2.09375 
Q 45.015625 0.34375 40.984375 -0.53125 
Q 36.96875 -1.421875 32.421875 -1.421875 
Q 20.0625 -1.421875 12.78125 6.34375 
Q 5.515625 14.109375 5.515625 27.296875 
Q 5.515625 40.671875 12.859375 48.328125 
Q 20.21875 56 33.015625 56 
Q 37.15625 56 41.109375 55.140625 
Q 45.0625 54.296875 48.78125 52.59375 
z
" id="DejaVuSans-99"/>
      <path d="M 18.3125 70.21875 
L 18.3125 54.6875 
L 36.8125 54.6875 
L 36.8125 47.703125 
L 18.3125 47.703125 
L 18.3125 18.015625 
Q 18.3125 11.328125 20.140625 9.421875 
Q 21.96875 7.515625 27.59375 7.515625 
L 36.8125 7.515625 
L 36.8125 0 
L 27.59375 0 
Q 17.1875 0 13.234375 3.875 
Q 9.28125 7.765625 9.28125 18.015625 
L 9.28125 47.703125 
L 2.6875 47.703125 
L 2.6875 54.6875 
L 9.28125 54.6875 
L 9.28125 70.21875 
z
" id="DejaVuSans-116"/>
      <path d="M 34.28125 27.484375 
Q 23.390625 27.484375 19.1875 25 
Q 14.984375 22.515625 14.984375 16.5 
Q 14.984375 11.71875 18.140625 8.90625 
Q 21.296875 6.109375 26.703125 6.109375 
Q 34.1875 6.109375 38.703125 11.40625 
Q 43.21875 16.703125 43.21875 25.484375 
L 43.21875 27.484375 
z
M 52.203125 31.203125 
L 52.203125 0 
L 43.21875 0 
L 43.21875 8.296875 
Q 40.140625 3.328125 35.546875 0.953125 
Q 30.953125 -1.421875 24.3125 -1.421875 
Q 15.921875 -1.421875 10.953125 3.296875 
Q 6 8.015625 6 15.921875 
Q 6 25.140625 12.171875 29.828125 
Q 18.359375 34.515625 30.609375 34.515625 
L 43.21875 34.515625 
L 43.21875 35.40625 
Q 43.21875 41.609375 39.140625 45 
Q 35.0625 48.390625 27.6875 48.390625 
Q 23 48.390625 18.546875 47.265625 
Q 14.109375 46.140625 10.015625 43.890625 
L 10.015625 52.203125 
Q 14.9375 54.109375 19.578125 55.046875 
Q 24.21875 56 28.609375 56 
Q 40.484375 56 46.34375 49.84375 
Q 52.203125 43.703125 52.203125 31.203125 
z
" id="DejaVuSans-97"/>
      <path d="M 9.078125 75.984375 
L 18.109375 75.984375 
L 18.109375 31.109375 
L 44.921875 54.6875 
L 56.390625 54.6875 
L 27.390625 29.109375 
L 57.625 0 
L 45.90625 0 
L 18.109375 26.703125 
L 18.109375 0 
L 9.078125 0 
z
" id="DejaVuSans-107"/>
     </defs>
     <g transform="translate(784.743125 857.094844)scale(0.19 -0.19)">
      <use xlink:href="#DejaVuSans-114"/>
      <use x="41.082031" xlink:href="#DejaVuSans-101"/>
      <use x="102.605469" xlink:href="#DejaVuSans-102"/>
      <use x="137.810547" xlink:href="#DejaVuSans-101"/>
      <use x="199.333984" xlink:href="#DejaVuSans-114"/>
      <use x="240.416016" xlink:href="#DejaVuSans-101"/>
      <use x="301.939453" xlink:href="#DejaVuSans-110"/>
      <use x="365.318359" xlink:href="#DejaVuSans-99"/>
      <use x="420.298828" xlink:href="#DejaVuSans-101"/>
      <use x="481.822266" xlink:href="#DejaVuSans-32"/>
      <use x="513.609375" xlink:href="#DejaVuSans-116"/>
      <use x="552.818359" xlink:href="#DejaVuSans-114"/>
      <use x="593.931641" xlink:href="#DejaVuSans-97"/>
      <use x="655.210938" xlink:href="#DejaVuSans-99"/>
      <use x="710.191406" xlink:href="#DejaVuSans-107"/>
     </g>
    </g>
    <g id="line2d_36">
     <path d="M 751.113125 872.633281 
L 777.713125 872.633281 
" style="fill:none;stroke:#ff0000;stroke-linecap:square;stroke-width:2;"/>
    </g>
    <g id="line2d_37"/>
    <g id="text_20">
     <!-- Trajectory -->
     <defs>
      <path d="M -0.296875 72.90625 
L 61.375 72.90625 
L 61.375 64.59375 
L 35.5 64.59375 
L 35.5 0 
L 25.59375 0 
L 25.59375 64.59375 
L -0.296875 64.59375 
z
" id="DejaVuSans-84"/>
      <path d="M 9.421875 54.6875 
L 18.40625 54.6875 
L 18.40625 -0.984375 
Q 18.40625 -11.421875 14.421875 -16.109375 
Q 10.453125 -20.796875 1.609375 -20.796875 
L -1.8125 -20.796875 
L -1.8125 -13.1875 
L 0.59375 -13.1875 
Q 5.71875 -13.1875 7.5625 -10.8125 
Q 9.421875 -8.453125 9.421875 -0.984375 
z
M 9.421875 75.984375 
L 18.40625 75.984375 
L 18.40625 64.59375 
L 9.421875 64.59375 
z
" id="DejaVuSans-106"/>
      <path d="M 30.609375 48.390625 
Q 23.390625 48.390625 19.1875 42.75 
Q 14.984375 37.109375 14.984375 27.296875 
Q 14.984375 17.484375 19.15625 11.84375 
Q 23.34375 6.203125 30.609375 6.203125 
Q 37.796875 6.203125 41.984375 11.859375 
Q 46.1875 17.53125 46.1875 27.296875 
Q 46.1875 37.015625 41.984375 42.703125 
Q 37.796875 48.390625 30.609375 48.390625 
z
M 30.609375 56 
Q 42.328125 56 49.015625 48.375 
Q 55.71875 40.765625 55.71875 27.296875 
Q 55.71875 13.875 49.015625 6.21875 
Q 42.328125 -1.421875 30.609375 -1.421875 
Q 18.84375 -1.421875 12.171875 6.21875 
Q 5.515625 13.875 5.515625 27.296875 
Q 5.515625 40.765625 12.171875 48.375 
Q 18.84375 56 30.609375 56 
z
" id="DejaVuSans-111"/>
     </defs>
     <g transform="translate(784.743125 879.283281)scale(0.19 -0.19)">
      <use xlink:href="#DejaVuSans-84"/>
      <use x="60.865234" xlink:href="#DejaVuSans-114"/>
      <use x="101.978516" xlink:href="#DejaVuSans-97"/>
      <use x="163.257812" xlink:href="#DejaVuSans-106"/>
      <use x="191.041016" xlink:href="#DejaVuSans-101"/>
      <use x="252.564453" xlink:href="#DejaVuSans-99"/>
      <use x="307.544922" xlink:href="#DejaVuSans-116"/>
      <use x="346.753906" xlink:href="#DejaVuSans-111"/>
      <use x="407.935547" xlink:href="#DejaVuSans-114"/>
      <use x="449.048828" xlink:href="#DejaVuSans-121"/>
     </g>
    </g>
    <g id="line2d_38">
     <path d="M 751.113125 894.821719 
L 777.713125 894.821719 
" style="fill:none;stroke:#0000ff;stroke-linecap:square;"/>
    </g>
    <g id="line2d_39">
     <g>
      <use style="fill:#0000ff;stroke:#0000ff;" x="764.413125" xlink:href="#m3c3a681705" y="894.821719"/>
     </g>
    </g>
    <g id="text_21">
     <!-- Local Reference -->
     <defs>
      <path d="M 9.8125 72.90625 
L 19.671875 72.90625 
L 19.671875 8.296875 
L 55.171875 8.296875 
L 55.171875 0 
L 9.8125 0 
z
" id="DejaVuSans-76"/>
      <path d="M 9.421875 75.984375 
L 18.40625 75.984375 
L 18.40625 0 
L 9.421875 0 
z
" id="DejaVuSans-108"/>
      <path d="M 44.390625 34.1875 
Q 47.5625 33.109375 50.5625 29.59375 
Q 53.5625 26.078125 56.59375 19.921875 
L 66.609375 0 
L 56 0 
L 46.6875 18.703125 
Q 43.0625 26.03125 39.671875 28.421875 
Q 36.28125 30.8125 30.421875 30.8125 
L 19.671875 30.8125 
L 19.671875 0 
L 9.8125 0 
L 9.8125 72.90625 
L 32.078125 72.90625 
Q 44.578125 72.90625 50.734375 67.671875 
Q 56.890625 62.453125 56.890625 51.90625 
Q 56.890625 45.015625 53.6875 40.46875 
Q 50.484375 35.9375 44.390625 34.1875 
z
M 19.671875 64.796875 
L 19.671875 38.921875 
L 32.078125 38.921875 
Q 39.203125 38.921875 42.84375 42.21875 
Q 46.484375 45.515625 46.484375 51.90625 
Q 46.484375 58.296875 42.84375 61.546875 
Q 39.203125 64.796875 32.078125 64.796875 
z
" id="DejaVuSans-82"/>
     </defs>
     <g transform="translate(784.743125 901.471719)scale(0.19 -0.19)">
      <use xlink:href="#DejaVuSans-76"/>
      <use x="55.697266" xlink:href="#DejaVuSans-111"/>
      <use x="116.878906" xlink:href="#DejaVuSans-99"/>
      <use x="171.859375" xlink:href="#DejaVuSans-97"/>
      <use x="233.138672" xlink:href="#DejaVuSans-108"/>
      <use x="260.921875" xlink:href="#DejaVuSans-32"/>
      <use x="292.708984" xlink:href="#DejaVuSans-82"/>
      <use x="362.128906" xlink:href="#DejaVuSans-101"/>
      <use x="423.652344" xlink:href="#DejaVuSans-102"/>
      <use x="458.857422" xlink:href="#DejaVuSans-101"/>
      <use x="520.380859" xlink:href="#DejaVuSans-114"/>
      <use x="561.462891" xlink:href="#DejaVuSans-101"/>
      <use x="622.986328" xlink:href="#DejaVuSans-110"/>
      <use x="686.365234" xlink:href="#DejaVuSans-99"/>
      <use x="741.345703" xlink:href="#DejaVuSans-101"/>
     </g>
    </g>
    <g id="line2d_40">
     <path d="M 751.113125 917.010156 
L 777.713125 917.010156 
" style="fill:none;stroke:#008000;stroke-linecap:square;stroke-opacity:0.5;stroke-width:1.5;"/>
    </g>
    <g id="line2d_41">
     <g>
      <use style="fill:#008000;fill-opacity:0.5;stroke:#008000;stroke-opacity:0.5;" x="764.413125" xlink:href="#m14ca441589" y="917.010156"/>
     </g>
    </g>
    <g id="text_22">
     <!-- current position -->
     <defs>
      <path d="M 8.5 21.578125 
L 8.5 54.6875 
L 17.484375 54.6875 
L 17.484375 21.921875 
Q 17.484375 14.15625 20.5 10.265625 
Q 23.53125 6.390625 29.59375 6.390625 
Q 36.859375 6.390625 41.078125 11.03125 
Q 45.3125 15.671875 45.3125 23.6875 
L 45.3125 54.6875 
L 54.296875 54.6875 
L 54.296875 0 
L 45.3125 0 
L 45.3125 8.40625 
Q 42.046875 3.421875 37.71875 1 
Q 33.40625 -1.421875 27.6875 -1.421875 
Q 18.265625 -1.421875 13.375 4.4375 
Q 8.5 10.296875 8.5 21.578125 
z
M 31.109375 56 
z
" id="DejaVuSans-117"/>
      <path d="M 18.109375 8.203125 
L 18.109375 -20.796875 
L 9.078125 -20.796875 
L 9.078125 54.6875 
L 18.109375 54.6875 
L 18.109375 46.390625 
Q 20.953125 51.265625 25.265625 53.625 
Q 29.59375 56 35.59375 56 
Q 45.5625 56 51.78125 48.09375 
Q 58.015625 40.1875 58.015625 27.296875 
Q 58.015625 14.40625 51.78125 6.484375 
Q 45.5625 -1.421875 35.59375 -1.421875 
Q 29.59375 -1.421875 25.265625 0.953125 
Q 20.953125 3.328125 18.109375 8.203125 
z
M 48.6875 27.296875 
Q 48.6875 37.203125 44.609375 42.84375 
Q 40.53125 48.484375 33.40625 48.484375 
Q 26.265625 48.484375 22.1875 42.84375 
Q 18.109375 37.203125 18.109375 27.296875 
Q 18.109375 17.390625 22.1875 11.75 
Q 26.265625 6.109375 33.40625 6.109375 
Q 40.53125 6.109375 44.609375 11.75 
Q 48.6875 17.390625 48.6875 27.296875 
z
" id="DejaVuSans-112"/>
      <path d="M 44.28125 53.078125 
L 44.28125 44.578125 
Q 40.484375 46.53125 36.375 47.5 
Q 32.28125 48.484375 27.875 48.484375 
Q 21.1875 48.484375 17.84375 46.4375 
Q 14.5 44.390625 14.5 40.28125 
Q 14.5 37.15625 16.890625 35.375 
Q 19.28125 33.59375 26.515625 31.984375 
L 29.59375 31.296875 
Q 39.15625 29.25 43.1875 25.515625 
Q 47.21875 21.78125 47.21875 15.09375 
Q 47.21875 7.46875 41.1875 3.015625 
Q 35.15625 -1.421875 24.609375 -1.421875 
Q 20.21875 -1.421875 15.453125 -0.5625 
Q 10.6875 0.296875 5.421875 2 
L 5.421875 11.28125 
Q 10.40625 8.6875 15.234375 7.390625 
Q 20.0625 6.109375 24.8125 6.109375 
Q 31.15625 6.109375 34.5625 8.28125 
Q 37.984375 10.453125 37.984375 14.40625 
Q 37.984375 18.0625 35.515625 20.015625 
Q 33.0625 21.96875 24.703125 23.78125 
L 21.578125 24.515625 
Q 13.234375 26.265625 9.515625 29.90625 
Q 5.8125 33.546875 5.8125 39.890625 
Q 5.8125 47.609375 11.28125 51.796875 
Q 16.75 56 26.8125 56 
Q 31.78125 56 36.171875 55.265625 
Q 40.578125 54.546875 44.28125 53.078125 
z
" id="DejaVuSans-115"/>
      <path d="M 9.421875 54.6875 
L 18.40625 54.6875 
L 18.40625 0 
L 9.421875 0 
z
M 9.421875 75.984375 
L 18.40625 75.984375 
L 18.40625 64.59375 
L 9.421875 64.59375 
z
" id="DejaVuSans-105"/>
     </defs>
     <g transform="translate(784.743125 923.660156)scale(0.19 -0.19)">
      <use xlink:href="#DejaVuSans-99"/>
      <use x="54.980469" xlink:href="#DejaVuSans-117"/>
      <use x="118.359375" xlink:href="#DejaVuSans-114"/>
      <use x="159.457031" xlink:href="#DejaVuSans-114"/>
      <use x="200.539062" xlink:href="#DejaVuSans-101"/>
      <use x="262.0625" xlink:href="#DejaVuSans-110"/>
      <use x="325.441406" xlink:href="#DejaVuSans-116"/>
      <use x="364.650391" xlink:href="#DejaVuSans-32"/>
      <use x="396.4375" xlink:href="#DejaVuSans-112"/>
      <use x="459.914062" xlink:href="#DejaVuSans-111"/>
      <use x="521.095703" xlink:href="#DejaVuSans-115"/>
      <use x="573.195312" xlink:href="#DejaVuSans-105"/>
      <use x="600.978516" xlink:href="#DejaVuSans-116"/>
      <use x="640.1875" xlink:href="#DejaVuSans-105"/>
      <use x="667.970703" xlink:href="#DejaVuSans-111"/>
      <use x="729.152344" xlink:href="#DejaVuSans-110"/>
     </g>
    </g>
    <g id="line2d_42">
     <path d="M 751.113125 939.198594 
L 777.713125 939.198594 
" style="fill:none;stroke:#ff0000;stroke-linecap:square;stroke-width:0.5;"/>
    </g>
    <g id="line2d_43">
     <g>
      <use style="fill:#ff0000;stroke:#ff0000;" x="764.413125" xlink:href="#m3d88856885" y="939.198594"/>
     </g>
    </g>
    <g id="text_23">
     <!-- Ground Truth Path -->
     <defs>
      <path d="M 59.515625 10.40625 
L 59.515625 29.984375 
L 43.40625 29.984375 
L 43.40625 38.09375 
L 69.28125 38.09375 
L 69.28125 6.78125 
Q 63.578125 2.734375 56.6875 0.65625 
Q 49.8125 -1.421875 42 -1.421875 
Q 24.90625 -1.421875 15.25 8.5625 
Q 5.609375 18.5625 5.609375 36.375 
Q 5.609375 54.25 15.25 64.234375 
Q 24.90625 74.21875 42 74.21875 
Q 49.125 74.21875 55.546875 72.453125 
Q 61.96875 70.703125 67.390625 67.28125 
L 67.390625 56.78125 
Q 61.921875 61.421875 55.765625 63.765625 
Q 49.609375 66.109375 42.828125 66.109375 
Q 29.4375 66.109375 22.71875 58.640625 
Q 16.015625 51.171875 16.015625 36.375 
Q 16.015625 21.625 22.71875 14.15625 
Q 29.4375 6.6875 42.828125 6.6875 
Q 48.046875 6.6875 52.140625 7.59375 
Q 56.25 8.5 59.515625 10.40625 
z
" id="DejaVuSans-71"/>
      <path d="M 45.40625 46.390625 
L 45.40625 75.984375 
L 54.390625 75.984375 
L 54.390625 0 
L 45.40625 0 
L 45.40625 8.203125 
Q 42.578125 3.328125 38.25 0.953125 
Q 33.9375 -1.421875 27.875 -1.421875 
Q 17.96875 -1.421875 11.734375 6.484375 
Q 5.515625 14.40625 5.515625 27.296875 
Q 5.515625 40.1875 11.734375 48.09375 
Q 17.96875 56 27.875 56 
Q 33.9375 56 38.25 53.625 
Q 42.578125 51.265625 45.40625 46.390625 
z
M 14.796875 27.296875 
Q 14.796875 17.390625 18.875 11.75 
Q 22.953125 6.109375 30.078125 6.109375 
Q 37.203125 6.109375 41.296875 11.75 
Q 45.40625 17.390625 45.40625 27.296875 
Q 45.40625 37.203125 41.296875 42.84375 
Q 37.203125 48.484375 30.078125 48.484375 
Q 22.953125 48.484375 18.875 42.84375 
Q 14.796875 37.203125 14.796875 27.296875 
z
" id="DejaVuSans-100"/>
      <path d="M 54.890625 33.015625 
L 54.890625 0 
L 45.90625 0 
L 45.90625 32.71875 
Q 45.90625 40.484375 42.875 44.328125 
Q 39.84375 48.1875 33.796875 48.1875 
Q 26.515625 48.1875 22.3125 43.546875 
Q 18.109375 38.921875 18.109375 30.90625 
L 18.109375 0 
L 9.078125 0 
L 9.078125 75.984375 
L 18.109375 75.984375 
L 18.109375 46.1875 
Q 21.34375 51.125 25.703125 53.5625 
Q 30.078125 56 35.796875 56 
Q 45.21875 56 50.046875 50.171875 
Q 54.890625 44.34375 54.890625 33.015625 
z
" id="DejaVuSans-104"/>
      <path d="M 19.671875 64.796875 
L 19.671875 37.40625 
L 32.078125 37.40625 
Q 38.96875 37.40625 42.71875 40.96875 
Q 46.484375 44.53125 46.484375 51.125 
Q 46.484375 57.671875 42.71875 61.234375 
Q 38.96875 64.796875 32.078125 64.796875 
z
M 9.8125 72.90625 
L 32.078125 72.90625 
Q 44.34375 72.90625 50.609375 67.359375 
Q 56.890625 61.8125 56.890625 51.125 
Q 56.890625 40.328125 50.609375 34.8125 
Q 44.34375 29.296875 32.078125 29.296875 
L 19.671875 29.296875 
L 19.671875 0 
L 9.8125 0 
z
" id="DejaVuSans-80"/>
     </defs>
     <g transform="translate(784.743125 945.848594)scale(0.19 -0.19)">
      <use xlink:href="#DejaVuSans-71"/>
      <use x="77.490234" xlink:href="#DejaVuSans-114"/>
      <use x="118.572266" xlink:href="#DejaVuSans-111"/>
      <use x="179.753906" xlink:href="#DejaVuSans-117"/>
      <use x="243.132812" xlink:href="#DejaVuSans-110"/>
      <use x="306.511719" xlink:href="#DejaVuSans-100"/>
      <use x="369.988281" xlink:href="#DejaVuSans-32"/>
      <use x="401.775391" xlink:href="#DejaVuSans-84"/>
      <use x="462.640625" xlink:href="#DejaVuSans-114"/>
      <use x="503.753906" xlink:href="#DejaVuSans-117"/>
      <use x="567.132812" xlink:href="#DejaVuSans-116"/>
      <use x="606.341797" xlink:href="#DejaVuSans-104"/>
      <use x="669.720703" xlink:href="#DejaVuSans-32"/>
      <use x="701.507812" xlink:href="#DejaVuSans-80"/>
      <use x="761.748047" xlink:href="#DejaVuSans-97"/>
      <use x="823.027344" xlink:href="#DejaVuSans-116"/>
      <use x="862.236328" xlink:href="#DejaVuSans-104"/>
     </g>
    </g>
   </g>
  </g>
 </g>
 <defs>
  <clipPath id="p3c5c8f8910">
   <rect height="831.6" width="837" x="135" y="129.6"/>
  </clipPath>
 </defs>
</svg>
