<?xml version="1.0" encoding="utf-8" standalone="no"?>
<!DOCTYPE svg PUBLIC "-//W3C//DTD SVG 1.1//EN"
  "http://www.w3.org/Graphics/SVG/1.1/DTD/svg11.dtd">
<!-- Created with matplotlib (https://matplotlib.org/) -->
<svg height="1055.52pt" version="1.1" viewBox="0 0 1080 1055.52" width="1080pt" xmlns="http://www.w3.org/2000/svg" xmlns:xlink="http://www.w3.org/1999/xlink">
 <defs>
  <style type="text/css">
*{stroke-linecap:butt;stroke-linejoin:round;}
  </style>
 </defs>
 <g id="figure_1">
  <g id="patch_1">
   <path d="M 0 1055.52 
L 1080 1055.52 
L 1080 0 
L 0 0 
z
" style="fill:none;"/>
  </g>
  <g id="axes_1">
   <g id="patch_2">
    <path d="M 135 939.4128 
L 972 939.4128 
L 972 126.6624 
L 135 126.6624 
z
" style="fill:none;"/>
   </g>
   <g id="line2d_1">
    <path clip-path="url(#p956939fbb1)" d="M 291.265613 273.393151 
L 312.264886 289.06894 
L 328.212075 301.243712 
L 341.55011 311.675834 
L 354.180004 321.826549 
L 366.178446 331.778003 
L 376.21938 340.386648 
L 385.886947 348.960663 
L 395.232521 357.555079 
L 404.307477 366.224929 
L 413.163189 375.025245 
L 421.851032 384.011062 
L 430.42238 393.23741 
L 438.928609 402.759323 
L 447.421093 412.631834 
L 455.951206 422.909974 
L 464.570323 433.648778 
L 473.329817 444.90327 
L 483.57853 458.467896 
L 513.190243 498.173943 
L 520.132665 506.96463 
L 525.721758 513.751979 
L 531.334085 520.253179 
L 536.962246 526.405283 
L 541.189306 530.7524 
L 545.41799 534.841186 
L 549.645176 538.645086 
L 553.867741 542.137545 
L 558.082565 545.292005 
L 562.286526 548.081912 
L 565.081589 549.726207 
L 567.869513 551.188806 
L 570.649372 552.461839 
L 573.420238 553.537453 
L 576.181193 554.407752 
L 578.931317 555.064847 
L 581.669623 555.501104 
L 584.395336 555.708099 
L 587.10696 555.680059 
L 589.800317 555.421019 
L 592.47026 554.938572 
L 595.111402 554.241184 
L 597.718481 553.336858 
L 600.286216 552.23368 
L 602.809314 550.939769 
L 605.28249 549.463219 
L 607.700456 547.812127 
L 610.057928 545.994595 
L 612.349616 544.01872 
L 614.570236 541.892603 
L 616.714501 539.624342 
L 618.777123 537.222036 
L 621.706412 533.38496 
L 624.422268 529.291841 
L 626.906848 524.970014 
L 629.142311 520.446813 
L 631.110813 515.749573 
L 632.794511 510.905628 
L 634.175564 505.942312 
L 634.919319 502.580617 
L 635.515347 499.186117 
L 635.958363 495.76691 
L 636.24308 492.331096 
L 636.36421 488.886773 
L 636.316468 485.442042 
L 636.094566 482.005 
L 635.693219 478.583748 
L 635.107139 475.186384 
L 634.331039 471.821007 
L 633.359633 468.495717 
L 632.187636 465.218612 
L 630.809753 461.997796 
L 629.220712 458.841358 
L 627.415232 455.757393 
L 625.387922 452.754074 
L 623.133764 449.839312 
L 620.647345 447.021294 
L 617.92256 444.308692 
L 614.964402 441.702399 
L 611.786635 439.197159 
L 608.407132 436.784831 
L 604.843053 434.457779 
L 599.187969 431.11068 
L 593.213521 427.9129 
L 586.977378 424.838834 
L 578.355162 420.888229 
L 567.275723 416.102669 
L 547.295734 407.557495 
L 538.733796 403.64001 
L 532.560444 400.600442 
L 526.663851 397.445443 
L 521.101709 394.149393 
L 517.607909 391.861011 
L 514.305487 389.49096 
L 511.211545 387.031644 
L 508.343155 384.475485 
L 505.717419 381.814886 
L 503.351537 379.042173 
L 501.262244 376.150033 
L 499.467006 373.130585 
L 497.983897 369.975471 
L 496.822164 366.683227 
L 495.978355 363.262314 
L 495.437884 359.729888 
L 495.188081 356.101608 
L 495.216455 352.392994 
L 495.510093 348.619896 
L 496.056249 344.798033 
L 496.842166 340.943132 
L 497.855067 337.070937 
L 499.082184 333.197184 
L 500.51075 329.337609 
L 502.127995 325.507949 
L 503.92115 321.723941 
L 505.877448 318.001321 
L 507.984118 314.355829 
L 510.228392 310.8032 
L 512.597511 307.359153 
L 515.078673 304.039485 
L 517.659141 300.859875 
L 520.326262 297.835856 
L 523.066733 294.984116 
L 525.8689 292.318402 
L 528.724881 289.845693 
L 531.63214 287.563406 
L 534.58891 285.467573 
L 537.592838 283.555279 
L 540.641795 281.823209 
L 543.733639 280.268065 
L 546.866201 278.886606 
L 550.037325 277.675561 
L 553.244854 276.631664 
L 556.486629 275.751651 
L 559.760492 275.032258 
L 563.064286 274.470219 
L 566.395851 274.06227 
L 569.753031 273.805145 
L 574.832106 273.695111 
L 579.956674 273.906067 
L 585.119451 274.426993 
L 590.313154 275.246871 
L 595.5305 276.354682 
L 600.764205 277.739405 
L 606.006986 279.390022 
L 611.251559 281.295514 
L 616.490641 283.444862 
L 621.716949 285.827047 
L 626.923199 288.431048 
L 632.102108 291.245848 
L 637.246393 294.260427 
L 642.34877 297.463766 
L 647.401955 300.844846 
L 654.050427 305.610392 
L 660.581236 310.646212 
L 666.977118 315.92619 
L 673.220807 321.424204 
L 679.295 327.114053 
L 685.183922 332.972626 
L 690.877853 338.989033 
L 696.369037 345.156357 
L 701.649679 351.467592 
L 706.711981 357.915731 
L 711.548146 364.49377 
L 716.150377 371.194704 
L 720.510878 378.011529 
L 724.621852 384.937239 
L 728.475502 391.96483 
L 732.064031 399.087297 
L 735.379643 406.297636 
L 738.414541 413.588841 
L 740.501806 419.1061 
L 742.423495 424.661952 
L 744.176318 430.25344 
L 745.756985 435.877611 
L 747.162209 441.531508 
L 748.388699 447.212177 
L 749.433167 452.916663 
L 750.292322 458.642011 
L 750.962877 464.385265 
L 751.441541 470.14347 
L 751.725026 475.913672 
L 751.810041 481.692914 
L 751.693299 487.478243 
L 751.371509 493.266702 
L 750.841384 499.055337 
L 750.099626 504.841195 
L 749.142983 510.621306 
L 747.968169 516.392713 
L 746.576102 522.150654 
L 744.972535 527.888289 
L 743.163728 533.59856 
L 741.155879 539.274439 
L 738.9552 544.908886 
L 736.567901 550.494867 
L 734.000191 556.025346 
L 731.258281 561.493288 
L 728.34838 566.891656 
L 725.276698 572.213415 
L 722.049444 577.451529 
L 718.67283 582.598963 
L 715.153064 587.64868 
L 711.496356 592.593646 
L 707.708916 597.426823 
L 703.796954 602.141177 
L 699.76668 606.729672 
L 695.624303 611.185271 
L 691.376033 615.50094 
L 687.028081 619.669643 
L 682.586655 623.684343 
L 678.057967 627.538006 
L 673.448225 631.223595 
L 668.763639 634.734074 
L 664.010419 638.062408 
L 659.194776 641.201562 
L 654.322918 644.144498 
L 649.401056 646.884183 
L 644.435399 649.413579 
L 639.432157 651.725652 
L 634.397541 653.813365 
L 629.337759 655.669683 
L 624.259022 657.28757 
L 619.16754 658.65999 
L 614.069521 659.779909 
L 608.97118 660.640281 
L 603.878707 661.234119 
L 598.798391 661.554186 
L 593.735846 661.594979 
L 588.693536 661.359118 
L 583.671868 660.854521 
L 578.671391 660.088744 
L 573.692605 659.069465 
L 568.736023 657.804334 
L 563.802153 656.301004 
L 558.891506 654.567131 
L 554.004592 652.610369 
L 549.14192 650.438372 
L 544.304002 648.058795 
L 539.491346 645.479291 
L 534.704463 642.707516 
L 529.943863 639.751122 
L 523.638161 635.535312 
L 517.381299 631.023043 
L 511.174487 626.232459 
L 505.018932 621.181705 
L 498.915844 615.888924 
L 492.866431 610.372258 
L 486.871903 604.649853 
L 479.457765 597.235164 
L 472.133633 589.562792 
L 464.901869 581.668173 
L 456.349 571.951159 
L 447.93662 562.026373 
L 438.305181 550.266548 
L 428.876994 538.404508 
L 417.062085 523.16549 
L 404.27599 506.711372 
L 397.968985 498.915516 
L 392.945501 492.979798 
L 387.930013 487.368767 
L 382.911753 482.135189 
L 379.139762 478.48945 
L 375.35561 475.107969 
L 371.554757 472.013007 
L 367.73266 469.226823 
L 363.884774 466.771678 
L 360.006558 464.669832 
L 357.401987 463.475871 
L 354.78057 462.455422 
L 352.140963 461.615079 
L 349.481818 460.961438 
L 346.801789 460.501096 
L 344.099532 460.240645 
L 341.373698 460.186686 
L 338.622939 460.345819 
L 335.845935 460.724589 
L 333.041273 461.329721 
L 330.20764 462.167746 
L 327.3447 463.243316 
L 324.45697 464.55173 
L 321.551444 466.083517 
L 318.634843 467.829733 
L 315.713947 469.781317 
L 312.795556 471.929171 
L 309.886452 474.264234 
L 305.555055 478.098002 
L 301.282728 482.301961 
L 297.092375 486.845495 
L 293.006901 491.697988 
L 289.04921 496.828824 
L 285.242207 502.207387 
L 281.608795 507.803062 
L 278.171879 513.585231 
L 274.954363 519.523279 
L 271.979153 525.586589 
L 269.269151 531.744547 
L 266.847264 537.966533 
L 264.736387 544.22194 
L 262.959464 550.480121 
L 261.971618 554.638717 
L 261.149117 558.775903 
L 260.499231 562.882237 
L 260.026499 566.950363 
L 259.731379 570.976044 
L 259.609981 574.958357 
L 259.658817 578.89608 
L 259.874604 582.787828 
L 260.253877 586.632357 
L 260.793223 590.428383 
L 261.489235 594.174621 
L 262.338494 597.869789 
L 263.337584 601.512607 
L 264.483092 605.101792 
L 265.771603 608.636061 
L 267.1997 612.114134 
L 269.596102 617.223071 
L 272.287365 622.198354 
L 275.261964 627.035656 
L 278.508372 631.730653 
L 282.015065 636.279016 
L 285.770516 640.676421 
L 289.7632 644.918539 
L 293.98159 649.001046 
L 298.414162 652.919613 
L 303.049389 656.669916 
L 307.875744 660.247627 
L 312.881705 663.648419 
L 318.055738 666.867974 
L 323.386349 669.901924 
L 328.861698 672.746359 
L 334.457312 675.414153 
L 342.028105 678.764928 
L 366.246424 689.157908 
L 371.478625 691.694157 
L 376.479961 694.369678 
L 381.204424 697.225951 
L 384.177529 699.251036 
L 386.9935 701.387182 
L 389.638706 703.646683 
L 392.099515 706.041817 
L 394.362296 708.584894 
L 396.413413 711.288228 
L 398.239254 714.163922 
L 399.826148 717.224664 
L 401.160462 720.48275 
L 402.229181 723.944251 
L 403.022967 727.578152 
L 403.534882 731.329222 
L 403.757802 735.144089 
L 403.68464 738.969058 
L 403.308323 742.750219 
L 402.621763 746.433812 
L 401.617903 749.966095 
L 400.289616 753.293163 
L 398.629818 756.361214 
L 397.673504 757.781578 
L 396.631723 759.117173 
L 395.503387 760.360789 
L 394.287402 761.505196 
L 392.983119 762.544236 
L 391.590467 763.47316 
L 390.109567 764.287675 
L 388.543475 764.990584 
L 386.8979 765.591115 
L 383.391048 766.521699 
L 379.631815 767.146263 
L 375.662261 767.529851 
L 369.407006 767.799104 
L 354.152431 768.158891 
L 349.810977 768.48094 
L 345.529255 768.971952 
L 341.310754 769.622706 
L 337.160296 770.426557 
L 333.083487 771.378369 
L 329.085251 772.471697 
L 325.170708 773.700465 
L 321.344993 775.058635 
L 315.784127 777.325147 
L 310.451846 779.848511 
L 305.365397 782.608173 
L 300.542026 785.583579 
L 295.998982 788.754179 
L 291.753512 792.099417 
L 287.822862 795.598743 
L 284.224281 799.231602 
L 282.018226 801.717545 
L 279.972532 804.247611 
L 278.09231 806.815712 
L 276.382671 809.415757 
L 274.848723 812.041658 
L 273.495579 814.687323 
L 272.328347 817.346665 
L 271.352139 820.013592 
L 270.572063 822.682015 
L 269.993236 825.345843 
L 269.620753 827.998992 
L 269.459738 830.635366 
L 269.515344 833.24886 
L 269.792481 835.83346 
L 270.296566 838.38296 
L 271.032433 840.891374 
L 271.997901 843.355392 
L 273.186849 845.773203 
L 274.591549 848.143609 
L 276.204819 850.465202 
L 278.019454 852.736586 
L 280.028171 854.956391 
L 282.223729 857.123236 
L 284.598878 859.235739 
L 287.146366 861.292519 
L 291.274877 864.270191 
L 295.750371 867.114723 
L 300.548379 869.821456 
L 305.644432 872.385731 
L 311.01406 874.80289 
L 316.632796 877.068272 
L 322.476168 879.177219 
L 328.519709 881.125072 
L 334.738949 882.907172 
L 341.109418 884.51886 
L 347.606649 885.955477 
L 354.206171 887.212363 
L 360.883515 888.284861 
L 367.614212 889.16831 
L 374.373794 889.858052 
L 381.13779 890.349428 
L 387.881733 890.637779 
L 394.58115 890.718444 
L 401.211581 890.586769 
L 407.748534 890.238085 
L 414.167584 889.667752 
L 420.444522 888.871239 
L 426.567792 887.850201 
L 432.543212 886.614783 
L 438.377666 885.175653 
L 444.078144 883.54353 
L 449.651593 881.729114 
L 455.104975 879.743108 
L 460.445246 877.596218 
L 465.679365 875.299146 
L 472.50509 872.021268 
L 479.170963 868.520802 
L 485.693477 864.823119 
L 492.089124 860.953592 
L 499.930403 855.91368 
L 507.631437 850.694459 
L 516.732909 844.264479 
L 533.199626 832.27507 
L 546.66068 822.575161 
L 557.237598 815.241449 
L 566.435071 809.152797 
L 574.225062 804.24682 
L 582.155485 799.516684 
L 590.251096 794.984145 
L 596.863155 791.515005 
L 603.60945 788.19739 
L 610.502658 785.042439 
L 617.555451 782.061292 
L 624.780501 779.265084 
L 632.19051 776.664981 
L 639.798189 774.272156 
L 647.610853 772.092616 
L 655.604634 770.102491 
L 665.795377 767.825855 
L 678.22094 765.310284 
L 717.622712 757.560378 
L 727.661375 755.236657 
L 735.496946 753.197519 
L 743.119122 750.95908 
L 748.673648 749.127717 
L 754.072031 747.148668 
L 759.298785 745.006675 
L 764.338492 742.686547 
L 769.175411 740.172768 
L 773.797079 737.453117 
L 778.203933 734.528324 
L 782.402589 731.405329 
L 786.399168 728.090572 
L 790.199949 724.590652 
L 793.811167 720.912126 
L 797.239071 717.061561 
L 800.489905 713.045522 
L 803.569913 708.870575 
L 806.485342 704.543285 
L 809.242437 700.070219 
L 811.847442 695.457941 
L 814.306603 690.713016 
L 816.626165 685.842011 
L 819.512555 679.16256 
L 822.176674 672.2862 
L 824.633326 665.228494 
L 826.897315 658.005005 
L 828.983444 650.631295 
L 830.906516 643.122926 
L 833.103611 633.571812 
L 835.097952 623.864995 
L 836.916633 614.031825 
L 838.877082 602.090324 
L 840.321465 592.034655 
L 841.589674 581.896419 
L 842.677891 571.687197 
L 843.582301 561.418571 
L 844.299085 551.102123 
L 844.824428 540.749433 
L 845.154513 530.372084 
L 845.285521 519.981655 
L 845.213637 509.58973 
L 844.935043 499.207888 
L 844.445923 488.847712 
L 843.742459 478.520783 
L 842.820834 468.238682 
L 841.677233 458.01299 
L 840.307837 447.855289 
L 838.708829 437.77716 
L 836.876394 427.790185 
L 834.806713 417.905944 
L 832.49597 408.13602 
L 829.940348 398.491993 
L 827.716972 390.8752 
L 825.332477 383.352323 
L 822.784908 375.929292 
L 820.07231 368.612037 
L 817.19273 361.406486 
L 814.144213 354.31857 
L 810.924805 347.354218 
L 807.53255 340.519363 
L 803.965484 333.819943 
L 800.222271 327.261221 
L 796.305094 320.844671 
L 792.217621 314.570162 
L 787.963493 308.437596 
L 783.546353 302.446869 
L 778.969844 296.59788 
L 774.237612 290.890526 
L 769.353299 285.324702 
L 764.32055 279.900307 
L 759.143009 274.617238 
L 753.824319 269.475392 
L 748.368125 264.474665 
L 742.77807 259.614956 
L 737.057798 254.89616 
L 731.210954 250.318176 
L 725.24118 245.880901 
L 719.152122 241.58423 
L 712.947422 237.428063 
L 705.034479 232.430279 
L 696.953657 227.651668 
L 688.712073 223.09203 
L 680.316845 218.751164 
L 671.77509 214.628869 
L 663.093923 210.724944 
L 654.280464 207.039187 
L 645.341828 203.571399 
L 636.285132 200.321378 
L 627.117494 197.288923 
L 617.846031 194.473834 
L 608.477859 191.875908 
L 599.020096 189.494946 
L 589.479858 187.330747 
L 579.864263 185.383109 
L 570.180428 183.651831 
L 560.435469 182.136714 
L 550.636505 180.837555 
L 540.79065 179.754153 
L 530.905024 178.886309 
L 520.986742 178.23382 
L 511.042922 177.796487 
L 501.080681 177.574107 
L 491.107136 177.56648 
L 481.129403 177.773406 
L 471.1546 178.194683 
L 461.189845 178.83011 
L 451.242253 179.679486 
L 441.318941 180.742611 
L 431.427028 182.019284 
L 421.57363 183.509302 
L 411.765864 185.212467 
L 402.010846 187.128576 
L 392.315695 189.257429 
L 382.687526 191.598824 
L 373.133458 194.152562 
L 363.660606 196.91844 
L 354.276089 199.896259 
L 344.987022 203.085816 
L 335.800525 206.486913 
L 326.723713 210.099348 
L 317.763672 213.922871 
L 308.92702 217.956513 
L 301.952738 221.336759 
L 301.952738 221.336759 
" style="fill:none;stroke:#008000;stroke-linecap:square;stroke-width:0.5;"/>
   </g>
   <g id="patch_3">
    <path clip-path="url(#p956939fbb1)" d="M 489.054285 585.430764 
L 475.740756 571.112249 
L 437.55805 606.614992 
L 450.871579 620.933507 
z
" style="stroke:#000000;stroke-linejoin:miter;"/>
   </g>
   <g id="patch_4">
    <path clip-path="url(#p956939fbb1)" d="M 437.977077 894.539736 
L 456.648543 888.739195 
L 441.180435 838.948619 
L 422.508969 844.74916 
z
" style="stroke:#000000;stroke-linejoin:miter;"/>
   </g>
   <g id="patch_5">
    <path clip-path="url(#p956939fbb1)" d="M 852.725473 556.76372 
L 853.738585 537.238262 
L 801.670696 534.536631 
L 800.657585 554.062089 
z
" style="stroke:#000000;stroke-linejoin:miter;"/>
   </g>
   <g id="patch_6">
    <path clip-path="url(#p956939fbb1)" d="M 502.727023 168.804178 
L 483.17564 168.919642 
L 483.483544 221.056664 
L 503.034928 220.9412 
z
" style="stroke:#000000;stroke-linejoin:miter;"/>
   </g>
   <g id="matplotlib.axis_1">
    <g id="xtick_1">
     <g id="line2d_2">
      <defs>
       <path d="M 0 0 
L 0 3.5 
" id="m5ea06534f1" style="stroke:#000000;stroke-width:0.8;"/>
      </defs>
      <g>
       <use style="stroke:#000000;stroke-width:0.8;" x="155.405172" xlink:href="#m5ea06534f1" y="939.4128"/>
      </g>
     </g>
     <g id="text_1">
      <!-- −1.5 -->
      <defs>
       <path d="M 10.59375 35.5 
L 73.1875 35.5 
L 73.1875 27.203125 
L 10.59375 27.203125 
z
" id="DejaVuSans-8722"/>
       <path d="M 12.40625 8.296875 
L 28.515625 8.296875 
L 28.515625 63.921875 
L 10.984375 60.40625 
L 10.984375 69.390625 
L 28.421875 72.90625 
L 38.28125 72.90625 
L 38.28125 8.296875 
L 54.390625 8.296875 
L 54.390625 0 
L 12.40625 0 
z
" id="DejaVuSans-49"/>
       <path d="M 10.6875 12.40625 
L 21 12.40625 
L 21 0 
L 10.6875 0 
z
" id="DejaVuSans-46"/>
       <path d="M 10.796875 72.90625 
L 49.515625 72.90625 
L 49.515625 64.59375 
L 19.828125 64.59375 
L 19.828125 46.734375 
Q 21.96875 47.46875 24.109375 47.828125 
Q 26.265625 48.1875 28.421875 48.1875 
Q 40.625 48.1875 47.75 41.5 
Q 54.890625 34.8125 54.890625 23.390625 
Q 54.890625 11.625 47.5625 5.09375 
Q 40.234375 -1.421875 26.90625 -1.421875 
Q 22.3125 -1.421875 17.546875 -0.640625 
Q 12.796875 0.140625 7.71875 1.703125 
L 7.71875 11.625 
Q 12.109375 9.234375 16.796875 8.0625 
Q 21.484375 6.890625 26.703125 6.890625 
Q 35.15625 6.890625 40.078125 11.328125 
Q 45.015625 15.765625 45.015625 23.390625 
Q 45.015625 31 40.078125 35.4375 
Q 35.15625 39.890625 26.703125 39.890625 
Q 22.75 39.890625 18.8125 39.015625 
Q 14.890625 38.140625 10.796875 36.28125 
z
" id="DejaVuSans-53"/>
      </defs>
      <g transform="translate(131.12236 961.609675)scale(0.2 -0.2)">
       <use xlink:href="#DejaVuSans-8722"/>
       <use x="83.789062" xlink:href="#DejaVuSans-49"/>
       <use x="147.412109" xlink:href="#DejaVuSans-46"/>
       <use x="179.199219" xlink:href="#DejaVuSans-53"/>
      </g>
     </g>
    </g>
    <g id="xtick_2">
     <g id="line2d_3">
      <g>
       <use style="stroke:#000000;stroke-width:0.8;" x="264.025862" xlink:href="#m5ea06534f1" y="939.4128"/>
      </g>
     </g>
     <g id="text_2">
      <!-- −1.0 -->
      <defs>
       <path d="M 31.78125 66.40625 
Q 24.171875 66.40625 20.328125 58.90625 
Q 16.5 51.421875 16.5 36.375 
Q 16.5 21.390625 20.328125 13.890625 
Q 24.171875 6.390625 31.78125 6.390625 
Q 39.453125 6.390625 43.28125 13.890625 
Q 47.125 21.390625 47.125 36.375 
Q 47.125 51.421875 43.28125 58.90625 
Q 39.453125 66.40625 31.78125 66.40625 
z
M 31.78125 74.21875 
Q 44.046875 74.21875 50.515625 64.515625 
Q 56.984375 54.828125 56.984375 36.375 
Q 56.984375 17.96875 50.515625 8.265625 
Q 44.046875 -1.421875 31.78125 -1.421875 
Q 19.53125 -1.421875 13.0625 8.265625 
Q 6.59375 17.96875 6.59375 36.375 
Q 6.59375 54.828125 13.0625 64.515625 
Q 19.53125 74.21875 31.78125 74.21875 
z
" id="DejaVuSans-48"/>
      </defs>
      <g transform="translate(239.74305 961.609675)scale(0.2 -0.2)">
       <use xlink:href="#DejaVuSans-8722"/>
       <use x="83.789062" xlink:href="#DejaVuSans-49"/>
       <use x="147.412109" xlink:href="#DejaVuSans-46"/>
       <use x="179.199219" xlink:href="#DejaVuSans-48"/>
      </g>
     </g>
    </g>
    <g id="xtick_3">
     <g id="line2d_4">
      <g>
       <use style="stroke:#000000;stroke-width:0.8;" x="372.646552" xlink:href="#m5ea06534f1" y="939.4128"/>
      </g>
     </g>
     <g id="text_3">
      <!-- −0.5 -->
      <g transform="translate(348.363739 961.609675)scale(0.2 -0.2)">
       <use xlink:href="#DejaVuSans-8722"/>
       <use x="83.789062" xlink:href="#DejaVuSans-48"/>
       <use x="147.412109" xlink:href="#DejaVuSans-46"/>
       <use x="179.199219" xlink:href="#DejaVuSans-53"/>
      </g>
     </g>
    </g>
    <g id="xtick_4">
     <g id="line2d_5">
      <g>
       <use style="stroke:#000000;stroke-width:0.8;" x="481.267241" xlink:href="#m5ea06534f1" y="939.4128"/>
      </g>
     </g>
     <g id="text_4">
      <!-- 0.0 -->
      <g transform="translate(465.364116 961.609675)scale(0.2 -0.2)">
       <use xlink:href="#DejaVuSans-48"/>
       <use x="63.623047" xlink:href="#DejaVuSans-46"/>
       <use x="95.410156" xlink:href="#DejaVuSans-48"/>
      </g>
     </g>
    </g>
    <g id="xtick_5">
     <g id="line2d_6">
      <g>
       <use style="stroke:#000000;stroke-width:0.8;" x="589.887931" xlink:href="#m5ea06534f1" y="939.4128"/>
      </g>
     </g>
     <g id="text_5">
      <!-- 0.5 -->
      <g transform="translate(573.984806 961.609675)scale(0.2 -0.2)">
       <use xlink:href="#DejaVuSans-48"/>
       <use x="63.623047" xlink:href="#DejaVuSans-46"/>
       <use x="95.410156" xlink:href="#DejaVuSans-53"/>
      </g>
     </g>
    </g>
    <g id="xtick_6">
     <g id="line2d_7">
      <g>
       <use style="stroke:#000000;stroke-width:0.8;" x="698.508621" xlink:href="#m5ea06534f1" y="939.4128"/>
      </g>
     </g>
     <g id="text_6">
      <!-- 1.0 -->
      <g transform="translate(682.605496 961.609675)scale(0.2 -0.2)">
       <use xlink:href="#DejaVuSans-49"/>
       <use x="63.623047" xlink:href="#DejaVuSans-46"/>
       <use x="95.410156" xlink:href="#DejaVuSans-48"/>
      </g>
     </g>
    </g>
    <g id="xtick_7">
     <g id="line2d_8">
      <g>
       <use style="stroke:#000000;stroke-width:0.8;" x="807.12931" xlink:href="#m5ea06534f1" y="939.4128"/>
      </g>
     </g>
     <g id="text_7">
      <!-- 1.5 -->
      <g transform="translate(791.226185 961.609675)scale(0.2 -0.2)">
       <use xlink:href="#DejaVuSans-49"/>
       <use x="63.623047" xlink:href="#DejaVuSans-46"/>
       <use x="95.410156" xlink:href="#DejaVuSans-53"/>
      </g>
     </g>
    </g>
    <g id="xtick_8">
     <g id="line2d_9">
      <g>
       <use style="stroke:#000000;stroke-width:0.8;" x="915.75" xlink:href="#m5ea06534f1" y="939.4128"/>
      </g>
     </g>
     <g id="text_8">
      <!-- 2.0 -->
      <defs>
       <path d="M 19.1875 8.296875 
L 53.609375 8.296875 
L 53.609375 0 
L 7.328125 0 
L 7.328125 8.296875 
Q 12.9375 14.109375 22.625 23.890625 
Q 32.328125 33.6875 34.8125 36.53125 
Q 39.546875 41.84375 41.421875 45.53125 
Q 43.3125 49.21875 43.3125 52.78125 
Q 43.3125 58.59375 39.234375 62.25 
Q 35.15625 65.921875 28.609375 65.921875 
Q 23.96875 65.921875 18.8125 64.3125 
Q 13.671875 62.703125 7.8125 59.421875 
L 7.8125 69.390625 
Q 13.765625 71.78125 18.9375 73 
Q 24.125 74.21875 28.421875 74.21875 
Q 39.75 74.21875 46.484375 68.546875 
Q 53.21875 62.890625 53.21875 53.421875 
Q 53.21875 48.921875 51.53125 44.890625 
Q 49.859375 40.875 45.40625 35.40625 
Q 44.1875 33.984375 37.640625 27.21875 
Q 31.109375 20.453125 19.1875 8.296875 
z
" id="DejaVuSans-50"/>
      </defs>
      <g transform="translate(899.846875 961.609675)scale(0.2 -0.2)">
       <use xlink:href="#DejaVuSans-50"/>
       <use x="63.623047" xlink:href="#DejaVuSans-46"/>
       <use x="95.410156" xlink:href="#DejaVuSans-48"/>
      </g>
     </g>
    </g>
    <g id="text_9">
     <!-- x [m] -->
     <defs>
      <path d="M 54.890625 54.6875 
L 35.109375 28.078125 
L 55.90625 0 
L 45.3125 0 
L 29.390625 21.484375 
L 13.484375 0 
L 2.875 0 
L 24.125 28.609375 
L 4.6875 54.6875 
L 15.28125 54.6875 
L 29.78125 35.203125 
L 44.28125 54.6875 
z
" id="DejaVuSans-120"/>
      <path id="DejaVuSans-32"/>
      <path d="M 8.59375 75.984375 
L 29.296875 75.984375 
L 29.296875 69 
L 17.578125 69 
L 17.578125 -6.203125 
L 29.296875 -6.203125 
L 29.296875 -13.1875 
L 8.59375 -13.1875 
z
" id="DejaVuSans-91"/>
      <path d="M 52 44.1875 
Q 55.375 50.25 60.0625 53.125 
Q 64.75 56 71.09375 56 
Q 79.640625 56 84.28125 50.015625 
Q 88.921875 44.046875 88.921875 33.015625 
L 88.921875 0 
L 79.890625 0 
L 79.890625 32.71875 
Q 79.890625 40.578125 77.09375 44.375 
Q 74.3125 48.1875 68.609375 48.1875 
Q 61.625 48.1875 57.5625 43.546875 
Q 53.515625 38.921875 53.515625 30.90625 
L 53.515625 0 
L 44.484375 0 
L 44.484375 32.71875 
Q 44.484375 40.625 41.703125 44.40625 
Q 38.921875 48.1875 33.109375 48.1875 
Q 26.21875 48.1875 22.15625 43.53125 
Q 18.109375 38.875 18.109375 30.90625 
L 18.109375 0 
L 9.078125 0 
L 9.078125 54.6875 
L 18.109375 54.6875 
L 18.109375 46.1875 
Q 21.1875 51.21875 25.484375 53.609375 
Q 29.78125 56 35.6875 56 
Q 41.65625 56 45.828125 52.96875 
Q 50 49.953125 52 44.1875 
z
" id="DejaVuSans-109"/>
      <path d="M 30.421875 75.984375 
L 30.421875 -13.1875 
L 9.71875 -13.1875 
L 9.71875 -6.203125 
L 21.390625 -6.203125 
L 21.390625 69 
L 9.71875 69 
L 9.71875 75.984375 
z
" id="DejaVuSans-93"/>
     </defs>
     <g transform="translate(526.859375 984.965925)scale(0.2 -0.2)">
      <use xlink:href="#DejaVuSans-120"/>
      <use x="59.179688" xlink:href="#DejaVuSans-32"/>
      <use x="90.966797" xlink:href="#DejaVuSans-91"/>
      <use x="129.980469" xlink:href="#DejaVuSans-109"/>
      <use x="227.392578" xlink:href="#DejaVuSans-93"/>
     </g>
    </g>
   </g>
   <g id="matplotlib.axis_2">
    <g id="ytick_1">
     <g id="line2d_10">
      <defs>
       <path d="M 0 0 
L -3.5 0 
" id="me7eefe23c8" style="stroke:#000000;stroke-width:0.8;"/>
      </defs>
      <g>
       <use style="stroke:#000000;stroke-width:0.8;" x="135" xlink:href="#me7eefe23c8" y="838.261738"/>
      </g>
     </g>
     <g id="text_10">
      <!-- −1.5 -->
      <g transform="translate(79.434375 845.860175)scale(0.2 -0.2)">
       <use xlink:href="#DejaVuSans-8722"/>
       <use x="83.789062" xlink:href="#DejaVuSans-49"/>
       <use x="147.412109" xlink:href="#DejaVuSans-46"/>
       <use x="179.199219" xlink:href="#DejaVuSans-53"/>
      </g>
     </g>
    </g>
    <g id="ytick_2">
     <g id="line2d_11">
      <g>
       <use style="stroke:#000000;stroke-width:0.8;" x="135" xlink:href="#me7eefe23c8" y="729.641048"/>
      </g>
     </g>
     <g id="text_11">
      <!-- −1.0 -->
      <g transform="translate(79.434375 737.239486)scale(0.2 -0.2)">
       <use xlink:href="#DejaVuSans-8722"/>
       <use x="83.789062" xlink:href="#DejaVuSans-49"/>
       <use x="147.412109" xlink:href="#DejaVuSans-46"/>
       <use x="179.199219" xlink:href="#DejaVuSans-48"/>
      </g>
     </g>
    </g>
    <g id="ytick_3">
     <g id="line2d_12">
      <g>
       <use style="stroke:#000000;stroke-width:0.8;" x="135" xlink:href="#me7eefe23c8" y="621.020359"/>
      </g>
     </g>
     <g id="text_12">
      <!-- −0.5 -->
      <g transform="translate(79.434375 628.618796)scale(0.2 -0.2)">
       <use xlink:href="#DejaVuSans-8722"/>
       <use x="83.789062" xlink:href="#DejaVuSans-48"/>
       <use x="147.412109" xlink:href="#DejaVuSans-46"/>
       <use x="179.199219" xlink:href="#DejaVuSans-53"/>
      </g>
     </g>
    </g>
    <g id="ytick_4">
     <g id="line2d_13">
      <g>
       <use style="stroke:#000000;stroke-width:0.8;" x="135" xlink:href="#me7eefe23c8" y="512.399669"/>
      </g>
     </g>
     <g id="text_13">
      <!-- 0.0 -->
      <g transform="translate(96.19375 519.998106)scale(0.2 -0.2)">
       <use xlink:href="#DejaVuSans-48"/>
       <use x="63.623047" xlink:href="#DejaVuSans-46"/>
       <use x="95.410156" xlink:href="#DejaVuSans-48"/>
      </g>
     </g>
    </g>
    <g id="ytick_5">
     <g id="line2d_14">
      <g>
       <use style="stroke:#000000;stroke-width:0.8;" x="135" xlink:href="#me7eefe23c8" y="403.778979"/>
      </g>
     </g>
     <g id="text_14">
      <!-- 0.5 -->
      <g transform="translate(96.19375 411.377417)scale(0.2 -0.2)">
       <use xlink:href="#DejaVuSans-48"/>
       <use x="63.623047" xlink:href="#DejaVuSans-46"/>
       <use x="95.410156" xlink:href="#DejaVuSans-53"/>
      </g>
     </g>
    </g>
    <g id="ytick_6">
     <g id="line2d_15">
      <g>
       <use style="stroke:#000000;stroke-width:0.8;" x="135" xlink:href="#me7eefe23c8" y="295.15829"/>
      </g>
     </g>
     <g id="text_15">
      <!-- 1.0 -->
      <g transform="translate(96.19375 302.756727)scale(0.2 -0.2)">
       <use xlink:href="#DejaVuSans-49"/>
       <use x="63.623047" xlink:href="#DejaVuSans-46"/>
       <use x="95.410156" xlink:href="#DejaVuSans-48"/>
      </g>
     </g>
    </g>
    <g id="ytick_7">
     <g id="line2d_16">
      <g>
       <use style="stroke:#000000;stroke-width:0.8;" x="135" xlink:href="#me7eefe23c8" y="186.5376"/>
      </g>
     </g>
     <g id="text_16">
      <!-- 1.5 -->
      <g transform="translate(96.19375 194.136038)scale(0.2 -0.2)">
       <use xlink:href="#DejaVuSans-49"/>
       <use x="63.623047" xlink:href="#DejaVuSans-46"/>
       <use x="95.410156" xlink:href="#DejaVuSans-53"/>
      </g>
     </g>
    </g>
    <g id="text_17">
     <!-- y [m] -->
     <defs>
      <path d="M 32.171875 -5.078125 
Q 28.375 -14.84375 24.75 -17.8125 
Q 21.140625 -20.796875 15.09375 -20.796875 
L 7.90625 -20.796875 
L 7.90625 -13.28125 
L 13.1875 -13.28125 
Q 16.890625 -13.28125 18.9375 -11.515625 
Q 21 -9.765625 23.484375 -3.21875 
L 25.09375 0.875 
L 2.984375 54.6875 
L 12.5 54.6875 
L 29.59375 11.921875 
L 46.6875 54.6875 
L 56.203125 54.6875 
z
" id="DejaVuSans-121"/>
     </defs>
     <g transform="translate(71.275 559.678225)rotate(-90)scale(0.2 -0.2)">
      <use xlink:href="#DejaVuSans-121"/>
      <use x="59.179688" xlink:href="#DejaVuSans-32"/>
      <use x="90.966797" xlink:href="#DejaVuSans-91"/>
      <use x="129.980469" xlink:href="#DejaVuSans-109"/>
      <use x="227.392578" xlink:href="#DejaVuSans-93"/>
     </g>
    </g>
   </g>
   <g id="line2d_17">
    <path clip-path="url(#p956939fbb1)" d="M 269.118 302.307703 
L 529.659931 562.851807 
L 539.64 571.374186 
L 550.830103 578.232497 
L 562.956517 583.255117 
L 575.717276 586.318221 
L 588.801724 587.347945 
L 601.886172 586.318221 
L 614.646931 583.255117 
L 626.773345 578.232497 
L 637.963448 571.374186 
L 647.943517 562.851807 
L 656.465897 552.871738 
L 663.324207 541.681634 
L 668.346828 529.555655 
L 671.409931 516.79381 
L 672.439655 503.710014 
L 671.409931 490.625566 
L 668.346828 477.864807 
L 663.324207 465.738393 
L 656.465897 454.54829 
L 647.943517 444.568221 
L 553.410931 349.903117 
L 552.518069 348.608359 
L 551.785966 347.213669 
L 551.227655 345.742945 
L 550.851828 344.215738 
L 550.660655 342.6516 
L 550.660655 341.078772 
L 550.851828 339.514634 
L 551.227655 337.987428 
L 551.785966 336.516703 
L 552.518069 335.122014 
L 553.410931 333.827255 
L 554.455862 332.647634 
L 555.63331 331.604876 
L 556.928069 330.709841 
L 558.322759 329.97991 
L 559.793483 329.4216 
L 561.322862 329.0436 
L 562.884828 328.8546 
L 563.673414 328.830703 
L 612.939414 328.900221 
L 616.432655 329.113117 
L 619.912862 329.465048 
L 623.377862 329.956014 
L 626.821138 330.586014 
L 630.236172 331.355048 
L 633.616448 332.260945 
L 636.957621 333.303703 
L 640.253172 334.476807 
L 643.500931 335.7846 
L 646.692207 337.220566 
L 649.822655 338.784703 
L 652.887931 340.472669 
L 655.88369 342.28229 
L 658.803414 344.213566 
L 661.642759 346.257807 
L 664.397379 348.417186 
L 667.062931 350.685186 
L 669.635069 353.057462 
L 672.109448 355.531841 
L 674.481724 358.103979 
L 676.749724 360.769531 
L 678.909103 363.524152 
L 680.953345 366.363497 
L 682.884621 369.283221 
L 684.694241 372.278979 
L 686.382207 375.344255 
L 687.946345 378.474703 
L 689.38231 381.665979 
L 690.690103 384.913738 
L 691.863207 388.20929 
L 692.905966 391.550462 
L 693.811862 394.930738 
L 694.580897 398.345772 
L 695.210897 401.789048 
L 695.701862 405.254048 
L 696.053793 408.734255 
L 696.26669 412.227497 
L 696.336207 420.758566 
L 696.264517 515.4669 
L 696.051621 519.615559 
L 695.082724 523.691224 
L 693.976966 527.710407 
L 692.73869 531.668762 
L 691.370069 535.561945 
L 689.873276 539.385393 
L 688.252655 543.134979 
L 686.510379 546.806359 
L 684.650793 550.397359 
L 682.678241 553.901462 
L 680.592724 557.318669 
L 678.402931 560.64029 
L 676.108862 563.868497 
L 673.717034 566.998945 
L 671.229621 570.025117 
L 668.650966 572.949186 
L 665.987586 575.764634 
L 663.241655 578.471462 
L 660.417517 581.065324 
L 657.519517 583.544048 
L 654.554172 585.909807 
L 651.523655 588.156083 
L 648.43231 590.282876 
L 645.286655 592.288014 
L 642.091034 594.171497 
L 638.849793 595.933324 
L 635.567276 597.569152 
L 632.247828 599.078979 
L 628.895793 600.464979 
L 625.51769 601.724979 
L 622.11569 602.858979 
L 618.698483 603.866979 
L 615.266069 604.748979 
L 611.824966 605.504979 
L 608.38169 606.134979 
L 604.936241 606.641152 
L 601.49731 607.023497 
L 598.067069 607.282014 
L 594.652034 607.421048 
L 591.254379 607.436255 
L 587.878448 607.334152 
L 584.528586 607.112566 
L 581.21131 606.775841 
L 577.926621 606.326152 
L 574.681034 605.763497 
L 571.476724 605.090048 
L 568.320207 604.310152 
L 565.211483 603.423807 
L 562.157069 602.433186 
L 556.219862 600.156497 
L 550.532483 597.497462 
L 545.123172 594.484324 
L 540.007138 591.138807 
L 535.210448 587.489152 
L 530.746138 583.561428 
L 526.631586 579.383876 
L 522.879828 574.98691 
L 521.141897 572.714566 
L 517.075138 568.919359 
L 512.660793 564.283428 
L 382.909034 434.531669 
L 372.928966 426.00929 
L 361.738862 419.150979 
L 349.612448 414.128359 
L 336.85169 411.065255 
L 323.767241 410.035531 
L 310.682793 411.065255 
L 297.922034 414.128359 
L 285.795621 419.150979 
L 274.605517 426.00929 
L 264.625448 434.531669 
L 256.096552 444.511738 
L 249.253448 455.701841 
L 244.213448 467.828255 
L 241.150345 480.589014 
L 240.12931 493.67281 
L 240.12931 628.623807 
L 240.781034 640.055048 
L 242.692759 651.34291 
L 245.864483 662.346186 
L 250.231034 672.925841 
L 255.77069 682.947186 
L 262.396552 692.284221 
L 270.034759 700.821807 
L 278.572345 708.451324 
L 287.909379 715.077186 
L 297.930724 720.616841 
L 308.510379 724.9986 
L 319.513655 728.168152 
L 330.801517 730.075531 
L 342.232759 730.727255 
L 349.529897 730.814152 
L 350.492276 731.22691 
L 351.100552 731.726566 
L 351.571966 732.356566 
L 351.880448 733.073462 
L 352.006448 733.855531 
L 351.943448 734.6376 
L 351.693621 735.376221 
L 351.274345 736.049669 
L 350.707345 736.592772 
L 350.027379 736.983807 
L 349.012862 737.244497 
L 323.767241 737.244497 
L 310.174448 738.308979 
L 296.914034 741.502428 
L 284.316207 746.716221 
L 272.691621 753.841738 
L 262.331379 762.705186 
L 253.467931 773.0676 
L 246.342414 784.690014 
L 241.128621 797.290014 
L 237.935172 810.541738 
L 236.87069 824.141048 
L 237.935172 837.740359 
L 241.128621 850.992083 
L 246.342414 863.592083 
L 253.467931 875.214497 
L 262.331379 885.57691 
L 272.691621 894.440359 
L 284.316207 901.565876 
L 296.914034 906.779669 
L 310.174448 909.973117 
L 323.767241 911.0376 
L 500.818966 911.0376 
L 515.341552 909.7776 
L 529.42531 905.9976 
L 542.637931 899.827945 
L 554.57969 891.464152 
L 564.889966 881.16691 
L 573.251586 869.218634 
L 579.412552 856.010359 
L 583.186034 841.933117 
L 584.689345 826.117945 
L 586.036241 824.597255 
L 586.844379 824.249669 
L 587.715517 824.141048 
L 665.922414 824.141048 
L 674.82931 823.945531 
L 683.721 823.358979 
L 692.575759 822.403117 
L 701.376207 821.034497 
L 710.131034 819.296566 
L 718.777241 817.189324 
L 727.336552 814.691048 
L 735.765517 811.823462 
L 744.064138 808.586566 
L 752.232414 805.002083 
L 760.205172 801.070014 
L 768.025862 796.790359 
L 775.651034 792.163117 
L 783.058966 787.210014 
L 790.227931 781.952772 
L 797.179655 776.369669 
L 803.892414 770.482428 
L 810.322759 764.334497 
L 816.47069 757.904152 
L 822.357931 751.191393 
L 827.941034 744.239669 
L 833.198276 737.070703 
L 838.151379 729.662772 
L 842.778621 722.0376 
L 847.058276 714.2256 
L 850.990345 706.235462 
L 854.574828 698.080221 
L 857.811724 689.777255 
L 860.67931 681.3396 
L 863.177586 672.786807 
L 865.284828 664.13191 
L 867.022759 655.394462 
L 868.391379 646.587497 
L 869.347241 637.732738 
L 869.933793 628.841048 
L 870.12931 619.934152 
L 870.12931 409.210014 
L 869.977241 400.715876 
L 869.564483 392.2326 
L 868.847586 383.768876 
L 867.87 375.331221 
L 866.588276 366.932669 
L 865.045862 358.58191 
L 863.19931 350.287634 
L 861.092069 342.058531 
L 858.724138 333.905462 
L 856.073793 325.834945 
L 853.141034 317.857841 
L 849.96931 309.982841 
L 846.515172 302.220807 
L 842.800345 294.571738 
L 838.846552 287.055186 
L 834.653793 279.668979 
L 830.200345 272.434841 
L 825.507931 265.352772 
L 820.576552 258.444497 
L 815.427931 251.68829 
L 810.062069 245.105876 
L 804.457241 238.718979 
L 798.656897 232.505876 
L 792.661034 226.510014 
L 786.447931 220.709669 
L 780.061034 215.104841 
L 773.478621 209.738979 
L 766.722414 204.590359 
L 759.814138 199.658979 
L 752.732069 194.966566 
L 745.497931 190.513117 
L 738.111724 186.320359 
L 730.595172 182.366566 
L 722.948276 178.651738 
L 715.192759 175.1976 
L 707.306897 172.025876 
L 699.334138 169.093117 
L 691.261448 166.442772 
L 683.108379 164.074841 
L 674.879276 161.9676 
L 666.585 160.121048 
L 658.234241 158.578634 
L 649.83569 157.29691 
L 641.398034 156.319324 
L 632.93431 155.602428 
L 624.451034 155.189669 
L 615.956897 155.0376 
L 323.767241 155.0376 
L 310.682793 156.058634 
L 297.922034 159.121738 
L 285.795621 164.161738 
L 274.605517 171.004841 
L 264.625448 179.542428 
L 256.096552 189.513807 
L 249.253448 200.701738 
L 244.213448 212.823807 
L 241.150345 225.5976 
L 240.12931 238.675531 
L 241.150345 251.753462 
L 244.213448 264.527255 
L 249.253448 276.649324 
L 256.096552 287.837255 
L 264.625448 297.817324 
L 264.625448 297.817324 
" style="fill:none;stroke:#000000;stroke-linecap:square;stroke-width:2;"/>
   </g>
   <g id="line2d_18">
    <path clip-path="url(#p956939fbb1)" d="M 325.954862 245.475186 
L 483.179009 402.694945 
L 586.885655 506.346238 
L 587.793724 506.809179 
L 588.801724 506.968634 
L 589.809724 506.809179 
L 590.717793 506.346238 
L 591.439034 505.625431 
L 591.901759 504.716928 
L 592.060345 503.710014 
L 591.901759 502.7031 
L 591.439034 501.794597 
L 591.106655 501.405734 
L 497.618783 407.9196 
L 493.751017 403.809393 
L 490.13851 399.475428 
L 486.794297 394.930738 
L 483.730541 390.192703 
L 480.95852 385.276531 
L 478.48829 380.203945 
L 476.32891 374.990152 
L 474.488224 369.656876 
L 472.972966 364.221497 
L 471.788566 358.703566 
L 470.939586 353.124807 
L 470.429069 347.504772 
L 470.258534 341.865186 
L 470.429069 336.2256 
L 470.939586 330.605566 
L 471.788566 325.026807 
L 472.972966 319.508876 
L 474.488224 314.073497 
L 476.32891 308.740221 
L 478.48829 303.526428 
L 480.95852 298.453841 
L 483.730541 293.528979 
L 486.794297 288.793117 
L 490.13851 284.252772 
L 493.751017 279.929669 
L 497.618783 275.802083 
L 501.727469 271.935186 
L 506.063172 268.328979 
L 510.607862 264.983462 
L 515.345897 261.920359 
L 520.259897 259.161393 
L 525.334655 256.684841 
L 530.546276 254.512428 
L 535.881724 252.6876 
L 541.317103 251.16691 
L 546.835034 249.972083 
L 552.411621 249.124841 
L 558.031655 248.625186 
L 563.673414 248.451393 
L 609.439655 248.451393 
L 616.174138 248.581738 
L 622.899931 248.994497 
L 629.601828 249.667945 
L 636.27331 250.623807 
L 642.899172 251.840359 
L 649.470724 253.3176 
L 655.979276 255.055531 
L 662.409621 257.054152 
L 668.757414 259.313462 
L 675.005276 261.833462 
L 681.148862 264.592428 
L 687.17731 267.612083 
L 693.077586 270.870703 
L 698.834483 274.346566 
L 704.461034 278.061393 
L 709.935517 281.993462 
L 715.236207 286.164497 
L 720.363103 290.509324 
L 725.316207 295.093117 
L 730.073793 299.850703 
L 734.657586 304.803807 
L 739.002414 309.935048 
L 743.173448 315.23791 
L 747.105517 320.703703 
L 750.820345 326.323738 
L 754.296207 332.089324 
L 757.554828 337.9896 
L 760.574483 344.018048 
L 763.333448 350.161634 
L 765.853448 356.409497 
L 768.112759 362.75729 
L 770.111379 369.187634 
L 771.84931 375.696186 
L 773.326552 382.267738 
L 774.543103 388.8936 
L 775.498966 395.565083 
L 776.172414 402.266979 
L 776.585172 408.992772 
L 776.715517 420.758566 
L 776.606897 518.211093 
L 776.237586 525.100686 
L 775.042759 531.911203 
L 773.608966 538.655462 
L 771.957931 545.326945 
L 770.067931 551.915876 
L 767.96069 558.415738 
L 765.657931 564.820014 
L 763.116207 571.122186 
L 760.378966 577.313566 
L 757.446207 583.389807 
L 754.317931 589.340048 
L 750.994138 595.162117 
L 747.474828 600.849497 
L 743.781724 606.393497 
L 739.914828 611.789772 
L 735.874138 617.033979 
L 731.659655 622.117428 
L 727.293103 627.037945 
L 722.774483 631.791186 
L 718.103793 636.370634 
L 713.302759 640.771945 
L 708.349655 644.992945 
L 703.287931 649.027117 
L 698.113241 652.870117 
L 692.816897 656.521945 
L 687.418448 659.978255 
L 681.920069 663.236876 
L 676.330448 666.29129 
L 670.660448 669.143669 
L 664.912241 671.789669 
L 659.09669 674.227117 
L 653.22031 676.456014 
L 647.289621 678.474186 
L 641.31331 680.279462 
L 635.297897 681.874014 
L 629.252069 683.255669 
L 623.184517 684.422255 
L 617.099586 685.375945 
L 611.005966 686.11891 
L 604.912345 686.646807 
L 598.823069 686.963979 
L 592.749 687.070428 
L 586.696655 686.968324 
L 580.670379 686.657669 
L 574.681034 686.142807 
L 568.732966 685.423738 
L 562.834862 684.500462 
L 556.991069 683.381669 
L 551.212448 682.063014 
L 545.501172 680.553186 
L 539.865931 678.854359 
L 534.313241 676.966531 
L 528.847448 674.896221 
L 523.475069 672.647772 
L 518.204793 670.221186 
L 513.038793 667.625152 
L 507.985759 664.864014 
L 503.047862 661.937772 
L 498.230752 658.855117 
L 493.540945 655.620393 
L 488.982786 652.237945 
L 484.560403 648.71429 
L 480.278619 645.0516 
L 476.141214 641.258566 
L 472.152445 637.337359 
L 468.315962 633.298841 
L 464.213359 629.594876 
L 460.239362 625.754048 
L 455.823931 621.12029 
L 325.68331 491.036586 
L 324.775241 490.573428 
L 323.767241 490.414841 
L 322.759241 490.573428 
L 321.851172 491.036586 
L 321.129931 491.757393 
L 320.667207 492.665897 
L 320.508621 493.67281 
L 320.508621 628.623807 
L 320.645483 631.05691 
L 321.053897 633.457428 
L 321.727345 635.79929 
L 322.65931 638.04991 
L 323.838931 640.181048 
L 325.248828 642.168807 
L 326.871621 643.984945 
L 328.687759 645.607738 
L 330.675517 647.017634 
L 332.806655 648.197255 
L 335.057276 649.129221 
L 337.399138 649.802669 
L 339.799655 650.211083 
L 342.232759 650.347945 
L 348.75 650.347945 
L 355.480138 650.619497 
L 362.166828 651.431979 
L 368.766621 652.778876 
L 375.236069 654.651497 
L 381.533897 657.041152 
L 387.618828 659.92829 
L 393.451759 663.295531 
L 398.995759 667.121152 
L 404.211724 671.381255 
L 409.069241 676.0476 
L 413.535724 681.089772 
L 417.582931 686.475186 
L 421.182621 692.16691 
L 424.313069 698.130186 
L 426.952552 704.328083 
L 429.085862 710.717152 
L 430.697793 717.256117 
L 431.777483 723.903703 
L 432.320586 730.618634 
L 432.320586 737.353117 
L 431.777483 744.065876 
L 430.697793 750.713462 
L 429.085862 757.252428 
L 426.952552 763.639324 
L 424.313069 769.830703 
L 421.182621 775.804841 
L 417.582931 781.496566 
L 413.535724 786.884152 
L 409.069241 791.924152 
L 404.211724 796.594841 
L 398.995759 800.852772 
L 393.451759 804.676221 
L 387.618828 808.043462 
L 381.533897 810.932772 
L 375.236069 813.322428 
L 368.766621 815.190703 
L 362.166828 816.5376 
L 355.480138 817.363117 
L 348.75 817.623807 
L 322.748379 817.710703 
L 321.753414 817.949669 
L 320.808414 818.340703 
L 319.937276 818.862083 
L 319.159552 819.535531 
L 318.494793 820.3176 
L 317.960379 821.186566 
L 317.569345 822.120703 
L 317.330379 823.120014 
L 317.25 824.141048 
L 317.330379 825.162083 
L 317.569345 826.161393 
L 317.960379 827.095531 
L 318.494793 827.964497 
L 319.159552 828.746566 
L 319.937276 829.420014 
L 320.808414 829.941393 
L 321.753414 830.332428 
L 322.748379 830.571393 
L 323.767241 830.65829 
L 501.450052 830.614841 
L 502.448276 830.223807 
L 503.315069 829.485186 
L 503.962448 828.616221 
L 504.207931 827.399669 
L 504.568552 818.362428 
L 505.179 813.865531 
L 506.032759 809.412083 
L 507.125483 805.023807 
L 508.455 800.700703 
L 510.016966 796.442772 
L 511.807034 792.271738 
L 513.820862 788.231048 
L 516.049759 784.277255 
L 518.489379 780.453807 
L 521.131034 776.782428 
L 523.970379 773.263117 
L 526.994379 769.874152 
L 530.19869 766.680703 
L 533.570276 763.661048 
L 537.100448 760.815186 
L 540.778345 758.164841 
L 544.595276 755.731738 
L 548.538207 753.494152 
L 552.596276 751.495531 
L 556.758621 749.692428 
L 561.010034 748.150014 
L 565.339655 746.803117 
L 569.736621 745.71691 
L 574.183552 744.869669 
L 578.671759 744.261393 
L 583.188207 743.892083 
L 587.715517 743.761738 
L 671.323034 743.653117 
L 676.714966 743.283807 
L 682.085172 742.697255 
L 687.424966 741.871738 
L 692.723483 740.828979 
L 697.972034 739.547255 
L 703.157586 738.026566 
L 708.284483 736.288634 
L 713.302759 734.333462 
L 718.255862 732.161048 
L 723.100345 729.771393 
L 727.836207 727.171014 
L 732.463448 724.3686 
L 736.938621 721.368497 
L 741.305172 718.172876 
L 745.519655 714.7926 
L 749.582069 711.229841 
L 753.492414 707.49329 
L 757.207241 703.591634 
L 760.77 699.529221 
L 764.158966 695.314738 
L 767.352414 690.959048 
L 770.350345 686.466497 
L 773.152759 681.847945 
L 775.759655 677.112083 
L 778.14931 672.265428 
L 780.321724 667.321014 
L 782.276897 662.285359 
L 784.014828 657.169324 
L 785.535517 651.983772 
L 786.817241 646.735221 
L 787.86 641.436703 
L 788.685517 636.09691 
L 789.272069 630.726703 
L 789.641379 625.334772 
L 789.75 619.934152 
L 789.663103 403.403152 
L 789.358966 397.602807 
L 788.881034 391.813324 
L 788.207586 386.045566 
L 787.338621 380.303876 
L 786.274138 374.5926 
L 785.014138 368.920428 
L 783.580345 363.293876 
L 781.951034 357.719462 
L 780.126207 352.201531 
L 778.127586 346.7466 
L 775.955172 341.363359 
L 773.608966 336.053979 
L 771.067241 330.827152 
L 768.373448 325.687221 
L 765.484138 320.642876 
L 762.442759 315.694117 
L 759.24931 310.851807 
L 755.882069 306.12029 
L 752.341034 301.501738 
L 748.669655 297.004841 
L 744.846207 292.63829 
L 740.892414 288.380359 
L 736.786552 284.274497 
L 732.528621 280.320703 
L 728.162069 276.497255 
L 723.665172 272.825876 
L 719.037931 269.284841 
L 714.323793 265.9176 
L 709.47931 262.724152 
L 704.526207 259.682772 
L 699.486207 256.793462 
L 694.339759 254.099669 
L 689.112931 251.557945 
L 683.803552 249.211738 
L 678.42031 247.039324 
L 672.965379 245.040703 
L 667.447448 243.215876 
L 661.873034 241.586566 
L 656.246483 240.152772 
L 650.57431 238.892772 
L 644.863034 237.82829 
L 639.121345 236.959324 
L 633.353586 236.285876 
L 627.564103 235.807945 
L 621.763759 235.503807 
L 608.651069 235.41691 
L 323.256724 235.460359 
L 322.287828 235.764497 
L 321.46231 236.372772 
L 320.862724 237.19829 
L 320.547724 238.175876 
L 320.547724 239.175186 
L 320.862724 240.152772 
L 321.46231 240.97829 
L 321.46231 240.97829 
" style="fill:none;stroke:#000000;stroke-linecap:square;stroke-width:2;"/>
   </g>
   <g id="line2d_19">
    <path clip-path="url(#p956939fbb1)" d="M 297.537517 273.890359 
L 405.347897 381.700738 
L 558.079448 534.43229 
L 563.262828 538.859669 
L 569.076207 542.422428 
L 575.376207 545.031497 
L 582.004241 546.623876 
L 588.801724 547.15829 
L 595.599207 546.623876 
L 602.227241 545.031497 
L 608.527241 542.422428 
L 614.340621 538.859669 
L 619.524 534.43229 
L 623.951379 529.248259 
L 627.514138 523.435097 
L 630.123207 517.136183 
L 631.715586 510.506823 
L 632.25 503.710014 
L 631.715586 496.913183 
L 630.123207 490.284497 
L 627.514138 483.984497 
L 623.951379 478.171117 
L 619.524 472.987738 
L 523.833517 377.160393 
L 521.776241 374.690359 
L 519.868862 372.100841 
L 518.124414 369.400531 
L 516.545069 366.60029 
L 515.137345 363.708807 
L 513.907759 360.739117 
L 512.858483 357.69991 
L 511.993862 354.602048 
L 511.320414 351.458566 
L 510.835966 348.280324 
L 510.544862 345.078186 
L 510.449276 341.865186 
L 510.544862 338.652186 
L 510.835966 335.450048 
L 511.320414 332.271807 
L 511.993862 329.128324 
L 512.858483 326.030462 
L 513.907759 322.991255 
L 515.137345 320.021566 
L 516.545069 317.130083 
L 518.124414 314.329841 
L 519.868862 311.629531 
L 521.776241 309.040014 
L 523.833517 306.569979 
L 526.036345 304.23029 
L 528.378207 302.02529 
L 530.848241 299.968014 
L 533.437759 298.062807 
L 536.138069 296.316186 
L 538.93831 294.745531 
L 541.827621 293.333462 
L 544.799483 292.095186 
L 547.83869 291.052428 
L 550.934379 290.183462 
L 554.077862 289.510014 
L 557.256103 289.032083 
L 560.458241 288.727945 
L 563.673414 288.641048 
L 614.557862 288.749669 
L 619.665207 289.053807 
L 624.757345 289.575186 
L 629.825586 290.292083 
L 634.861241 291.204497 
L 639.853448 292.334152 
L 644.797862 293.659324 
L 649.683621 295.182186 
L 654.504207 296.900566 
L 659.253103 298.810117 
L 663.921621 300.910841 
L 668.498897 303.198393 
L 672.982759 305.668428 
L 677.362345 308.314428 
L 681.63331 311.136393 
L 685.784793 314.129979 
L 689.814621 317.286497 
L 693.714103 320.6016 
L 697.474552 324.073117 
L 701.093793 327.692359 
L 704.569655 331.452807 
L 707.871724 335.35229 
L 711.043448 339.382117 
L 714.019655 343.5336 
L 716.843793 347.804566 
L 719.494138 352.184152 
L 721.97069 356.668014 
L 724.251724 361.24529 
L 726.358966 365.913807 
L 728.27069 370.662703 
L 729.986897 375.48329 
L 731.507586 380.369048 
L 732.832759 385.313462 
L 733.962414 390.305669 
L 734.874828 395.341324 
L 735.591724 400.409566 
L 736.113103 405.501703 
L 736.417241 410.609048 
L 736.525862 420.758566 
L 736.438966 516.838997 
L 736.156552 522.358231 
L 735.070345 527.801214 
L 733.788621 533.182934 
L 732.354828 538.496876 
L 730.725517 543.73891 
L 728.922414 548.900566 
L 726.945517 553.977497 
L 724.816552 558.965359 
L 722.513793 563.855462 
L 720.058966 568.645634 
L 717.452069 573.329359 
L 714.693103 577.90229 
L 711.782069 582.360083 
L 708.74069 586.696221 
L 705.568966 590.908531 
L 702.266897 594.990497 
L 698.812759 598.942117 
L 695.265207 602.754703 
L 691.591655 606.428255 
L 687.811655 609.958428 
L 683.925207 613.340876 
L 679.941 616.573428 
L 675.863379 619.65391 
L 671.701034 622.580152 
L 667.453966 625.347807 
L 663.133034 627.954703 
L 658.742586 630.403014 
L 654.289138 632.686221 
L 649.777034 634.804324 
L 645.214966 636.757324 
L 640.607276 638.543048 
L 635.95831 640.161497 
L 631.276759 641.612669 
L 626.569138 642.892221 
L 621.839793 644.004497 
L 617.095241 644.947324 
L 612.339828 645.722876 
L 607.584414 646.328979 
L 602.829 646.769979 
L 598.082276 647.041531 
L 593.350759 647.150152 
L 588.638793 647.091497 
L 583.952897 646.872083 
L 579.299586 646.49191 
L 574.681034 645.953152 
L 570.105931 645.255807 
L 565.576448 644.406393 
L 561.101276 643.402738 
L 556.684759 642.249186 
L 552.329069 640.94791 
L 548.042897 639.505428 
L 543.828414 637.919566 
L 539.689966 636.196841 
L 535.634069 634.339428 
L 531.662897 632.353841 
L 527.782966 630.23791 
L 523.996448 628.000324 
L 520.30769 625.643255 
L 516.721034 623.173221 
L 513.238655 620.590221 
L 509.864897 617.8986 
L 506.601931 615.107048 
L 503.456276 612.217738 
L 500.425324 609.235014 
L 497.51581 606.163221 
L 494.728821 603.006703 
L 491.644862 600.223841 
L 488.657793 597.336703 
L 484.242145 592.702945 
L 354.489517 462.951186 
L 349.306138 458.521634 
L 343.492759 454.961048 
L 337.192759 452.351979 
L 330.564724 450.7596 
L 323.767241 450.225186 
L 316.969759 450.7596 
L 310.341724 452.351979 
L 304.041724 454.961048 
L 298.228345 458.521634 
L 293.044966 462.951186 
L 288.617586 468.134566 
L 285.054828 473.947945 
L 282.445759 480.245772 
L 280.853379 486.875979 
L 280.318966 493.67281 
L 280.318966 628.623807 
L 280.707828 635.555979 
L 281.872241 642.401255 
L 283.792655 649.072738 
L 286.449517 655.487876 
L 289.808069 661.564117 
L 293.827034 667.225428 
L 298.452103 672.404462 
L 303.631138 677.029531 
L 309.292448 681.048497 
L 315.36869 684.407048 
L 321.783828 687.06391 
L 328.45531 688.984324 
L 335.300586 690.148738 
L 342.232759 690.5376 
L 348.75 690.5376 
L 352.245414 690.678807 
L 355.719103 691.100255 
L 359.147172 691.799772 
L 362.507897 692.773014 
L 365.779552 694.013462 
L 368.940414 695.5146 
L 371.970931 697.263393 
L 374.851552 699.251152 
L 377.560552 701.464841 
L 380.084897 703.889255 
L 382.405034 706.507014 
L 384.507931 709.305083 
L 386.378379 712.261738 
L 388.003345 715.3596 
L 389.374138 718.579117 
L 390.482069 721.898566 
L 391.320621 725.294048 
L 391.881103 728.748186 
L 392.163517 732.226221 
L 392.163517 735.745531 
L 391.881103 739.221393 
L 391.320621 742.675531 
L 390.482069 746.064497 
L 389.374138 749.38829 
L 388.003345 752.603462 
L 386.378379 755.710014 
L 384.507931 758.664497 
L 382.405034 761.46691 
L 380.084897 764.073807 
L 377.560552 766.50691 
L 374.851552 768.722772 
L 371.970931 770.699669 
L 368.940414 772.459324 
L 365.779552 773.95829 
L 362.507897 775.196566 
L 359.147172 776.174152 
L 355.719103 776.869324 
L 352.245414 777.303807 
L 348.75 777.434152 
L 323.767241 777.434152 
L 316.461414 777.998979 
L 309.333724 779.715186 
L 302.56231 782.5176 
L 296.314448 786.362772 
L 290.740034 791.120359 
L 285.980276 796.681738 
L 282.15031 802.93829 
L 279.345724 809.716221 
L 277.636034 816.841738 
L 277.060345 824.141048 
L 277.636034 831.440359 
L 279.345724 838.565876 
L 282.15031 845.343807 
L 285.980276 851.600359 
L 290.740034 857.161738 
L 296.314448 861.919324 
L 302.56231 865.764497 
L 309.333724 868.56691 
L 316.461414 870.283117 
L 323.767241 870.847945 
L 500.818966 870.847945 
L 508.363759 870.196221 
L 515.678276 868.219324 
L 522.543103 865.025876 
L 528.747517 860.681048 
L 534.102517 855.33691 
L 538.447345 849.123807 
L 541.64731 842.258979 
L 543.606828 834.937945 
L 544.267241 827.399669 
L 544.521414 822.707255 
L 544.838586 820.361048 
L 545.283931 818.05829 
L 545.850931 815.777255 
L 546.541759 813.517945 
L 547.352069 811.323807 
L 548.281862 809.151393 
L 549.328966 807.044152 
L 550.486862 805.002083 
L 551.753379 803.025186 
L 553.126345 801.113462 
L 554.601414 799.26691 
L 556.172069 797.528979 
L 557.836138 795.856221 
L 559.587103 794.292083 
L 561.422793 792.814841 
L 563.332345 791.446221 
L 565.315759 790.164497 
L 567.364345 789.013117 
L 569.471586 787.970359 
L 571.633138 787.036221 
L 573.842483 786.232428 
L 576.090931 785.537255 
L 578.37631 784.972428 
L 580.685586 784.516221 
L 585.362793 784.016566 
L 587.715517 783.951393 
L 665.922414 783.951393 
L 673.076172 783.799324 
L 680.216897 783.321393 
L 687.331552 782.539324 
L 694.402759 781.453117 
L 701.419655 780.062772 
L 708.371379 778.36829 
L 715.236207 776.369669 
L 722.014138 774.06691 
L 728.683448 771.460014 
L 735.244138 768.592428 
L 741.652759 765.420703 
L 747.931034 761.966566 
L 754.057241 758.273462 
L 760.009655 754.297945 
L 765.766552 750.061738 
L 771.349655 745.586566 
L 776.737241 740.850703 
L 781.907586 735.919324 
L 786.838966 730.748979 
L 791.574828 725.361393 
L 796.05 719.780462 
L 800.286207 714.010531 
L 804.261724 708.06029 
L 807.954828 701.942772 
L 811.408966 695.668841 
L 814.58069 689.251531 
L 817.448276 682.701703 
L 820.055172 676.032393 
L 822.357931 669.254462 
L 824.356552 662.38529 
L 826.051034 655.433566 
L 827.441379 648.414497 
L 828.527586 641.34329 
L 829.309655 634.228634 
L 829.787586 627.08791 
L 829.939655 619.934152 
L 829.939655 409.210014 
L 829.80931 402.0606 
L 829.461724 394.917703 
L 828.875172 387.792186 
L 828.027931 380.688393 
L 826.963448 373.619359 
L 825.66 366.587255 
L 824.117586 359.605117 
L 822.336207 352.67729 
L 820.337586 345.812462 
L 818.1 339.019324 
L 815.645172 332.302221 
L 812.951379 325.674186 
L 810.062069 319.137393 
L 806.933793 312.702703 
L 803.61 306.374462 
L 800.068966 300.161359 
L 796.31069 294.072083 
L 792.378621 288.097945 
L 788.22931 282.275876 
L 783.884483 276.584152 
L 779.365862 271.066221 
L 774.651724 265.678634 
L 769.763793 260.443117 
L 764.723793 255.403117 
L 759.488276 250.515186 
L 754.10069 245.801048 
L 748.582759 241.282428 
L 742.891034 236.9376 
L 737.068966 232.78829 
L 731.094828 228.856221 
L 725.012069 225.097945 
L 718.798966 221.55691 
L 712.455517 218.233117 
L 706.025172 215.104841 
L 699.486207 212.215531 
L 692.86469 209.521738 
L 686.147586 207.06691 
L 679.354448 204.829324 
L 672.489621 202.830703 
L 665.561793 201.049324 
L 658.579655 199.50691 
L 651.547552 198.203462 
L 644.478517 197.138979 
L 637.374724 196.291738 
L 630.249207 195.705186 
L 623.10631 195.3576 
L 615.956897 195.227255 
L 323.767241 195.227255 
L 316.969759 195.770359 
L 310.341724 197.356221 
L 304.041724 199.963117 
L 298.228345 203.525876 
L 293.044966 207.9576 
L 288.617586 213.127945 
L 285.054828 218.950014 
L 282.445759 225.250014 
L 280.853379 231.875876 
L 280.318966 238.675531 
L 280.853379 245.475186 
L 282.445759 252.101048 
L 285.054828 258.401048 
L 288.617586 264.223117 
L 293.044966 269.393462 
L 293.044966 269.393462 
" style="fill:none;stroke:#000000;stroke-dasharray:1.85,0.8;stroke-dashoffset:0;stroke-opacity:0.5;stroke-width:0.5;"/>
   </g>
   <g id="line2d_20">
    <path clip-path="url(#p956939fbb1)" d="M 318.232613 293.592469 
L 321.549252 297.491476 
L 325.931486 301.620002 
L 329.90907 305.141734 
L 333.395054 309.264936 
L 338.527367 311.687005 
L 348.031204 317.840787 
L 352.459538 320.799958 
L 357.63214 325.066163 
L 361.026658 328.972984 
L 365.147759 332.310017 
L 369.598534 336.086485 
L 374.259904 339.873719 
L 378.770382 343.881355 
L 382.840449 348.675742 
L 396.746262 357.834403 
L 400.194898 360.828742 
L 404.631088 364.924071 
L 408.053902 368.809083 
L 412.320794 372.149038 
L 417.305813 375.757405 
L 421.666335 379.199253 
L 426.69913 383.002809 
L 430.166543 387.115609 
L 434.906415 391.85794 
L 439.66361 397.456894 
L 444.472924 401.314615 
L 449.143186 406.747296 
L 452.834794 411.678577 
L 456.721643 416.198469 
L 460.158807 422.027572 
L 467.228489 433.373977 
L 471.428125 438.927693 
L 474.447105 444.945057 
L 478.349876 451.244859 
L 483.048471 457.340815 
L 486.267837 463.374931 
L 490.949232 467.779772 
L 494.780044 473.53031 
L 498.362302 478.057702 
L 501.382385 482.24074 
L 505.842247 488.010353 
L 510.158977 493.207008 
L 514.352313 497.503553 
L 517.516612 502.068182 
L 521.685372 507.86086 
L 526.191596 513.663781 
L 530.993383 519.453599 
L 535.707069 523.553907 
L 539.337101 528.542945 
L 544.991157 533.633888 
L 550.220071 538.946906 
L 555.397754 542.689027 
L 560.328726 547.199546 
L 566.992793 551.418533 
L 573.322389 553.534373 
L 578.474861 554.204624 
L 584.639134 554.760374 
L 589.87869 553.746123 
L 595.673785 551.305002 
L 601.476244 549.669242 
L 606.905624 546.372298 
L 612.270205 542.713039 
L 621.403964 535.863688 
L 624.396964 530.33497 
L 627.791807 524.302957 
L 629.861667 519.496676 
L 632.649609 514.499239 
L 633.745755 507.856716 
L 635.11347 501.683279 
L 635.344697 495.113069 
L 635.138578 490.171773 
L 634.008203 483.553907 
L 634.169378 478.141422 
L 633.325461 473.066552 
L 631.460551 467.442403 
L 629.813871 460.91853 
L 627.171772 455.873187 
L 623.975337 451.140102 
L 619.408957 447.221884 
L 614.188316 443.453807 
L 609.555873 438.672754 
L 593.781621 430.04993 
L 588.707893 427.406475 
L 583.155223 424.350271 
L 577.822141 421.599289 
L 571.846927 419.090761 
L 559.550841 413.564514 
L 554.819229 410.030992 
L 548.872601 407.151912 
L 543.559181 405.340314 
L 536.861498 401.851567 
L 531.062575 398.159957 
L 526.280304 395.892746 
L 520.172596 392.830168 
L 515.816957 388.465686 
L 511.595601 385.151934 
L 507.870946 381.453919 
L 504.601592 376.210711 
L 500.482281 371.677633 
L 497.294309 365.178577 
L 495.771116 358.41594 
L 494.913984 351.816288 
L 496.173811 345.538551 
L 497.430003 340.413044 
L 498.358981 335.608516 
L 501.15933 329.204342 
L 503.125865 323.12033 
L 505.69568 318.563425 
L 512.988987 306.697398 
L 515.701226 300.977145 
L 520.204595 296.708395 
L 529.930241 289.493482 
L 535.588633 286.345707 
L 539.885252 282.459172 
L 553.184926 276.68286 
L 558.490633 275.253338 
L 565.524507 274.055177 
L 571.701636 273.269156 
L 585.725863 273.411943 
L 592.350533 274.777454 
L 610.539479 280.513513 
L 615.648171 281.83107 
L 628.196154 287.03016 
L 633.612808 289.638963 
L 639.347867 293.215304 
L 644.551713 297.746633 
L 650.103838 302.140979 
L 654.218587 306.512365 
L 660.384917 311.469859 
L 664.540173 315.718486 
L 670.214216 319.25831 
L 680.654361 327.258494 
L 684.289364 331.970494 
L 689.110519 337.628835 
L 692.491272 341.81557 
L 697.716865 346.863062 
L 700.94861 351.378213 
L 704.77493 356.187717 
L 709.394014 360.975249 
L 713.412302 365.994017 
L 716.6759 372.040994 
L 720.998135 377.684364 
L 723.391431 382.66938 
L 727.178003 387.438089 
L 734.416576 399.702718 
L 736.553148 406.180683 
L 738.688067 411.846065 
L 740.520788 418.812241 
L 743.518474 425.465948 
L 745.32289 430.78113 
L 746.547022 443.121896 
L 747.8087 448.99415 
L 748.200522 455.586762 
L 748.051895 461.237839 
L 748.326606 468.697612 
L 749.416243 475.81658 
L 750.109297 490.562821 
L 749.666944 497.745075 
L 748.859801 504.870792 
L 748.882998 511.07001 
L 748.670651 518.279304 
L 747.230302 524.762421 
L 745.828124 530.5126 
L 743.127639 536.498561 
L 741.675131 542.53427 
L 738.336722 549.489786 
L 734.562702 555.996971 
L 731.929033 560.893124 
L 723.792973 571.034011 
L 720.901636 576.501493 
L 718.200364 581.855583 
L 715.202454 588.308511 
L 711.245731 593.739332 
L 707.940089 598.613848 
L 704.100485 603.370817 
L 699.904168 608.767349 
L 695.235561 612.554787 
L 686.701416 621.551266 
L 680.948545 626.520831 
L 676.87567 631.047787 
L 671.649619 634.463303 
L 665.381067 638.187237 
L 660.661381 641.706557 
L 654.242425 645.68417 
L 647.827581 648.009762 
L 641.642531 650.379002 
L 636.461508 653.070796 
L 630.25346 654.496797 
L 618.641636 659.834441 
L 612.287978 661.116847 
L 606.336185 661.241722 
L 594.331636 663.333201 
L 586.938314 663.134404 
L 581.42349 662.386064 
L 575.508182 661.911808 
L 568.156088 660.461638 
L 560.991858 658.924682 
L 560.991858 658.924682 
" style="fill:none;stroke:#ff0000;stroke-linecap:square;stroke-width:2;"/>
   </g>
   <g id="line2d_21">
    <path clip-path="url(#p956939fbb1)" d="M 562.097953 655.725928 
L 556.056224 653.459695 
L 550.101271 650.884457 
L 544.244834 648.02836 
L 538.535038 644.889693 
L 533.58776 640.501674 
L 528.831566 635.964306 
" style="fill:none;stroke:#0000ff;stroke-linecap:square;"/>
    <defs>
     <path d="M 0 0.5 
C 0.132602 0.5 0.25979 0.447317 0.353553 0.353553 
C 0.447317 0.25979 0.5 0.132602 0.5 0 
C 0.5 -0.132602 0.447317 -0.25979 0.353553 -0.353553 
C 0.25979 -0.447317 0.132602 -0.5 0 -0.5 
C -0.132602 -0.5 -0.25979 -0.447317 -0.353553 -0.353553 
C -0.447317 -0.25979 -0.5 -0.132602 -0.5 0 
C -0.5 0.132602 -0.447317 0.25979 -0.353553 0.353553 
C -0.25979 0.447317 -0.132602 0.5 0 0.5 
z
" id="m861bc3f9bf" style="stroke:#0000ff;"/>
    </defs>
    <g clip-path="url(#p956939fbb1)">
     <use style="fill:#0000ff;stroke:#0000ff;" x="562.097953" xlink:href="#m861bc3f9bf" y="655.725928"/>
     <use style="fill:#0000ff;stroke:#0000ff;" x="556.056224" xlink:href="#m861bc3f9bf" y="653.459695"/>
     <use style="fill:#0000ff;stroke:#0000ff;" x="550.101271" xlink:href="#m861bc3f9bf" y="650.884457"/>
     <use style="fill:#0000ff;stroke:#0000ff;" x="544.244834" xlink:href="#m861bc3f9bf" y="648.02836"/>
     <use style="fill:#0000ff;stroke:#0000ff;" x="538.535038" xlink:href="#m861bc3f9bf" y="644.889693"/>
     <use style="fill:#0000ff;stroke:#0000ff;" x="533.58776" xlink:href="#m861bc3f9bf" y="640.501674"/>
     <use style="fill:#0000ff;stroke:#0000ff;" x="528.831566" xlink:href="#m861bc3f9bf" y="635.964306"/>
    </g>
   </g>
   <g id="line2d_22">
    <path clip-path="url(#p956939fbb1)" d="M 560.991858 658.924682 
" style="fill:none;stroke:#008000;stroke-linecap:square;stroke-opacity:0.5;stroke-width:1.5;"/>
    <defs>
     <path d="M 0 2.5 
C 0.663008 2.5 1.29895 2.236584 1.767767 1.767767 
C 2.236584 1.29895 2.5 0.663008 2.5 0 
C 2.5 -0.663008 2.236584 -1.29895 1.767767 -1.767767 
C 1.29895 -2.236584 0.663008 -2.5 0 -2.5 
C -0.663008 -2.5 -1.29895 -2.236584 -1.767767 -1.767767 
C -2.236584 -1.29895 -2.5 -0.663008 -2.5 0 
C -2.5 0.663008 -2.236584 1.29895 -1.767767 1.767767 
C -1.29895 2.236584 -0.663008 2.5 0 2.5 
z
" id="m574d437bed" style="stroke:#008000;stroke-opacity:0.5;"/>
    </defs>
    <g clip-path="url(#p956939fbb1)">
     <use style="fill:#008000;fill-opacity:0.5;stroke:#008000;stroke-opacity:0.5;" x="560.991858" xlink:href="#m574d437bed" y="658.924682"/>
    </g>
   </g>
   <g id="line2d_23">
    <path clip-path="url(#p956939fbb1)" d="M 560.991858 658.924682 
L 554.987232 656.539424 
L 549.300286 653.898762 
L 543.992623 650.952962 
L 539.155255 647.698545 
L 534.865771 644.176088 
L 531.157942 640.414349 
" style="fill:none;stroke:#008000;stroke-linecap:square;stroke-width:0.5;"/>
    <defs>
     <path d="M 0 0.5 
C 0.132602 0.5 0.25979 0.447317 0.353553 0.353553 
C 0.447317 0.25979 0.5 0.132602 0.5 0 
C 0.5 -0.132602 0.447317 -0.25979 0.353553 -0.353553 
C 0.25979 -0.447317 0.132602 -0.5 0 -0.5 
C -0.132602 -0.5 -0.25979 -0.447317 -0.353553 -0.353553 
C -0.447317 -0.25979 -0.5 -0.132602 -0.5 0 
C -0.5 0.132602 -0.447317 0.25979 -0.353553 0.353553 
C -0.25979 0.447317 -0.132602 0.5 0 0.5 
z
" id="mc5262079cd" style="stroke:#008000;"/>
    </defs>
    <g clip-path="url(#p956939fbb1)">
     <use style="fill:#008000;stroke:#008000;" x="560.991858" xlink:href="#mc5262079cd" y="658.924682"/>
     <use style="fill:#008000;stroke:#008000;" x="554.987232" xlink:href="#mc5262079cd" y="656.539424"/>
     <use style="fill:#008000;stroke:#008000;" x="549.300286" xlink:href="#mc5262079cd" y="653.898762"/>
     <use style="fill:#008000;stroke:#008000;" x="543.992623" xlink:href="#mc5262079cd" y="650.952962"/>
     <use style="fill:#008000;stroke:#008000;" x="539.155255" xlink:href="#mc5262079cd" y="647.698545"/>
     <use style="fill:#008000;stroke:#008000;" x="534.865771" xlink:href="#mc5262079cd" y="644.176088"/>
     <use style="fill:#008000;stroke:#008000;" x="531.157942" xlink:href="#mc5262079cd" y="640.414349"/>
    </g>
   </g>
   <g id="line2d_24">
    <path clip-path="url(#p956939fbb1)" d="M 560.991858 658.924682 
L 554.987085 656.539429 
L 549.931278 652.644386 
L 544.35759 650.105938 
L 540.90173 645.347575 
L 536.239506 642.90916 
L 532.861722 637.326419 
" style="fill:none;stroke:#ff0000;stroke-linecap:square;stroke-width:0.5;"/>
    <defs>
     <path d="M 0 0.5 
C 0.132602 0.5 0.25979 0.447317 0.353553 0.353553 
C 0.447317 0.25979 0.5 0.132602 0.5 0 
C 0.5 -0.132602 0.447317 -0.25979 0.353553 -0.353553 
C 0.25979 -0.447317 0.132602 -0.5 0 -0.5 
C -0.132602 -0.5 -0.25979 -0.447317 -0.353553 -0.353553 
C -0.447317 -0.25979 -0.5 -0.132602 -0.5 0 
C -0.5 0.132602 -0.447317 0.25979 -0.353553 0.353553 
C -0.25979 0.447317 -0.132602 0.5 0 0.5 
z
" id="mca6c7f37cb" style="stroke:#ff0000;"/>
    </defs>
    <g clip-path="url(#p956939fbb1)">
     <use style="fill:#ff0000;stroke:#ff0000;" x="560.991858" xlink:href="#mca6c7f37cb" y="658.924682"/>
     <use style="fill:#ff0000;stroke:#ff0000;" x="554.987085" xlink:href="#mca6c7f37cb" y="656.539429"/>
     <use style="fill:#ff0000;stroke:#ff0000;" x="549.931278" xlink:href="#mca6c7f37cb" y="652.644386"/>
     <use style="fill:#ff0000;stroke:#ff0000;" x="544.35759" xlink:href="#mca6c7f37cb" y="650.105938"/>
     <use style="fill:#ff0000;stroke:#ff0000;" x="540.90173" xlink:href="#mca6c7f37cb" y="645.347575"/>
     <use style="fill:#ff0000;stroke:#ff0000;" x="536.239506" xlink:href="#mca6c7f37cb" y="642.90916"/>
     <use style="fill:#ff0000;stroke:#ff0000;" x="532.861722" xlink:href="#mca6c7f37cb" y="637.326419"/>
    </g>
   </g>
   <g id="line2d_25">
    <path clip-path="url(#p956939fbb1)" d="M 489.054285 585.430764 
L 494.119114 592.941619 
L 499.27836 600.271756 
L 504.537675 607.403477 
L 509.904043 614.319303 
L 515.386061 621.001882 
L 520.994261 627.433825 
L 526.741442 633.597443 
L 532.642991 639.474339 
L 538.71715 645.044831 
" style="fill:none;stroke:#000000;stroke-dasharray:3.7,1.6;stroke-dashoffset:0;"/>
   </g>
   <g id="line2d_26">
    <path clip-path="url(#p956939fbb1)" d="M 427.40717 536.528392 
L 432.699168 540.543888 
L 438.017466 544.539438 
L 443.359417 548.505115 
L 448.722253 552.430979 
L 454.103058 556.307055 
L 459.498739 560.123324 
L 464.905993 563.869711 
L 470.321275 567.536085 
L 475.740756 571.112249 
" style="fill:none;stroke:#000000;stroke-dasharray:3.7,1.6;stroke-dashoffset:0;"/>
   </g>
   <g id="line2d_27">
    <path clip-path="url(#p956939fbb1)" d="M 437.977077 894.539736 
L 429.472884 895.410256 
L 420.796628 895.867949 
L 411.957876 895.895166 
L 403.004635 895.500581 
L 393.981044 894.705539 
L 384.933221 893.528582 
L 375.910267 891.9865 
L 366.963983 890.095027 
L 358.148613 887.86942 
" style="fill:none;stroke:#000000;stroke-dasharray:3.7,1.6;stroke-dashoffset:0;"/>
   </g>
   <g id="line2d_28">
    <path clip-path="url(#p956939fbb1)" d="M 505.814199 851.947093 
L 500.934068 856.443074 
L 495.954513 860.8716 
L 490.855896 865.219287 
L 485.618339 869.471975 
L 480.2218 873.614554 
L 474.646206 877.630789 
L 468.871652 881.503164 
L 462.878668 885.21276 
L 456.648543 888.739195 
" style="fill:none;stroke:#000000;stroke-dasharray:3.7,1.6;stroke-dashoffset:0;"/>
   </g>
   <g id="line2d_29">
    <path clip-path="url(#p956939fbb1)" d="M 852.725473 556.76372 
L 851.062055 565.637318 
L 849.262785 574.441264 
L 847.330769 583.168821 
L 845.269097 591.813148 
L 843.080851 600.367293 
L 840.769121 608.824193 
L 838.336987 617.176653 
L 835.787036 625.417529 
L 833.112178 633.532327 
" style="fill:none;stroke:#000000;stroke-dasharray:3.7,1.6;stroke-dashoffset:0;"/>
   </g>
   <g id="line2d_30">
    <path clip-path="url(#p956939fbb1)" d="M 843.702994 478.023092 
L 845.151652 484.471046 
L 846.515814 490.959834 
L 847.795908 497.485982 
L 848.992396 504.046061 
L 850.105764 510.636681 
L 851.136525 517.254494 
L 852.085213 523.896197 
L 852.952377 530.558526 
L 853.738585 537.238262 
" style="fill:none;stroke:#000000;stroke-dasharray:3.7,1.6;stroke-dashoffset:0;"/>
   </g>
   <g id="line2d_31">
    <path clip-path="url(#p956939fbb1)" d="M 502.727023 168.804178 
L 511.595954 169.996514 
L 520.413979 171.355749 
L 529.176187 172.880988 
L 537.877621 174.57132 
L 546.513285 176.425815 
L 555.078138 178.443518 
L 563.567104 180.62344 
L 571.975065 182.964555 
L 580.296872 185.465793 
" style="fill:none;stroke:#000000;stroke-dasharray:3.7,1.6;stroke-dashoffset:0;"/>
   </g>
   <g id="line2d_32">
    <path clip-path="url(#p956939fbb1)" d="M 424.669215 183.017508 
L 431.011738 181.091273 
L 437.398579 179.253468 
L 443.827668 177.504757 
L 450.296952 175.845791 
L 456.804395 174.277218 
L 463.347977 172.799679 
L 469.925697 171.413811 
L 476.535573 170.120253 
L 483.17564 168.919642 
" style="fill:none;stroke:#000000;stroke-dasharray:3.7,1.6;stroke-dashoffset:0;"/>
   </g>
   <g id="patch_7">
    <path d="M 135 939.4128 
L 135 126.6624 
" style="fill:none;stroke:#000000;stroke-linecap:square;stroke-linejoin:miter;stroke-width:0.8;"/>
   </g>
   <g id="patch_8">
    <path d="M 972 939.4128 
L 972 126.6624 
" style="fill:none;stroke:#000000;stroke-linecap:square;stroke-linejoin:miter;stroke-width:0.8;"/>
   </g>
   <g id="patch_9">
    <path d="M 135 939.4128 
L 972 939.4128 
" style="fill:none;stroke:#000000;stroke-linecap:square;stroke-linejoin:miter;stroke-width:0.8;"/>
   </g>
   <g id="patch_10">
    <path d="M 135 126.6624 
L 972 126.6624 
" style="fill:none;stroke:#000000;stroke-linecap:square;stroke-linejoin:miter;stroke-width:0.8;"/>
   </g>
   <g id="legend_1">
    <g id="patch_11">
     <path d="M 753.013125 929.9128 
L 958.7 929.9128 
Q 962.5 929.9128 962.5 926.1128 
L 962.5 822.770612 
Q 962.5 818.970613 958.7 818.970613 
L 753.013125 818.970613 
Q 749.213125 818.970613 749.213125 822.770612 
L 749.213125 926.1128 
Q 749.213125 929.9128 753.013125 929.9128 
z
" style="fill:#ffffff;opacity:0.8;stroke:#cccccc;stroke-linejoin:miter;"/>
    </g>
    <g id="line2d_33">
     <path d="M 751.113125 828.657644 
L 777.713125 828.657644 
" style="fill:none;stroke:#008000;stroke-linecap:square;stroke-width:0.5;"/>
    </g>
    <g id="line2d_34"/>
    <g id="text_18">
     <!-- reference track -->
     <defs>
      <path d="M 41.109375 46.296875 
Q 39.59375 47.171875 37.8125 47.578125 
Q 36.03125 48 33.890625 48 
Q 26.265625 48 22.1875 43.046875 
Q 18.109375 38.09375 18.109375 28.8125 
L 18.109375 0 
L 9.078125 0 
L 9.078125 54.6875 
L 18.109375 54.6875 
L 18.109375 46.1875 
Q 20.953125 51.171875 25.484375 53.578125 
Q 30.03125 56 36.53125 56 
Q 37.453125 56 38.578125 55.875 
Q 39.703125 55.765625 41.0625 55.515625 
z
" id="DejaVuSans-114"/>
      <path d="M 56.203125 29.59375 
L 56.203125 25.203125 
L 14.890625 25.203125 
Q 15.484375 15.921875 20.484375 11.0625 
Q 25.484375 6.203125 34.421875 6.203125 
Q 39.59375 6.203125 44.453125 7.46875 
Q 49.3125 8.734375 54.109375 11.28125 
L 54.109375 2.78125 
Q 49.265625 0.734375 44.1875 -0.34375 
Q 39.109375 -1.421875 33.890625 -1.421875 
Q 20.796875 -1.421875 13.15625 6.1875 
Q 5.515625 13.8125 5.515625 26.8125 
Q 5.515625 40.234375 12.765625 48.109375 
Q 20.015625 56 32.328125 56 
Q 43.359375 56 49.78125 48.890625 
Q 56.203125 41.796875 56.203125 29.59375 
z
M 47.21875 32.234375 
Q 47.125 39.59375 43.09375 43.984375 
Q 39.0625 48.390625 32.421875 48.390625 
Q 24.90625 48.390625 20.390625 44.140625 
Q 15.875 39.890625 15.1875 32.171875 
z
" id="DejaVuSans-101"/>
      <path d="M 37.109375 75.984375 
L 37.109375 68.5 
L 28.515625 68.5 
Q 23.6875 68.5 21.796875 66.546875 
Q 19.921875 64.59375 19.921875 59.515625 
L 19.921875 54.6875 
L 34.71875 54.6875 
L 34.71875 47.703125 
L 19.921875 47.703125 
L 19.921875 0 
L 10.890625 0 
L 10.890625 47.703125 
L 2.296875 47.703125 
L 2.296875 54.6875 
L 10.890625 54.6875 
L 10.890625 58.5 
Q 10.890625 67.625 15.140625 71.796875 
Q 19.390625 75.984375 28.609375 75.984375 
z
" id="DejaVuSans-102"/>
      <path d="M 54.890625 33.015625 
L 54.890625 0 
L 45.90625 0 
L 45.90625 32.71875 
Q 45.90625 40.484375 42.875 44.328125 
Q 39.84375 48.1875 33.796875 48.1875 
Q 26.515625 48.1875 22.3125 43.546875 
Q 18.109375 38.921875 18.109375 30.90625 
L 18.109375 0 
L 9.078125 0 
L 9.078125 54.6875 
L 18.109375 54.6875 
L 18.109375 46.1875 
Q 21.34375 51.125 25.703125 53.5625 
Q 30.078125 56 35.796875 56 
Q 45.21875 56 50.046875 50.171875 
Q 54.890625 44.34375 54.890625 33.015625 
z
" id="DejaVuSans-110"/>
      <path d="M 48.78125 52.59375 
L 48.78125 44.1875 
Q 44.96875 46.296875 41.140625 47.34375 
Q 37.3125 48.390625 33.40625 48.390625 
Q 24.65625 48.390625 19.8125 42.84375 
Q 14.984375 37.3125 14.984375 27.296875 
Q 14.984375 17.28125 19.8125 11.734375 
Q 24.65625 6.203125 33.40625 6.203125 
Q 37.3125 6.203125 41.140625 7.25 
Q 44.96875 8.296875 48.78125 10.40625 
L 48.78125 2.09375 
Q 45.015625 0.34375 40.984375 -0.53125 
Q 36.96875 -1.421875 32.421875 -1.421875 
Q 20.0625 -1.421875 12.78125 6.34375 
Q 5.515625 14.109375 5.515625 27.296875 
Q 5.515625 40.671875 12.859375 48.328125 
Q 20.21875 56 33.015625 56 
Q 37.15625 56 41.109375 55.140625 
Q 45.0625 54.296875 48.78125 52.59375 
z
" id="DejaVuSans-99"/>
      <path d="M 18.3125 70.21875 
L 18.3125 54.6875 
L 36.8125 54.6875 
L 36.8125 47.703125 
L 18.3125 47.703125 
L 18.3125 18.015625 
Q 18.3125 11.328125 20.140625 9.421875 
Q 21.96875 7.515625 27.59375 7.515625 
L 36.8125 7.515625 
L 36.8125 0 
L 27.59375 0 
Q 17.1875 0 13.234375 3.875 
Q 9.28125 7.765625 9.28125 18.015625 
L 9.28125 47.703125 
L 2.6875 47.703125 
L 2.6875 54.6875 
L 9.28125 54.6875 
L 9.28125 70.21875 
z
" id="DejaVuSans-116"/>
      <path d="M 34.28125 27.484375 
Q 23.390625 27.484375 19.1875 25 
Q 14.984375 22.515625 14.984375 16.5 
Q 14.984375 11.71875 18.140625 8.90625 
Q 21.296875 6.109375 26.703125 6.109375 
Q 34.1875 6.109375 38.703125 11.40625 
Q 43.21875 16.703125 43.21875 25.484375 
L 43.21875 27.484375 
z
M 52.203125 31.203125 
L 52.203125 0 
L 43.21875 0 
L 43.21875 8.296875 
Q 40.140625 3.328125 35.546875 0.953125 
Q 30.953125 -1.421875 24.3125 -1.421875 
Q 15.921875 -1.421875 10.953125 3.296875 
Q 6 8.015625 6 15.921875 
Q 6 25.140625 12.171875 29.828125 
Q 18.359375 34.515625 30.609375 34.515625 
L 43.21875 34.515625 
L 43.21875 35.40625 
Q 43.21875 41.609375 39.140625 45 
Q 35.0625 48.390625 27.6875 48.390625 
Q 23 48.390625 18.546875 47.265625 
Q 14.109375 46.140625 10.015625 43.890625 
L 10.015625 52.203125 
Q 14.9375 54.109375 19.578125 55.046875 
Q 24.21875 56 28.609375 56 
Q 40.484375 56 46.34375 49.84375 
Q 52.203125 43.703125 52.203125 31.203125 
z
" id="DejaVuSans-97"/>
      <path d="M 9.078125 75.984375 
L 18.109375 75.984375 
L 18.109375 31.109375 
L 44.921875 54.6875 
L 56.390625 54.6875 
L 27.390625 29.109375 
L 57.625 0 
L 45.90625 0 
L 18.109375 26.703125 
L 18.109375 0 
L 9.078125 0 
z
" id="DejaVuSans-107"/>
     </defs>
     <g transform="translate(784.743125 835.307644)scale(0.19 -0.19)">
      <use xlink:href="#DejaVuSans-114"/>
      <use x="41.082031" xlink:href="#DejaVuSans-101"/>
      <use x="102.605469" xlink:href="#DejaVuSans-102"/>
      <use x="137.810547" xlink:href="#DejaVuSans-101"/>
      <use x="199.333984" xlink:href="#DejaVuSans-114"/>
      <use x="240.416016" xlink:href="#DejaVuSans-101"/>
      <use x="301.939453" xlink:href="#DejaVuSans-110"/>
      <use x="365.318359" xlink:href="#DejaVuSans-99"/>
      <use x="420.298828" xlink:href="#DejaVuSans-101"/>
      <use x="481.822266" xlink:href="#DejaVuSans-32"/>
      <use x="513.609375" xlink:href="#DejaVuSans-116"/>
      <use x="552.818359" xlink:href="#DejaVuSans-114"/>
      <use x="593.931641" xlink:href="#DejaVuSans-97"/>
      <use x="655.210938" xlink:href="#DejaVuSans-99"/>
      <use x="710.191406" xlink:href="#DejaVuSans-107"/>
     </g>
    </g>
    <g id="line2d_35">
     <path d="M 751.113125 850.846081 
L 777.713125 850.846081 
" style="fill:none;stroke:#ff0000;stroke-linecap:square;stroke-width:2;"/>
    </g>
    <g id="line2d_36"/>
    <g id="text_19">
     <!-- Trajectory -->
     <defs>
      <path d="M -0.296875 72.90625 
L 61.375 72.90625 
L 61.375 64.59375 
L 35.5 64.59375 
L 35.5 0 
L 25.59375 0 
L 25.59375 64.59375 
L -0.296875 64.59375 
z
" id="DejaVuSans-84"/>
      <path d="M 9.421875 54.6875 
L 18.40625 54.6875 
L 18.40625 -0.984375 
Q 18.40625 -11.421875 14.421875 -16.109375 
Q 10.453125 -20.796875 1.609375 -20.796875 
L -1.8125 -20.796875 
L -1.8125 -13.1875 
L 0.59375 -13.1875 
Q 5.71875 -13.1875 7.5625 -10.8125 
Q 9.421875 -8.453125 9.421875 -0.984375 
z
M 9.421875 75.984375 
L 18.40625 75.984375 
L 18.40625 64.59375 
L 9.421875 64.59375 
z
" id="DejaVuSans-106"/>
      <path d="M 30.609375 48.390625 
Q 23.390625 48.390625 19.1875 42.75 
Q 14.984375 37.109375 14.984375 27.296875 
Q 14.984375 17.484375 19.15625 11.84375 
Q 23.34375 6.203125 30.609375 6.203125 
Q 37.796875 6.203125 41.984375 11.859375 
Q 46.1875 17.53125 46.1875 27.296875 
Q 46.1875 37.015625 41.984375 42.703125 
Q 37.796875 48.390625 30.609375 48.390625 
z
M 30.609375 56 
Q 42.328125 56 49.015625 48.375 
Q 55.71875 40.765625 55.71875 27.296875 
Q 55.71875 13.875 49.015625 6.21875 
Q 42.328125 -1.421875 30.609375 -1.421875 
Q 18.84375 -1.421875 12.171875 6.21875 
Q 5.515625 13.875 5.515625 27.296875 
Q 5.515625 40.765625 12.171875 48.375 
Q 18.84375 56 30.609375 56 
z
" id="DejaVuSans-111"/>
     </defs>
     <g transform="translate(784.743125 857.496081)scale(0.19 -0.19)">
      <use xlink:href="#DejaVuSans-84"/>
      <use x="60.865234" xlink:href="#DejaVuSans-114"/>
      <use x="101.978516" xlink:href="#DejaVuSans-97"/>
      <use x="163.257812" xlink:href="#DejaVuSans-106"/>
      <use x="191.041016" xlink:href="#DejaVuSans-101"/>
      <use x="252.564453" xlink:href="#DejaVuSans-99"/>
      <use x="307.544922" xlink:href="#DejaVuSans-116"/>
      <use x="346.753906" xlink:href="#DejaVuSans-111"/>
      <use x="407.935547" xlink:href="#DejaVuSans-114"/>
      <use x="449.048828" xlink:href="#DejaVuSans-121"/>
     </g>
    </g>
    <g id="line2d_37">
     <path d="M 751.113125 873.034519 
L 777.713125 873.034519 
" style="fill:none;stroke:#0000ff;stroke-linecap:square;"/>
    </g>
    <g id="line2d_38">
     <g>
      <use style="fill:#0000ff;stroke:#0000ff;" x="764.413125" xlink:href="#m861bc3f9bf" y="873.034519"/>
     </g>
    </g>
    <g id="text_20">
     <!-- Local Reference -->
     <defs>
      <path d="M 9.8125 72.90625 
L 19.671875 72.90625 
L 19.671875 8.296875 
L 55.171875 8.296875 
L 55.171875 0 
L 9.8125 0 
z
" id="DejaVuSans-76"/>
      <path d="M 9.421875 75.984375 
L 18.40625 75.984375 
L 18.40625 0 
L 9.421875 0 
z
" id="DejaVuSans-108"/>
      <path d="M 44.390625 34.1875 
Q 47.5625 33.109375 50.5625 29.59375 
Q 53.5625 26.078125 56.59375 19.921875 
L 66.609375 0 
L 56 0 
L 46.6875 18.703125 
Q 43.0625 26.03125 39.671875 28.421875 
Q 36.28125 30.8125 30.421875 30.8125 
L 19.671875 30.8125 
L 19.671875 0 
L 9.8125 0 
L 9.8125 72.90625 
L 32.078125 72.90625 
Q 44.578125 72.90625 50.734375 67.671875 
Q 56.890625 62.453125 56.890625 51.90625 
Q 56.890625 45.015625 53.6875 40.46875 
Q 50.484375 35.9375 44.390625 34.1875 
z
M 19.671875 64.796875 
L 19.671875 38.921875 
L 32.078125 38.921875 
Q 39.203125 38.921875 42.84375 42.21875 
Q 46.484375 45.515625 46.484375 51.90625 
Q 46.484375 58.296875 42.84375 61.546875 
Q 39.203125 64.796875 32.078125 64.796875 
z
" id="DejaVuSans-82"/>
     </defs>
     <g transform="translate(784.743125 879.684519)scale(0.19 -0.19)">
      <use xlink:href="#DejaVuSans-76"/>
      <use x="55.697266" xlink:href="#DejaVuSans-111"/>
      <use x="116.878906" xlink:href="#DejaVuSans-99"/>
      <use x="171.859375" xlink:href="#DejaVuSans-97"/>
      <use x="233.138672" xlink:href="#DejaVuSans-108"/>
      <use x="260.921875" xlink:href="#DejaVuSans-32"/>
      <use x="292.708984" xlink:href="#DejaVuSans-82"/>
      <use x="362.128906" xlink:href="#DejaVuSans-101"/>
      <use x="423.652344" xlink:href="#DejaVuSans-102"/>
      <use x="458.857422" xlink:href="#DejaVuSans-101"/>
      <use x="520.380859" xlink:href="#DejaVuSans-114"/>
      <use x="561.462891" xlink:href="#DejaVuSans-101"/>
      <use x="622.986328" xlink:href="#DejaVuSans-110"/>
      <use x="686.365234" xlink:href="#DejaVuSans-99"/>
      <use x="741.345703" xlink:href="#DejaVuSans-101"/>
     </g>
    </g>
    <g id="line2d_39">
     <path d="M 751.113125 895.222956 
L 777.713125 895.222956 
" style="fill:none;stroke:#008000;stroke-linecap:square;stroke-opacity:0.5;stroke-width:1.5;"/>
    </g>
    <g id="line2d_40">
     <g>
      <use style="fill:#008000;fill-opacity:0.5;stroke:#008000;stroke-opacity:0.5;" x="764.413125" xlink:href="#m574d437bed" y="895.222956"/>
     </g>
    </g>
    <g id="text_21">
     <!-- current position -->
     <defs>
      <path d="M 8.5 21.578125 
L 8.5 54.6875 
L 17.484375 54.6875 
L 17.484375 21.921875 
Q 17.484375 14.15625 20.5 10.265625 
Q 23.53125 6.390625 29.59375 6.390625 
Q 36.859375 6.390625 41.078125 11.03125 
Q 45.3125 15.671875 45.3125 23.6875 
L 45.3125 54.6875 
L 54.296875 54.6875 
L 54.296875 0 
L 45.3125 0 
L 45.3125 8.40625 
Q 42.046875 3.421875 37.71875 1 
Q 33.40625 -1.421875 27.6875 -1.421875 
Q 18.265625 -1.421875 13.375 4.4375 
Q 8.5 10.296875 8.5 21.578125 
z
M 31.109375 56 
z
" id="DejaVuSans-117"/>
      <path d="M 18.109375 8.203125 
L 18.109375 -20.796875 
L 9.078125 -20.796875 
L 9.078125 54.6875 
L 18.109375 54.6875 
L 18.109375 46.390625 
Q 20.953125 51.265625 25.265625 53.625 
Q 29.59375 56 35.59375 56 
Q 45.5625 56 51.78125 48.09375 
Q 58.015625 40.1875 58.015625 27.296875 
Q 58.015625 14.40625 51.78125 6.484375 
Q 45.5625 -1.421875 35.59375 -1.421875 
Q 29.59375 -1.421875 25.265625 0.953125 
Q 20.953125 3.328125 18.109375 8.203125 
z
M 48.6875 27.296875 
Q 48.6875 37.203125 44.609375 42.84375 
Q 40.53125 48.484375 33.40625 48.484375 
Q 26.265625 48.484375 22.1875 42.84375 
Q 18.109375 37.203125 18.109375 27.296875 
Q 18.109375 17.390625 22.1875 11.75 
Q 26.265625 6.109375 33.40625 6.109375 
Q 40.53125 6.109375 44.609375 11.75 
Q 48.6875 17.390625 48.6875 27.296875 
z
" id="DejaVuSans-112"/>
      <path d="M 44.28125 53.078125 
L 44.28125 44.578125 
Q 40.484375 46.53125 36.375 47.5 
Q 32.28125 48.484375 27.875 48.484375 
Q 21.1875 48.484375 17.84375 46.4375 
Q 14.5 44.390625 14.5 40.28125 
Q 14.5 37.15625 16.890625 35.375 
Q 19.28125 33.59375 26.515625 31.984375 
L 29.59375 31.296875 
Q 39.15625 29.25 43.1875 25.515625 
Q 47.21875 21.78125 47.21875 15.09375 
Q 47.21875 7.46875 41.1875 3.015625 
Q 35.15625 -1.421875 24.609375 -1.421875 
Q 20.21875 -1.421875 15.453125 -0.5625 
Q 10.6875 0.296875 5.421875 2 
L 5.421875 11.28125 
Q 10.40625 8.6875 15.234375 7.390625 
Q 20.0625 6.109375 24.8125 6.109375 
Q 31.15625 6.109375 34.5625 8.28125 
Q 37.984375 10.453125 37.984375 14.40625 
Q 37.984375 18.0625 35.515625 20.015625 
Q 33.0625 21.96875 24.703125 23.78125 
L 21.578125 24.515625 
Q 13.234375 26.265625 9.515625 29.90625 
Q 5.8125 33.546875 5.8125 39.890625 
Q 5.8125 47.609375 11.28125 51.796875 
Q 16.75 56 26.8125 56 
Q 31.78125 56 36.171875 55.265625 
Q 40.578125 54.546875 44.28125 53.078125 
z
" id="DejaVuSans-115"/>
      <path d="M 9.421875 54.6875 
L 18.40625 54.6875 
L 18.40625 0 
L 9.421875 0 
z
M 9.421875 75.984375 
L 18.40625 75.984375 
L 18.40625 64.59375 
L 9.421875 64.59375 
z
" id="DejaVuSans-105"/>
     </defs>
     <g transform="translate(784.743125 901.872956)scale(0.19 -0.19)">
      <use xlink:href="#DejaVuSans-99"/>
      <use x="54.980469" xlink:href="#DejaVuSans-117"/>
      <use x="118.359375" xlink:href="#DejaVuSans-114"/>
      <use x="159.457031" xlink:href="#DejaVuSans-114"/>
      <use x="200.539062" xlink:href="#DejaVuSans-101"/>
      <use x="262.0625" xlink:href="#DejaVuSans-110"/>
      <use x="325.441406" xlink:href="#DejaVuSans-116"/>
      <use x="364.650391" xlink:href="#DejaVuSans-32"/>
      <use x="396.4375" xlink:href="#DejaVuSans-112"/>
      <use x="459.914062" xlink:href="#DejaVuSans-111"/>
      <use x="521.095703" xlink:href="#DejaVuSans-115"/>
      <use x="573.195312" xlink:href="#DejaVuSans-105"/>
      <use x="600.978516" xlink:href="#DejaVuSans-116"/>
      <use x="640.1875" xlink:href="#DejaVuSans-105"/>
      <use x="667.970703" xlink:href="#DejaVuSans-111"/>
      <use x="729.152344" xlink:href="#DejaVuSans-110"/>
     </g>
    </g>
    <g id="line2d_41">
     <path d="M 751.113125 917.411394 
L 777.713125 917.411394 
" style="fill:none;stroke:#ff0000;stroke-linecap:square;stroke-width:0.5;"/>
    </g>
    <g id="line2d_42">
     <g>
      <use style="fill:#ff0000;stroke:#ff0000;" x="764.413125" xlink:href="#mca6c7f37cb" y="917.411394"/>
     </g>
    </g>
    <g id="text_22">
     <!-- Ground Truth Path -->
     <defs>
      <path d="M 59.515625 10.40625 
L 59.515625 29.984375 
L 43.40625 29.984375 
L 43.40625 38.09375 
L 69.28125 38.09375 
L 69.28125 6.78125 
Q 63.578125 2.734375 56.6875 0.65625 
Q 49.8125 -1.421875 42 -1.421875 
Q 24.90625 -1.421875 15.25 8.5625 
Q 5.609375 18.5625 5.609375 36.375 
Q 5.609375 54.25 15.25 64.234375 
Q 24.90625 74.21875 42 74.21875 
Q 49.125 74.21875 55.546875 72.453125 
Q 61.96875 70.703125 67.390625 67.28125 
L 67.390625 56.78125 
Q 61.921875 61.421875 55.765625 63.765625 
Q 49.609375 66.109375 42.828125 66.109375 
Q 29.4375 66.109375 22.71875 58.640625 
Q 16.015625 51.171875 16.015625 36.375 
Q 16.015625 21.625 22.71875 14.15625 
Q 29.4375 6.6875 42.828125 6.6875 
Q 48.046875 6.6875 52.140625 7.59375 
Q 56.25 8.5 59.515625 10.40625 
z
" id="DejaVuSans-71"/>
      <path d="M 45.40625 46.390625 
L 45.40625 75.984375 
L 54.390625 75.984375 
L 54.390625 0 
L 45.40625 0 
L 45.40625 8.203125 
Q 42.578125 3.328125 38.25 0.953125 
Q 33.9375 -1.421875 27.875 -1.421875 
Q 17.96875 -1.421875 11.734375 6.484375 
Q 5.515625 14.40625 5.515625 27.296875 
Q 5.515625 40.1875 11.734375 48.09375 
Q 17.96875 56 27.875 56 
Q 33.9375 56 38.25 53.625 
Q 42.578125 51.265625 45.40625 46.390625 
z
M 14.796875 27.296875 
Q 14.796875 17.390625 18.875 11.75 
Q 22.953125 6.109375 30.078125 6.109375 
Q 37.203125 6.109375 41.296875 11.75 
Q 45.40625 17.390625 45.40625 27.296875 
Q 45.40625 37.203125 41.296875 42.84375 
Q 37.203125 48.484375 30.078125 48.484375 
Q 22.953125 48.484375 18.875 42.84375 
Q 14.796875 37.203125 14.796875 27.296875 
z
" id="DejaVuSans-100"/>
      <path d="M 54.890625 33.015625 
L 54.890625 0 
L 45.90625 0 
L 45.90625 32.71875 
Q 45.90625 40.484375 42.875 44.328125 
Q 39.84375 48.1875 33.796875 48.1875 
Q 26.515625 48.1875 22.3125 43.546875 
Q 18.109375 38.921875 18.109375 30.90625 
L 18.109375 0 
L 9.078125 0 
L 9.078125 75.984375 
L 18.109375 75.984375 
L 18.109375 46.1875 
Q 21.34375 51.125 25.703125 53.5625 
Q 30.078125 56 35.796875 56 
Q 45.21875 56 50.046875 50.171875 
Q 54.890625 44.34375 54.890625 33.015625 
z
" id="DejaVuSans-104"/>
      <path d="M 19.671875 64.796875 
L 19.671875 37.40625 
L 32.078125 37.40625 
Q 38.96875 37.40625 42.71875 40.96875 
Q 46.484375 44.53125 46.484375 51.125 
Q 46.484375 57.671875 42.71875 61.234375 
Q 38.96875 64.796875 32.078125 64.796875 
z
M 9.8125 72.90625 
L 32.078125 72.90625 
Q 44.34375 72.90625 50.609375 67.359375 
Q 56.890625 61.8125 56.890625 51.125 
Q 56.890625 40.328125 50.609375 34.8125 
Q 44.34375 29.296875 32.078125 29.296875 
L 19.671875 29.296875 
L 19.671875 0 
L 9.8125 0 
z
" id="DejaVuSans-80"/>
     </defs>
     <g transform="translate(784.743125 924.061394)scale(0.19 -0.19)">
      <use xlink:href="#DejaVuSans-71"/>
      <use x="77.490234" xlink:href="#DejaVuSans-114"/>
      <use x="118.572266" xlink:href="#DejaVuSans-111"/>
      <use x="179.753906" xlink:href="#DejaVuSans-117"/>
      <use x="243.132812" xlink:href="#DejaVuSans-110"/>
      <use x="306.511719" xlink:href="#DejaVuSans-100"/>
      <use x="369.988281" xlink:href="#DejaVuSans-32"/>
      <use x="401.775391" xlink:href="#DejaVuSans-84"/>
      <use x="462.640625" xlink:href="#DejaVuSans-114"/>
      <use x="503.753906" xlink:href="#DejaVuSans-117"/>
      <use x="567.132812" xlink:href="#DejaVuSans-116"/>
      <use x="606.341797" xlink:href="#DejaVuSans-104"/>
      <use x="669.720703" xlink:href="#DejaVuSans-32"/>
      <use x="701.507812" xlink:href="#DejaVuSans-80"/>
      <use x="761.748047" xlink:href="#DejaVuSans-97"/>
      <use x="823.027344" xlink:href="#DejaVuSans-116"/>
      <use x="862.236328" xlink:href="#DejaVuSans-104"/>
     </g>
    </g>
   </g>
  </g>
 </g>
 <defs>
  <clipPath id="p956939fbb1">
   <rect height="812.7504" width="837" x="135" y="126.6624"/>
  </clipPath>
 </defs>
</svg>
