<?xml version="1.0" encoding="utf-8" standalone="no"?>
<!DOCTYPE svg PUBLIC "-//W3C//DTD SVG 1.1//EN"
  "http://www.w3.org/Graphics/SVG/1.1/DTD/svg11.dtd">
<svg xmlns:xlink="http://www.w3.org/1999/xlink" width="720pt" height="576pt" viewBox="0 0 720 576" xmlns="http://www.w3.org/2000/svg" version="1.1">
 <metadata>
  <rdf:RDF xmlns:dc="http://purl.org/dc/elements/1.1/" xmlns:cc="http://creativecommons.org/ns#" xmlns:rdf="http://www.w3.org/1999/02/22-rdf-syntax-ns#">
   <cc:Work>
    <dc:type rdf:resource="http://purl.org/dc/dcmitype/StillImage"/>
    <dc:date>2024-12-17T22:20:46.262291</dc:date>
    <dc:format>image/svg+xml</dc:format>
    <dc:creator>
     <cc:Agent>
      <dc:title>Matplotlib v3.7.5, https://matplotlib.org/</dc:title>
     </cc:Agent>
    </dc:creator>
   </cc:Work>
  </rdf:RDF>
 </metadata>
 <defs>
  <style type="text/css">*{stroke-linejoin: round; stroke-linecap: butt}</style>
 </defs>
 <g id="figure_1">
  <g id="patch_1">
   <path d="M 0 576 
L 720 576 
L 720 0 
L 0 0 
L 0 576 
z
" style="fill: none"/>
  </g>
  <g id="axes_1">
   <g id="patch_2">
    <path d="M 90 512.64 
L 648 512.64 
L 648 69.12 
L 90 69.12 
L 90 512.64 
z
" style="fill: none"/>
   </g>
   <g id="line2d_1">
    <path d="M 229.14166 152.40296 
L 243.23877 162.958894 
L 254.218658 171.445224 
L 263.513477 178.902449 
L 271.416382 185.513383 
L 278.880948 192.052394 
L 285.290301 197.946734 
L 291.467537 203.914511 
L 297.470893 210.018106 
L 303.358603 216.319899 
L 309.188901 222.882271 
L 315.020021 229.767604 
L 321.570839 237.872628 
L 328.274452 246.538966 
L 335.914385 256.797114 
L 346.029287 270.37331 
L 351.204088 276.974416 
L 355.680256 282.349164 
L 359.428867 286.541775 
L 363.186049 290.40413 
L 366.192786 293.212167 
L 369.196129 295.733304 
L 372.192131 297.933969 
L 374.431943 299.353962 
L 376.66374 300.560643 
L 378.88586 301.539847 
L 381.096636 302.277414 
L 383.294404 302.759182 
L 385.477512 302.970933 
L 387.64332 302.902083 
L 389.784139 302.560519 
L 391.890415 301.960953 
L 393.952649 301.117909 
L 395.961319 300.045983 
L 397.90691 298.759748 
L 399.779907 297.273784 
L 401.570793 295.602668 
L 403.270052 293.76098 
L 404.868168 291.763298 
L 406.355626 289.624201 
L 407.722908 287.358265 
L 408.9605 284.980072 
L 410.058885 282.504197 
L 411.008546 279.945221 
L 411.799969 277.317721 
L 412.423637 274.636276 
L 412.870033 271.915464 
L 413.129642 269.169864 
L 413.192949 266.414055 
L 413.050435 263.662613 
L 412.692587 260.930119 
L 412.109887 258.231151 
L 411.292821 255.580285 
L 410.231868 252.992104 
L 408.917527 250.481176 
L 407.340225 248.06212 
L 405.490679 245.749349 
L 403.358699 243.557916 
L 400.947663 241.493358 
L 398.283804 239.54519 
L 395.39844 237.699362 
L 391.259696 235.373982 
L 386.854602 233.173991 
L 381.084783 230.550991 
L 358.91484 220.793382 
L 354.687387 218.564183 
L 351.720911 216.806289 
L 348.963577 214.959503 
L 346.446157 213.010157 
L 344.199402 210.944598 
L 342.254153 208.749106 
L 341.139864 207.206631 
L 340.182403 205.596259 
L 339.391412 203.913531 
L 338.771821 202.157668 
L 338.321789 200.333181 
L 338.033538 198.44922 
L 337.90031 196.514138 
L 337.976488 193.533825 
L 338.363333 190.485564 
L 339.037889 187.39766 
L 339.977165 184.298445 
L 341.158179 181.216243 
L 342.557947 178.179382 
L 344.153485 175.216187 
L 345.921809 172.354987 
L 347.83994 169.624097 
L 349.884875 167.05188 
L 352.033688 164.666559 
L 354.263413 162.496428 
L 356.558494 160.55651 
L 358.914085 158.842652 
L 361.326304 157.348974 
L 363.791274 156.069581 
L 366.305108 154.998606 
L 368.863922 154.130167 
L 371.463832 153.45839 
L 374.100952 152.977397 
L 376.7714 152.681311 
L 379.471289 152.564256 
L 382.196736 152.620353 
L 385.863707 152.954343 
L 389.560001 153.571783 
L 393.27641 154.458743 
L 397.003726 155.601292 
L 400.732741 156.9855 
L 404.454248 158.597437 
L 408.15904 160.423172 
L 411.837907 162.448776 
L 416.38601 165.240622 
L 420.861237 168.295788 
L 425.245605 171.587065 
L 429.521129 175.087248 
L 433.669832 178.769137 
L 437.673798 182.605663 
L 441.518971 186.57755 
L 445.19682 190.67667 
L 448.699215 194.895715 
L 452.018036 199.227387 
L 455.145161 203.664391 
L 458.072468 208.199429 
L 460.791836 212.825205 
L 463.295143 217.534422 
L 465.574268 222.319785 
L 467.621089 227.173995 
L 469.427484 232.089758 
L 470.985332 237.059775 
L 472.286511 242.076751 
L 473.322901 247.133389 
L 474.086378 252.222392 
L 474.495206 256.311994 
L 474.720014 260.413905 
L 474.756644 264.524388 
L 474.600938 268.639707 
L 474.248738 272.756126 
L 473.695882 276.869912 
L 472.938208 280.97733 
L 471.973921 285.073629 
L 470.80912 289.150666 
L 469.451677 293.199539 
L 467.90944 297.211352 
L 466.190259 301.177213 
L 463.804416 306.056367 
L 461.169698 310.832449 
L 458.301438 315.488087 
L 455.214967 320.00591 
L 451.92562 324.368544 
L 448.44873 328.558617 
L 444.799628 332.558758 
L 440.993649 336.351594 
L 437.046124 339.919754 
L 432.972386 343.245864 
L 428.78777 346.312553 
L 425.370547 348.567446 
L 421.900025 350.636297 
L 418.384054 352.510212 
L 414.830484 354.180294 
L 411.247166 355.637651 
L 407.641951 356.873387 
L 404.022688 357.878608 
L 400.397228 358.644421 
L 396.773422 359.161927 
L 393.159142 359.422179 
L 389.561501 359.418181 
L 385.983161 359.154411 
L 382.424742 358.64061 
L 378.88689 357.88645 
L 375.370251 356.901604 
L 371.87547 355.69575 
L 368.403191 354.278564 
L 364.954058 352.659722 
L 361.528718 350.848902 
L 357.281481 348.330148 
L 353.073686 345.545446 
L 348.90659 342.513696 
L 344.781454 339.253797 
L 339.88845 335.067373 
L 335.059857 330.612287 
L 330.297849 325.9212 
L 324.829235 320.193554 
L 319.457668 314.240994 
L 313.442002 307.229191 
L 306.837708 299.167126 
L 299.010989 289.218828 
L 287.393115 274.320557 
L 283.370934 269.515839 
L 280.027269 265.805507 
L 276.67905 262.420711 
L 273.989659 259.984197 
L 271.284432 257.819344 
L 268.557626 255.954295 
L 266.494905 254.769183 
L 264.414393 253.780411 
L 262.313666 252.999853 
L 260.190303 252.43938 
L 258.041879 252.110865 
L 255.865972 252.026179 
L 253.660161 252.197193 
L 251.422012 252.635798 
L 249.149178 253.353722 
L 246.843717 254.354203 
L 244.516857 255.622818 
L 242.180772 257.143315 
L 239.84769 258.899343 
L 237.529825 260.874579 
L 234.484122 263.820992 
L 231.516142 267.089374 
L 228.654842 270.641018 
L 225.929177 274.43722 
L 223.368102 278.439276 
L 221.000574 282.60848 
L 218.855548 286.906128 
L 216.961979 291.293515 
L 215.348824 295.731936 
L 214.340397 299.070959 
L 213.518196 302.400596 
L 212.894514 305.70446 
L 212.480799 308.966807 
L 212.279576 312.17871 
L 212.284702 315.337856 
L 212.490143 318.441853 
L 212.889719 321.488418 
L 213.477292 324.475237 
L 214.246712 327.400004 
L 215.191832 330.260411 
L 216.306507 333.054152 
L 217.584588 335.778918 
L 219.019928 338.432402 
L 221.167716 341.85551 
L 223.569578 345.142323 
L 226.210942 348.287371 
L 229.077238 351.285186 
L 232.153894 354.130297 
L 235.426341 356.817235 
L 238.880006 359.340532 
L 242.50032 361.694714 
L 246.272719 363.874306 
L 250.18167 365.875115 
L 255.201988 368.163808 
L 271.921933 375.49683 
L 275.446836 377.419753 
L 277.911875 378.980149 
L 280.196533 380.666444 
L 282.276273 382.500762 
L 284.126558 384.505223 
L 285.72285 386.701957 
L 286.633828 388.284122 
L 287.413713 389.968448 
L 288.055331 391.760528 
L 288.552464 393.656288 
L 288.901121 395.629222 
L 289.097553 397.650356 
L 289.137959 399.691246 
L 289.01857 401.723134 
L 288.735608 403.717318 
L 288.2853 405.645135 
L 287.663874 407.477899 
L 286.867509 409.186817 
L 285.892536 410.743455 
L 284.73514 412.119034 
L 283.390997 413.283539 
L 281.858436 414.213373 
L 280.145547 414.908541 
L 278.275226 415.404853 
L 276.270301 415.737954 
L 273.059712 416.007734 
L 267.35635 416.139614 
L 262.681296 416.278022 
L 259.219915 416.569668 
L 255.832402 417.058723 
L 252.526602 417.731612 
L 249.312134 418.578185 
L 246.198095 419.587284 
L 243.193708 420.747994 
L 240.308165 422.049344 
L 237.550667 423.480373 
L 234.930411 425.03012 
L 232.456596 426.687623 
L 230.138422 428.441921 
L 227.985085 430.282053 
L 226.005785 432.197056 
L 224.20972 434.17597 
L 222.606089 436.207833 
L 221.204091 438.281684 
L 220.012923 440.38656 
L 219.041785 442.511501 
L 218.299875 444.645545 
L 217.796392 446.77773 
L 217.540527 448.897098 
L 217.541517 450.992672 
L 217.808408 453.053549 
L 218.350631 455.06868 
L 219.167963 457.030691 
L 220.248826 458.936538 
L 221.579958 460.783816 
L 223.148358 462.570022 
L 224.940964 464.292675 
L 226.944729 465.94929 
L 229.146601 467.537382 
L 232.368043 469.543951 
L 235.887542 471.418394 
L 239.674166 473.154821 
L 243.696979 474.747342 
L 247.925048 476.190066 
L 252.327439 477.477105 
L 256.873219 478.602568 
L 261.531453 479.560565 
L 266.271208 480.345206 
L 271.061549 480.950601 
L 275.871544 481.370861 
L 280.670258 481.600095 
L 285.426757 481.632415 
L 290.110094 481.461922 
L 294.689378 481.082748 
L 299.134709 480.489508 
L 303.435945 479.686477 
L 307.601422 478.686961 
L 311.639857 477.504454 
L 315.560049 476.152488 
L 320.307415 474.244845 
L 324.900954 472.119998 
L 329.357847 469.804374 
L 333.695274 467.324404 
L 338.76668 464.168713 
L 344.536766 460.296991 
L 351.796108 455.12991 
L 368.566912 443.050471 
L 375.075598 438.674976 
L 380.892864 435.012496 
L 386.862104 431.538377 
L 392.127016 428.734616 
L 397.553012 426.112686 
L 402.214186 424.081107 
L 407.016267 422.201325 
L 411.972455 420.484938 
L 417.09581 418.943414 
L 422.382002 417.571562 
L 428.890868 416.100402 
L 438.85497 414.116183 
L 455.447014 410.860343 
L 461.886067 409.386164 
L 467.092762 408.010883 
L 472.113987 406.461988 
L 475.97175 405.07257 
L 479.66678 403.528652 
L 483.179565 401.811011 
L 486.491776 399.901609 
L 489.600705 397.798099 
L 492.514154 395.508687 
L 495.239973 393.041628 
L 497.78606 390.405224 
L 500.160311 387.607777 
L 502.37062 384.657587 
L 504.424884 381.562953 
L 506.330998 378.332176 
L 508.096855 374.973555 
L 510.11897 370.608145 
L 511.949692 366.07216 
L 513.604441 361.38181 
L 515.098637 356.553308 
L 516.701453 350.599569 
L 518.121926 344.498246 
L 519.584254 337.230895 
L 521.035947 328.774896 
L 522.253388 320.187211 
L 523.119909 312.584834 
L 523.795088 304.91794 
L 524.273338 297.203476 
L 524.549073 289.458391 
L 524.616708 281.699635 
L 524.470657 273.944157 
L 524.105333 266.208905 
L 523.515151 258.510828 
L 522.694524 250.866875 
L 521.637867 243.293995 
L 520.339594 235.809137 
L 519.030247 229.47645 
L 517.535764 223.231558 
L 515.852628 217.085135 
L 513.977321 211.047852 
L 511.906325 205.130385 
L 509.636123 199.343406 
L 507.163196 193.697589 
L 504.484027 188.203607 
L 501.595119 182.87211 
L 498.49605 177.710438 
L 495.192619 172.719223 
L 491.691388 167.898277 
L 487.998915 163.247416 
L 484.12176 158.766454 
L 480.066481 154.455207 
L 475.839637 150.313489 
L 471.447788 146.341115 
L 466.897492 142.537899 
L 462.19531 138.903657 
L 457.347798 135.438203 
L 452.361518 132.141352 
L 447.243027 129.01292 
L 441.998885 126.05272 
L 436.635651 123.260568 
L 431.159883 120.636278 
L 425.578142 118.179665 
L 419.896986 115.890545 
L 413.15207 113.431348 
L 406.291184 111.199581 
L 399.32474 109.194949 
L 392.263157 107.417158 
L 385.116847 105.865914 
L 377.896228 104.540923 
L 370.611715 103.441891 
L 363.273723 102.568524 
L 355.892668 101.920527 
L 348.478965 101.497608 
L 341.04303 101.29947 
L 333.595278 101.325822 
L 326.146125 101.576367 
L 318.705987 102.050814 
L 311.285278 102.748866 
L 303.894415 103.670231 
L 296.543813 104.814614 
L 289.243887 106.181722 
L 282.005053 107.771259 
L 274.837727 109.582933 
L 267.752323 111.616448 
L 260.759258 113.871512 
L 253.868948 116.347829 
L 247.091811 119.045114 
L 240.43829 121.963111 
L 234.84146 124.639552 
L 234.84146 124.639552 
" clip-path="url(#p1bf391dafc)" style="fill: none; stroke: #008000; stroke-width: 2; stroke-linecap: square"/>
   </g>
   <g id="patch_3">
    <path d="M 334.628952 318.823021 
L 327.528403 311.18648 
L 307.164293 330.121276 
L 314.264842 337.757817 
z
" clip-path="url(#p1bf391dafc)" style="stroke: #000000; stroke-linejoin: miter"/>
   </g>
   <g id="patch_4">
    <path d="M 307.387774 483.681139 
L 317.34589 480.587517 
L 309.096232 454.032543 
L 299.138117 457.126165 
z
" clip-path="url(#p1bf391dafc)" style="stroke: #000000; stroke-linejoin: miter"/>
   </g>
   <g id="patch_5">
    <path d="M 528.586919 303.533931 
L 529.127245 293.120353 
L 501.357705 291.679483 
L 500.817378 302.093061 
z
" clip-path="url(#p1bf391dafc)" style="stroke: #000000; stroke-linejoin: miter"/>
   </g>
   <g id="patch_6">
    <path d="M 341.921079 96.622175 
L 331.493675 96.683756 
L 331.65789 124.490167 
L 342.085295 124.428586 
z
" clip-path="url(#p1bf391dafc)" style="stroke: #000000; stroke-linejoin: miter"/>
   </g>
   <g id="matplotlib.axis_1">
    <g id="xtick_1">
     <g id="line2d_2">
      <defs>
       <path id="mee35f0c106" d="M 0 0 
L 0 3.5 
" style="stroke: #000000; stroke-width: 0.8"/>
      </defs>
      <g>
       <use xlink:href="#mee35f0c106" x="98.751724" y="512.64" style="stroke: #000000; stroke-width: 0.8"/>
      </g>
     </g>
     <g id="text_1">
      <!-- −2 -->
      <g transform="translate(84.009537 534.836875) scale(0.2 -0.2)">
       <defs>
        <path id="DejaVuSans-2212" d="M 678 2272 
L 4684 2272 
L 4684 1741 
L 678 1741 
L 678 2272 
z
" transform="scale(0.015625)"/>
        <path id="DejaVuSans-32" d="M 1228 531 
L 3431 531 
L 3431 0 
L 469 0 
L 469 531 
Q 828 903 1448 1529 
Q 2069 2156 2228 2338 
Q 2531 2678 2651 2914 
Q 2772 3150 2772 3378 
Q 2772 3750 2511 3984 
Q 2250 4219 1831 4219 
Q 1534 4219 1204 4116 
Q 875 4013 500 3803 
L 500 4441 
Q 881 4594 1212 4672 
Q 1544 4750 1819 4750 
Q 2544 4750 2975 4387 
Q 3406 4025 3406 3419 
Q 3406 3131 3298 2873 
Q 3191 2616 2906 2266 
Q 2828 2175 2409 1742 
Q 1991 1309 1228 531 
z
" transform="scale(0.015625)"/>
       </defs>
       <use xlink:href="#DejaVuSans-2212"/>
       <use xlink:href="#DejaVuSans-32" x="83.789062"/>
      </g>
     </g>
    </g>
    <g id="xtick_2">
     <g id="line2d_3">
      <g>
       <use xlink:href="#mee35f0c106" x="214.613793" y="512.64" style="stroke: #000000; stroke-width: 0.8"/>
      </g>
     </g>
     <g id="text_2">
      <!-- −1 -->
      <g transform="translate(199.871606 534.836875) scale(0.2 -0.2)">
       <defs>
        <path id="DejaVuSans-31" d="M 794 531 
L 1825 531 
L 1825 4091 
L 703 3866 
L 703 4441 
L 1819 4666 
L 2450 4666 
L 2450 531 
L 3481 531 
L 3481 0 
L 794 0 
L 794 531 
z
" transform="scale(0.015625)"/>
       </defs>
       <use xlink:href="#DejaVuSans-2212"/>
       <use xlink:href="#DejaVuSans-31" x="83.789062"/>
      </g>
     </g>
    </g>
    <g id="xtick_3">
     <g id="line2d_4">
      <g>
       <use xlink:href="#mee35f0c106" x="330.475862" y="512.64" style="stroke: #000000; stroke-width: 0.8"/>
      </g>
     </g>
     <g id="text_3">
      <!-- 0 -->
      <g transform="translate(324.113362 534.836875) scale(0.2 -0.2)">
       <defs>
        <path id="DejaVuSans-30" d="M 2034 4250 
Q 1547 4250 1301 3770 
Q 1056 3291 1056 2328 
Q 1056 1369 1301 889 
Q 1547 409 2034 409 
Q 2525 409 2770 889 
Q 3016 1369 3016 2328 
Q 3016 3291 2770 3770 
Q 2525 4250 2034 4250 
z
M 2034 4750 
Q 2819 4750 3233 4129 
Q 3647 3509 3647 2328 
Q 3647 1150 3233 529 
Q 2819 -91 2034 -91 
Q 1250 -91 836 529 
Q 422 1150 422 2328 
Q 422 3509 836 4129 
Q 1250 4750 2034 4750 
z
" transform="scale(0.015625)"/>
       </defs>
       <use xlink:href="#DejaVuSans-30"/>
      </g>
     </g>
    </g>
    <g id="xtick_4">
     <g id="line2d_5">
      <g>
       <use xlink:href="#mee35f0c106" x="446.337931" y="512.64" style="stroke: #000000; stroke-width: 0.8"/>
      </g>
     </g>
     <g id="text_4">
      <!-- 1 -->
      <g transform="translate(439.975431 534.836875) scale(0.2 -0.2)">
       <use xlink:href="#DejaVuSans-31"/>
      </g>
     </g>
    </g>
    <g id="xtick_5">
     <g id="line2d_6">
      <g>
       <use xlink:href="#mee35f0c106" x="562.2" y="512.64" style="stroke: #000000; stroke-width: 0.8"/>
      </g>
     </g>
     <g id="text_5">
      <!-- 2 -->
      <g transform="translate(555.8375 534.836875) scale(0.2 -0.2)">
       <use xlink:href="#DejaVuSans-32"/>
      </g>
     </g>
    </g>
    <g id="text_6">
     <!-- x [m] -->
     <g transform="translate(342.359375 558.193125) scale(0.2 -0.2)">
      <defs>
       <path id="DejaVuSans-78" d="M 3513 3500 
L 2247 1797 
L 3578 0 
L 2900 0 
L 1881 1375 
L 863 0 
L 184 0 
L 1544 1831 
L 300 3500 
L 978 3500 
L 1906 2253 
L 2834 3500 
L 3513 3500 
z
" transform="scale(0.015625)"/>
       <path id="DejaVuSans-20" transform="scale(0.015625)"/>
       <path id="DejaVuSans-5b" d="M 550 4863 
L 1875 4863 
L 1875 4416 
L 1125 4416 
L 1125 -397 
L 1875 -397 
L 1875 -844 
L 550 -844 
L 550 4863 
z
" transform="scale(0.015625)"/>
       <path id="DejaVuSans-6d" d="M 3328 2828 
Q 3544 3216 3844 3400 
Q 4144 3584 4550 3584 
Q 5097 3584 5394 3201 
Q 5691 2819 5691 2113 
L 5691 0 
L 5113 0 
L 5113 2094 
Q 5113 2597 4934 2840 
Q 4756 3084 4391 3084 
Q 3944 3084 3684 2787 
Q 3425 2491 3425 1978 
L 3425 0 
L 2847 0 
L 2847 2094 
Q 2847 2600 2669 2842 
Q 2491 3084 2119 3084 
Q 1678 3084 1418 2786 
Q 1159 2488 1159 1978 
L 1159 0 
L 581 0 
L 581 3500 
L 1159 3500 
L 1159 2956 
Q 1356 3278 1631 3431 
Q 1906 3584 2284 3584 
Q 2666 3584 2933 3390 
Q 3200 3197 3328 2828 
z
" transform="scale(0.015625)"/>
       <path id="DejaVuSans-5d" d="M 1947 4863 
L 1947 -844 
L 622 -844 
L 622 -397 
L 1369 -397 
L 1369 4416 
L 622 4416 
L 622 4863 
L 1947 4863 
z
" transform="scale(0.015625)"/>
      </defs>
      <use xlink:href="#DejaVuSans-78"/>
      <use xlink:href="#DejaVuSans-20" x="59.179688"/>
      <use xlink:href="#DejaVuSans-5b" x="90.966797"/>
      <use xlink:href="#DejaVuSans-6d" x="129.980469"/>
      <use xlink:href="#DejaVuSans-5d" x="227.392578"/>
     </g>
    </g>
   </g>
   <g id="matplotlib.axis_2">
    <g id="ytick_1">
     <g id="line2d_7">
      <defs>
       <path id="mb4b8462442" d="M 0 0 
L -3.5 0 
" style="stroke: #000000; stroke-width: 0.8"/>
      </defs>
      <g>
       <use xlink:href="#mb4b8462442" x="90" y="511.597241" style="stroke: #000000; stroke-width: 0.8"/>
      </g>
     </g>
     <g id="text_7">
      <!-- −2.0 -->
      <g transform="translate(34.434375 519.195679) scale(0.2 -0.2)">
       <defs>
        <path id="DejaVuSans-2e" d="M 684 794 
L 1344 794 
L 1344 0 
L 684 0 
L 684 794 
z
" transform="scale(0.015625)"/>
       </defs>
       <use xlink:href="#DejaVuSans-2212"/>
       <use xlink:href="#DejaVuSans-32" x="83.789062"/>
       <use xlink:href="#DejaVuSans-2e" x="147.412109"/>
       <use xlink:href="#DejaVuSans-30" x="179.199219"/>
      </g>
     </g>
    </g>
    <g id="ytick_2">
     <g id="line2d_8">
      <g>
       <use xlink:href="#mb4b8462442" x="90" y="453.666207" style="stroke: #000000; stroke-width: 0.8"/>
      </g>
     </g>
     <g id="text_8">
      <!-- −1.5 -->
      <g transform="translate(34.434375 461.264644) scale(0.2 -0.2)">
       <defs>
        <path id="DejaVuSans-35" d="M 691 4666 
L 3169 4666 
L 3169 4134 
L 1269 4134 
L 1269 2991 
Q 1406 3038 1543 3061 
Q 1681 3084 1819 3084 
Q 2600 3084 3056 2656 
Q 3513 2228 3513 1497 
Q 3513 744 3044 326 
Q 2575 -91 1722 -91 
Q 1428 -91 1123 -41 
Q 819 9 494 109 
L 494 744 
Q 775 591 1075 516 
Q 1375 441 1709 441 
Q 2250 441 2565 725 
Q 2881 1009 2881 1497 
Q 2881 1984 2565 2268 
Q 2250 2553 1709 2553 
Q 1456 2553 1204 2497 
Q 953 2441 691 2322 
L 691 4666 
z
" transform="scale(0.015625)"/>
       </defs>
       <use xlink:href="#DejaVuSans-2212"/>
       <use xlink:href="#DejaVuSans-31" x="83.789062"/>
       <use xlink:href="#DejaVuSans-2e" x="147.412109"/>
       <use xlink:href="#DejaVuSans-35" x="179.199219"/>
      </g>
     </g>
    </g>
    <g id="ytick_3">
     <g id="line2d_9">
      <g>
       <use xlink:href="#mb4b8462442" x="90" y="395.735172" style="stroke: #000000; stroke-width: 0.8"/>
      </g>
     </g>
     <g id="text_9">
      <!-- −1.0 -->
      <g transform="translate(34.434375 403.33361) scale(0.2 -0.2)">
       <use xlink:href="#DejaVuSans-2212"/>
       <use xlink:href="#DejaVuSans-31" x="83.789062"/>
       <use xlink:href="#DejaVuSans-2e" x="147.412109"/>
       <use xlink:href="#DejaVuSans-30" x="179.199219"/>
      </g>
     </g>
    </g>
    <g id="ytick_4">
     <g id="line2d_10">
      <g>
       <use xlink:href="#mb4b8462442" x="90" y="337.804138" style="stroke: #000000; stroke-width: 0.8"/>
      </g>
     </g>
     <g id="text_10">
      <!-- −0.5 -->
      <g transform="translate(34.434375 345.402575) scale(0.2 -0.2)">
       <use xlink:href="#DejaVuSans-2212"/>
       <use xlink:href="#DejaVuSans-30" x="83.789062"/>
       <use xlink:href="#DejaVuSans-2e" x="147.412109"/>
       <use xlink:href="#DejaVuSans-35" x="179.199219"/>
      </g>
     </g>
    </g>
    <g id="ytick_5">
     <g id="line2d_11">
      <g>
       <use xlink:href="#mb4b8462442" x="90" y="279.873103" style="stroke: #000000; stroke-width: 0.8"/>
      </g>
     </g>
     <g id="text_11">
      <!-- 0.0 -->
      <g transform="translate(51.19375 287.471541) scale(0.2 -0.2)">
       <use xlink:href="#DejaVuSans-30"/>
       <use xlink:href="#DejaVuSans-2e" x="63.623047"/>
       <use xlink:href="#DejaVuSans-30" x="95.410156"/>
      </g>
     </g>
    </g>
    <g id="ytick_6">
     <g id="line2d_12">
      <g>
       <use xlink:href="#mb4b8462442" x="90" y="221.942069" style="stroke: #000000; stroke-width: 0.8"/>
      </g>
     </g>
     <g id="text_12">
      <!-- 0.5 -->
      <g transform="translate(51.19375 229.540506) scale(0.2 -0.2)">
       <use xlink:href="#DejaVuSans-30"/>
       <use xlink:href="#DejaVuSans-2e" x="63.623047"/>
       <use xlink:href="#DejaVuSans-35" x="95.410156"/>
      </g>
     </g>
    </g>
    <g id="ytick_7">
     <g id="line2d_13">
      <g>
       <use xlink:href="#mb4b8462442" x="90" y="164.011034" style="stroke: #000000; stroke-width: 0.8"/>
      </g>
     </g>
     <g id="text_13">
      <!-- 1.0 -->
      <g transform="translate(51.19375 171.609472) scale(0.2 -0.2)">
       <use xlink:href="#DejaVuSans-31"/>
       <use xlink:href="#DejaVuSans-2e" x="63.623047"/>
       <use xlink:href="#DejaVuSans-30" x="95.410156"/>
      </g>
     </g>
    </g>
    <g id="ytick_8">
     <g id="line2d_14">
      <g>
       <use xlink:href="#mb4b8462442" x="90" y="106.08" style="stroke: #000000; stroke-width: 0.8"/>
      </g>
     </g>
     <g id="text_14">
      <!-- 1.5 -->
      <g transform="translate(51.19375 113.678438) scale(0.2 -0.2)">
       <use xlink:href="#DejaVuSans-31"/>
       <use xlink:href="#DejaVuSans-2e" x="63.623047"/>
       <use xlink:href="#DejaVuSans-35" x="95.410156"/>
      </g>
     </g>
    </g>
    <g id="text_15">
     <!-- y [m] -->
     <g transform="translate(26.275 317.520625) rotate(-90) scale(0.2 -0.2)">
      <defs>
       <path id="DejaVuSans-79" d="M 2059 -325 
Q 1816 -950 1584 -1140 
Q 1353 -1331 966 -1331 
L 506 -1331 
L 506 -850 
L 844 -850 
Q 1081 -850 1212 -737 
Q 1344 -625 1503 -206 
L 1606 56 
L 191 3500 
L 800 3500 
L 1894 763 
L 2988 3500 
L 3597 3500 
L 2059 -325 
z
" transform="scale(0.015625)"/>
      </defs>
      <use xlink:href="#DejaVuSans-79"/>
      <use xlink:href="#DejaVuSans-20" x="59.179688"/>
      <use xlink:href="#DejaVuSans-5b" x="90.966797"/>
      <use xlink:href="#DejaVuSans-6d" x="129.980469"/>
      <use xlink:href="#DejaVuSans-5d" x="227.392578"/>
     </g>
    </g>
   </g>
   <g id="line2d_15">
    <path d="M 217.3296 167.824055 
L 356.285297 306.78091 
L 361.608 311.326179 
L 367.576055 314.983945 
L 374.043476 317.662676 
L 380.849214 319.296331 
L 387.827586 319.845517 
L 394.805959 319.296331 
L 401.611697 317.662676 
L 408.079117 314.983945 
L 414.047172 311.326179 
L 419.369876 306.78091 
L 423.915145 301.458207 
L 427.57291 295.490152 
L 430.251641 289.022963 
L 431.885297 282.216646 
L 432.434483 275.238621 
L 431.885297 268.260248 
L 430.251641 261.45451 
L 427.57291 254.98709 
L 423.915145 249.019034 
L 419.369876 243.696331 
L 368.952497 193.208276 
L 368.270069 192.151614 
L 367.788083 190.989517 
L 367.523917 189.759062 
L 367.485683 188.501959 
L 367.675697 187.2576 
L 368.085848 186.068855 
L 368.704552 184.9728 
L 369.509793 184.005352 
L 370.476083 183.20011 
L 371.572138 182.582566 
L 372.762041 182.171255 
L 374.005241 181.9824 
L 376.644579 181.969655 
L 400.701021 182.006731 
L 404.420193 182.307972 
L 408.104607 182.905821 
L 411.728772 183.799117 
L 415.268359 184.98091 
L 418.70251 186.444248 
L 422.006897 188.178703 
L 425.161821 190.173848 
L 428.145269 192.415779 
L 430.938703 194.890593 
L 433.523586 197.582069 
L 435.884855 200.472828 
L 438.005131 203.544331 
L 439.87051 206.776883 
L 441.470566 210.148469 
L 442.79371 213.638234 
L 443.832993 217.223007 
L 444.579145 220.880772 
L 445.02869 224.584883 
L 445.17931 228.314483 
L 445.141076 281.50896 
L 445.027531 283.721578 
L 443.921048 288.03883 
L 442.530703 292.226317 
L 440.868083 296.265269 
L 438.94709 300.138538 
L 436.782786 303.829903 
L 434.391393 307.323145 
L 431.789131 310.606676 
L 428.993379 313.667752 
L 426.022676 316.494786 
L 422.895559 319.07851 
L 419.630566 321.410814 
L 416.248552 323.484745 
L 412.769214 325.296828 
L 409.21109 326.841269 
L 405.595034 328.118069 
L 401.941903 329.126069 
L 398.270234 329.865269 
L 394.598566 330.339145 
L 390.947752 330.551172 
L 387.335172 330.504828 
L 383.779366 330.207062 
L 380.296552 329.667145 
L 376.90411 328.892028 
L 373.617103 327.890979 
L 370.450593 326.676745 
L 367.417324 325.258593 
L 364.532359 323.651586 
L 361.803807 321.86731 
L 359.245572 319.920828 
L 356.864607 317.826041 
L 354.670179 315.598014 
L 352.669241 313.252966 
L 351.742345 312.041048 
L 349.573407 310.016938 
L 344.747752 305.073103 
L 278.018152 238.343503 
L 272.695448 233.798234 
L 266.727393 230.140469 
L 260.259972 227.461738 
L 253.454234 225.828083 
L 246.475862 225.278897 
L 239.49749 225.828083 
L 232.691752 227.461738 
L 226.224331 230.140469 
L 220.256276 233.798234 
L 214.933572 238.343503 
L 210.384828 243.666207 
L 206.735172 249.634262 
L 204.047172 256.101683 
L 202.413517 262.907421 
L 201.868966 269.885446 
L 201.868966 341.85931 
L 202.216552 347.955972 
L 203.236138 353.976166 
L 204.927724 359.844579 
L 207.256552 365.487062 
L 210.211034 370.831779 
L 213.744828 375.811531 
L 217.818538 380.36491 
L 222.371917 384.433986 
L 227.351669 387.967779 
L 232.696386 390.922262 
L 238.338869 393.2592 
L 244.207283 394.949628 
L 250.227476 395.966897 
L 256.324138 396.314483 
L 260.350345 396.407172 
L 260.843917 396.662069 
L 261.305048 397.183448 
L 261.525186 397.843862 
L 261.503172 398.4 
L 261.305048 398.921379 
L 260.843917 399.442759 
L 260.350345 399.697655 
L 259.8 399.790345 
L 246.475862 399.790345 
L 239.226372 400.358069 
L 232.154152 402.061241 
L 225.43531 404.841931 
L 219.235531 408.642207 
L 213.710069 413.369379 
L 208.982897 418.896 
L 205.182621 425.094621 
L 202.401931 431.814621 
L 200.698759 438.882207 
L 200.131034 446.135172 
L 200.698759 453.388138 
L 202.401931 460.455724 
L 205.182621 467.175724 
L 208.982897 473.374345 
L 213.710069 478.900966 
L 219.235531 483.628138 
L 225.43531 487.428414 
L 232.154152 490.209103 
L 239.226372 491.912276 
L 246.475862 492.48 
L 340.903448 492.48 
L 348.648828 491.808 
L 356.160166 489.792 
L 363.206897 486.501517 
L 369.575834 482.040828 
L 375.074648 476.548966 
L 379.534179 470.176552 
L 382.820028 463.132138 
L 384.832552 455.624276 
L 385.713103 447.062069 
L 386.123255 446.552276 
L 386.693297 446.227862 
L 387.154428 446.135172 
L 433.708966 446.030897 
L 438.4512 445.718069 
L 443.173738 445.208276 
L 447.86731 444.478345 
L 452.536552 443.551448 
L 457.147862 442.427586 
L 461.712828 441.095172 
L 466.208276 439.565793 
L 470.634207 437.839448 
L 474.990621 435.927724 
L 479.242759 433.830621 
L 483.413793 431.548138 
L 487.480552 429.080276 
L 491.431448 426.438621 
L 495.254897 423.634759 
L 498.962483 420.657103 
L 502.542621 417.517241 
L 505.972138 414.238345 
L 509.251034 410.808828 
L 512.390897 407.22869 
L 515.368552 403.521103 
L 518.172414 399.697655 
L 520.814069 395.746759 
L 523.281931 391.68 
L 525.564414 387.5136 
L 527.661517 383.252193 
L 529.573241 378.902731 
L 531.299586 374.474483 
L 532.828966 369.9744 
L 534.161379 365.41291 
L 535.285241 360.796966 
L 536.212138 356.136993 
L 536.942069 351.439945 
L 537.451862 346.717407 
L 537.76469 341.975172 
L 537.868966 333.479007 
L 537.787862 220.308414 
L 537.567724 215.784 
L 537.185379 211.270014 
L 536.664 206.769931 
L 535.980414 202.290703 
L 535.157793 197.836966 
L 534.172966 193.413352 
L 533.049103 189.024497 
L 531.786207 184.676193 
L 530.37269 180.371917 
L 528.808552 176.117462 
L 527.116966 171.917462 
L 525.274759 167.77771 
L 523.293517 163.698207 
L 521.184828 159.689379 
L 518.94869 155.750069 
L 516.573517 151.891862 
L 514.070897 148.114759 
L 511.440828 144.430345 
L 508.694897 140.827034 
L 505.833103 137.316414 
L 502.843862 133.910069 
L 499.750345 130.596414 
L 496.552552 127.398621 
L 493.238897 124.305103 
L 489.832552 121.315862 
L 486.321931 118.454069 
L 482.718621 115.708138 
L 479.034207 113.078069 
L 475.257103 110.575448 
L 471.398897 108.200276 
L 467.459586 105.964138 
L 463.450759 103.855448 
L 459.372414 101.874207 
L 455.236138 100.032 
L 451.030345 98.340414 
L 446.778207 96.776276 
L 442.472772 95.362759 
L 438.124469 94.099862 
L 433.735614 92.976 
L 429.312 91.991172 
L 424.858262 91.168552 
L 420.379034 90.484966 
L 415.878952 89.963586 
L 411.364966 89.581241 
L 406.840552 89.361103 
L 398.413903 89.28 
L 246.475862 89.28 
L 239.49749 89.824552 
L 232.691752 91.458207 
L 226.224331 94.146207 
L 220.256276 97.795862 
L 214.933572 102.349241 
L 210.384828 107.66731 
L 206.735172 113.634207 
L 204.047172 120.09931 
L 202.413517 126.912 
L 201.868966 133.886897 
L 202.413517 140.861793 
L 204.047172 147.674483 
L 206.735172 154.139586 
L 210.384828 160.106483 
L 214.933572 165.429186 
L 214.933572 165.429186 
" clip-path="url(#p1bf391dafc)" style="fill: none; stroke: #000000; stroke-width: 2; stroke-linecap: square"/>
   </g>
   <g id="line2d_16">
    <path d="M 247.642593 137.513379 
L 386.59829 276.46757 
L 387.038566 276.787117 
L 387.55531 276.955117 
L 388.099862 276.955117 
L 388.616607 276.787117 
L 389.056883 276.46757 
L 389.376662 276.027641 
L 389.544662 275.510549 
L 389.544662 274.966692 
L 389.376662 274.4496 
L 389.056883 274.009672 
L 337.133876 221.95829 
L 335.207206 219.646841 
L 333.423625 217.223007 
L 331.789622 214.696055 
L 330.31121 212.074097 
L 328.993754 209.368717 
L 327.842086 206.588028 
L 326.860386 203.743614 
L 326.052248 200.844745 
L 325.420568 197.901848 
L 324.967779 194.92651 
L 324.695503 191.929159 
L 324.604552 188.921379 
L 324.695503 185.9136 
L 324.967779 182.916248 
L 325.420568 179.94091 
L 326.052248 176.998014 
L 326.860386 174.099145 
L 327.842086 171.254731 
L 328.993754 168.474041 
L 330.31121 165.768662 
L 331.789622 163.142069 
L 333.423625 160.616276 
L 335.207206 158.194759 
L 337.133876 155.889103 
L 339.196684 153.687724 
L 341.387983 151.625379 
L 343.700359 149.702069 
L 346.124193 147.917793 
L 348.651145 146.284138 
L 351.271945 144.81269 
L 353.978483 143.491862 
L 356.758014 142.333241 
L 359.603586 141.36 
L 362.502455 140.548966 
L 365.445352 139.911724 
L 368.419531 139.459862 
L 371.416883 139.193379 
L 376.644579 139.10069 
L 402.426207 139.170207 
L 406.013297 139.390345 
L 409.587641 139.749517 
L 413.145766 140.25931 
L 416.679559 140.908138 
L 420.184386 141.696 
L 423.655614 142.622897 
L 427.085131 143.688828 
L 430.470621 144.893793 
L 433.802814 146.237793 
L 437.079393 147.709241 
L 440.294566 149.319724 
L 443.441379 151.057655 
L 446.511724 152.911448 
L 449.512552 154.89269 
L 452.432276 156.989793 
L 455.25931 159.214345 
L 457.993655 161.531586 
L 460.63531 163.976276 
L 463.17269 166.513655 
L 465.617379 169.15531 
L 467.934621 171.891972 
L 470.159172 174.720166 
L 472.256276 177.635255 
L 474.237517 180.632607 
L 476.09131 183.707586 
L 477.829241 186.8544 
L 479.439724 190.069572 
L 480.911172 193.346152 
L 482.255172 196.678345 
L 483.460138 200.063834 
L 484.526069 203.493352 
L 485.452966 206.964579 
L 486.240828 210.469407 
L 486.889655 214.0032 
L 487.399448 217.561324 
L 487.758621 221.135669 
L 487.978759 224.722759 
L 488.048276 233.681214 
L 487.990345 282.97253 
L 487.793379 286.646979 
L 487.156138 290.279255 
L 486.391448 293.876193 
L 485.510897 297.434317 
L 484.502897 300.948414 
L 483.379034 304.415007 
L 482.150897 307.830621 
L 480.79531 311.191779 
L 479.335448 314.493848 
L 477.77131 317.73451 
L 476.102897 320.907972 
L 474.330207 324.013076 
L 472.453241 327.046345 
L 470.483586 330.003145 
L 468.421241 332.881159 
L 466.266207 335.678069 
L 464.018483 338.389241 
L 461.689655 341.013517 
L 459.279724 343.548579 
L 456.78869 345.990952 
L 454.228138 348.338317 
L 451.586483 350.589517 
L 448.886897 352.741076 
L 446.127062 354.790676 
L 443.302345 356.738317 
L 440.423172 358.581683 
L 437.490703 360.319614 
L 434.509572 361.948634 
L 431.485572 363.469903 
L 428.419862 364.881103 
L 425.318234 366.181076 
L 422.184166 367.369821 
L 419.021131 368.446179 
L 415.833766 369.408993 
L 412.625545 370.259421 
L 409.401103 370.996303 
L 406.165076 371.618483 
L 402.919779 372.127117 
L 399.669848 372.523366 
L 396.419917 372.80491 
L 393.172303 372.974069 
L 386.704883 372.976386 
L 380.296552 372.53611 
L 377.124248 372.152607 
L 370.861903 371.063503 
L 364.733959 369.554979 
L 358.767062 367.642097 
L 352.986703 365.338759 
L 347.42069 362.660028 
L 342.092193 359.626759 
L 337.021837 356.25749 
L 332.232215 352.574234 
L 327.741981 348.597848 
L 314.434759 335.386097 
L 247.264883 268.336949 
L 246.748138 268.168717 
L 246.203586 268.168717 
L 245.686841 268.336949 
L 245.246566 268.656612 
L 244.926786 269.096425 
L 244.758786 269.613633 
L 244.737931 269.885446 
L 244.810924 343.156966 
L 245.028745 344.437241 
L 245.387917 345.686234 
L 245.884966 346.886566 
L 246.514097 348.023172 
L 247.266041 349.08331 
L 248.131531 350.051917 
L 249.100138 350.917407 
L 250.160276 351.669352 
L 251.296883 352.298483 
L 252.497214 352.795531 
L 253.746207 353.154703 
L 255.026483 353.372524 
L 256.324138 353.445517 
L 259.8 353.445517 
L 263.389407 353.590345 
L 266.955641 354.023669 
L 270.475531 354.742014 
L 273.925903 355.740745 
L 277.284745 357.015228 
L 280.530041 358.555034 
L 283.640938 360.350897 
L 286.597738 362.391228 
L 289.379586 364.663283 
L 291.970262 367.152 
L 294.352386 369.841159 
L 296.510897 372.713379 
L 298.430731 375.748966 
L 300.100303 378.929379 
L 301.508028 382.234924 
L 302.645793 385.642428 
L 303.50549 389.129876 
L 304.081324 392.675255 
L 304.370979 396.256552 
L 304.370979 399.848276 
L 304.081324 403.428414 
L 303.50549 406.973793 
L 302.645793 410.461241 
L 301.508028 413.867586 
L 300.100303 417.169655 
L 298.430731 420.355862 
L 296.510897 423.391448 
L 294.352386 426.264828 
L 291.970262 428.952828 
L 289.379586 431.443862 
L 286.597738 433.714759 
L 283.640938 435.753931 
L 280.530041 437.549793 
L 277.284745 439.090759 
L 273.925903 440.365241 
L 270.475531 441.361655 
L 266.955641 442.08 
L 263.389407 442.520276 
L 257.578924 442.65931 
L 245.932469 442.705655 
L 244.897821 443.041655 
L 244.018428 443.678897 
L 243.378869 444.559448 
L 243.042869 445.590621 
L 243.042869 446.679724 
L 243.378869 447.710897 
L 244.018428 448.591448 
L 244.897821 449.22869 
L 245.932469 449.56469 
L 246.475862 449.611034 
L 341.240028 449.587862 
L 341.772414 449.37931 
L 342.234703 448.985379 
L 342.579972 448.521931 
L 342.710897 447.873103 
L 342.903228 443.053241 
L 343.2288 440.654897 
L 343.684138 438.279724 
L 344.266924 435.93931 
L 344.976 433.633655 
L 345.809048 431.362759 
L 346.763752 429.138207 
L 347.837793 426.983172 
L 349.026538 424.874483 
L 350.327669 422.83531 
L 351.736552 420.877241 
L 353.250869 419.000276 
L 354.863669 417.192828 
L 356.572634 415.489655 
L 358.370814 413.879172 
L 360.253572 412.361379 
L 362.215117 410.947862 
L 364.250814 409.650207 
L 366.35371 408.456828 
L 368.518014 407.390897 
L 370.737931 406.429241 
L 373.005352 405.606621 
L 375.314483 404.888276 
L 377.659531 404.308966 
L 380.031228 403.857103 
L 382.424938 403.53269 
L 384.83371 403.335724 
L 389.702234 403.266207 
L 431.838952 403.208276 
L 434.714648 403.01131 
L 437.578759 402.698483 
L 440.426648 402.258207 
L 443.252524 401.702069 
L 446.051752 401.018483 
L 448.817379 400.207448 
L 451.551724 399.280552 
L 454.228138 398.237793 
L 456.869793 397.079172 
L 459.453517 395.80469 
L 461.97931 394.417821 
L 464.447172 392.9232 
L 466.833931 391.323145 
L 469.162759 389.618814 
L 471.410483 387.816 
L 473.577103 385.915862 
L 475.662621 383.923034 
L 477.643862 381.842152 
L 479.544 379.675531 
L 481.351448 377.427807 
L 483.054621 375.104772 
L 484.653517 372.708745 
L 486.148138 370.245517 
L 487.538483 367.719724 
L 488.812966 365.134841 
L 489.971586 362.497821 
L 491.014345 359.812138 
L 491.941241 357.083586 
L 492.752276 354.317959 
L 493.435862 351.518731 
L 493.992 348.692855 
L 494.432276 345.844966 
L 494.745103 342.980855 
L 494.942069 340.105159 
L 495 333.479007 
L 494.953655 221.741628 
L 494.536552 215.560386 
L 493.713931 209.422014 
L 492.474207 203.350841 
L 490.840552 197.376993 
L 488.801379 191.5248 
L 486.391448 185.822069 
L 483.599172 180.293131 
L 480.436138 174.963476 
L 476.937103 169.857434 
L 473.090483 164.995862 
L 468.942621 160.396138 
L 466.752828 158.206345 
L 462.153103 154.058483 
L 457.286897 150.211862 
L 454.77269 148.416 
L 449.54731 145.090759 
L 446.85931 143.549793 
L 441.326897 140.757517 
L 435.624166 138.347586 
L 429.771972 136.308414 
L 423.798124 134.674759 
L 417.726952 133.435034 
L 411.588579 132.612414 
L 405.407338 132.19531 
L 398.413903 132.148966 
L 245.938262 132.230069 
L 245.453959 132.484966 
L 245.069297 132.86731 
L 244.82251 133.353931 
L 244.737931 133.886897 
L 244.82251 134.419862 
L 245.069297 134.906483 
L 245.246566 135.115034 
L 245.246566 135.115034 
" clip-path="url(#p1bf391dafc)" style="fill: none; stroke: #000000; stroke-width: 2; stroke-linecap: square"/>
   </g>
   <g id="line2d_17">
    <path d="M 232.486676 152.668138 
L 340.29691 260.478952 
L 371.442372 291.623834 
L 374.206841 293.985103 
L 377.30731 295.885241 
L 380.66731 297.276745 
L 384.202262 298.126014 
L 387.827586 298.411034 
L 391.45291 298.126014 
L 394.987862 297.276745 
L 398.347862 295.885241 
L 401.448331 293.985103 
L 404.2128 291.623834 
L 406.574069 288.859018 
L 408.474207 285.758665 
L 409.86571 282.399244 
L 410.714979 278.863586 
L 411 275.238621 
L 410.714979 271.613644 
L 409.86571 268.078345 
L 408.474207 264.718345 
L 406.574069 261.617876 
L 404.2128 258.853407 
L 353.177876 207.74549 
L 351.063393 205.047062 
L 349.290703 202.113434 
L 347.884138 198.987476 
L 346.863393 195.714372 
L 346.245848 192.342786 
L 346.039614 188.921379 
L 346.245848 185.499972 
L 346.863393 182.128386 
L 347.884138 178.855283 
L 349.290703 175.729324 
L 351.063393 172.795697 
L 353.177876 170.097269 
L 355.60171 167.673434 
L 358.300138 165.56011 
L 361.233766 163.790897 
L 364.359724 162.377379 
L 367.631669 161.357793 
L 371.003255 160.743724 
L 372.711062 160.581517 
L 376.644579 160.535172 
L 401.564193 160.593103 
L 404.28811 160.75531 
L 409.706979 161.415724 
L 412.392662 161.902345 
L 417.692193 163.211586 
L 422.86891 164.940248 
L 427.891531 167.079062 
L 432.724138 169.616441 
L 437.337766 172.53269 
L 441.701131 175.812745 
L 443.780855 177.5808 
L 447.71669 181.362538 
L 449.570483 183.36811 
L 453.023172 187.597076 
L 456.11669 192.089048 
L 458.851034 196.816221 
L 461.191448 201.74731 
L 463.126345 206.851034 
L 464.644138 212.093793 
L 465.246621 214.756303 
L 466.115586 220.145048 
L 466.393655 222.860855 
L 466.613793 228.314483 
L 466.567448 282.240745 
L 466.416828 285.184337 
L 465.153931 290.957512 
L 463.520276 296.587366 
L 461.504276 302.047945 
L 459.14069 307.316193 
L 456.441103 312.368938 
L 453.417103 317.185324 
L 450.103448 321.744497 
L 446.500138 326.029076 
L 442.648883 330.021683 
L 438.56011 333.708414 
L 434.260469 337.075366 
L 429.775448 340.11211 
L 425.129379 342.808221 
L 420.347752 345.155586 
L 415.457214 347.149572 
L 410.480938 348.786703 
L 405.44789 350.062345 
L 400.381241 350.978814 
L 395.3088 351.537269 
L 390.253738 351.740028 
L 385.241545 351.591724 
L 380.296552 351.101628 
L 375.440772 350.27669 
L 370.698538 349.126179 
L 366.089545 347.662841 
L 361.634648 345.898262 
L 357.353545 343.848662 
L 353.264772 341.526786 
L 349.384552 338.952331 
L 345.727945 336.1392 
L 342.310014 333.109407 
L 339.141766 329.880331 
L 337.655371 328.196855 
L 334.41749 325.172855 
L 329.591012 320.230179 
L 262.861076 253.500579 
L 260.096607 251.138152 
L 256.996138 249.239172 
L 253.636138 247.847669 
L 250.101186 246.9984 
L 246.475862 246.713379 
L 242.850538 246.9984 
L 239.315586 247.847669 
L 235.955586 249.239172 
L 232.855117 251.138152 
L 230.090648 253.500579 
L 227.729379 256.265048 
L 225.829241 259.365517 
L 224.437738 262.724359 
L 223.588469 266.260469 
L 223.303448 269.885446 
L 223.303448 341.85931 
L 223.510841 345.556469 
L 224.131862 349.207283 
L 225.156083 352.765407 
L 226.573076 356.186814 
L 228.364303 359.427476 
L 230.507752 362.446841 
L 232.974455 365.208993 
L 235.736607 367.675697 
L 238.755972 369.819145 
L 241.996634 371.610372 
L 245.418041 373.027366 
L 248.976166 374.051586 
L 252.626979 374.672607 
L 256.324138 374.88 
L 261.664221 374.95531 
L 263.516855 375.180083 
L 265.345159 375.553159 
L 267.137545 376.072221 
L 268.882428 376.733793 
L 270.568221 377.5344 
L 272.184497 378.46709 
L 273.720828 379.527228 
L 275.165628 380.707862 
L 276.511945 382.000883 
L 277.749352 383.397021 
L 278.870897 384.889324 
L 279.868469 386.466207 
L 280.735117 388.1184 
L 281.466207 389.835476 
L 282.057103 391.605848 
L 282.504331 393.416772 
L 282.803255 395.258979 
L 282.953876 397.113931 
L 282.953876 398.990897 
L 282.803255 400.84469 
L 282.504331 402.686897 
L 282.057103 404.494345 
L 281.466207 406.267034 
L 280.735117 407.981793 
L 279.868469 409.638621 
L 278.870897 411.214345 
L 277.749352 412.708966 
L 276.511945 414.09931 
L 275.165628 415.396966 
L 273.720828 416.578759 
L 272.184497 417.633103 
L 270.568221 418.571586 
L 268.882428 419.371034 
L 267.137545 420.031448 
L 265.345159 420.552828 
L 263.516855 420.923586 
L 261.664221 421.15531 
L 257.578924 421.224828 
L 246.475862 421.224828 
L 242.579421 421.526069 
L 238.777986 422.441379 
L 235.166566 423.936 
L 231.834372 425.986759 
L 228.861352 428.524138 
L 226.322814 431.490207 
L 224.280166 434.827034 
L 222.784386 438.441931 
L 221.872552 442.242207 
L 221.565517 446.135172 
L 221.872552 450.028138 
L 222.784386 453.828414 
L 224.280166 457.44331 
L 226.322814 460.780138 
L 228.861352 463.746207 
L 231.834372 466.283586 
L 235.166566 468.334345 
L 238.777986 469.828966 
L 242.579421 470.744276 
L 246.475862 471.045517 
L 340.903448 471.045517 
L 344.927338 470.697931 
L 348.828414 469.643586 
L 352.489655 467.940414 
L 355.798676 465.623172 
L 358.654676 462.772966 
L 360.971917 459.45931 
L 362.678566 455.798069 
L 363.723641 451.893517 
L 364.618097 442.891034 
L 365.288938 440.469517 
L 366.216993 438.14069 
L 367.392993 435.927724 
L 368.800717 433.853793 
L 370.425103 431.942069 
L 372.246455 430.215724 
L 374.243917 428.697931 
L 376.394317 427.400276 
L 378.671007 426.345931 
L 381.048497 425.546483 
L 383.498979 425.001931 
L 385.99349 424.735448 
L 389.702234 424.70069 
L 432.773959 424.619586 
L 436.582345 424.36469 
L 440.376828 423.947586 
L 444.148138 423.368276 
L 447.890483 422.626759 
L 451.598069 421.723034 
L 455.25931 420.657103 
L 458.874207 419.428966 
L 462.431172 418.038621 
L 465.930207 416.509241 
L 469.348138 414.817655 
L 472.696552 412.975448 
L 475.963862 411.005793 
L 479.138483 408.885517 
L 482.208828 406.626207 
L 485.186483 404.239448 
L 488.059862 401.713655 
L 490.817379 399.083586 
L 493.447448 396.326069 
L 495.973241 393.45269 
L 498.36 390.476193 
L 500.61931 387.398897 
L 502.739586 384.225434 
L 504.709241 380.962759 
L 506.551448 377.616662 
L 508.243034 374.194097 
L 509.772414 370.700855 
L 511.162759 367.14389 
L 512.390897 363.528993 
L 513.456828 359.865434 
L 514.360552 356.157848 
L 515.102069 352.414345 
L 515.681379 348.643034 
L 516.098483 344.848552 
L 516.353379 341.040166 
L 516.434483 333.479007 
L 516.364966 221.0256 
L 516.179586 217.216055 
L 515.866759 213.415779 
L 515.414897 209.62709 
L 514.847172 205.856938 
L 514.152 202.106483 
L 513.329379 198.382676 
L 512.37931 194.687834 
L 511.313379 191.026593 
L 510.12 187.403586 
L 508.810759 183.821131 
L 507.374069 180.286179 
L 505.833103 176.79989 
L 504.16469 173.368055 
L 502.392 169.992993 
L 500.503448 166.679338 
L 498.499034 163.431724 
L 496.401931 160.245517 
L 494.188966 157.140414 
L 491.871724 154.104828 
L 489.461793 151.161931 
L 486.947586 148.288552 
L 484.34069 145.496276 
L 481.65269 142.808276 
L 478.860414 140.201379 
L 475.987034 137.687172 
L 473.044138 135.277241 
L 470.008552 132.96 
L 466.903448 130.747034 
L 460.473103 126.645517 
L 457.159448 124.756966 
L 453.776276 122.984276 
L 450.346759 121.315862 
L 446.85931 119.774897 
L 443.327834 118.338207 
L 439.745379 117.028966 
L 436.122372 115.835586 
L 432.461131 114.769655 
L 428.76629 113.819586 
L 425.042483 112.996966 
L 421.292028 112.301793 
L 417.521876 111.734069 
L 413.733186 111.282207 
L 409.93291 110.969379 
L 406.123366 110.784 
L 398.413903 110.714483 
L 246.475862 110.714483 
L 242.850538 111.004138 
L 239.315586 111.849931 
L 235.955586 113.240276 
L 232.855117 115.140414 
L 230.090648 117.504 
L 227.729379 120.261517 
L 225.829241 123.366621 
L 224.437738 126.726621 
L 223.588469 130.260414 
L 223.303448 133.886897 
L 223.588469 137.513379 
L 224.437738 141.047172 
L 225.829241 144.407172 
L 227.729379 147.512276 
L 230.090648 150.269793 
L 230.090648 150.269793 
" clip-path="url(#p1bf391dafc)" style="fill: none; stroke-dasharray: 1.85,0.8; stroke-dashoffset: 0; stroke: #000000; stroke-opacity: 0.5; stroke-width: 0.5"/>
   </g>
   <g id="line2d_18">
    <path d="M 334.628952 318.823021 
L 337.330309 322.828924 
L 340.082023 326.738435 
L 342.887111 330.542116 
L 345.749296 334.230643 
L 348.673164 337.79476 
L 351.664334 341.225193 
L 354.72963 344.512506 
L 357.877262 347.646887 
L 361.116957 350.617836 
" clip-path="url(#p1bf391dafc)" style="fill: none; stroke-dasharray: 3.7,1.6; stroke-dashoffset: 0; stroke: #000000"/>
   </g>
   <g id="line2d_19">
    <path d="M 301.749357 292.740305 
L 304.571873 294.882067 
L 307.408419 297.013191 
L 310.257582 299.128385 
L 313.117886 301.222344 
L 315.987775 303.289749 
L 318.8656 305.325254 
L 321.749599 307.323486 
L 324.637881 309.279041 
L 327.528403 311.18648 
" clip-path="url(#p1bf391dafc)" style="fill: none; stroke-dasharray: 3.7,1.6; stroke-dashoffset: 0; stroke: #000000"/>
   </g>
   <g id="line2d_20">
    <path d="M 307.387774 483.681139 
L 302.851748 484.145506 
L 298.223931 484.389653 
L 293.509431 484.404166 
L 288.73386 484.193676 
L 283.920767 483.769569 
L 279.094757 483.141738 
L 274.282025 482.319137 
L 269.51021 481.310162 
L 264.808249 480.122951 
" clip-path="url(#p1bf391dafc)" style="fill: none; stroke-dasharray: 3.7,1.6; stroke-dashoffset: 0; stroke: #000000"/>
   </g>
   <g id="line2d_21">
    <path d="M 343.564926 460.966879 
L 340.96245 463.364503 
L 338.30695 465.726153 
L 335.587955 468.044694 
L 332.794866 470.312575 
L 329.916996 472.52174 
L 326.943644 474.663533 
L 323.864195 476.728615 
L 320.668269 478.706899 
L 317.34589 480.587517 
" clip-path="url(#p1bf391dafc)" style="fill: none; stroke-dasharray: 3.7,1.6; stroke-dashoffset: 0; stroke: #000000"/>
   </g>
   <g id="line2d_22">
    <path d="M 528.586919 303.533931 
L 527.699723 308.266985 
L 526.740058 312.962886 
L 525.709581 317.618039 
L 524.609942 322.228793 
L 523.442783 326.791443 
L 522.209753 331.302217 
L 520.912496 335.757278 
L 519.552391 340.152814 
L 518.125649 344.48109 
" clip-path="url(#p1bf391dafc)" style="fill: none; stroke-dasharray: 3.7,1.6; stroke-dashoffset: 0; stroke: #000000"/>
   </g>
   <g id="line2d_23">
    <path d="M 523.775063 261.540601 
L 524.547647 264.97933 
L 525.27517 268.439836 
L 525.957863 271.920265 
L 526.59597 275.418789 
L 527.189752 278.933599 
L 527.739481 282.462912 
L 528.245443 286.004964 
L 528.70793 289.558017 
L 529.127245 293.120353 
" clip-path="url(#p1bf391dafc)" style="fill: none; stroke-dasharray: 3.7,1.6; stroke-dashoffset: 0; stroke: #000000"/>
   </g>
   <g id="line2d_24">
    <path d="M 341.921079 96.622175 
L 346.651581 97.258101 
L 351.35493 97.983055 
L 356.028505 98.79656 
L 360.669664 99.69813 
L 365.275739 100.687268 
L 369.844043 101.763466 
L 374.371868 102.926195 
L 378.856483 104.174909 
L 383.295141 105.509036 
" clip-path="url(#p1bf391dafc)" style="fill: none; stroke-dasharray: 3.7,1.6; stroke-dashoffset: 0; stroke: #000000"/>
   </g>
   <g id="line2d_25">
    <path d="M 300.292498 104.202268 
L 303.674936 103.175009 
L 307.081008 102.194907 
L 310.50961 101.262314 
L 313.959646 100.377578 
L 317.430032 99.541045 
L 320.919689 98.753056 
L 324.427552 98.013951 
L 327.952563 97.324071 
L 331.493675 96.683756 
" clip-path="url(#p1bf391dafc)" style="fill: none; stroke-dasharray: 3.7,1.6; stroke-dashoffset: 0; stroke: #000000"/>
   </g>
   <g id="patch_7">
    <path d="M 90 512.64 
L 90 69.12 
" style="fill: none; stroke: #000000; stroke-width: 0.8; stroke-linejoin: miter; stroke-linecap: square"/>
   </g>
   <g id="patch_8">
    <path d="M 648 512.64 
L 648 69.12 
" style="fill: none; stroke: #000000; stroke-width: 0.8; stroke-linejoin: miter; stroke-linecap: square"/>
   </g>
   <g id="patch_9">
    <path d="M 90 512.64 
L 648 512.64 
" style="fill: none; stroke: #000000; stroke-width: 0.8; stroke-linejoin: miter; stroke-linecap: square"/>
   </g>
   <g id="patch_10">
    <path d="M 90 69.12 
L 648 69.12 
" style="fill: none; stroke: #000000; stroke-width: 0.8; stroke-linejoin: miter; stroke-linecap: square"/>
   </g>
   <g id="legend_1">
    <g id="patch_11">
     <path d="M 415.6625 502.64 
L 634 502.64 
Q 638 502.64 638 498.64 
L 638 459.9275 
Q 638 455.9275 634 455.9275 
L 415.6625 455.9275 
Q 411.6625 455.9275 411.6625 459.9275 
L 411.6625 498.64 
Q 411.6625 502.64 415.6625 502.64 
z
" style="fill: #ffffff; opacity: 0.8; stroke: #cccccc; stroke-linejoin: miter"/>
    </g>
    <g id="line2d_26">
     <path d="M 413.6625 466.124375 
L 427.6625 466.124375 
L 441.6625 466.124375 
" style="fill: none; stroke: #008000; stroke-width: 2; stroke-linecap: square"/>
    </g>
    <g id="text_16">
     <!-- Reference raceline -->
     <g transform="translate(449.0625 473.124375) scale(0.2 -0.2)">
      <defs>
       <path id="DejaVuSans-52" d="M 2841 2188 
Q 3044 2119 3236 1894 
Q 3428 1669 3622 1275 
L 4263 0 
L 3584 0 
L 2988 1197 
Q 2756 1666 2539 1819 
Q 2322 1972 1947 1972 
L 1259 1972 
L 1259 0 
L 628 0 
L 628 4666 
L 2053 4666 
Q 2853 4666 3247 4331 
Q 3641 3997 3641 3322 
Q 3641 2881 3436 2590 
Q 3231 2300 2841 2188 
z
M 1259 4147 
L 1259 2491 
L 2053 2491 
Q 2509 2491 2742 2702 
Q 2975 2913 2975 3322 
Q 2975 3731 2742 3939 
Q 2509 4147 2053 4147 
L 1259 4147 
z
" transform="scale(0.015625)"/>
       <path id="DejaVuSans-65" d="M 3597 1894 
L 3597 1613 
L 953 1613 
Q 991 1019 1311 708 
Q 1631 397 2203 397 
Q 2534 397 2845 478 
Q 3156 559 3463 722 
L 3463 178 
Q 3153 47 2828 -22 
Q 2503 -91 2169 -91 
Q 1331 -91 842 396 
Q 353 884 353 1716 
Q 353 2575 817 3079 
Q 1281 3584 2069 3584 
Q 2775 3584 3186 3129 
Q 3597 2675 3597 1894 
z
M 3022 2063 
Q 3016 2534 2758 2815 
Q 2500 3097 2075 3097 
Q 1594 3097 1305 2825 
Q 1016 2553 972 2059 
L 3022 2063 
z
" transform="scale(0.015625)"/>
       <path id="DejaVuSans-66" d="M 2375 4863 
L 2375 4384 
L 1825 4384 
Q 1516 4384 1395 4259 
Q 1275 4134 1275 3809 
L 1275 3500 
L 2222 3500 
L 2222 3053 
L 1275 3053 
L 1275 0 
L 697 0 
L 697 3053 
L 147 3053 
L 147 3500 
L 697 3500 
L 697 3744 
Q 697 4328 969 4595 
Q 1241 4863 1831 4863 
L 2375 4863 
z
" transform="scale(0.015625)"/>
       <path id="DejaVuSans-72" d="M 2631 2963 
Q 2534 3019 2420 3045 
Q 2306 3072 2169 3072 
Q 1681 3072 1420 2755 
Q 1159 2438 1159 1844 
L 1159 0 
L 581 0 
L 581 3500 
L 1159 3500 
L 1159 2956 
Q 1341 3275 1631 3429 
Q 1922 3584 2338 3584 
Q 2397 3584 2469 3576 
Q 2541 3569 2628 3553 
L 2631 2963 
z
" transform="scale(0.015625)"/>
       <path id="DejaVuSans-6e" d="M 3513 2113 
L 3513 0 
L 2938 0 
L 2938 2094 
Q 2938 2591 2744 2837 
Q 2550 3084 2163 3084 
Q 1697 3084 1428 2787 
Q 1159 2491 1159 1978 
L 1159 0 
L 581 0 
L 581 3500 
L 1159 3500 
L 1159 2956 
Q 1366 3272 1645 3428 
Q 1925 3584 2291 3584 
Q 2894 3584 3203 3211 
Q 3513 2838 3513 2113 
z
" transform="scale(0.015625)"/>
       <path id="DejaVuSans-63" d="M 3122 3366 
L 3122 2828 
Q 2878 2963 2633 3030 
Q 2388 3097 2138 3097 
Q 1578 3097 1268 2742 
Q 959 2388 959 1747 
Q 959 1106 1268 751 
Q 1578 397 2138 397 
Q 2388 397 2633 464 
Q 2878 531 3122 666 
L 3122 134 
Q 2881 22 2623 -34 
Q 2366 -91 2075 -91 
Q 1284 -91 818 406 
Q 353 903 353 1747 
Q 353 2603 823 3093 
Q 1294 3584 2113 3584 
Q 2378 3584 2631 3529 
Q 2884 3475 3122 3366 
z
" transform="scale(0.015625)"/>
       <path id="DejaVuSans-61" d="M 2194 1759 
Q 1497 1759 1228 1600 
Q 959 1441 959 1056 
Q 959 750 1161 570 
Q 1363 391 1709 391 
Q 2188 391 2477 730 
Q 2766 1069 2766 1631 
L 2766 1759 
L 2194 1759 
z
M 3341 1997 
L 3341 0 
L 2766 0 
L 2766 531 
Q 2569 213 2275 61 
Q 1981 -91 1556 -91 
Q 1019 -91 701 211 
Q 384 513 384 1019 
Q 384 1609 779 1909 
Q 1175 2209 1959 2209 
L 2766 2209 
L 2766 2266 
Q 2766 2663 2505 2880 
Q 2244 3097 1772 3097 
Q 1472 3097 1187 3025 
Q 903 2953 641 2809 
L 641 3341 
Q 956 3463 1253 3523 
Q 1550 3584 1831 3584 
Q 2591 3584 2966 3190 
Q 3341 2797 3341 1997 
z
" transform="scale(0.015625)"/>
       <path id="DejaVuSans-6c" d="M 603 4863 
L 1178 4863 
L 1178 0 
L 603 0 
L 603 4863 
z
" transform="scale(0.015625)"/>
       <path id="DejaVuSans-69" d="M 603 3500 
L 1178 3500 
L 1178 0 
L 603 0 
L 603 3500 
z
M 603 4863 
L 1178 4863 
L 1178 4134 
L 603 4134 
L 603 4863 
z
" transform="scale(0.015625)"/>
      </defs>
      <use xlink:href="#DejaVuSans-52"/>
      <use xlink:href="#DejaVuSans-65" x="64.982422"/>
      <use xlink:href="#DejaVuSans-66" x="126.505859"/>
      <use xlink:href="#DejaVuSans-65" x="161.710938"/>
      <use xlink:href="#DejaVuSans-72" x="223.234375"/>
      <use xlink:href="#DejaVuSans-65" x="262.097656"/>
      <use xlink:href="#DejaVuSans-6e" x="323.621094"/>
      <use xlink:href="#DejaVuSans-63" x="387"/>
      <use xlink:href="#DejaVuSans-65" x="441.980469"/>
      <use xlink:href="#DejaVuSans-20" x="503.503906"/>
      <use xlink:href="#DejaVuSans-72" x="535.291016"/>
      <use xlink:href="#DejaVuSans-61" x="576.404297"/>
      <use xlink:href="#DejaVuSans-63" x="637.683594"/>
      <use xlink:href="#DejaVuSans-65" x="692.664062"/>
      <use xlink:href="#DejaVuSans-6c" x="754.1875"/>
      <use xlink:href="#DejaVuSans-69" x="781.970703"/>
      <use xlink:href="#DejaVuSans-6e" x="809.753906"/>
      <use xlink:href="#DejaVuSans-65" x="873.132812"/>
     </g>
    </g>
    <g id="line2d_27">
     <path d="M 413.6625 489.480625 
L 427.6625 489.480625 
L 441.6625 489.480625 
" style="fill: none; stroke-dasharray: 3.7,1.6; stroke-dashoffset: 0; stroke: #000000"/>
    </g>
    <g id="text_17">
     <!-- Safety boundary -->
     <g transform="translate(449.0625 496.480625) scale(0.2 -0.2)">
      <defs>
       <path id="DejaVuSans-53" d="M 3425 4513 
L 3425 3897 
Q 3066 4069 2747 4153 
Q 2428 4238 2131 4238 
Q 1616 4238 1336 4038 
Q 1056 3838 1056 3469 
Q 1056 3159 1242 3001 
Q 1428 2844 1947 2747 
L 2328 2669 
Q 3034 2534 3370 2195 
Q 3706 1856 3706 1288 
Q 3706 609 3251 259 
Q 2797 -91 1919 -91 
Q 1588 -91 1214 -16 
Q 841 59 441 206 
L 441 856 
Q 825 641 1194 531 
Q 1563 422 1919 422 
Q 2459 422 2753 634 
Q 3047 847 3047 1241 
Q 3047 1584 2836 1778 
Q 2625 1972 2144 2069 
L 1759 2144 
Q 1053 2284 737 2584 
Q 422 2884 422 3419 
Q 422 4038 858 4394 
Q 1294 4750 2059 4750 
Q 2388 4750 2728 4690 
Q 3069 4631 3425 4513 
z
" transform="scale(0.015625)"/>
       <path id="DejaVuSans-74" d="M 1172 4494 
L 1172 3500 
L 2356 3500 
L 2356 3053 
L 1172 3053 
L 1172 1153 
Q 1172 725 1289 603 
Q 1406 481 1766 481 
L 2356 481 
L 2356 0 
L 1766 0 
Q 1100 0 847 248 
Q 594 497 594 1153 
L 594 3053 
L 172 3053 
L 172 3500 
L 594 3500 
L 594 4494 
L 1172 4494 
z
" transform="scale(0.015625)"/>
       <path id="DejaVuSans-62" d="M 3116 1747 
Q 3116 2381 2855 2742 
Q 2594 3103 2138 3103 
Q 1681 3103 1420 2742 
Q 1159 2381 1159 1747 
Q 1159 1113 1420 752 
Q 1681 391 2138 391 
Q 2594 391 2855 752 
Q 3116 1113 3116 1747 
z
M 1159 2969 
Q 1341 3281 1617 3432 
Q 1894 3584 2278 3584 
Q 2916 3584 3314 3078 
Q 3713 2572 3713 1747 
Q 3713 922 3314 415 
Q 2916 -91 2278 -91 
Q 1894 -91 1617 61 
Q 1341 213 1159 525 
L 1159 0 
L 581 0 
L 581 4863 
L 1159 4863 
L 1159 2969 
z
" transform="scale(0.015625)"/>
       <path id="DejaVuSans-6f" d="M 1959 3097 
Q 1497 3097 1228 2736 
Q 959 2375 959 1747 
Q 959 1119 1226 758 
Q 1494 397 1959 397 
Q 2419 397 2687 759 
Q 2956 1122 2956 1747 
Q 2956 2369 2687 2733 
Q 2419 3097 1959 3097 
z
M 1959 3584 
Q 2709 3584 3137 3096 
Q 3566 2609 3566 1747 
Q 3566 888 3137 398 
Q 2709 -91 1959 -91 
Q 1206 -91 779 398 
Q 353 888 353 1747 
Q 353 2609 779 3096 
Q 1206 3584 1959 3584 
z
" transform="scale(0.015625)"/>
       <path id="DejaVuSans-75" d="M 544 1381 
L 544 3500 
L 1119 3500 
L 1119 1403 
Q 1119 906 1312 657 
Q 1506 409 1894 409 
Q 2359 409 2629 706 
Q 2900 1003 2900 1516 
L 2900 3500 
L 3475 3500 
L 3475 0 
L 2900 0 
L 2900 538 
Q 2691 219 2414 64 
Q 2138 -91 1772 -91 
Q 1169 -91 856 284 
Q 544 659 544 1381 
z
M 1991 3584 
L 1991 3584 
z
" transform="scale(0.015625)"/>
       <path id="DejaVuSans-64" d="M 2906 2969 
L 2906 4863 
L 3481 4863 
L 3481 0 
L 2906 0 
L 2906 525 
Q 2725 213 2448 61 
Q 2172 -91 1784 -91 
Q 1150 -91 751 415 
Q 353 922 353 1747 
Q 353 2572 751 3078 
Q 1150 3584 1784 3584 
Q 2172 3584 2448 3432 
Q 2725 3281 2906 2969 
z
M 947 1747 
Q 947 1113 1208 752 
Q 1469 391 1925 391 
Q 2381 391 2643 752 
Q 2906 1113 2906 1747 
Q 2906 2381 2643 2742 
Q 2381 3103 1925 3103 
Q 1469 3103 1208 2742 
Q 947 2381 947 1747 
z
" transform="scale(0.015625)"/>
      </defs>
      <use xlink:href="#DejaVuSans-53"/>
      <use xlink:href="#DejaVuSans-61" x="63.476562"/>
      <use xlink:href="#DejaVuSans-66" x="124.755859"/>
      <use xlink:href="#DejaVuSans-65" x="159.960938"/>
      <use xlink:href="#DejaVuSans-74" x="221.484375"/>
      <use xlink:href="#DejaVuSans-79" x="260.693359"/>
      <use xlink:href="#DejaVuSans-20" x="319.873047"/>
      <use xlink:href="#DejaVuSans-62" x="351.660156"/>
      <use xlink:href="#DejaVuSans-6f" x="415.136719"/>
      <use xlink:href="#DejaVuSans-75" x="476.318359"/>
      <use xlink:href="#DejaVuSans-6e" x="539.697266"/>
      <use xlink:href="#DejaVuSans-64" x="603.076172"/>
      <use xlink:href="#DejaVuSans-61" x="666.552734"/>
      <use xlink:href="#DejaVuSans-72" x="727.832031"/>
      <use xlink:href="#DejaVuSans-79" x="768.945312"/>
     </g>
    </g>
   </g>
  </g>
 </g>
 <defs>
  <clipPath id="p1bf391dafc">
   <rect x="90" y="69.12" width="558" height="443.52"/>
  </clipPath>
 </defs>
</svg>
